<svg fill="none" height="10" viewBox="0 0 10 10" width="10" xmlns="http://www.w3.org/2000/svg" xmlns:xlink="http://www.w3.org/1999/xlink"><clipPath id="a"><path d="m0 .124023h10v9.752h-10z"/></clipPath><g clip-path="url(#a)"><path d="m1.77083.125031h6.45834c.97916 0 1.77083.791666 1.77083 1.770829v6.20834c0 .97916-.79167 1.77083-1.77083 1.77083h-6.45834c-.979163 0-1.77083-.79167-1.77083-1.77083v-6.20834c0-.979163.791667-1.770829 1.77083-1.770829z" fill="#001e36"/><path d="m2.25 6.96252v-4.2875c0-.02917.0125-.04583.04167-.04583.07083 0 .1375 0 .23333-.00417.1-.00417.20417-.00417.31667-.00833.1125-.00417.23333-.00417.3625-.00834.12916-.00416.25416-.00416.37916-.00416.34167 0 .625.04166.85834.12916.20833.07084.4.1875.55833.34167.13333.13333.2375.29583.30417.475.0625.175.09583.35417.09583.54167 0 .35833-.08333.65416-.25.8875-.16667.23333-.4.40833-.67083.50833-.28334.10417-.59584.14167-.9375.14167-.1 0-.16667 0-.20834-.00417-.04166-.00417-.1-.00417-.17916-.00417v1.3375c.00416.02917-.01667.05417-.04584.05834h-.80833c-.03333 0-.05-.01667-.05-.05417zm.90833-3.52917v1.4c.05834.00417.1125.00834.1625.00834h.22084c.1625 0 .325-.025.47916-.075.13334-.0375.25-.11667.34167-.22084.0875-.10416.12917-.24583.12917-.42916.00416-.12917-.02917-.25834-.09584-.37084-.07083-.10833-.17083-.19166-.29166-.2375-.15417-.0625-.32084-.0875-.49167-.08333-.10833 0-.20417 0-.28333.00417-.08334-.00417-.14167 0-.17084.00416zm4.84167 1.14584c-.125-.06667-.25833-.1125-.4-.14167-.15417-.03333-.30833-.05417-.46667-.05417-.08333-.00416-.17083.00834-.25.02917-.05416.0125-.1.04167-.12916.08333-.02084.03334-.03334.075-.03334.1125s.01667.075.04167.10834c.0375.04583.0875.08333.14167.1125.09583.05.19583.09583.29583.1375.225.075.44167.17916.64167.30416.1375.0875.25.20417.32916.34584.06667.13333.1.27916.09584.42916.00416.19584-.05417.39167-.1625.55417-.11667.16667-.27917.29583-.46667.37083-.20417.0875-.45417.13334-.75417.13334-.19166 0-.37916-.01667-.56666-.05417-.14584-.025-.29167-.07083-.425-.13333-.02917-.01667-.05-.04584-.04584-.07917v-.725c0-.0125.00417-.02917.01667-.0375s.025-.00417.0375.00417c.1625.09583.33333.1625.51667.20416.15833.04167.325.0625.49166.0625.15834 0 .27084-.02083.34584-.05833.06666-.02917.1125-.1.1125-.175 0-.05833-.03334-.1125-.1-.16667-.06667-.05416-.20417-.11666-.40834-.19583-.2125-.075-.40833-.175-.59166-.3-.12917-.09167-.2375-.2125-.31667-.35417-.06667-.13333-.1-.27916-.09583-.425 0-.17916.05-.35.14166-.50416.10417-.16667.25834-.3.4375-.38334.19584-.1.44167-.14583.7375-.14583.17084 0 .34584.0125.51667.0375.125.01667.24583.05.35833.09583.01667.00417.03334.02084.04167.0375.00417.01667.00833.03334.00833.05v.67917c0 .01667-.00833.03333-.02083.04167-.0375.00833-.05833.00833-.075 0z" fill="#31a8ff"/></g></svg>