<svg width="10" height="10" viewBox="0 0 10 10" fill="none" xmlns="http://www.w3.org/2000/svg">
<g clip-path="url(#clip0_86_637)">
<path d="M1.77084 0.00100708H8.22916C9.20832 0.00100708 10 0.792687 10 1.77185V7.98017C10 8.95933 9.20832 9.75101 8.22916 9.75101H1.77084C0.79168 9.75101 0 8.95933 0 7.98017V1.77185C0 0.792687 0.79168 0.00100708 1.77084 0.00100708Z" fill="#00005B"/>
<path d="M4.01668 5.83432H2.46668L2.15 6.81764C2.14168 6.85512 2.10832 6.88012 2.07084 6.87596H1.28752C1.24168 6.87596 1.2292 6.85096 1.24168 6.80096L2.58336 2.95512C2.59584 2.91344 2.60836 2.87596 2.62504 2.82596C2.64172 2.73848 2.65004 2.6468 2.65004 2.55512C2.64588 2.53428 2.66252 2.51344 2.68336 2.50928H3.76252C3.79168 2.50928 3.81252 2.52176 3.81668 2.5426L5.33752 6.7926C5.35004 6.83844 5.33752 6.85928 5.29584 6.85928H4.425C4.39584 6.86344 4.36668 6.8426 4.35832 6.81344L4.01664 5.81344V5.83428L4.01668 5.83432ZM2.70836 5.00516H3.76668C3.74168 4.91768 3.70836 4.81348 3.67084 4.70516C3.63332 4.59268 3.59584 4.47184 3.55836 4.34684C3.51668 4.21768 3.4792 4.09268 3.43752 3.96352C3.39584 3.83436 3.35836 3.71352 3.32504 3.59268C3.29172 3.476 3.26256 3.36768 3.23336 3.26768H3.22504C3.18752 3.44684 3.14172 3.626 3.08336 3.8052C3.02088 4.0052 2.95836 4.21352 2.89168 4.42188C2.83752 4.63436 2.77084 4.8302 2.70836 5.0052V5.00516ZM7.79168 5.45932H6.47084C6.48752 5.58848 6.52916 5.71764 6.6 5.83016C6.675 5.94264 6.77916 6.03016 6.90416 6.08016C7.07084 6.151 7.25416 6.18848 7.43748 6.18432C7.58332 6.18016 7.72916 6.16764 7.8708 6.13848C7.99996 6.1218 8.12496 6.08848 8.24164 6.04264C8.26248 6.02596 8.27496 6.03432 8.27496 6.07596V6.71348C8.27496 6.73016 8.2708 6.7468 8.26664 6.76348C8.25832 6.776 8.24996 6.78432 8.23748 6.79264C8.10416 6.85096 7.96664 6.89264 7.8208 6.91764C7.62496 6.95512 7.42912 6.9718 7.22912 6.96764C6.91244 6.96764 6.6458 6.91764 6.42912 6.8218C6.22496 6.73428 6.0458 6.5968 5.90412 6.42596C5.7708 6.26348 5.67496 6.08012 5.61664 5.88012C5.55832 5.68428 5.52912 5.48012 5.52912 5.2718C5.52912 5.0468 5.56244 4.82596 5.63328 4.60928C5.69996 4.40096 5.80412 4.20928 5.94576 4.03844C6.08328 3.87176 6.25408 3.73844 6.44992 3.6426C6.64576 3.54676 6.87908 3.51344 7.14576 3.51344C7.3666 3.50928 7.58744 3.55096 7.7916 3.6426C7.96244 3.7176 8.11244 3.83012 8.22912 3.97592C8.33744 4.1176 8.42496 4.27592 8.47912 4.45092C8.53328 4.6176 8.55828 4.7884 8.55828 4.95924C8.55828 5.05924 8.55412 5.14676 8.54996 5.22592C8.54164 5.30508 8.53744 5.36344 8.53328 5.40092C8.52912 5.43008 8.50412 5.45508 8.47496 5.45508C8.44996 5.45508 8.40412 5.45924 8.33744 5.4634C8.27076 5.47172 8.1916 5.47592 8.09576 5.47592C7.99992 5.47592 7.89992 5.45924 7.7916 5.45924L7.79168 5.45932ZM6.47084 4.851H7.35C7.45832 4.851 7.53752 4.851 7.58748 4.84684C7.6208 4.84268 7.65416 4.83432 7.68332 4.81352V4.77184C7.68332 4.71768 7.675 4.66768 7.65832 4.61768C7.58332 4.38436 7.36248 4.226 7.11664 4.23436C6.88748 4.22184 6.6708 4.34268 6.56248 4.55104C6.51248 4.64688 6.48332 4.74688 6.4708 4.85104L6.47084 4.851Z" fill="#9999FF"/>
</g>
<defs>
<clipPath id="clip0_86_637">
<rect width="10" height="9.752" fill="white"/>
</clipPath>
</defs>
</svg>
