<svg fill="none" height="11" viewBox="0 0 10 11" width="10" xmlns="http://www.w3.org/2000/svg" xmlns:xlink="http://www.w3.org/1999/xlink"><clipPath id="a"><path d="m0 .503906h10v9.752h-10z"/></clipPath><g clip-path="url(#a)"><path d="m1.77067.5047h6.45866c.97894 0 1.77067.79173 1.77067 1.77067v6.20905c0 .97894-.79173 1.77068-1.77067 1.77068h-6.45866c-.978938 0-1.77067-.79174-1.77067-1.77068v-6.20905c0-.97894.791732-1.77067 1.77067-1.77067z" fill="#001e36"/><path d="m3.51014 7.39628h-2.3791c-.0429 0-.0585-.02341-.0585-.07411v-4.25897c0-.0429.0156-.0585.0546-.0585h.73713c.0273 0 .0429.0156.0429.0468v3.49844h1.73167c.039 0 .0507.0195.0429.0585l-.1092.72543c-.0039.0234-.0117.0429-.0234.0507s-.0273.01171-.039.01171zm.59282-3.33464h.65913c.039 0 .0624.0195.078.0663.0117.02731.0234.06241.0273.09751.0078.0429.0117.0858.0156.1287.0039.04681.0039.09751.0039.14821.10921-.14041.24571-.26521.40172-.35881.16771-.10141.36271-.15601.55772-.14821.039 0 .0546.0195.0546.0585v.81123c0 .03511-.0195.04681-.0585.04681-.1326-.0078-.26521 0-.39392.0273-.1092.0234-.2106.0624-.31201.1131-.0741.039-.1443.09361-.20281.15601v2.12558c0 .0429-.0156.05851-.0507.05851h-.72543c-.0429 0-.0585-.01951-.0585-.06631v-2.30889c0-.1014 0-.20281-.0039-.31201 0-.10921-.0039-.21841-.0078-.32372-.0039-.0936-.0117-.1833-.0234-.27691 0-.0117 0-.0234.0078-.039.0117-.0039.0195-.0078.0312-.0039zm4.75429-.61622c-.0858-.039-.18331-.05851-.28081-.07021-.14041-.0156-.28471-.0234-.42512-.0234-.40951 0-.76833.08581-1.06084.25741-.29251.17161-.53432.42512-.69033.72933-.1638.30812-.24181.67473-.24181 1.08425-.0039.24571.0273.49142.09361.73323.0585.2028.1443.39391.26521.56942.1131.1638.24961.30031.40951.41342.15991.1131.33932.1989.53043.2496.195.05461.40561.08191.60842.08191.14431 0 .28861-.0078.42902-.0273.117-.0117.23011-.0429.33931-.08191.0429-.0195.0663-.0624.0624-.1131v-.62013c.0039-.0195-.0039-.0468-.0195-.0624-.0117-.0078-.0351-.0195-.0663.0039-.0936.0351-.19111.0585-.29251.07021-.12091.0117-.24181.0156-.36272.0156-.1092 0-.22231-.01561-.32371-.04681-.1131-.0273-.21841-.0741-.31591-.1326-.10531-.0624-.19111-.14431-.26131-.24181-.07801-.10921-.14041-.23011-.18331-.35882-.0468-.1599-.0702-.31981-.0663-.48752-.0039-.2301.0429-.46021.1365-.66692.08581-.17941.22231-.33151.39002-.43682.18331-.1092.39391-.16381.60842-.15991.12871 0 .26131.0078.39002.03511.1053.0156.20281.0507.30031.1014.0156.0078.039.0078.0546 0 .0156-.0156.0273-.039.0234-.0624v-.65133c0-.0429-.0156-.078-.0507-.1014z" fill="#31a8ff"/></g></svg>