<svg fill="none" height="10" viewBox="0 0 10 10" width="10" xmlns="http://www.w3.org/2000/svg" xmlns:xlink="http://www.w3.org/1999/xlink"><clipPath id="a"><path d="m0 .124023h10v9.752h-10z"/></clipPath><g clip-path="url(#a)"><path d="m1.77083.125031h6.45834c.97916 0 1.77083.791666 1.77083 1.770829v6.20834c0 .97916-.79167 1.77083-1.77083 1.77083h-6.45834c-.979163 0-1.77083012-.79167-1.77083012-1.77083v-6.20834c0-.979163.79166712-1.770829 1.77083012-1.770829z" fill="#470137"/><path d="m5.25833 2.68752-1.25 2.0625 1.33334 2.1875c.00833.01667.0125.03333.00833.05s-.02083.00417-.04583.00833h-.95417c-.06667 0-.1125-.00416-.14167-.04583-.0875-.175-.17916-.34583-.26666-.52083-.0875-.17084-.18334-.34584-.28334-.525-.1-.17917-.2-.35834-.3-.54167h-.00833c-.0875.17917-.18333.35833-.27917.5375-.09583.17917-.19166.35833-.28333.53333-.09583.175-.19167.35417-.2875.525-.01667.04167-.05.04584-.09583.04584h-.91667c-.01667 0-.02917.00833-.02917-.0125-.00416-.01667 0-.03334.00834-.04584l1.29583-2.125-1.2625-2.1375c-.0125-.01666-.01667-.03333-.00833-.04166.00833-.0125.025-.01667.04166-.01667h.94584c.02083 0 .04166.00417.05833.00833.01667.00834.02917.02084.04167.0375.07916.17917.17083.35834.26666.5375.1.17917.19584.35417.3.52917.1.175.19167.35.27917.52917h.00833c.0875-.18334.17917-.3625.27084-.5375.09166-.175.1875-.35.28333-.525s.1875-.35417.27917-.525c.00416-.01667.0125-.03334.025-.04167.01666-.00833.03333-.0125.05416-.00833h.87917c.02083-.00417.04167.00833.04583.02916.00417.00417-.00416.02084-.0125.02917zm1.925 4.39583c-.30833.00417-.61666-.05833-.89583-.1875-.2625-.12083-.47917-.32083-.62917-.56666-.15416-.25417-.22916-.57084-.22916-.95-.00417-.30834.075-.6125.22916-.87917.15834-.27083.3875-.49583.6625-.64583.29167-.1625.64167-.24167 1.05417-.24167.02083 0 .05 0 .0875.00417.0375.00416.07917.00416.12917.00833v-1.31667c0-.02916.0125-.04583.04166-.04583h.84584c.02083-.00417.0375.0125.04166.02917v3.975c0 .075.00417.15833.00834.25.00833.0875.0125.17083.01666.24166 0 .02917-.0125.05417-.04166.06667-.21667.09167-.44584.15833-.67917.2-.2125.0375-.425.05833-.64167.05833zm.40834-.83333v-1.83333c-.0375-.00834-.075-.01667-.1125-.02084-.04584-.00416-.09167-.00833-.1375-.00833-.1625 0-.325.03333-.47084.10833-.14166.07084-.2625.175-.35416.30834-.09167.13333-.1375.3125-.1375.52916-.00417.14584.02083.29167.07083.42917.04167.1125.10417.2125.1875.29583.07917.075.175.13334.28333.16667.1125.0375.22917.05417.34584.05417.0625 0 .12083-.00417.175-.00834.05416.00417.1-.00416.15-.02083z" fill="#ff61f6"/></g></svg>