<svg fill="none" height="11" viewBox="0 0 10 11" width="10" xmlns="http://www.w3.org/2000/svg" xmlns:xlink="http://www.w3.org/1999/xlink"><clipPath id="a"><path d="m0 .751953h10v9.752h-10z"/></clipPath><g clip-path="url(#a)"><path d="m1.77083.75296h6.45834c.97916 0 1.77083.79167 1.77083 1.77083v6.20834c0 .97916-.79167 1.77087-1.77083 1.77087h-6.45834c-.979163 0-1.77083-.79171-1.77083-1.77087v-6.20834c0-.97916.791667-1.77083 1.77083-1.77083z" fill="#49021f"/><path d="m3.63333 3.30295v4.29167c0 .04583-.02083.06666-.05833.06666h-.81667c-.0375 0-.05417-.02083-.05417-.06666v-4.29167c0-.0375.02084-.05417.05834-.05417h.8125c.025-.00416.05.0125.05416.04167.00417.00417.00417.00833.00417.0125zm2.40833 4.40833c-.30833.00417-.61666-.05833-.89583-.1875-.2625-.12083-.47917-.32083-.62917-.56666-.15416-.25417-.22916-.57084-.22916-.95-.00417-.30834.075-.6125.22916-.87917.15834-.27083.3875-.49583.6625-.64583.29167-.1625.64167-.24167 1.05417-.24167.02083 0 .05 0 .0875.00417.0375.00416.07917.00416.12917.00833v-1.31667c0-.02916.0125-.04583.04166-.04583h.84584c.02083-.00417.0375.0125.04166.02917v3.975c0 .075.00417.15833.00834.25.00833.0875.0125.17083.01666.24166 0 .02917-.0125.05417-.04166.06667-.21667.09167-.44584.15833-.67917.2-.20833.0375-.425.05833-.64167.05833zm.40834-.83333v-1.83333c-.0375-.00834-.075-.01667-.1125-.02084-.04584-.00416-.09167-.00833-.1375-.00833-.1625 0-.325.03333-.47084.10833-.14166.07084-.2625.175-.35416.30834-.09167.13333-.1375.3125-.1375.52916-.00417.14584.02083.29167.07083.42917.04167.1125.10417.2125.1875.29583.07917.075.175.13334.28333.16667.1125.0375.22917.05417.34584.05417.0625 0 .12083-.00417.175-.00834.05416.00417.10416-.00416.15-.02083z" fill="#f36"/></g></svg>