<svg fill="none" height="10" viewBox="0 0 10 10" width="10" xmlns="http://www.w3.org/2000/svg" xmlns:xlink="http://www.w3.org/1999/xlink"><clipPath id="a"><path d="m0 .124023h10v9.752h-10z"/></clipPath><g clip-path="url(#a)"><path d="m1.77083.125031h6.45834c.97916 0 1.77083.791666 1.77083 1.770829v6.20834c0 .97916-.79167 1.77083-1.77083 1.77083h-6.45834c-.979163 0-1.77083-.79167-1.77083-1.77083v-6.20834c0-.979163.791667-1.770829 1.77083-1.770829z" fill="#300"/><path d="m4.83333 5.95835h-1.55l-.31666.97917c-.00834.0375-.04167.0625-.07917.05833h-.78333c-.04584 0-.05834-.02499-.04584-.07499l1.34167-3.86251c.0125-.04166.025-.0875.04167-.1375.01666-.0875.025-.17916.025-.27083-.00417-.02083.0125-.04167.03333-.04583h1.07917c.03333 0 .05.0125.05416.03333l1.52084 4.29167c.0125.04583 0 .06666-.04167.06666h-.87083c-.02917.00417-.05834-.01666-.06667-.04583zm-1.30833-.84583h1.05833c-.025-.0875-.05833-.19167-.09583-.3-.0375-.1125-.075-.23333-.1125-.35833-.04167-.12917-.07917-.25417-.12083-.38334-.04167-.12916-.07917-.25-.1125-.37083-.03334-.11667-.0625-.225-.09167-.325h-.00833c-.0375.17917-.08334.35833-.14167.5375-.0625.2-.125.40833-.19167.61667-.05833.2125-.12083.40833-.18333.58333zm3.55833-1.77917c-.1375.00417-.27083-.05-.37083-.14583-.09583-.10417-.14583-.24167-.14167-.38333-.00416-.14167.05-.275.15-.37084.1-.09583.23334-.14583.37084-.14583.1625 0 .2875.05.37916.14583.09167.1.14167.23334.1375.37084.00417.14166-.04583.27916-.14583.38333-.09583.1-.2375.15417-.37917.14583zm-.46666 3.61667v-3.20833c0-.04167.01666-.05834.05416-.05834h.825c.0375 0 .05417.02084.05417.05834v3.20833c0 .04583-.01667.06667-.05417.06667h-.81666c-.04167 0-.0625-.025-.0625-.06667z" fill="#ff9a00"/></g></svg>