<svg width="10" height="10" viewBox="0 0 10 10" fill="none" xmlns="http://www.w3.org/2000/svg">
<g clip-path="url(#clip0_86_598)">
<path d="M1.77083 0.125031H8.22917C9.20833 0.125031 10 0.916697 10 1.89586V8.1042C10 9.08336 9.20833 9.87503 8.22917 9.87503H1.77083C0.791667 9.87503 0 9.08336 0 8.1042V1.89586C0 0.916697 0.791667 0.125031 1.77083 0.125031Z" fill="#330000"/>
<path d="M4.83333 5.95835H3.28333L2.96667 6.93752C2.95833 6.97502 2.925 7.00002 2.8875 6.99585H2.10417C2.05833 6.99585 2.04583 6.97086 2.05833 6.92086L3.4 3.05835C3.4125 3.01669 3.425 2.97085 3.44167 2.92085C3.45833 2.83335 3.46667 2.74169 3.46667 2.65002C3.4625 2.62919 3.47917 2.60835 3.5 2.60419H4.57917C4.6125 2.60419 4.62917 2.61669 4.63333 2.63752L6.15417 6.92919C6.16667 6.97502 6.15417 6.99585 6.1125 6.99585H5.24167C5.2125 7.00002 5.18333 6.97919 5.175 6.95002L4.83333 5.95835ZM3.525 5.11252H4.58333C4.55833 5.02502 4.525 4.92085 4.4875 4.81252C4.45 4.70002 4.4125 4.57919 4.375 4.45419C4.33333 4.32502 4.29583 4.20002 4.25417 4.07085C4.2125 3.94169 4.175 3.82085 4.14167 3.70002C4.10833 3.58335 4.07917 3.47502 4.05 3.37502H4.04167C4.00417 3.55419 3.95833 3.73335 3.9 3.91252C3.8375 4.11252 3.775 4.32085 3.70833 4.52919C3.65 4.74169 3.5875 4.93752 3.525 5.11252ZM7.08333 3.33335C6.94583 3.33752 6.8125 3.28335 6.7125 3.18752C6.61667 3.08335 6.56667 2.94585 6.57083 2.80419C6.56667 2.66252 6.62083 2.52919 6.72083 2.43335C6.82083 2.33752 6.95417 2.28752 7.09167 2.28752C7.25417 2.28752 7.37917 2.33752 7.47083 2.43335C7.5625 2.53335 7.6125 2.66669 7.60833 2.80419C7.6125 2.94585 7.5625 3.08335 7.4625 3.18752C7.36667 3.28752 7.225 3.34169 7.08333 3.33335ZM6.61667 6.95002V3.74169C6.61667 3.70002 6.63333 3.68335 6.67083 3.68335H7.49583C7.53333 3.68335 7.55 3.70419 7.55 3.74169V6.95002C7.55 6.99585 7.53333 7.01669 7.49583 7.01669H6.67917C6.6375 7.01669 6.61667 6.99169 6.61667 6.95002Z" fill="#FF9A00"/>
</g>
<defs>
<clipPath id="clip0_86_598">
<rect width="10" height="9.752" fill="white" transform="translate(0 0.124023)"/>
</clipPath>
</defs>
</svg>
