<svg fill="none" height="10" viewBox="0 0 10 10" width="10" xmlns="http://www.w3.org/2000/svg" xmlns:xlink="http://www.w3.org/1999/xlink"><clipPath id="a"><path d="m0 0h10v9.752h-10z"/></clipPath><g clip-path="url(#a)"><path d="m1.77084.00100708h6.45832c.97916 0 1.77084.79167992 1.77084 1.77084292v6.20832c0 .97916-.79168 1.77084-1.77084 1.77084h-6.45832c-.97916 0-1.77084-.79168-1.77084-1.77084v-6.20832c0-.979163.79168-1.77084292 1.77084-1.77084292z" fill="#00005b"/><path d="m4.01668 5.83432h-1.55l-.31668.98332c-.00832.03748-.04168.06248-.07916.05832h-.78332c-.04584 0-.05832-.025-.04584-.075l1.34168-3.84584c.01248-.04168.025-.07916.04168-.12916.01668-.08748.025-.17916.025-.27084-.00416-.02084.01248-.04168.03332-.04584h1.07916c.02916 0 .05.01248.05416.03332l1.52084 4.25c.01252.04584 0 .06668-.04168.06668h-.87084c-.02916.00416-.05832-.01668-.06668-.04584l-.34168-1v.02084zm-1.30832-.82916h1.05832c-.025-.08748-.05832-.19168-.09584-.3-.03752-.11248-.075-.23332-.11248-.35832-.04168-.12916-.07916-.25416-.12084-.38332s-.07916-.25-.11248-.37084c-.03332-.11668-.06248-.225-.09168-.325h-.00832c-.03752.17916-.08332.35832-.14168.53752-.06248.2-.125.40832-.19168.61668-.05416.21248-.12084.40832-.18332.58332zm5.08332.45416h-1.32084c.01668.12916.05832.25832.12916.37084.075.11248.17916.2.30416.25.16668.07084.35.10832.53332.10416.14584-.00416.29168-.01668.43332-.04584.12916-.01668.25416-.05.37084-.09584.02084-.01668.03332-.00832.03332.03332v.63752c0 .01668-.00416.03332-.00832.05-.00832.01252-.01668.02084-.02916.02916-.13332.05832-.27084.1-.41668.125-.19584.03748-.39168.05416-.59168.05-.31668 0-.58332-.05-.8-.14584-.20416-.08752-.38332-.225-.525-.39584-.13332-.16248-.22916-.34584-.28748-.54584-.05832-.19584-.08752-.4-.08752-.60832 0-.225.03332-.44584.10416-.66252.06668-.20832.17084-.4.31248-.57084.13752-.16668.30832-.3.50416-.39584s.42916-.12916.69584-.12916c.22084-.00416.44168.03752.64584.12916.17084.075.32084.18752.43752.33332.10832.14168.19584.3.25.475.05416.16668.07916.33748.07916.50832 0 .1-.00416.18752-.00832.26668-.00832.07916-.01252.13752-.01668.175-.00416.02916-.02916.05416-.05832.05416-.025 0-.07084.00416-.13752.00832-.06668.00832-.14584.01252-.24168.01252s-.19584-.01668-.30416-.01668zm-1.32084-.60832h.87916c.10832 0 .18752 0 .23748-.00416.03332-.00416.06668-.01252.09584-.03332v-.04168c0-.05416-.00832-.10416-.025-.15416-.075-.23332-.29584-.39168-.54168-.38332-.22916-.01252-.44584.10832-.55416.31668-.05.09584-.07916.19584-.09168.3z" fill="#99f"/></g></svg>