<svg width="10" height="11" viewBox="0 0 10 11" fill="none" xmlns="http://www.w3.org/2000/svg">
<g clip-path="url(#clip0_86_629)">
<path d="M1.77083 0.75296H8.22917C9.20833 0.75296 10 1.54463 10 2.52379V8.73213C10 9.71129 9.20833 10.503 8.22917 10.503H1.77083C0.791667 10.503 0 9.71129 0 8.73213V2.52379C0 1.54463 0.791667 0.75296 1.77083 0.75296Z" fill="#49021F"/>
<path d="M3.63333 3.30295V7.59462C3.63333 7.64045 3.6125 7.66128 3.575 7.66128H2.75833C2.72083 7.66128 2.70416 7.64045 2.70416 7.59462V3.30295C2.70416 3.26545 2.725 3.24878 2.7625 3.24878H3.575C3.6 3.24462 3.625 3.26128 3.62916 3.29045C3.63333 3.29462 3.63333 3.29878 3.63333 3.30295ZM6.04166 7.71128C5.73333 7.71545 5.425 7.65295 5.14583 7.52378C4.88333 7.40295 4.66666 7.20295 4.51666 6.95712C4.3625 6.70295 4.2875 6.38628 4.2875 6.00712C4.28333 5.69878 4.3625 5.39462 4.51666 5.12795C4.675 4.85712 4.90416 4.63212 5.17916 4.48212C5.47083 4.31962 5.82083 4.24045 6.23333 4.24045C6.25416 4.24045 6.28333 4.24045 6.32083 4.24462C6.35833 4.24878 6.4 4.24878 6.45 4.25295V2.93628C6.45 2.90712 6.4625 2.89045 6.49166 2.89045H7.3375C7.35833 2.88628 7.375 2.90295 7.37916 2.91962V6.89462C7.37916 6.96962 7.38333 7.05295 7.3875 7.14462C7.39583 7.23212 7.4 7.31545 7.40416 7.38628C7.40416 7.41545 7.39166 7.44045 7.3625 7.45295C7.14583 7.54462 6.91666 7.61128 6.68333 7.65295C6.475 7.69045 6.25833 7.71128 6.04166 7.71128ZM6.45 6.87795V5.04462C6.4125 5.03628 6.375 5.02795 6.3375 5.02378C6.29166 5.01962 6.24583 5.01545 6.2 5.01545C6.0375 5.01545 5.875 5.04878 5.72916 5.12378C5.5875 5.19462 5.46666 5.29878 5.375 5.43212C5.28333 5.56545 5.2375 5.74462 5.2375 5.96128C5.23333 6.10712 5.25833 6.25295 5.30833 6.39045C5.35 6.50295 5.4125 6.60295 5.49583 6.68628C5.575 6.76128 5.67083 6.81962 5.77916 6.85295C5.89166 6.89045 6.00833 6.90712 6.125 6.90712C6.1875 6.90712 6.24583 6.90295 6.3 6.89878C6.35416 6.90295 6.40416 6.89462 6.45 6.87795Z" fill="#FF3366"/>
</g>
<defs>
<clipPath id="clip0_86_629">
<rect width="10" height="9.752" fill="white" transform="translate(0 0.751953)"/>
</clipPath>
</defs>
</svg>
