<svg width="10" height="10" viewBox="0 0 10 10" fill="none" xmlns="http://www.w3.org/2000/svg">
<g clip-path="url(#clip0_86_608)">
<path d="M1.77083 0.125031H8.22917C9.20833 0.125031 10 0.916697 10 1.89586V8.1042C10 9.08336 9.20833 9.87503 8.22917 9.87503H1.77083C0.791667 9.87503 -1.19209e-07 9.08336 -1.19209e-07 8.1042V1.89586C-1.19209e-07 0.916697 0.791667 0.125031 1.77083 0.125031Z" fill="#470137"/>
<path d="M5.25833 2.68752L4.00833 4.75002L5.34167 6.93752C5.35 6.95419 5.35417 6.97085 5.35 6.98752C5.34583 7.00419 5.32917 6.99169 5.30417 6.99585H4.35C4.28333 6.99585 4.2375 6.99169 4.20833 6.95002C4.12083 6.77502 4.02917 6.60419 3.94167 6.42919C3.85417 6.25835 3.75833 6.08335 3.65833 5.90419C3.55833 5.72502 3.45833 5.54585 3.35833 5.36252H3.35C3.2625 5.54169 3.16667 5.72085 3.07083 5.90002C2.975 6.07919 2.87917 6.25835 2.7875 6.43335C2.69167 6.60835 2.59583 6.78752 2.5 6.95835C2.48333 7.00002 2.45 7.00419 2.40417 7.00419H1.4875C1.47083 7.00419 1.45833 7.01252 1.45833 6.99169C1.45417 6.97502 1.45833 6.95835 1.46667 6.94585L2.7625 4.82085L1.5 2.68335C1.4875 2.66669 1.48333 2.65002 1.49167 2.64169C1.5 2.62919 1.51667 2.62502 1.53333 2.62502H2.47917C2.5 2.62502 2.52083 2.62919 2.5375 2.63335C2.55417 2.64169 2.56667 2.65419 2.57917 2.67085C2.65833 2.85002 2.75 3.02919 2.84583 3.20835C2.94583 3.38752 3.04167 3.56252 3.14583 3.73752C3.24583 3.91252 3.3375 4.08752 3.425 4.26669H3.43333C3.52083 4.08335 3.6125 3.90419 3.70417 3.72919C3.79583 3.55419 3.89167 3.37919 3.9875 3.20419C4.08333 3.02919 4.175 2.85002 4.26667 2.67919C4.27083 2.66252 4.27917 2.64585 4.29167 2.63752C4.30833 2.62919 4.325 2.62502 4.34583 2.62919H5.225C5.24583 2.62502 5.26667 2.63752 5.27083 2.65835C5.275 2.66252 5.26667 2.67919 5.25833 2.68752ZM7.18333 7.08335C6.875 7.08752 6.56667 7.02502 6.2875 6.89585C6.025 6.77502 5.80833 6.57502 5.65833 6.32919C5.50417 6.07502 5.42917 5.75835 5.42917 5.37919C5.425 5.07085 5.50417 4.76669 5.65833 4.50002C5.81667 4.22919 6.04583 4.00419 6.32083 3.85419C6.6125 3.69169 6.9625 3.61252 7.375 3.61252C7.39583 3.61252 7.425 3.61252 7.4625 3.61669C7.5 3.62085 7.54167 3.62085 7.59167 3.62502V2.30835C7.59167 2.27919 7.60417 2.26252 7.63333 2.26252H8.47917C8.5 2.25835 8.51667 2.27502 8.52083 2.29169V6.26669C8.52083 6.34169 8.525 6.42502 8.52917 6.51669C8.5375 6.60419 8.54167 6.68752 8.54583 6.75835C8.54583 6.78752 8.53333 6.81252 8.50417 6.82502C8.2875 6.91669 8.05833 6.98335 7.825 7.02502C7.6125 7.06252 7.4 7.08335 7.18333 7.08335ZM7.59167 6.25002V4.41669C7.55417 4.40835 7.51667 4.40002 7.47917 4.39585C7.43333 4.39169 7.3875 4.38752 7.34167 4.38752C7.17917 4.38752 7.01667 4.42085 6.87083 4.49585C6.72917 4.56669 6.60833 4.67085 6.51667 4.80419C6.425 4.93752 6.37917 5.11669 6.37917 5.33335C6.375 5.47919 6.4 5.62502 6.45 5.76252C6.49167 5.87502 6.55417 5.97502 6.6375 6.05835C6.71667 6.13335 6.8125 6.19169 6.92083 6.22502C7.03333 6.26252 7.15 6.27919 7.26667 6.27919C7.32917 6.27919 7.3875 6.27502 7.44167 6.27085C7.49583 6.27502 7.54167 6.26669 7.59167 6.25002Z" fill="#FF61F6"/>
</g>
<defs>
<clipPath id="clip0_86_608">
<rect width="10" height="9.752" fill="white" transform="translate(0 0.124023)"/>
</clipPath>
</defs>
</svg>
