<svg width="10" height="10" viewBox="0 0 10 10" fill="none" xmlns="http://www.w3.org/2000/svg">
<g clip-path="url(#clip0_9_11)">
<path fill-rule="evenodd" clip-rule="evenodd" d="M9.99984 0.976557C9.99984 0.437574 9.56226 -3.8147e-06 9.02328 -3.8147e-06H0.976396C0.437411 -3.8147e-06 -0.000167847 0.437574 -0.000167847 0.976557V9.02342C-0.000167847 9.5624 0.437411 9.99998 0.976396 9.99998H9.02328C9.56226 9.99998 9.99984 9.5624 9.99984 9.02342V0.976557Z" fill="#4E3188"/>
<path fill-rule="evenodd" clip-rule="evenodd" d="M9.26759 6.3485V8.87695C9.26759 9.08992 9.09679 9.26333 8.88478 9.26749L6.30255 9.26748L4.61661 6.3485H9.26759ZM5.91837 9.26748H1.3502L3.63556 5.3152L5.91837 9.26748ZM0.983406 9.24181C0.845222 9.18883 0.744735 9.05966 0.733505 8.9059L0.73243 7.1631L2.58956 3.94777H4.04112L0.983406 9.24181ZM5.36866 3.94176C5.49513 3.94229 5.61613 4.01657 5.68146 4.12667C5.68214 4.12779 5.68341 4.13003 5.68341 4.13003L6.0672 4.7946C6.0672 4.7946 6.06945 4.79832 6.07052 4.80011C6.13322 4.90981 6.13566 5.04805 6.07296 5.15975C5.94435 5.38477 5.81368 5.6087 5.684 5.83318C5.62032 5.94235 5.49982 6.01358 5.37169 6.01517C5.12726 6.0162 4.63712 6.01563 4.63644 6.01563C4.50997 6.01511 4.38702 5.94767 4.32159 5.83758C4.32013 5.83519 4.31739 5.83032 4.31739 5.83032C4.31739 5.83032 3.93341 5.16568 3.93263 5.16414C3.86983 5.05443 3.86993 4.91271 3.93263 4.80101C3.93351 4.79937 3.93546 4.79608 3.93546 4.79608C3.93546 4.79608 4.19239 4.3504 4.32101 4.12756C4.38468 4.01839 4.50548 3.94328 4.63351 3.94168C4.63565 3.94167 4.63995 3.94157 4.63995 3.94157L5.36427 3.94176H5.36866ZM9.00284 0.753191L5.96329 6.01563H9.26759V1.12305C9.26759 0.951511 9.15675 0.805642 9.00284 0.753191ZM4.44669 0.73243H8.63058L6.36788 4.64997L4.27599 1.02809L4.44669 0.73243ZM5.38595 3.61515H2.78165L4.0838 1.36071L5.38595 3.61515Z" fill="url(#paint0_radial_9_11)"/>
</g>
<defs>
<radialGradient id="paint0_radial_9_11" cx="0" cy="0" r="1" gradientUnits="userSpaceOnUse" gradientTransform="translate(7.25616 -0.871658) scale(10.1392 10.1391)">
<stop stop-color="#F9A6FF"/>
<stop offset="1" stop-color="#EA73FF"/>
</radialGradient>
<clipPath id="clip0_9_11">
<rect width="10" height="10" fill="white"/>
</clipPath>
</defs>
</svg>
