<svg fill="none" height="10" viewBox="0 0 10 10" width="10" xmlns="http://www.w3.org/2000/svg" xmlns:xlink="http://www.w3.org/1999/xlink"><radialGradient id="a" cx="0" cy="0" gradientTransform="matrix(10.1393 0 0 10.1392 7.25544 -.871682)" gradientUnits="userSpaceOnUse" r="1"><stop offset="0" stop-color="#ffae71"/><stop offset="1" stop-color="#ff9350"/></radialGradient><clipPath id="b"><path d="m0 0h10v10h-10z"/></clipPath><g clip-path="url(#b)" clip-rule="evenodd" fill-rule="evenodd"><path d="m10 .976561c0-.538984-.43757-.976561-.97655-.976561h-8.046887c-.538985 0-.976563.437577-.976563.976561v8.046859c0 .53899.437578.97656.976563.97656h8.046887c.53898 0 .97655-.43757.97655-.97656z" fill="#891b26"/><path d="m4.55221 9.26756-2.51758-4.35886-1.302147 2.25445v1.71379c0 .21559.175.39062.390627.39062zm1.83584 0h-1.45156s-1.88037-3.2567-2.51035-4.34625c-.12354-.21365-.12354-.47697-.0001-.69066.22783-.39422.52656-.91123.52656-.91123zm1.83585 0h-1.45157l-3.60635-6.31764.70449-1.21963zm1.04375-1.3713v.98068c0 .21559-.175.39062-.39063.39062h-.26885l-4.54561-7.8699.38428-.665239h.68311zm-.39063-7.163839h-3.36289l3.75352 6.498579v-6.10795c0-.2156-.175-.390629-.39063-.390629z" fill="url(#a)"/></g></svg>