<svg fill="none" height="10" viewBox="0 0 10 10" width="10" xmlns="http://www.w3.org/2000/svg" xmlns:xlink="http://www.w3.org/1999/xlink"><radialGradient id="a" cx="0" cy="0" gradientTransform="matrix(10.1393 0 0 10.1392 7.25616 -.871672)" gradientUnits="userSpaceOnUse" r="1"><stop offset="0" stop-color="#6be1fb"/><stop offset="1" stop-color="#38bdfa"/></radialGradient><clipPath id="b"><path d="m0 0h10v10h-10z"/></clipPath><g clip-path="url(#b)" clip-rule="evenodd" fill-rule="evenodd"><path d="m10.0001.976557c0-.538983-.43755-.97656081-.97654-.97656081h-8.046878c-.538985 0-.97656374.43757781-.97656374.97656081v8.046863c0 .53898.43757874.97656.97656374.97656h8.046878c.53899 0 .97654-.43758.97654-.97656z" fill="#134881"/><path d="m9.26759 8.87997c-.00166.2142-.17607.38759-.39062.38759h-3.94229l-1.68506-2.91871h6.01797zm-8.53516-.00303v-1.71374l3.71279-6.430782h1.45098l-3.13662 5.432902 1.79102 3.10224h-3.42755c-.21562 0-.39062-.17503-.39062-.39062zm4.75752-2.8609h-1.46699c-.16377 0-.31514-.08594-.39697-.2278-.08194-.14178-.08194-.31657 0-.45835.32588-.56445.73388-1.27119.73388-1.27119zm3.38702-5.283622c.21455 0 .38896.173388.39062.387592v4.89603h-3.39336l-1.32236-2.28998 1.72842-2.993642z" fill="url(#a)"/></g></svg>