<svg fill="none" height="10" viewBox="0 0 10 10" width="10" xmlns="http://www.w3.org/2000/svg" xmlns:xlink="http://www.w3.org/1999/xlink"><radialGradient id="a" cx="0" cy="0" gradientTransform="matrix(10.1392 0 0 10.1391 7.25616 -.871658)" gradientUnits="userSpaceOnUse" r="1"><stop offset="0" stop-color="#f9a6ff"/><stop offset="1" stop-color="#ea73ff"/></radialGradient><clipPath id="b"><path d="m0 0h10v10h-10z"/></clipPath><g clip-path="url(#b)" clip-rule="evenodd" fill-rule="evenodd"><path d="m9.99984.976557c0-.538983-.43758-.97656081-.97656-.97656081h-8.046884c-.538985 0-.97656385.43757781-.97656385.97656081v8.046863c0 .53898.43757885.97656.97656385.97656h8.046884c.53898 0 .97656-.43758.97656-.97656z" fill="#4e3188"/><path d="m9.26759 6.3485v2.52845c0 .21297-.1708.38638-.38281.39054l-2.58223-.00001-1.68594-2.91898zm-3.34922 2.91898h-4.56817l2.28536-3.95228zm-4.934964-.02567c-.138184-.05298-.238671-.18215-.249901-.33591l-.001075-1.7428 1.85713-3.21533h1.45156zm4.385254-5.30005c.12647.00053.24747.07481.3128.18491.00068.00112.00195.00336.00195.00336l.38379.66457s.00225.00372.00332.00551c.0627.1097.06514.24794.00244.35964-.12861.22502-.25928.44895-.38896.67343-.06368.10917-.18418.1804-.31231.18199-.24443.00103-.73457.00046-.73525.00046-.12647-.00052-.24942-.06796-.31485-.17805-.00146-.00239-.0042-.00726-.0042-.00726s-.38398-.66464-.38476-.66618c-.0628-.10971-.0627-.25143 0-.36313.00088-.00164.00283-.00493.00283-.00493s.25693-.44568.38555-.66852c.06367-.10917.18447-.18428.3125-.18588.00214-.00001.00644-.00011.00644-.00011l.72432.00019zm3.63418-3.188569-3.03955 5.262439h3.3043v-4.89258c0-.171539-.11084-.317408-.26475-.369859zm-4.55615-.020761h4.18389l-2.2627 3.91754-2.09189-3.62188zm.93926 2.88272h-2.6043l1.30215-2.25444z" fill="url(#a)"/></g></svg>