<svg width="10" height="10" viewBox="0 0 10 10" fill="none" xmlns="http://www.w3.org/2000/svg">
<g clip-path="url(#clip0_86_641)">
<path fill-rule="evenodd" clip-rule="evenodd" d="M10 0.976561C10 0.437577 9.56243 0 9.02345 0H0.976563C0.437578 0 0 0.437577 0 0.976561V9.02342C0 9.56241 0.437578 9.99998 0.976563 9.99998H9.02345C9.56243 9.99998 10 9.56241 10 9.02342V0.976561Z" fill="#891B26"/>
<path fill-rule="evenodd" clip-rule="evenodd" d="M4.55221 9.26756L2.03463 4.9087L0.732483 7.16315V8.87694C0.732483 9.09253 0.907483 9.26756 1.12311 9.26756H4.55221ZM6.38805 9.26756H4.93649C4.93649 9.26756 3.05612 6.01086 2.42614 4.92131C2.3026 4.70766 2.3026 4.44434 2.42604 4.23065C2.65387 3.83643 2.9526 3.31942 2.9526 3.31942L6.38805 9.26756ZM8.2239 9.26756H6.77233L3.16598 2.94992L3.87047 1.73029L8.2239 9.26756ZM9.26765 7.89626V8.87694C9.26765 9.09253 9.09265 9.26756 8.87702 9.26756H8.60817L4.06256 1.39766L4.44684 0.732421H5.12995L9.26765 7.89626ZM8.87702 0.732421H5.51413L9.26765 7.231V1.12305C9.26765 0.90745 9.09265 0.732421 8.87702 0.732421Z" fill="url(#paint0_radial_86_641)"/>
</g>
<defs>
<radialGradient id="paint0_radial_86_641" cx="0" cy="0" r="1" gradientUnits="userSpaceOnUse" gradientTransform="translate(7.25544 -0.871682) scale(10.1393 10.1392)">
<stop stop-color="#FFAE71"/>
<stop offset="1" stop-color="#FF9350"/>
</radialGradient>
<clipPath id="clip0_86_641">
<rect width="10" height="10" fill="white"/>
</clipPath>
</defs>
</svg>
