<svg width="10" height="10" viewBox="0 0 10 10" fill="none" xmlns="http://www.w3.org/2000/svg">
<g clip-path="url(#clip0_9_3)">
<path fill-rule="evenodd" clip-rule="evenodd" d="M10.0001 0.976557C10.0001 0.437574 9.56255 -3.8147e-06 9.02356 -3.8147e-06H0.976682C0.437697 -3.8147e-06 0.000118256 0.437574 0.000118256 0.976557V9.02342C0.000118256 9.5624 0.437697 9.99998 0.976682 9.99998H9.02356C9.56255 9.99998 10.0001 9.5624 10.0001 9.02342V0.976557Z" fill="#134881"/>
<path fill-rule="evenodd" clip-rule="evenodd" d="M9.26759 8.87997C9.26593 9.09417 9.09152 9.26756 8.87697 9.26756H4.93468L3.24962 6.34885H9.26759V8.87997ZM0.73243 8.87694V7.1632L4.44522 0.732418H5.8962L2.75958 6.16532L4.5506 9.26756H1.12305C0.90743 9.26756 0.73243 9.09253 0.73243 8.87694ZM5.48995 6.01604H4.02296C3.85919 6.01604 3.70782 5.9301 3.62599 5.78824C3.54405 5.64646 3.54405 5.47167 3.62599 5.32989C3.95187 4.76544 4.35987 4.0587 4.35987 4.0587L5.48995 6.01604ZM8.87697 0.732418C9.09152 0.732418 9.26593 0.905806 9.26759 1.12001V6.01604H5.87423L4.55187 3.72606L6.28029 0.732418H8.87697Z" fill="url(#paint0_radial_9_3)"/>
</g>
<defs>
<radialGradient id="paint0_radial_9_3" cx="0" cy="0" r="1" gradientUnits="userSpaceOnUse" gradientTransform="translate(7.25616 -0.871672) scale(10.1393 10.1392)">
<stop stop-color="#6BE1FB"/>
<stop offset="1" stop-color="#38BDFA"/>
</radialGradient>
<clipPath id="clip0_9_3">
<rect width="10" height="10" fill="white"/>
</clipPath>
</defs>
</svg>
