<svg fill="none" height="10" viewBox="0 0 10 10" width="10" xmlns="http://www.w3.org/2000/svg"><g fill="#00979d"><path d="m10 5.37682c0-1.31159-1.10687-2.37682-2.46357-2.37682-.12491 0-.25329.00694-.37821.02776-1.05482.1492-1.76266.90909-2.15822 1.49202-.39556-.58293-1.1034-1.34282-2.15822-1.49202-.12492-.01735-.2533-.02776-.37821-.02776-1.36017 0-2.46357 1.06523-2.46357 2.37682s1.10687 2.37682 2.46357 2.37682c.12491 0 .25329-.00694.38168-.02776 1.05482-.15267 1.76266-.91256 2.15822-1.49548.39556.58292 1.1034 1.34281 2.15822 1.49548.12492.01735.2533.02776.38168.02776 1.34976 0 2.45663-1.06523 2.45663-2.37682zm-7.27967 1.51631c-.08674.01388-.17349.01735-.26023.01735-.89521 0-1.620405-.69049-1.620405-1.53366 0-.84663.728665-1.53366 1.623875-1.53366.08674 0 .17349.00694.26023.01735.99584.14227 1.60306 1.12422 1.81124 1.51631-.21165.39556-.82234 1.37405-1.81471 1.51631zm2.74462-1.51631c.20472-.39209.81541-1.37404 1.81125-1.51631.08674-.01041.17349-.01735.26023-.01735.89521 0 1.6204.6905 1.6204 1.53366 0 .84664-.72866 1.53366-1.6204 1.53366-.08674 0-.17349-.00694-.26023-.01735-.99584-.14226-1.60653-1.12422-1.81125-1.51631z"/><path d="m1.78001 5.14434h1.48161v.47537h-1.48161zm5.9195.47884h.49966v-.47884h-.49966v-.49965h-.47883v.49965h-.49965v.47884h.49965v.49965h.47883zm1.83207-2.21721c0-.12145.09715-.22207.21512-.22207.12145 0 .2186.10062.2186.22207 0 .12838-.09715.22206-.2186.22206-.11797 0-.21512-.10062-.21512-.22206zm.39555 0c0-.10063-.07633-.18737-.18043-.18737-.10409 0-.17696.07633-.17696.18737 0 .1145.08328.18737.17696.18737.1041 0 .18043-.07287.18043-.18737zm-.28452-.1388h.10756c.08328 0 .11451.0347.11451.09369 0 .03817-.01735.06593-.05205.07981l.05205.10409h-.07634l-.03817-.09369h-.03816v.09369h-.0694zm.10062.13533c.03123 0 .04858-.01041.04858-.04511 0-.03123-.01041-.04164-.04858-.04164h-.03469v.09022z"/></g></svg>