<svg fill="none" height="10" viewBox="0 0 10 10" width="10" xmlns="http://www.w3.org/2000/svg"><path d="m3.7444 5.55349c.03637-.64859.35346-1.22168.8339-1.62662.47014-.39808 1.10158-.64173 1.79479-.64173.68977 0 1.32121.2433 1.79135.64173.48044.40494.79615.97803.8339 1.62662.03638.66575-.23164 1.28689-.70007 1.74674-.48044.46671-1.15991.76184-1.92518.76184s-1.44818-.29307-1.92519-.76184c-.47015-.45985-.73782-1.07755-.70007-1.7433z" fill="#fff"/><path d="m5.18222 5.47406c.01869-.33331.18164-.62781.42853-.83591.2416-.20457.56609-.32978.92232-.32978.35447 0 .67896.12504.92056.32978.24689.2081.40914.5026.42853.83591.0187.34212-.11903.66131-.35976.89763-.24689.23983-.59606.3915-.98933.3915-.39326 0-.7442-.15061-.98933-.3915-.2416-.23632-.37916-.55375-.35976-.89587z" fill="#265787"/><path d="m3.066 6.17946c.00229.1305.04391.38445.10634.58196.13121.41972.35447.8077.66308 1.14805.31744.35094.70894.63311 1.1604.83415.47438.20986.98933.31743 1.52368.31743.53434-.0007 1.04929-.11004 1.52368-.32272.45146-.2028.84296-.48497 1.16039-.83767.31038-.34389.53258-.73186.66308-1.15158.06613-.21162.10793-.42677.12468-.64192.01637-.21162.00957-.42501-.02063-.63839-.0589-.41443-.2028-.80417-.42324-1.15687-.20105-.32625-.46205-.61018-.77243-.85002l.00071-.00052-3.12142-2.39839c-.00283-.00212-.00512-.00441-.00812-.00635-.20456-.157305-.55021-.156775-.77418.00088-.22749.15943-.25395.42325-.05114.58902l-.00088.00088 1.30324 1.05988-3.96792.00423h-.00529c-.32801.00035-.64368.21515-.70541.48849-.06419.27688.15872.50789.50084.50789l-.00053.00124 2.01041-.00388-3.597572 2.75109c-.004585.00335-.009523.00687-.013756.01022-.33859502.25924-.447933.69131-.234548.96289.216913.27687.677191.27863 1.019316.00158l1.9575-1.6048s-.02857.21691-.02627.34565zm5.04366.72481c-.40384.4109-.96993.64545-1.58011.64545-.61194.00105-1.17803-.22926-1.58188-.64016-.19751-.20104-.34212-.4303-.43206-.67543-.08764-.2416-.12168-.49731-.09911-.75478.02134-.25219.09647-.49379.21692-.7107.1178-.21339.2804-.40737.47967-.57138.39327-.31919.89234-.49379 1.41434-.49379.52377-.0007 1.02284.17089 1.41611.49026.19927.16295.36152.35623.47967.56962.12045.21691.19576.45675.21692.7107.02222.25747-.01182.51318-.09946.75478-.08959.2469-.23455.47615-.43207.67719z" fill="#ea7600"/></svg>