<svg fill="none" height="10" viewBox="0 0 10 10" width="10" xmlns="http://www.w3.org/2000/svg" xmlns:xlink="http://www.w3.org/1999/xlink"><clipPath id="a"><path d="m0 1.016h10v7.968h-10z"/></clipPath><g clip-path="url(#a)"><path clip-rule="evenodd" d="m2.07704 1.01712c-.57058 0-.99279.49941-.97389 1.04102.01815.52033-.00543 1.19423-.175074 1.7438-.170254.55112-.457988.90036-.92806599.94518v.50609c.47007799.04493.75781299.39399.92804699.94518.169663.54957.193223 1.22348.175073 1.74381-.0189.54152.40331 1.04101.97399 1.04101h5.84662c.57059 0 .99271-.49941.97381-1.04101-.01815-.52033.00543-1.19424.17508-1.74381.17025-.55119.45728-.90039.92737-.94518v-.50609c-.47007-.04492-.7571-.39398-.92737-.94518-.16967-.54949-.19323-1.22347-.17508-1.7438.0189-.54153-.40322-1.04102-.97381-1.04102h-5.84678zm4.70264 4.90365c0 .74576-.55627 1.19805-1.47942 1.19805h-1.57144c-.04495 0-.08806-.01786-.11985-.04964-.03179-.03179-.04964-.0749-.04964-.11985v-3.8983c0-.04496.01785-.08807.04964-.11985.03179-.03179.0749-.04965.11985-.04965h1.5625c.76974 0 1.27492.41696 1.27492 1.05711 0 .44932-.33984.85157-.77279.92203v.02344c.58937.06465.98623.47285.98623 1.03666zm-1.65076-2.50195h-.89602v1.26562h.75467c.5834 0 .90508-.23492.90508-.65482-.00006-.39352-.27662-.6108-.76373-.6108zm-.89602 1.76779v1.39475h.92898c.60743 0 .92916-.24373.92916-.70178s-.33076-.69305-.96822-.69305h-.88992z" fill="#7952b3" fill-rule="evenodd"/></g></svg>