<svg width="10" height="10" viewBox="0 0 10 10" fill="none" xmlns="http://www.w3.org/2000/svg">
<g clip-path="url(#clip0_9_19)">
<path fill-rule="evenodd" clip-rule="evenodd" d="M2.07704 1.01712C1.50646 1.01712 1.08425 1.51653 1.10315 2.05814C1.1213 2.57847 1.09772 3.25237 0.928076 3.80194C0.757822 4.35306 0.470088 4.7023 1.00136e-05 4.74712V5.25321C0.470088 5.29814 0.757823 5.6472 0.928057 6.19839C1.09772 6.74796 1.12128 7.42187 1.10313 7.9422C1.08423 8.48372 1.50644 8.98321 2.07712 8.98321H7.92374C8.49433 8.98321 8.91645 8.4838 8.89755 7.9422C8.8794 7.42187 8.90298 6.74796 9.07263 6.19839C9.24288 5.6472 9.52991 5.298 10 5.25321V4.74712C9.52993 4.7022 9.2429 4.35314 9.07263 3.80194C8.90296 3.25245 8.8794 2.57847 8.89755 2.05814C8.91645 1.51661 8.49433 1.01712 7.92374 1.01712H2.07696H2.07704ZM6.77968 5.92077C6.77968 6.66653 6.22341 7.11882 5.30026 7.11882H3.72882C3.68387 7.11882 3.64076 7.10096 3.60897 7.06918C3.57718 7.03739 3.55933 6.99428 3.55933 6.94933V3.05103C3.55933 3.00607 3.57718 2.96296 3.60897 2.93118C3.64076 2.89939 3.68387 2.88153 3.72882 2.88153H5.29132C6.06106 2.88153 6.56624 3.29849 6.56624 3.93864C6.56624 4.38796 6.2264 4.79021 5.79345 4.86067V4.88411C6.38282 4.94876 6.77968 5.35696 6.77968 5.92077ZM5.12892 3.41882H4.2329V4.68444H4.98757C5.57097 4.68444 5.89265 4.44952 5.89265 4.02962C5.89259 3.6361 5.61603 3.41882 5.12892 3.41882ZM4.2329 5.18661V6.58136H5.16188C5.76931 6.58136 6.09104 6.33763 6.09104 5.87958C6.09104 5.42153 5.76028 5.18653 5.12282 5.18653H4.2329V5.18661Z" fill="#7952B3"/>
</g>
<defs>
<clipPath id="clip0_9_19">
<rect width="10" height="7.968" fill="white" transform="translate(0 1.016)"/>
</clipPath>
</defs>
</svg>
