<svg fill="none" height="10" viewBox="0 0 10 10" width="10" xmlns="http://www.w3.org/2000/svg" xmlns:xlink="http://www.w3.org/1999/xlink"><clipPath id="a"><path d="m1.074 0h7.852v10h-7.852z"/></clipPath><g clip-path="url(#a)" fill="#2ba977"><path d="m4.59484 0h1.63414v7.4898c-.83704.15832-1.45323.22062-2.11995.22062-1.99588-.00209-3.03483-.89375-3.03483-2.60625 0-1.65 1.10204-2.72084 2.80979-2.72084.26501 0 .46689.02085.71085.08333zm.05727 3.81641c-.19139-.06251-.34911-.08334-.55102-.08334-.82652 0-1.30393.50416-1.30393 1.38769 0 .86023.4564 1.33521 1.29344 1.33521.18084 0 .32806-.01018.56151-.04144z"/><path d="m8.90102 2.58441v3.75004c0 1.29144-.09674 1.91248-.38067 2.44792-.26501.51477-.61411.83937-1.33548 1.19789l-1.51636-.71456c.72137-.33525 1.07048-.63147 1.29343-1.08355.23341-.46228.30703-.99772.30703-2.40605v-3.19166zm-1.79673-2.58441h1.63414v1.66042h-1.63414z"/></g></svg>