<svg width="10" height="10" viewBox="0 0 10 10" fill="none" xmlns="http://www.w3.org/2000/svg">
<g clip-path="url(#clip0_9_27)">
<path d="M4.59484 0H6.22898V7.4898C5.39194 7.64812 4.77575 7.71042 4.10903 7.71042C2.11315 7.70833 1.0742 6.81667 1.0742 5.10417C1.0742 3.45417 2.17624 2.38333 3.88399 2.38333C4.149 2.38333 4.35088 2.40418 4.59484 2.46666V0ZM4.65211 3.81641C4.46072 3.7539 4.303 3.73307 4.10109 3.73307C3.27457 3.73307 2.79716 4.23723 2.79716 5.12076C2.79716 5.98099 3.25356 6.45597 4.0906 6.45597C4.27144 6.45597 4.41866 6.44579 4.65211 6.41453V3.81641Z" fill="#2BA977"/>
<path d="M8.90102 2.58441V6.33445C8.90102 7.62589 8.80428 8.24693 8.52035 8.78237C8.25534 9.29714 7.90624 9.62174 7.18487 9.98026L5.66851 9.2657C6.38988 8.93045 6.73899 8.63423 6.96194 8.18215C7.19535 7.71987 7.26897 7.18443 7.26897 5.7761V2.58444L8.90102 2.58441ZM7.10429 0H8.73843V1.66042H7.10429V0Z" fill="#2BA977"/>
</g>
<defs>
<clipPath id="clip0_9_27">
<rect width="7.852" height="10" fill="white" transform="translate(1.074)"/>
</clipPath>
</defs>
</svg>
