<svg fill="none" height="10" viewBox="0 0 10 10" width="10" xmlns="http://www.w3.org/2000/svg" xmlns:xlink="http://www.w3.org/1999/xlink"><clipPath id="a"><path d="m0 0h10v10h-10z"/></clipPath><g clip-path="url(#a)"><path d="m5.00246.00103026c2.76019.00093733 4.99719 2.23887974 4.99719 4.99905974v.00188c-.00094 2.76065-2.23981 4.99813-5.0009 4.99719-2.76069-.00094-4.99816115-2.24025-4.99722383-5.0009.00093733-2.7607 2.23981383-4.99816706 5.00093383-4.99722974zm-.02554 1.28569974c-.13728.51951-.60016.98098-1.08487 1.4657-.72495.72682-1.54917 1.54916-1.54917 2.78432.00188 1.45266 1.1781 2.63033 2.6308 2.63404 1.45547 0 2.63591-1.17908 2.63728-2.63404 0-1.23516-.82188-2.05704-1.54916-2.78432l-.06495-.06499c-.46058-.46112-.88921-.90405-1.01993-1.40071zm.03574 3.94434c.3024.32236.49444.54454.69338.78711.01484.01809.02832.03757.04039.05843.2435.35111.21054.82422-.07933 1.13776-.34134.36965-.9174.39238-1.2871.05104-.36966-.34138-.39238-.91744-.05104-1.2871.19391-.22914.42812-.45456.6837-.74724zm-1.20364-1.20872.12708.12013.59001.6034c.02226.02555.02226.06312 0 .08866l-.61688.68178-.2157.26253c-.08204.09991-.15165.2094-.20731.32608-.00788.01948-.0246.03386-.04499.03846h-.02179c-.05983-.00507-.12849-.11548-.12849-.11548l-.01094-.01652c-.01427-.02222-.02735-.0452-.03917-.06882l-.0116-.02503c-.0842-.27467-.09109-.56722-.01992-.84555l.00797-.02894c.0656-.23132.16901-.45019.30604-.64777.08808-.12962.18346-.25414.28569-.37293zm1.17165-1.21985c.1572.1786.33439.35763.50135.52459l.00371.0116c.34917.32527.66491.68468.94248 1.07284.23573.33121.36457.72657.36923 1.13307-.00002.17566-.02645.35031-.07842.51811l-.00258.00691c-.00684.01682-.01787.03162-.03203.043-.01416.01137-.03099.01894-.04889.02199h-.01668c-.03604-.01141-.0665-.0359-.08537-.06866l-.02797-.04199c-.15044-.2231-.32002-.43268-.50682-.62636l-.24069-.25417-.80243-.83579c-.13544-.13036-.37755-.36415-.4796-.49123-.00324-.00699-.00712-.01366-.0116-.01992-.02779-.03805-.04925-.08035-.06354-.12525v-.02503c-.01385-.0816-.00286-.16547.03156-.24074.02228-.04786.05291-.09137.09045-.12849.15536-.15536.31076-.30748.45776-.47448z" fill="#009dde"/></g></svg>