<svg width="10" height="10" viewBox="0 0 10 10" fill="none" xmlns="http://www.w3.org/2000/svg">
<g clip-path="url(#clip0_9_33)">
<path d="M5.00246 0.00103026C7.76265 0.00196759 9.99965 2.23991 9.99965 5.00009V5.00197C9.99871 7.76262 7.75984 10.0001 4.99875 9.99916C2.23806 9.99822 0.000588849 7.75891 0.00152617 4.99826C0.0024635 2.23756 2.24134 9.29383e-05 5.00246 0.00103026ZM4.97692 1.28673C4.83964 1.80624 4.37676 2.26771 3.89205 2.75243C3.1671 3.47925 2.34288 4.30159 2.34288 5.53675C2.34476 6.98941 3.52098 8.16708 4.97368 8.17079C6.42915 8.17079 7.60959 6.99171 7.61096 5.53675C7.61096 4.30159 6.78908 3.47971 6.0618 2.75243L5.99685 2.68744C5.53627 2.22632 5.10764 1.78339 4.97692 1.28673ZM5.01266 5.23107C5.31506 5.55343 5.5071 5.77561 5.70604 6.01818C5.72088 6.03627 5.73436 6.05575 5.74643 6.07661C5.98993 6.42772 5.95697 6.90083 5.6671 7.21437C5.32576 7.58402 4.7497 7.60675 4.38 7.26541C4.01034 6.92403 3.98762 6.34797 4.32896 5.97831C4.52287 5.74917 4.75708 5.52375 5.01266 5.23107ZM3.80902 4.02235L3.9361 4.14248L4.52611 4.74588C4.54837 4.77143 4.54837 4.809 4.52611 4.83454L3.90923 5.51632L3.69353 5.77885C3.61149 5.87876 3.54188 5.98825 3.48622 6.10493C3.47834 6.12441 3.46162 6.13879 3.44123 6.14339H3.41944C3.35961 6.13832 3.29095 6.02791 3.29095 6.02791L3.28001 6.01139C3.26574 5.98917 3.25266 5.96619 3.24084 5.94257L3.22924 5.91754C3.14504 5.64287 3.13815 5.35032 3.20932 5.07199L3.21729 5.04305C3.28289 4.81173 3.3863 4.59286 3.52333 4.39528C3.61141 4.26566 3.70679 4.14114 3.80902 4.02235ZM4.98067 2.8025C5.13787 2.9811 5.31506 3.16013 5.48202 3.32709L5.48573 3.33869C5.8349 3.66396 6.15064 4.02337 6.42821 4.41153C6.66394 4.74274 6.79278 5.1381 6.79744 5.5446C6.79742 5.72026 6.77099 5.89491 6.71902 6.06271L6.71644 6.06962C6.7096 6.08644 6.69857 6.10124 6.68441 6.11262C6.67025 6.12399 6.65342 6.13156 6.63552 6.13461H6.61884C6.5828 6.1232 6.55234 6.09871 6.53347 6.06595L6.5055 6.02396C6.35506 5.80086 6.18548 5.59128 5.99868 5.3976L5.75799 5.14343L4.95556 4.30764C4.82012 4.17728 4.57801 3.94349 4.47596 3.81641C4.47272 3.80942 4.46884 3.80275 4.46436 3.79649C4.43657 3.75844 4.41511 3.71614 4.40082 3.67124V3.64621C4.38697 3.56461 4.39796 3.48074 4.43238 3.40547C4.45466 3.35761 4.48529 3.3141 4.52283 3.27698C4.67819 3.12162 4.83359 2.9695 4.98059 2.8025H4.98067Z" fill="#009DDE"/>
</g>
<defs>
<clipPath id="clip0_9_33">
<rect width="10" height="10" fill="white"/>
</clipPath>
</defs>
</svg>
