<svg fill="none" height="10" viewBox="0 0 10 10" width="10" xmlns="http://www.w3.org/2000/svg"><path d="m4.99805 5.00189c0-.91871.74481-1.6673 1.6673-1.6673.91871 0 1.6673.74481 1.6673 1.6673 0 .91871-.7448 1.6673-1.6673 1.6673-.91871 0-1.6673-.74859-1.6673-1.6673z" fill="#1abcfe"/><path d="m1.66724 8.3327c0-.91871.7448-1.66729 1.66729-1.66729h1.6673v1.66729c0 .91872-.7448 1.6673-1.6673 1.6673-.92249 0-1.66729-.7448-1.66729-1.6673z" fill="#0acf83"/><path d="m4.99805.00378072v3.33080928h1.6673c.91871 0 1.6673-.7448 1.6673-1.66729 0-.918718-.7448-1.6673-1.6673-1.6673h-1.6673z" fill="#ff7262"/><path d="m1.66724 1.67108c0 .91871.7448 1.6673 1.66729 1.6673h1.6673v-3.33459582h-1.6673c-.92249 0-1.66729.74480082-1.66729 1.66729582z" fill="#f24e1e"/><path d="m1.66724 5.00189c0 .91871.7448 1.6673 1.66729 1.6673h1.6673v-3.3346h-1.6673c-.92249 0-1.66729.74859-1.66729 1.6673z" fill="#a259ff"/></svg>