<svg width="10" height="10" viewBox="0 0 10 10" fill="none" xmlns="http://www.w3.org/2000/svg">
<path d="M4.99805 5.00189C4.99805 4.08318 5.74286 3.33459 6.66535 3.33459C7.58406 3.33459 8.33265 4.0794 8.33265 5.00189C8.33265 5.9206 7.58785 6.66919 6.66535 6.66919C5.74664 6.66919 4.99805 5.9206 4.99805 5.00189Z" fill="#1ABCFE"/>
<path d="M1.66724 8.3327C1.66724 7.41399 2.41204 6.66541 3.33453 6.66541H5.00183V8.3327C5.00183 9.25142 4.25703 10 3.33453 10C2.41204 10 1.66724 9.2552 1.66724 8.3327Z" fill="#0ACF83"/>
<path d="M4.99805 0.00378072V3.33459H6.66535C7.58406 3.33459 8.33265 2.58979 8.33265 1.6673C8.33265 0.748582 7.58785 0 6.66535 0H4.99805V0.00378072Z" fill="#FF7262"/>
<path d="M1.66724 1.67108C1.66724 2.58979 2.41204 3.33838 3.33453 3.33838H5.00183V0.00378418H3.33453C2.41204 0.00378418 1.66724 0.748585 1.66724 1.67108Z" fill="#F24E1E"/>
<path d="M1.66724 5.00189C1.66724 5.9206 2.41204 6.66919 3.33453 6.66919H5.00183V3.33459H3.33453C2.41204 3.33459 1.66724 4.08318 1.66724 5.00189Z" fill="#A259FF"/>
</svg>
