<svg width="10" height="10" viewBox="0 0 10 10" fill="none" xmlns="http://www.w3.org/2000/svg">
<path d="M4.3639 1.5664C5.19336 1.5664 6.02259 1.5655 6.85204 1.56663C6.84619 1.79937 6.86172 2.03729 6.84484 2.26665C6.34266 2.26981 5.84026 2.26688 5.33786 2.26778C5.33876 2.57863 5.33584 2.88948 5.33944 3.2001C5.76598 3.19853 6.1923 3.19965 6.61885 3.19965V3.88865C6.19185 3.8891 5.76486 3.88865 5.33786 3.88888V5.46158C5.01306 5.46158 4.6887 5.4618 4.3639 5.46135V1.5664Z" fill="white"/>
<path d="M3.64699 7.85946C3.81828 7.70392 4.07578 7.68164 4.29119 7.74309C4.4249 7.78045 4.5568 7.87859 4.58201 8.02265C4.59169 8.10661 4.60069 8.20317 4.54757 8.27565C4.49377 8.35353 4.40284 8.3945 4.3137 8.41678C4.44583 8.44222 4.58764 8.51717 4.62545 8.65605C4.65044 8.79066 4.64526 8.94732 4.54802 9.05379C4.43187 9.18569 4.24888 9.23161 4.07938 9.23611C3.9288 9.23341 3.76831 9.20865 3.64766 9.11096C3.55447 9.03893 3.50923 8.92391 3.4856 8.81204C3.60062 8.80146 3.71609 8.80979 3.83156 8.80641C3.85879 8.97591 4.08298 9.02498 4.20768 8.93021C4.28129 8.86921 4.27791 8.75712 4.25563 8.67316C4.19148 8.54193 4.02153 8.55769 3.89954 8.55837C3.89931 8.47531 3.89931 8.3927 3.89954 8.30987C3.98259 8.30784 4.06993 8.32022 4.14826 8.28601C4.24055 8.24189 4.2455 8.11066 4.20273 8.03075C4.10347 7.91236 3.86982 7.96931 3.85992 8.13385C3.744 8.1343 3.62808 8.13497 3.51216 8.13317C3.52949 8.03121 3.56798 7.92901 3.64744 7.85901" fill="white"/>
<path d="M5.05267 7.78811C5.23612 7.69042 5.46279 7.69267 5.65569 7.762C5.80582 7.81624 5.90846 7.96435 5.91139 8.12327C5.8047 8.12327 5.69778 8.12439 5.59109 8.12259C5.56903 7.95377 5.32931 7.92789 5.22284 8.03075C5.14383 8.12619 5.17445 8.25742 5.16837 8.37086C5.3651 8.18336 5.73852 8.21578 5.88213 8.45347C5.94718 8.55701 5.94853 8.68486 5.94065 8.80281C5.92872 8.9732 5.80627 9.12289 5.64984 9.18479C5.46549 9.25727 5.25008 9.25592 5.06888 9.17443C4.91672 9.10556 4.81408 8.94754 4.8071 8.78143C4.80395 8.59415 4.80597 8.4071 4.8062 8.21983C4.80823 8.04673 4.89781 7.87184 5.05267 7.78811ZM5.16882 8.61239C5.17355 8.70445 5.14924 8.80641 5.20101 8.8897C5.27123 8.98423 5.42069 8.98761 5.51208 8.92391C5.59424 8.85323 5.58591 8.73146 5.57443 8.63399C5.5625 8.54643 5.46706 8.49781 5.38513 8.51065C5.30117 8.51155 5.22734 8.55544 5.16859 8.61239" fill="white"/>
<path d="M6.53759 7.73003C6.71856 7.69605 6.92047 7.70865 7.07781 7.81242C7.21759 7.9065 7.27633 8.08185 7.27386 8.24481C7.27116 8.42309 7.27814 8.60203 7.27026 8.7803C7.25923 8.9552 7.15141 9.12627 6.98304 9.18749C6.78091 9.26357 6.53872 9.25727 6.35122 9.14495C6.20896 9.05896 6.13806 8.8915 6.13648 8.72988C6.13535 8.57592 6.13693 8.42196 6.1358 8.26777C6.13468 8.14195 6.15741 8.00892 6.23687 7.90763C6.30957 7.81287 6.42167 7.75434 6.53736 7.73003M6.62492 7.98551C6.53917 8.0141 6.50293 8.10931 6.50045 8.19282C6.49685 8.36299 6.50022 8.53315 6.49865 8.70355C6.4982 8.78548 6.51125 8.88227 6.58351 8.93336C6.68277 8.99346 6.84844 8.97501 6.88896 8.85166C6.92857 8.71795 6.90314 8.57615 6.91034 8.43862C6.90359 8.31302 6.9324 8.17751 6.87522 8.06002C6.82931 7.97156 6.71136 7.95377 6.6247 7.98551" fill="white"/>
<path d="M1.81656 0C1.88498 0.00607743 1.95364 0.00517703 2.02229 0.00427668C4.14421 0.00427668 6.26591 0.00450177 8.38805 0.00427668C8.47584 0.00540212 8.5652 -0.00112548 8.65186 0.0193577C8.86209 0.0763054 9.01853 0.284288 9.01583 0.5024C9.0165 0.855566 9.01583 1.20873 9.01605 1.5619C9.0156 3.38648 9.01673 5.21105 9.0156 7.03563C6.61389 7.03833 4.21241 7.03338 1.8107 7.03811C1.81048 5.25382 1.8107 3.46976 1.81048 1.6857C1.83591 1.28346 1.81836 0.879876 1.82353 0.476965C1.82128 0.320528 1.82961 0.16364 1.81723 0.00742796L1.81678 0H1.81656ZM4.3639 1.5664V5.46158C4.6887 5.46203 5.01306 5.4618 5.33786 5.4618V3.8891C5.76486 3.88888 6.19185 3.8891 6.61885 3.88888V3.19988C6.1923 3.19988 5.76598 3.19875 5.33944 3.20033C5.33606 2.8897 5.33899 2.57908 5.33786 2.268C5.84026 2.2671 6.34266 2.27003 6.84484 2.26688C6.86172 2.03751 6.84641 1.79959 6.85204 1.56685C6.02258 1.56572 5.19335 1.56662 4.3639 1.56662" fill="#FF6B00"/>
<path d="M1.59777 0.125374C1.67002 0.0850832 1.7362 0.0306114 1.81701 0.00765228C1.82939 0.163865 1.82106 0.320752 1.82331 0.47719C1.81813 0.8801 1.83569 1.28369 1.81025 1.68592C1.81048 3.46998 1.81025 5.25405 1.81048 7.03833C1.57819 7.17316 1.35017 7.31587 1.119 7.45272C0.843493 7.61996 0.566858 7.78586 0.290672 7.95265C0.290672 5.60744 0.292248 3.26245 0.289997 0.91724C0.72307 0.648933 1.16222 0.39008 1.59777 0.125599" fill="#FF9447"/>
<path d="M9.01583 1.5619C9.24722 1.56167 9.47839 1.56122 9.71001 1.56212L9.70978 9.99984C7.0096 9.99984 4.30988 10.0003 1.6097 9.99961C1.34319 10.0111 1.1127 9.7644 1.1163 9.50307C1.11675 8.81969 1.11158 8.13587 1.119 7.45272C1.3504 7.31587 1.57819 7.17294 1.81048 7.03833C4.21196 7.03361 6.61345 7.03856 9.01538 7.03586C9.01651 5.21128 9.01538 3.3867 9.01583 1.56212M3.64699 7.85969C3.56753 7.92969 3.52904 8.03188 3.51171 8.13385C3.62763 8.13587 3.74355 8.13497 3.85947 8.13452C3.86938 7.96998 4.10302 7.91303 4.20228 8.03143C4.24505 8.11134 4.2401 8.24256 4.14781 8.28668C4.06948 8.32112 3.98215 8.30874 3.89909 8.31054C3.89886 8.39337 3.89886 8.47598 3.89909 8.55904C4.02131 8.55836 4.19125 8.54261 4.25518 8.67384C4.27746 8.75779 4.28084 8.86989 4.20724 8.93089C4.08254 9.02543 3.85835 8.97658 3.83134 8.80709C3.71586 8.81047 3.60017 8.80191 3.48537 8.81272C3.50901 8.92459 3.55425 9.03938 3.64744 9.11164C3.76786 9.2091 3.92857 9.23408 4.07916 9.23679C4.24888 9.23228 4.43165 9.18614 4.5478 9.05446C4.64504 8.948 4.65021 8.79111 4.62523 8.65673C4.58741 8.51785 4.44561 8.44289 4.31348 8.41746C4.40284 8.39517 4.49378 8.35421 4.54735 8.27633C4.60047 8.20385 4.59146 8.10729 4.58179 8.02333C4.55658 7.87949 4.42467 7.78113 4.29097 7.74376C4.07556 7.68231 3.81806 7.7046 3.64676 7.86014M5.05245 7.78878C4.89759 7.87252 4.80778 8.04741 4.80597 8.2205C4.80575 8.40778 4.80372 8.59483 4.80688 8.7821C4.81385 8.948 4.91649 9.10601 5.06865 9.17511C5.24985 9.25659 5.46526 9.25817 5.64961 9.18547C5.80605 9.12357 5.9285 8.97366 5.94043 8.80349C5.94831 8.68554 5.94695 8.55769 5.8819 8.45415C5.73807 8.21645 5.36487 8.18404 5.16814 8.37154C5.17422 8.2581 5.14338 8.12664 5.22262 8.03143C5.32908 7.92856 5.5688 7.95445 5.59086 8.12327C5.69756 8.12507 5.80447 8.12394 5.91117 8.12394C5.90824 7.96503 5.80537 7.81692 5.65546 7.76267C5.46256 7.69357 5.2359 7.69109 5.05245 7.78878ZM6.53737 7.73071C6.42167 7.75502 6.30958 7.81354 6.23687 7.90831C6.15719 8.00937 6.13445 8.1424 6.13581 8.26822C6.13693 8.42241 6.13535 8.57637 6.13648 8.73033C6.13783 8.89195 6.20873 9.05941 6.35122 9.1454C6.53872 9.25772 6.78091 9.26402 6.98304 9.18794C7.15141 9.12672 7.25923 8.95565 7.27026 8.78075C7.27836 8.60248 7.27116 8.42354 7.27386 8.24526C7.27656 8.08252 7.21781 7.90695 7.07781 7.81287C6.92024 7.70933 6.71856 7.6965 6.53759 7.73048" fill="#923B00"/>
<path d="M6.62515 7.98551C6.71181 7.95377 6.82953 7.97156 6.87568 8.06002C6.93285 8.17751 6.90404 8.31302 6.91079 8.43862C6.90381 8.57615 6.92925 8.71773 6.88941 8.85166C6.84912 8.97501 6.68322 8.99346 6.58396 8.93336C6.51171 8.88227 6.49843 8.78548 6.4991 8.70355C6.50068 8.53315 6.4973 8.36276 6.5009 8.19282C6.50338 8.10931 6.53962 8.0141 6.62538 7.98551" fill="#923B00"/>
<path d="M5.16882 8.61261C5.22757 8.55544 5.3014 8.51177 5.38535 8.51087C5.46706 8.49804 5.56272 8.54666 5.57465 8.63422C5.58613 8.73168 5.59446 8.85346 5.5123 8.92414C5.42092 8.98806 5.27123 8.98469 5.20123 8.88992C5.14946 8.80664 5.17399 8.70467 5.16904 8.61261" fill="#923B00"/>
</svg>
