<svg fill="none" height="10" viewBox="0 0 10 10" width="10" xmlns="http://www.w3.org/2000/svg"><g fill="#fff"><path d="m4.3639 1.5664c.82946 0 1.65869-.0009 2.48814.00023-.00585.23274.00968.47066-.0072.70002-.50218.00316-1.00458.00023-1.50698.00113.0009.31085-.00202.6217.00158.93232.42654-.00157.85286-.00045 1.27941-.00045v.689c-.427.00045-.85399 0-1.28099.00023v1.5727c-.3248 0-.64916.00022-.97396-.00023z"/><path d="m3.64699 7.85946c.17129-.15554.42879-.17782.6442-.11637.13371.03736.26561.1355.29082.27956.00968.08396.01868.18052-.03444.253-.0538.07788-.14473.11885-.23387.14113.13213.02544.27394.10039.31175.23927.02499.13461.01981.29127-.07743.39774-.11615.1319-.29914.17782-.46864.18232-.15058-.0027-.31107-.02746-.43172-.12515-.09319-.07203-.13843-.18705-.16206-.29892.11502-.01058.23049-.00225.34596-.00563.02723.1695.25142.21857.37612.1238.07361-.061.07023-.17309.04795-.25705-.06415-.13123-.2341-.11547-.35609-.11479-.00023-.08306-.00023-.16567 0-.2485.08305-.00203.17039.01035.24872-.02386.09229-.04412.09724-.17535.05447-.25526-.09926-.11839-.33291-.06144-.34281.1031-.11592.00045-.23184.00112-.34776-.00068.01733-.10196.05582-.20416.13528-.27416"/><path d="m5.05267 7.78811c.18345-.09769.41012-.09544.60302-.02611.15013.05424.25277.20235.2557.36127-.10669 0-.21361.00112-.3203-.00068-.02206-.16882-.26178-.1947-.36825-.09184-.07901.09544-.04839.22667-.05447.34011.19673-.1875.57015-.15508.71376.08261.06505.10354.0664.23139.05852.34934-.01193.17039-.13438.32008-.29081.38198-.18435.07248-.39976.07113-.58096-.01036-.15216-.06887-.2548-.22689-.26178-.393-.00315-.18728-.00113-.37433-.0009-.5616.00203-.1731.09161-.34799.24647-.43172zm.11615.82428c.00473.09206-.01958.19402.03219.27731.07022.09453.21968.09791.31107.03421.08216-.07068.07383-.19245.06235-.28992-.01193-.08756-.10737-.13618-.1893-.12334-.08396.0009-.15779.04479-.21654.10174"/><path d="m6.53759 7.73003c.18097-.03398.38288-.02138.54022.08239.13978.09408.19852.26943.19605.43239-.0027.17828.00428.35722-.0036.53549-.01103.1749-.11885.34597-.28722.40719-.20213.07608-.44432.06978-.63182-.04254-.14226-.08599-.21316-.25345-.21474-.41507-.00113-.15396.00045-.30792-.00068-.46211-.00112-.12582.02161-.25885.10107-.36014.0727-.09476.1848-.15329.30049-.1776m.08756.25548c-.08575.02859-.12199.1238-.12447.20731-.0036.17017-.00023.34033-.0018.51073-.00045.08193.0126.17872.08486.22981.09926.0601.26493.04165.30545-.0817.03961-.13371.01418-.27551.02138-.41304-.00675-.1256.02206-.26111-.03512-.3786-.04591-.08846-.16386-.10625-.25052-.07451"/></g><path d="m1.81656 0c.06842.00607743.13708.00517703.20573.00427668 2.12192 0 4.24362.00022509 6.36576 0 .08779.00112544.17715-.00540216.26381.01508102.21023.0569477.36667.2649303.36397.4830423.00067.353166 0 .70633.00022 1.0595-.00045 1.82458.00068 3.64915-.00045 5.47373-2.40171.0027-4.80319-.00225-7.2049.00248-.00022-1.78429 0-3.56835-.00022-5.35241.02543-.40224.00788-.805824.01305-1.208735-.00225-.156437.00608-.313325-.0063-.46953704l-.00045-.00742796zm2.54734 1.5664v3.89518c.3248.00045.64916.00022.97396.00022v-1.5727c.427-.00022.85399 0 1.28099-.00022v-.689c-.42655 0-.85287-.00113-1.27941.00045-.00338-.31063-.00045-.62125-.00158-.93233.5024-.0009 1.0048.00203 1.50698-.00112.01688-.22937.00157-.46729.0072-.70003-.82946-.00113-1.65869-.00023-2.48814-.00023" fill="#ff6b00"/><path d="m1.59777.125374c.07225-.0402908.13843-.0947626.21924-.11772172.01238.15621272.00405.31309972.0063.46953772-.00518.40291.01238.8065-.01306 1.20873.00023 1.78406 0 3.56813.00023 5.35241-.23229.13483-.46031.27754-.69148.41439-.275507.16724-.552142.33314-.828328.49993 0-2.34521.001576-4.6902-.000675-7.03541.433073-.268307.872223-.52716 1.307773-.791641" fill="#ff9447"/><path d="m9.01583 1.5619c.23139-.00023.46256-.00068.69418.00022l-.00023 8.43772c-2.70018 0-5.3999.00046-8.10008-.00023-.26651.01149-.497-.23521-.4934-.49654.00045-.68338-.00472-1.3672.0027-2.05035.2314-.13685.45919-.27978.69148-.41439 2.40148-.00472 4.80297.00023 7.2049-.00247.00113-1.82458 0-3.64916.00045-5.47374m-5.36884 6.29757c-.07946.07-.11795.17219-.13528.27416.11592.00202.23184.00112.34776.00067.00991-.16454.24355-.22149.34281-.10309.04277.07991.03782.21113-.05447.25525-.07833.03444-.16566.02206-.24872.02386-.00023.08283-.00023.16544 0 .2485.12222-.00068.29216-.01643.35609.1148.02228.08395.02566.19605-.04794.25705-.1247.09454-.34889.04569-.3759-.1238-.11548.00338-.23117-.00518-.34597.00563.02364.11187.06888.22666.16207.29892.12042.09746.28113.12244.43172.12515.16972-.00451.35249-.05065.46864-.18233.09724-.10646.10241-.26335.07743-.39773-.03782-.13888-.17962-.21384-.31175-.23927.08936-.02229.1803-.06325.23387-.14113.05312-.07248.04411-.16904.03444-.253-.02521-.14384-.15712-.2422-.29082-.27957-.21541-.06145-.47291-.03916-.64421.11638m1.40569-.07136c-.15486.08374-.24467.25863-.24648.43172-.00022.18728-.00225.37433.00091.5616.00697.1659.10961.32391.26177.39301.1812.08148.39661.08306.58096.01036.15644-.0619.27889-.21181.29082-.38198.00788-.11795.00652-.2458-.05853-.34934-.14383-.2377-.51703-.27011-.71376-.08261.00608-.11344-.02476-.2449.05448-.34011.10646-.10287.34618-.07698.36824.09184.1067.0018.21361.00067.32031.00067-.00293-.15891-.1058-.30702-.25571-.36127-.1929-.0691-.41956-.07158-.60301.02611zm1.48492-.05807c-.1157.02431-.22779.08283-.3005.1776-.07968.10106-.10242.23409-.10106.35991.00112.15419-.00046.30815.00067.46211.00135.16162.07225.32908.21474.41507.1875.11232.42969.11862.63182.04254.16837-.06122.27619-.23229.28722-.40719.0081-.17827.0009-.35721.0036-.53549.0027-.16274-.05605-.33831-.19605-.43239-.15757-.10354-.35925-.11637-.54022-.08239" fill="#923b00"/><path d="m6.62515 7.98551c.08666-.03174.20438-.01395.25053.07451.05717.11749.02836.253.03511.3786-.00698.13753.01846.27911-.02138.41304-.04029.12335-.20619.1418-.30545.0817-.07225-.05109-.08553-.14788-.08486-.22981.00158-.1704-.0018-.34079.0018-.51073.00248-.08351.03872-.17872.12448-.20731" fill="#923b00"/><path d="m5.16882 8.61261c.05875-.05717.13258-.10084.21653-.10174.08171-.01283.17737.03579.1893.12335.01148.09746.01981.21924-.06235.28992-.09138.06392-.24107.06055-.31107-.03422-.05177-.08328-.02724-.18525-.03219-.27731" fill="#923b00"/></svg>