<svg width="10" height="10" viewBox="0 0 10 10" fill="none" xmlns="http://www.w3.org/2000/svg">
<g clip-path="url(#clip0_9_50)">
<path d="M4.95735 0.0228653C2.42509 0.0228653 2.5832 1.121 2.5832 1.121L2.58601 2.25871H5.0025V2.60028H1.62622C1.62622 2.60028 0.00582504 2.41651 0.00582504 4.97154C0.00582504 7.52665 1.42015 7.43604 1.42015 7.43604H2.26421V6.25037C2.26421 6.25037 2.2187 4.83605 3.65595 4.83605H6.05268C6.05268 4.83605 7.39923 4.8578 7.39923 3.53464V1.34688C7.39923 1.34688 7.60374 0.0228653 4.95735 0.0228653ZM3.6249 0.78795C3.682 0.787898 3.73856 0.799108 3.79132 0.820936C3.84409 0.842765 3.89203 0.874785 3.93241 0.915163C3.97279 0.955541 4.00481 1.00349 4.02664 1.05625C4.04847 1.10902 4.05968 1.16557 4.05962 1.22267C4.05968 1.27978 4.04847 1.33633 4.02664 1.3891C4.00481 1.44186 3.97279 1.48981 3.93241 1.53019C3.89203 1.57056 3.84409 1.60258 3.79132 1.62441C3.73856 1.64624 3.682 1.65745 3.6249 1.6574C3.5678 1.65745 3.51124 1.64624 3.45848 1.62441C3.40571 1.60258 3.35777 1.57056 3.31739 1.53019C3.27701 1.48981 3.24499 1.44186 3.22316 1.3891C3.20133 1.33633 3.19012 1.27978 3.19017 1.22267C3.19012 1.16557 3.20133 1.10902 3.22316 1.05625C3.24499 1.00349 3.27701 0.955541 3.31739 0.915163C3.35777 0.874785 3.40571 0.842765 3.45848 0.820936C3.51124 0.799108 3.5678 0.787898 3.6249 0.78795Z" fill="url(#paint0_linear_9_50)"/>
<path d="M5.02914 9.94579C7.5614 9.94579 7.40329 8.84765 7.40329 8.84765L7.40048 7.70999H4.98395V7.36842H8.36023C8.36023 7.36842 9.98063 7.55219 9.98063 4.99708C9.98063 2.44201 8.56631 2.53262 8.56631 2.53262H7.72225V3.71825C7.72225 3.71825 7.76775 5.13257 6.3305 5.13257H3.93377C3.93377 5.13257 2.58722 5.11082 2.58722 6.43401V8.62182C2.58722 8.62182 2.38275 9.94579 5.0291 9.94579H5.02914ZM6.36159 9.18079C6.30449 9.18084 6.24794 9.16963 6.19517 9.1478C6.1424 9.12597 6.09446 9.09395 6.05408 9.05357C6.0137 9.01319 5.98168 8.96525 5.95985 8.91248C5.93803 8.85972 5.92682 8.80316 5.92687 8.74606C5.92681 8.68895 5.93802 8.6324 5.95984 8.57963C5.98167 8.52685 6.01369 8.47891 6.05407 8.43852C6.09445 8.39814 6.14239 8.36612 6.19516 8.34429C6.24793 8.32246 6.30449 8.31125 6.36159 8.3113C6.4187 8.31125 6.47525 8.32245 6.52801 8.34428C6.58078 8.36611 6.62873 8.39813 6.6691 8.43851C6.70948 8.47889 6.7415 8.52683 6.76333 8.5796C6.78516 8.63237 6.79637 8.68892 6.79632 8.74602C6.79637 8.80312 6.78516 8.85968 6.76333 8.91244C6.7415 8.96521 6.70948 9.01315 6.6691 9.05353C6.62873 9.09391 6.58078 9.12593 6.52801 9.14776C6.47525 9.16959 6.4187 9.18084 6.36159 9.18079Z" fill="url(#paint1_linear_9_50)"/>
</g>
<defs>
<linearGradient id="paint0_linear_9_50" x1="95.8645" y1="89.2748" x2="590.191" y2="578.67" gradientUnits="userSpaceOnUse">
<stop stop-color="#387EB8"/>
<stop offset="1" stop-color="#366994"/>
</linearGradient>
<linearGradient id="paint1_linear_9_50" x1="144.075" y1="155.096" x2="674.925" y2="656.926" gradientUnits="userSpaceOnUse">
<stop stop-color="#FFE052"/>
<stop offset="1" stop-color="#FFC331"/>
</linearGradient>
<clipPath id="clip0_9_50">
<rect width="10" height="9.96" fill="white" transform="translate(0 0.0200005)"/>
</clipPath>
</defs>
</svg>
