<svg fill="none" height="10" viewBox="0 0 10 10" width="10" xmlns="http://www.w3.org/2000/svg" xmlns:xlink="http://www.w3.org/1999/xlink"><linearGradient id="a" gradientUnits="userSpaceOnUse" x1="95.8645" x2="590.191" y1="89.2748" y2="578.67"><stop offset="0" stop-color="#387eb8"/><stop offset="1" stop-color="#366994"/></linearGradient><linearGradient id="b" gradientUnits="userSpaceOnUse" x1="144.075" x2="674.925" y1="155.096" y2="656.926"><stop offset="0" stop-color="#ffe052"/><stop offset="1" stop-color="#ffc331"/></linearGradient><clipPath id="c"><path d="m0 .020001h10v9.96h-10z"/></clipPath><g clip-path="url(#c)"><path d="m4.95735.0228653c-2.53226 0-2.37415 1.0981347-2.37415 1.0981347l.00281 1.13771h2.41649v.34157h-3.37628s-1.62039496-.18377-1.62039496 2.37126c0 2.55511 1.41432496 2.4645 1.41432496 2.4645h.84406v-1.18567s-.04551-1.41432 1.39174-1.41432h2.39673s1.34655.02175 1.34655-1.30141v-2.18776s.20451-1.3240147-2.44188-1.3240147zm-1.33245.7650847c.0571-.000052.11366.011158.16642.032986.05277.021829.10071.053849.14109.094227s.0724.088327.09423.141087c.02183.05277.03304.10932.03298.16642.00006.05711-.01115.11366-.03298.16643-.02183.05276-.05385.10071-.09423.14109-.04038.04037-.08832.07239-.14109.09422-.05276.02183-.10932.03304-.16642.03299-.0571.00005-.11366-.01116-.16642-.03299-.05277-.02183-.10071-.05385-.14109-.09422-.04038-.04038-.0724-.08833-.09423-.14109-.02183-.05277-.03304-.10932-.03299-.16643-.00005-.0571.01116-.11365.03299-.16642.02183-.05276.05385-.100709.09423-.141087s.08832-.072398.14109-.094227c.05276-.021828.10932-.033038.16642-.032986z" fill="url(#a)"/><path d="m5.02914 9.94579c2.53226 0 2.37415-1.09814 2.37415-1.09814l-.00281-1.13766h-2.41653v-.34157h3.37628s1.6204.18377 1.6204-2.37134c0-2.55507-1.41432-2.46446-1.41432-2.46446h-.84406v1.18563s.0455 1.41432-1.39175 1.41432h-2.39673s-1.34655-.02175-1.34655 1.30144v2.18781s-.20447 1.32397 2.44188 1.32397zm1.33245-.765c-.0571.00005-.11365-.01116-.16642-.03299s-.10071-.05385-.14109-.09423-.0724-.08832-.09423-.14109c-.02182-.05276-.03303-.10932-.03298-.16642-.00006-.05711.01115-.11366.03297-.16643.02183-.05278.05385-.10072.09423-.14111.04038-.04038.08832-.0724.14109-.09423s.10933-.03304.16643-.03299c.05711-.00005.11366.01115.16642.03298.05277.02183.10072.05385.14109.09423.04038.04038.0724.08832.09423.14109s.03304.10932.03299.16642c.00005.0571-.01116.11366-.03299.16642-.02183.05277-.05385.10071-.09423.14109-.04037.04038-.08832.0724-.14109.09423-.05276.02183-.10931.03308-.16642.03303z" fill="url(#b)"/></g></svg>