<svg width="10" height="10" viewBox="0 0 10 10" fill="none" xmlns="http://www.w3.org/2000/svg">
<path d="M3.20441 0.000110604C3.15384 0.0016799 3.09938 0.0203603 3.03762 0.0690962C2.88635 0.0107459 2.73964 -0.00952557 2.60842 0.109265C2.40592 0.0829876 2.34002 0.137219 2.29013 0.200518C2.24566 0.199598 1.95734 0.154802 1.82513 0.352025C1.49286 0.312716 1.38786 0.54746 1.50684 0.766375C1.43898 0.871428 1.36866 0.975214 1.52736 1.17549C1.47122 1.28703 1.50602 1.40803 1.63826 1.55447C1.60336 1.71127 1.67196 1.8219 1.795 1.90813C1.77199 2.1227 1.99178 2.24747 2.05741 2.29192C2.08261 2.41695 2.13514 2.53492 2.38619 2.60017C2.42759 2.7865 2.57847 2.81868 2.72456 2.85777C2.24167 3.13846 1.82757 3.50778 1.83037 4.41388L1.75964 4.54006C1.20593 4.87681 0.70777 5.95912 1.48675 6.83886C1.53764 7.11422 1.62297 7.312 1.69895 7.5309C1.81259 8.41294 2.55427 8.82596 2.74989 8.87481C3.03654 9.09316 3.34185 9.30034 3.75498 9.44547C4.14445 9.84715 4.56638 10.0002 4.99061 9.99997C4.99683 9.99997 5.00317 10 5.00939 9.99997C5.43362 10.0002 5.85555 9.84715 6.24501 9.44547C6.65815 9.30034 6.96346 9.09316 7.25011 8.87481C7.44573 8.82596 8.1874 8.41294 8.30105 7.5309C8.37702 7.312 8.46236 7.11422 8.51324 6.83886C9.29223 5.95912 8.79407 4.87681 8.24036 4.54006L8.16963 4.41388C8.17243 3.50778 7.75832 3.13846 7.27543 2.85777C7.42153 2.81868 7.57241 2.7865 7.61381 2.60017C7.86486 2.53492 7.91738 2.41695 7.94258 2.29192C8.00822 2.24747 8.228 2.1227 8.20499 1.90813C8.32804 1.8219 8.39664 1.71127 8.36174 1.55447C8.49398 1.40803 8.52878 1.28703 8.47264 1.17549C8.63133 0.975214 8.56102 0.871428 8.49316 0.766375C8.61214 0.54746 8.50714 0.312716 8.17487 0.352025C8.04266 0.154802 7.75433 0.199598 7.70987 0.200518C7.65997 0.137219 7.59408 0.0829876 7.39157 0.109265C7.26035 -0.00952557 7.11365 0.0107459 6.96238 0.0690962C6.78271 -0.0726811 6.66377 0.0409669 6.52794 0.0839412C6.31035 0.012856 6.26062 0.110221 6.15376 0.149871C5.91659 0.0997388 5.84449 0.208881 5.73068 0.324081L5.59838 0.321461C5.24056 0.532339 5.06279 0.961725 4.99978 1.18247C4.93674 0.96169 4.75938 0.532302 4.40161 0.321461L4.26932 0.324081C4.15551 0.208881 4.08341 0.0997387 3.84624 0.149871C3.73938 0.110221 3.68965 0.012856 3.47205 0.0839412C3.38292 0.0557393 3.30095 -0.00288533 3.20441 0.000110604Z" fill="black"/>
<path d="M2.40736 0.927826C3.3567 1.41728 3.90858 1.8132 4.21093 2.15042C4.05609 2.77101 3.24833 2.79933 2.95298 2.78192C3.01345 2.75377 3.06391 2.72006 3.0818 2.66825C3.00769 2.61558 2.7449 2.6627 2.56144 2.55963C2.63192 2.54503 2.66488 2.53081 2.69785 2.4788C2.52452 2.42352 2.33781 2.37588 2.22801 2.2843C2.28727 2.28503 2.34259 2.29755 2.41999 2.24388C2.26474 2.16022 2.09907 2.09392 1.97035 1.96602C2.05063 1.96405 2.13717 1.96523 2.16233 1.93571C2.02023 1.84768 1.90034 1.74977 1.80111 1.64269C1.91344 1.65625 1.96088 1.64457 1.98804 1.62501C1.88062 1.51499 1.74468 1.42209 1.67986 1.28652C1.76327 1.31527 1.83958 1.32627 1.89457 1.28399C1.85807 1.20165 1.70169 1.15308 1.61166 0.960665C1.69946 0.969179 1.79259 0.979822 1.81122 0.960665C1.77039 0.79456 1.70045 0.701209 1.63187 0.604496C1.81979 0.601706 2.1045 0.605228 2.0916 0.58934L1.97541 0.470617C2.15896 0.421196 2.34679 0.478556 2.48314 0.521138C2.54436 0.472828 2.48205 0.411739 2.40736 0.349368C2.56335 0.370195 2.70431 0.406057 2.83173 0.455461C2.8998 0.393995 2.78752 0.332528 2.73321 0.271062C2.97422 0.316786 3.07632 0.381029 3.17779 0.445357C3.25141 0.374789 3.18201 0.314815 3.13232 0.25338C3.31403 0.320683 3.40763 0.407566 3.50617 0.493351C3.53958 0.448264 3.59105 0.415216 3.52891 0.306426C3.65792 0.380794 3.7551 0.46843 3.82698 0.566606C3.9068 0.515777 3.87454 0.446267 3.87497 0.382207C4.00905 0.491278 4.09415 0.607347 4.1983 0.720693C4.21928 0.705416 4.23765 0.653605 4.25387 0.571658C4.57376 0.881996 5.02576 1.66367 4.37007 1.9736C3.81234 1.51327 3.14592 1.17878 2.40736 0.927826Z" fill="#75A928"/>
<path d="M7.44464 0.927826C6.49529 1.41728 5.94342 1.8132 5.64107 2.15042C5.79591 2.77101 6.60367 2.79933 6.89902 2.78192C6.83855 2.75377 6.78809 2.72006 6.7702 2.66825C6.84431 2.61558 7.1071 2.6627 7.29056 2.55963C7.22008 2.54503 7.18712 2.53081 7.15415 2.4788C7.32748 2.42352 7.51418 2.37588 7.62399 2.2843C7.56473 2.28503 7.5094 2.29755 7.43201 2.24388C7.58726 2.16022 7.75293 2.09392 7.88164 1.96602C7.80137 1.96405 7.71483 1.96523 7.68967 1.93571C7.83176 1.84768 7.95165 1.74977 8.05089 1.64269C7.93855 1.65625 7.89112 1.64457 7.86396 1.62501C7.97137 1.51499 8.10732 1.42209 8.17214 1.28652C8.08873 1.31527 8.01242 1.32627 7.95742 1.28399C7.99392 1.20165 8.15031 1.15308 8.24034 0.960665C8.15253 0.969179 8.05941 0.979822 8.04078 0.960665C8.08161 0.79456 8.15154 0.701209 8.22013 0.604496C8.03221 0.601706 7.7475 0.605228 7.76039 0.58934L7.87659 0.470617C7.69304 0.421196 7.50521 0.478556 7.36886 0.521138C7.30764 0.472828 7.36995 0.411739 7.44464 0.349368C7.28865 0.370195 7.14769 0.406057 7.02027 0.455461C6.9522 0.393995 7.06448 0.332528 7.11879 0.271062C6.87778 0.316786 6.77568 0.381029 6.67421 0.445357C6.60058 0.374789 6.66999 0.314815 6.71968 0.25338C6.53796 0.320683 6.44436 0.407566 6.34582 0.493351C6.31242 0.448264 6.26095 0.415216 6.32309 0.306426C6.19407 0.380794 6.0969 0.46843 6.02502 0.566606C5.94519 0.515777 5.97746 0.446267 5.97703 0.382207C5.84294 0.491278 5.75785 0.607347 5.6537 0.720693C5.63271 0.705416 5.61434 0.653605 5.59812 0.571658C5.27823 0.881996 4.82624 1.66367 5.48193 1.9736C6.03966 1.51327 6.70608 1.17878 7.44464 0.927826Z" fill="#75A928"/>
<path d="M6.07571 7.24734C6.07571 7.52544 5.9559 7.79216 5.74264 7.98881C5.52938 8.18547 5.24014 8.29594 4.93855 8.29594C4.63695 8.29594 4.34771 8.18547 4.13445 7.98881C3.92119 7.79216 3.80138 7.52544 3.80138 7.24734C3.80138 6.96923 3.92119 6.70251 4.13445 6.50586C4.34771 6.30921 4.63695 6.19873 4.93855 6.19873C5.24014 6.19873 5.52938 6.30921 5.74264 6.50586C5.9559 6.70251 6.07571 6.96923 6.07571 7.24734Z" fill="#BC1142"/>
<path d="M4.28044 4.25181C4.50671 4.40005 4.65382 4.648 4.6894 4.9411C4.72498 5.2342 4.64612 5.54845 4.47016 5.81472C4.29421 6.08099 4.03558 6.27746 3.75116 6.36091C3.46675 6.44437 3.17985 6.40797 2.95357 6.25972C2.7273 6.11148 2.5802 5.86353 2.54462 5.57043C2.50904 5.27733 2.5879 4.96308 2.76386 4.69681C2.93981 4.43054 3.19844 4.23407 3.48286 4.15062C3.76727 4.06717 4.05417 4.10356 4.28044 4.25181Z" fill="#BC1142"/>
<path d="M5.55233 4.19592C5.32606 4.34416 5.17895 4.59211 5.14337 4.88521C5.10779 5.17832 5.18665 5.49257 5.36261 5.75883C5.53856 6.0251 5.79719 6.22157 6.08161 6.30502C6.36602 6.38848 6.65292 6.35208 6.87919 6.20383C7.10546 6.05559 7.25257 5.80764 7.28815 5.51454C7.32373 5.22144 7.24487 4.90719 7.06891 4.64092C6.89296 4.37465 6.63433 4.17818 6.34991 4.09473C6.0655 4.01128 5.7786 4.04767 5.55233 4.19592Z" fill="#BC1142"/>
<path d="M1.92559 4.75654C2.43436 4.62022 2.09732 6.8612 1.68341 6.67732C1.22812 6.31108 1.08146 5.23857 1.92559 4.75654Z" fill="#BC1142"/>
<path d="M7.80446 4.7286C7.29569 4.59228 7.63273 6.83326 8.04664 6.64938C8.50194 6.28314 8.64859 5.21063 7.80446 4.7286Z" fill="#BC1142"/>
<path d="M6.07606 3.05989C6.95398 2.91165 7.68444 3.43325 7.65503 4.38522C7.62615 4.75018 5.75265 3.11422 6.07606 3.05989Z" fill="#BC1142"/>
<path d="M3.6504 3.03194C2.77248 2.8837 2.04203 3.4053 2.07143 4.35728C2.10031 4.72224 3.97381 3.08628 3.6504 3.03194Z" fill="#BC1142"/>
<path d="M4.91148 2.80983C4.38751 2.7962 3.88462 3.19872 3.88342 3.43219C3.88196 3.71588 4.2977 4.00633 4.91506 4.0137C5.54551 4.01822 5.94779 3.7812 5.94982 3.48844C5.95212 3.15676 5.37644 2.8047 4.91148 2.80983Z" fill="#BC1142"/>
<path d="M4.94348 8.62713C5.40032 8.60719 6.01331 8.77428 6.01451 8.99592C6.02209 9.21116 5.45858 9.69745 4.91317 9.68805C4.34833 9.71242 3.79446 9.22537 3.80172 9.05655C3.79327 8.80903 4.48949 8.61577 4.94348 8.62713Z" fill="#BC1142"/>
<path d="M3.2561 7.3136C3.58135 7.70545 3.72961 8.39388 3.45818 8.59681C3.20139 8.75173 2.57779 8.68793 2.13455 8.0512C1.83562 7.51689 1.87415 6.97318 2.08403 6.81345C2.39789 6.62225 2.88284 6.8805 3.2561 7.3136Z" fill="#BC1142"/>
<path d="M6.56576 7.18936C6.21386 7.60155 6.0179 8.35335 6.27462 8.59552C6.52008 8.78363 7.179 8.75734 7.66573 8.08198C8.01916 7.62839 7.90074 6.87087 7.69886 6.66978C7.39896 6.43782 6.96845 6.73468 6.56576 7.18936Z" fill="#BC1142"/>
</svg>
