<svg fill="none" height="10" viewBox="0 0 10 10" width="10" xmlns="http://www.w3.org/2000/svg"><path d="m3.20441.0001106c-.05057.0015693-.10503.0202497-.16679.0689856-.15127-.0583503-.29798-.07862177-.4292.0401688-.2025-.0262774-.2684.027954-.31829.091253-.04447-.00092-.33279-.045716-.465.151507-.33227-.039309-.43727.195435-.31829.41435-.06786.105053-.13818.208839.02052.409115-.05614.11154-.02134.23254.1109.37898-.0349.1568.0337.26743.15674.35366-.02301.21457.19678.33934.26241.38379.0252.12503.07773.243.32878.30825.0414.18633.19228.21851.33837.2576-.48289.28069-.89699.65001-.89419 1.55611l-.07073.12618c-.55371.33675-1.05187 1.41906-.27289 2.2988.05089.27536.13622.47314.2122.69204.11364.88204.85532 1.29506 1.05094 1.34391.28665.21835.59196.42553 1.00509.57066.38947.40168.8114.55473 1.23563.5545.00622 0 .01256.00003.01878 0 .42423.00023.84616-.15282 1.23562-.5545.41314-.14513.71845-.35231 1.0051-.57066.19562-.04885.93729-.46187 1.05094-1.34391.07597-.2189.16131-.41668.21219-.69204.77899-.87974.28083-1.96205-.27288-2.2988l-.07073-.12618c.0028-.9061-.41131-1.27542-.8942-1.55611.1461-.03909.29698-.07127.33838-.2576.25105-.06525.30357-.18322.32877-.30825.06564-.04445.28542-.16922.26241-.38379.12305-.08623.19165-.19686.15675-.35366.13224-.14644.16704-.26744.1109-.37898.15869-.200276.08838-.304062.02052-.409115.11898-.218915.01398-.453659-.31829-.41435-.13221-.197223-.42054-.152427-.465-.151507-.0499-.063299-.11579-.1175304-.3183-.091253-.13122-.11879057-.27792-.0985191-.42919-.0401688-.17967-.1417773-.29861-.0281293-.43444.014845-.21759-.0710852-.26732.0262798-.37418.0659298-.23717-.0501322-.30927.05901-.42308.17421l-.1323-.00262c-.35782.210878-.53559.640264-.5986.861009-.06304-.22078-.2404-.650168-.59817-.861009l-.13229.00262c-.11381-.1152-.18591-.2243423-.42308-.17421-.10686-.03965-.15659-.137015-.37419-.0659298-.08913-.0282019-.1711-.08682653-.26764-.0838306z" fill="#000"/><path d="m2.40736.927826c.94934.489454 1.50122.885374 1.80357 1.222594-.15484.62059-.9626.64891-1.25795.6315.06047-.02815.11093-.06186.12882-.11367-.07411-.05267-.3369-.00555-.52036-.10862.07048-.0146.10344-.02882.13641-.08083-.17333-.05528-.36004-.10292-.46984-.1945.05926.00073.11458.01325.19198-.04042-.15525-.08366-.32092-.14996-.44964-.27786.08028-.00197.16682-.00079.19198-.03031-.1421-.08803-.26199-.18594-.36122-.29302.11233.01356.15977.00188.18693-.01768-.10742-.11002-.24336-.20292-.30818-.33849.08341.02875.15972.03975.21471-.00253-.0365-.08234-.19288-.13091-.28291-.323325.0878.008514.18093.019157.19956 0-.04083-.166105-.11077-.259456-.17935-.356169.18792-.00279.47263.000732.45973-.015156l-.11619-.118723c.18355-.049421.37138.007939.50773.050521.06122-.04831-.00109-.109399-.07578-.17177.15599.020827.29695.056689.42437.106093.06807-.061466-.04421-.122933-.09852-.184399.24101.045724.34311.109967.44458.174295.07362-.070568.00422-.130542-.04547-.191977.18171.067303.27531.154186.37385.239971.03341-.045087.08488-.078135.02274-.186925.12901.074368.22619.162004.29807.26018.07982-.050829.04756-.120339.04799-.184399.13408.109071.21918.22514.32333.338486.02098-.015277.03935-.067088.05557-.149035.31989.310338.77189 1.092012.1162 1.401942-.55773-.46033-1.22415-.79482-1.96271-1.045774z" fill="#75a928"/><path d="m7.44464.927826c-.94935.489454-1.50122.885374-1.80357 1.222594.15484.62059.9626.64891 1.25795.6315-.06047-.02815-.11093-.06186-.12882-.11367.07411-.05267.3369-.00555.52036-.10862-.07048-.0146-.10344-.02882-.13641-.08083.17333-.05528.36003-.10292.46984-.1945-.05926.00073-.11459.01325-.19198-.04042.15525-.08366.32092-.14996.44963-.27786-.08027-.00197-.16681-.00079-.19197-.03031.14209-.08803.26198-.18594.36122-.29302-.11234.01356-.15977.00188-.18693-.01768.10741-.11002.24336-.20292.30818-.33849-.08341.02875-.15972.03975-.21472-.00253.0365-.08234.19289-.13091.28292-.323325-.08781.008514-.18093.019157-.19956 0 .04083-.166105.11076-.259456.17935-.356169-.18792-.00279-.47263.000732-.45974-.015156l.1162-.118723c-.18355-.049421-.37138.007939-.50773.050521-.06122-.04831.00109-.109399.07578-.17177-.15599.020827-.29695.056689-.42437.106093-.06807-.061466.04421-.122933.09852-.184399-.24101.045724-.34311.109967-.44458.174295-.07363-.070568-.00422-.130542.04547-.191977-.18172.067303-.27532.154186-.37386.239971-.0334-.045087-.08487-.078135-.02273-.186925-.12902.074368-.22619.162004-.29807.26018-.07983-.050829-.04756-.120339-.04799-.184399-.13409.109071-.21918.22514-.32333.338486-.02099-.015277-.03936-.067088-.05558-.149035-.31989.310338-.77188 1.092012-.11619 1.401942.55773-.46033 1.22415-.79482 1.96271-1.045774z" fill="#75a928"/><g fill="#bc1142"><path d="m6.07571 7.24734c0 .2781-.11981.54482-.33307.74147-.21326.19666-.5025.30713-.80409.30713-.3016 0-.59084-.11047-.8041-.30713-.21326-.19665-.33307-.46337-.33307-.74147 0-.27811.11981-.54483.33307-.74148s.5025-.30713.8041-.30713c.30159 0 .59083.11048.80409.30713s.33307.46337.33307.74148z"/><path d="m4.28044 4.25181c.22627.14824.37338.39619.40896.68929s-.04328.60735-.21924.87362c-.17595.26627-.43458.46274-.719.54619-.28441.08346-.57131.04706-.79759-.10119-.22627-.14824-.37337-.39619-.40895-.68929s.04328-.60735.21924-.87362c.17595-.26627.43458-.46274.719-.54619.28441-.08345.57131-.04706.79758.10119z"/><path d="m5.55233 4.19592c-.22627.14824-.37338.39619-.40896.68929-.03558.29311.04328.60736.21924.87362.17595.26627.43458.46274.719.54619.28441.08346.57131.04706.79758-.10119.22627-.14824.37338-.39619.40896-.68929s-.04328-.60735-.21924-.87362c-.17595-.26627-.43458-.46274-.719-.54619-.28441-.08345-.57131-.04706-.79758.10119z"/><path d="m1.92559 4.75654c.50877-.13632.17173 2.10466-.24218 1.92078-.45529-.36624-.60195-1.43875.24218-1.92078z"/><path d="m7.80446 4.7286c-.50877-.13632-.17173 2.10466.24218 1.92078.4553-.36624.60195-1.43875-.24218-1.92078z"/><path d="m6.07606 3.05989c.87792-.14824 1.60838.37336 1.57897 1.32533-.02888.36496-1.90238-1.271-1.57897-1.32533z"/><path d="m3.6504 3.03194c-.87792-.14824-1.60837.37336-1.57897 1.32534.02888.36496 1.90238-1.271 1.57897-1.32534z"/><path d="m4.91148 2.80983c-.52397-.01363-1.02686.38889-1.02806.62236-.00146.28369.41428.57414 1.03164.58151.63045.00452 1.03273-.2325 1.03476-.52526.0023-.33168-.57338-.68374-1.03834-.67861z"/><path d="m4.94348 8.62713c.45684-.01994 1.06983.14715 1.07103.36879.00758.21524-.55593.70153-1.10134.69213-.56484.02437-1.11871-.46268-1.11145-.6315-.00845-.24752.68777-.44078 1.14176-.42942z"/><path d="m3.2561 7.3136c.32525.39185.47351 1.08028.20208 1.28321-.25679.15492-.88039.09112-1.32363-.54561-.29893-.53431-.2604-1.07802-.05052-1.23775.31386-.1912.79881.06705 1.17207.50015z"/><path d="m6.56576 7.18936c-.3519.41219-.54786 1.16399-.29114 1.40616.24546.18811.90438.16182 1.39111-.51354.35343-.45359.23501-1.21111.03313-1.4122-.2999-.23196-.73041.0649-1.1331.51958z"/></g></svg>