<svg width="10" height="10" viewBox="0 0 10 10" fill="none" xmlns="http://www.w3.org/2000/svg">
<path d="M10 5.00102C10 4.33856 9.1704 3.71076 7.89849 3.32144C8.19201 2.02507 8.06156 0.993679 7.48675 0.663471C7.35426 0.586015 7.19935 0.549325 7.03017 0.549325V1.00387C7.12393 1.00387 7.19935 1.02222 7.26254 1.05687C7.53975 1.21586 7.66001 1.82124 7.56625 2.59988C7.54382 2.79148 7.50713 2.99327 7.46229 3.19914C7.06278 3.1013 6.62658 3.02588 6.16796 2.97696C5.89278 2.59988 5.60742 2.25744 5.32002 1.9578C5.98451 1.34019 6.60824 1.00183 7.03221 1.00183V0.547287C6.47167 0.547287 5.73787 0.946798 4.99592 1.63983C4.25397 0.950875 3.52018 0.55544 2.95964 0.55544V1.00999C3.38157 1.00999 4.00734 1.34631 4.67183 1.95984C4.38647 2.25948 4.1011 2.59988 3.83 2.97696C3.36934 3.02588 2.93314 3.1013 2.53363 3.20118C2.48675 2.99735 2.4521 2.79963 2.42764 2.61007C2.33184 1.83143 2.45006 1.22605 2.72523 1.06502C2.78638 1.02833 2.86588 1.01202 2.95964 1.01202V0.557479C2.78842 0.557479 2.63351 0.594168 2.49898 0.671624C1.92621 1.00183 1.7978 2.03118 2.09336 3.32348C0.82552 3.71484 0 4.3406 0 5.00102C0 5.66347 0.829596 6.29127 2.10151 6.68059C1.80799 7.97696 1.93844 9.00835 2.51325 9.33856C2.64574 9.41602 2.80065 9.45271 2.97187 9.45271C3.53241 9.45271 4.2662 9.0532 5.00815 8.36017C5.7501 9.04912 6.4839 9.44455 7.04444 9.44455C7.21565 9.44455 7.37057 9.40786 7.5051 9.33041C8.07786 9.0002 8.20628 7.97085 7.91072 6.67855C9.17448 6.28923 10 5.66143 10 5.00102ZM7.34611 3.64146C7.27069 3.9044 7.17693 4.1755 7.07093 4.44659C6.98736 4.28353 6.89971 4.12046 6.80391 3.9574C6.71015 3.79433 6.61027 3.63534 6.5104 3.48043C6.79984 3.52323 7.07909 3.57623 7.34611 3.64146ZM6.41256 5.81227C6.25357 6.08744 6.0905 6.34835 5.92132 6.59091C5.61761 6.6174 5.30982 6.63167 5 6.63167C4.69221 6.63167 4.38443 6.6174 4.08276 6.59294C3.91358 6.35038 3.74847 6.09152 3.58948 5.81838C3.43457 5.55136 3.29393 5.28027 3.16551 5.00713C3.29189 4.734 3.43457 4.46086 3.58744 4.19384C3.74643 3.91867 3.9095 3.65776 4.07868 3.4152C4.38239 3.38871 4.69018 3.37444 5 3.37444C5.30779 3.37444 5.61557 3.38871 5.91724 3.41317C6.08642 3.65573 6.25153 3.91459 6.41052 4.18773C6.56543 4.45475 6.70607 4.72584 6.83449 4.99898C6.70607 5.27211 6.56543 5.54525 6.41256 5.81227ZM7.07093 5.54729C7.181 5.82042 7.27477 6.09356 7.35222 6.35854C7.0852 6.42376 6.80391 6.4788 6.51243 6.5216C6.61231 6.36465 6.71219 6.20363 6.80595 6.03852C6.89972 5.87546 6.98736 5.71035 7.07093 5.54729ZM5.00408 7.72217C4.81451 7.52649 4.62495 7.30839 4.43742 7.06991C4.62087 7.07806 4.8084 7.08418 4.99796 7.08418C5.18956 7.08418 5.37913 7.0801 5.56462 7.06991C5.38117 7.30839 5.1916 7.52649 5.00408 7.72217ZM3.48757 6.5216C3.19812 6.4788 2.91887 6.4258 2.65185 6.36058C2.72727 6.09763 2.82104 5.82654 2.92703 5.55544C3.0106 5.71851 3.09825 5.88157 3.19405 6.04464C3.28985 6.2077 3.38769 6.36669 3.48757 6.5216ZM4.99389 2.27986C5.18345 2.47554 5.37301 2.69364 5.56054 2.93212C5.37709 2.92397 5.18956 2.91785 5 2.91785C4.8084 2.91785 4.61883 2.92193 4.43335 2.93212C4.6168 2.69364 4.80636 2.47554 4.99389 2.27986ZM3.48553 3.48043C3.38565 3.63738 3.28577 3.79841 3.19201 3.96351C3.09825 4.12658 3.0106 4.28964 2.92703 4.45271C2.81696 4.17957 2.7232 3.90644 2.64574 3.64146C2.91276 3.57827 3.19405 3.52323 3.48553 3.48043ZM1.64085 6.03241C0.919283 5.72462 0.452507 5.32103 0.452507 5.00102C0.452507 4.681 0.919283 4.27537 1.64085 3.96963C1.81614 3.89421 2.00775 3.82694 2.20546 3.76376C2.32165 4.16327 2.47452 4.57908 2.66408 5.00509C2.47656 5.42906 2.32572 5.84284 2.21158 6.24031C2.00978 6.17713 1.81818 6.10782 1.64085 6.03241ZM2.73746 8.94517C2.46025 8.78618 2.33999 8.1808 2.43375 7.40216C2.45618 7.21056 2.49287 7.00876 2.53771 6.80289C2.93722 6.90073 3.37342 6.97615 3.83204 7.02507C4.10722 7.40216 4.39258 7.7446 4.67998 8.04423C4.01549 8.66184 3.39177 9.0002 2.96779 9.0002C2.87607 8.99816 2.79861 8.97982 2.73746 8.94517ZM7.57236 7.39197C7.66816 8.1706 7.54994 8.77599 7.27477 8.93701C7.21362 8.9737 7.13412 8.99001 7.04036 8.99001C6.61843 8.99001 5.99266 8.65369 5.32817 8.04015C5.61354 7.74052 5.8989 7.40012 6.17 7.02303C6.63066 6.97411 7.06686 6.89869 7.46637 6.79882C7.51325 7.00469 7.54994 7.2024 7.57236 7.39197ZM8.35711 6.03241C8.18182 6.10782 7.99022 6.17509 7.7925 6.23828C7.67631 5.83877 7.52344 5.42295 7.33388 4.99694C7.5214 4.57297 7.67224 4.15919 7.78638 3.76172C7.98818 3.82491 8.17978 3.89421 8.35915 3.96963C9.08072 4.27741 9.54749 4.681 9.54749 5.00102C9.54545 5.32103 9.07868 5.72666 8.35711 6.03241Z" fill="#61DAFB"/>
<path d="M4.99795 5.93253C5.51241 5.93253 5.92947 5.51548 5.92947 5.00102C5.92947 4.48656 5.51241 4.0695 4.99795 4.0695C4.48349 4.0695 4.06644 4.48656 4.06644 5.00102C4.06644 5.51548 4.48349 5.93253 4.99795 5.93253Z" fill="#61DAFB"/>
</svg>
