<svg fill="none" height="10" viewBox="0 0 10 10" width="10" xmlns="http://www.w3.org/2000/svg"><g fill="#61dafb"><path d="m10 5.00102c0-.66246-.8296-1.29026-2.10151-1.67958.29352-1.29637.16307-2.327761-.41174-2.657969-.13249-.077456-.2874-.114146-.45658-.114146v.454545c.09376 0 .16918.01835.23237.053.27721.15899.39747.76437.30371 1.54301-.02243.1916-.05912.39339-.10396.59926-.39951-.09784-.83571-.17326-1.29433-.22218-.27518-.37708-.56054-.71952-.84794-1.01916.66449-.61761 1.28822-.95597 1.71219-.95597v-.454543c-.56054 0-1.29434.399511-2.03629 1.092543-.74195-.688955-1.47574-1.08439-2.03628-1.08439v.45455c.42193 0 1.0477.33632 1.71219.94985-.28536.29964-.57073.64004-.84183 1.01712-.46066.04892-.89686.12434-1.29637.22422-.04688-.20383-.08153-.40155-.10599-.59111-.0958-.77864.02242-1.38402.29759-1.54505.06115-.03669.14065-.053.23441-.053v-.454541c-.17122 0-.32613.036689-.46066.114145-.57277.330206-.70118 1.359556-.40562 2.651856-1.26784.39136-2.09336 1.01712-2.09336 1.67754 0 .66245.829596 1.29025 2.10151 1.67957-.29352 1.29637-.16307 2.32776.41174 2.65797.13249.07746.2874.11415.45862.11415.56054 0 1.29433-.39951 2.03628-1.09254.74195.68895 1.47575 1.08438 2.03629 1.08438.17121 0 .32613-.03669.46066-.11414.57276-.33021.70118-1.35956.40562-2.65186 1.26376-.38932 2.08928-1.01712 2.08928-1.67753zm-2.65389-1.35956c-.07542.26294-.16918.53404-.27518.80513-.08357-.16306-.17122-.32613-.26702-.48919-.09376-.16307-.19364-.32206-.29351-.47697.28944.0428.56869.0958.83571.16103zm-.93355 2.17081c-.15899.27517-.32206.53608-.49124.77864-.30371.02649-.6115.04076-.92132.04076-.30779 0-.61557-.01427-.91724-.03873-.16918-.24256-.33429-.50142-.49328-.77456-.15491-.26702-.29555-.53811-.42397-.81125.12638-.27313.26906-.54627.42193-.81329.15899-.27517.32206-.53608.49124-.77864.30371-.02649.6115-.04076.92132-.04076.30779 0 .61557.01427.91724.03873.16918.24256.33429.50142.49328.77456.15491.26702.29555.53811.42397.81125-.12842.27313-.26906.54627-.42193.81329zm.65837-.26498c.11007.27313.20384.54627.28129.81125-.26702.06522-.54831.12026-.83979.16306.09988-.15695.19976-.31797.29352-.48308.09377-.16306.18141-.32817.26498-.49123zm-2.06685 2.17488c-.18957-.19568-.37913-.41378-.56666-.65226.18345.00815.37098.01427.56054.01427.1916 0 .38117-.00408.56666-.01427-.18345.23848-.37302.45658-.56054.65226zm-1.51651-1.20057c-.28945-.0428-.5687-.0958-.83572-.16102.07542-.26295.16919-.53404.27518-.80514.08357.16307.17122.32613.26702.4892.0958.16306.19364.32205.29352.47696zm1.50632-4.24174c.18956.19568.37912.41378.56665.65226-.18345-.00815-.37098-.01427-.56054-.01427-.1916 0-.38117.00408-.56665.01427.18345-.23848.37301-.45658.56054-.65226zm-1.50836 1.20057c-.09988.15695-.19976.31798-.29352.48308-.09376.16307-.18141.32613-.26498.4892-.11007-.27314-.20383-.54627-.28129-.81125.26702-.06319.54831-.11823.83979-.16103zm-1.84468 2.55198c-.721567-.30779-1.188343-.71138-1.188343-1.03139 0-.32002.466776-.72565 1.188343-1.03139.17529-.07542.3669-.14269.56461-.20587.11619.39951.26906.81532.45862 1.24133-.18752.42397-.33836.83775-.4525 1.23522-.2018-.06318-.3934-.13249-.57073-.2079zm1.09661 2.91276c-.27721-.15899-.39747-.76437-.30371-1.54301.02243-.1916.05912-.3934.10396-.59927.39951.09784.83571.17326 1.29433.22218.27518.37709.56054.71953.84794 1.01916-.66449.61761-1.28821.95597-1.71219.95597-.09172-.00204-.16918-.02038-.23033-.05503zm4.8349-1.5532c.0958.77863-.02242 1.38402-.29759 1.54504-.06115.03669-.14065.053-.23441.053-.42193 0-1.0477-.33632-1.71219-.94986.28537-.29963.57073-.64003.84183-1.01712.46066-.04892.89686-.12434 1.29637-.22421.04688.20587.08357.40358.10599.59315zm.78475-1.35956c-.17529.07541-.36689.14268-.56461.20587-.11619-.39951-.26906-.81533-.45862-1.24134.18752-.42397.33836-.83775.4525-1.23522.2018.06319.3934.13249.57277.20791.72157.30778 1.18834.71137 1.18834 1.03139-.00204.32001-.46881.72564-1.19038 1.03139z"/><path d="m4.99795 5.93253c.51446 0 .93152-.41705.93152-.93151s-.41706-.93152-.93152-.93152-.93151.41706-.93151.93152.41705.93151.93151.93151z"/></g></svg>