<svg width="10" height="10" viewBox="0 0 10 10" fill="none" xmlns="http://www.w3.org/2000/svg">
<g clip-path="url(#clip0_9_58)">
<path d="M7.71286 6.57259L2.02902 9.94767L9.38856 9.44822L9.95535 2.02728L7.71282 6.57255L7.71286 6.57259Z" fill="url(#paint0_linear_9_58)"/>
<path d="M9.40058 9.44314L8.76803 5.07726L7.04502 7.35244L9.40058 9.44314Z" fill="url(#paint1_linear_9_58)"/>
<path d="M9.40913 9.44314L4.77496 9.07938L2.05357 9.93813L9.40913 9.44314Z" fill="url(#paint2_linear_9_58)"/>
<path d="M2.06016 9.93911L3.21786 6.1465L0.670292 6.69117L2.06012 9.93907L2.06016 9.93911Z" fill="url(#paint3_linear_9_58)"/>
<path d="M7.04462 7.36494L5.97937 3.19252L2.93094 6.05006L7.04462 7.36502V7.36494Z" fill="url(#paint4_linear_9_58)"/>
<path d="M9.71367 3.25126L6.83203 0.897732L6.0296 3.49194L9.71367 3.25126Z" fill="url(#paint5_linear_9_58)"/>
<path d="M8.36606 0.0585889L6.67126 0.995219L5.60199 0.046051L8.36606 0.0585889Z" fill="url(#paint6_linear_9_58)"/>
<path d="M4.3869e-05 7.9634L0.710016 6.66856L0.135695 5.12597L4.3869e-05 7.9634Z" fill="url(#paint7_linear_9_58)"/>
<path d="M0.0975113 5.07726L0.675348 6.71629L3.18617 6.15298L6.05269 3.48889L6.86168 0.919332L5.58789 0.0199242L3.42228 0.830395C2.73996 1.46502 1.41598 2.72069 1.36825 2.74428C1.32099 2.76842 0.493958 4.33159 0.0975113 5.07726Z" fill="white"/>
<path d="M2.12649 2.13277C3.60526 0.666584 5.5116 -0.199663 6.24317 0.538471C6.97435 1.2766 6.19896 3.07038 4.72019 4.5361C3.24142 6.00179 1.35871 6.91576 0.627607 6.17763C-0.103965 5.44 0.647722 3.5985 2.12649 2.13277Z" fill="url(#paint8_linear_9_58)"/>
<path d="M2.06014 9.93759L3.20878 6.13291L7.02346 7.35842C5.64421 8.65177 4.11018 9.74515 2.06014 9.93759Z" fill="url(#paint9_linear_9_58)"/>
<path d="M6.05773 3.4814L7.03705 7.36045C8.1892 6.149 9.22325 4.84662 9.72969 3.23572L6.05777 3.4814H6.05773Z" fill="url(#paint10_linear_9_58)"/>
<path d="M9.7197 3.25529C10.1117 2.07251 10.2021 0.375675 8.35396 0.060627L6.83751 0.898243L9.7197 3.25529Z" fill="url(#paint11_linear_9_58)"/>
<path d="M4.3869e-05 7.94633C0.0543356 9.89845 1.46272 9.92755 2.06266 9.94465L0.676855 6.70824L4.3869e-05 7.94633Z" fill="#9E1209"/>
<path d="M6.06322 3.48745C6.94857 4.03161 8.73289 5.12448 8.76906 5.14456C8.82531 5.17619 9.53833 3.94217 9.70015 3.24474L6.06322 3.48745Z" fill="url(#paint12_radial_9_58)"/>
<path d="M3.20729 6.13291L4.74281 9.09544C5.65077 8.60303 6.36179 8.00308 7.01294 7.36045L3.20729 6.13291Z" fill="url(#paint13_radial_9_58)"/>
<path d="M0.670805 6.71227L0.453247 9.30296C0.863755 9.86373 1.42855 9.91247 2.02091 9.86877C1.59232 8.80203 0.736111 6.66907 0.670805 6.71227Z" fill="url(#paint14_linear_9_58)"/>
<path d="M6.82853 0.904763L9.87902 1.33285C9.71619 0.642991 9.21623 0.197798 8.36405 0.0586319L6.82853 0.904763Z" fill="url(#paint15_linear_9_58)"/>
</g>
<defs>
<linearGradient id="paint0_linear_9_58" x1="673.785" y1="884.351" x2="464.007" y2="513.423" gradientUnits="userSpaceOnUse">
<stop stop-color="#FB7655"/>
<stop offset="0.41" stop-color="#E42B1E"/>
<stop offset="0.99" stop-color="#990000"/>
<stop offset="1" stop-color="#990000"/>
</linearGradient>
<linearGradient id="paint1_linear_9_58" x1="281.823" y1="270.918" x2="-13.0696" y2="213.313" gradientUnits="userSpaceOnUse">
<stop stop-color="#871101"/>
<stop offset="0.99" stop-color="#911209"/>
<stop offset="1" stop-color="#911209"/>
</linearGradient>
<linearGradient id="paint2_linear_9_58" x1="559.414" y1="197.426" x2="555.614" y2="10.3823" gradientUnits="userSpaceOnUse">
<stop stop-color="#871101"/>
<stop offset="0.99" stop-color="#911209"/>
<stop offset="1" stop-color="#911209"/>
</linearGradient>
<linearGradient id="paint3_linear_9_58" x1="128.079" y1="33.5822" x2="215.759" y2="290.683" gradientUnits="userSpaceOnUse">
<stop stop-color="white"/>
<stop offset="0.23" stop-color="#E57252"/>
<stop offset="0.46" stop-color="#DE3B20"/>
<stop offset="0.99" stop-color="#A60003"/>
<stop offset="1" stop-color="#A60003"/>
</linearGradient>
<linearGradient id="paint4_linear_9_58" x1="192.876" y1="71.4045" x2="208.779" y2="349.681" gradientUnits="userSpaceOnUse">
<stop stop-color="white"/>
<stop offset="0.23" stop-color="#E4714E"/>
<stop offset="0.56" stop-color="#BE1A0D"/>
<stop offset="0.99" stop-color="#A80D00"/>
<stop offset="1" stop-color="#A80D00"/>
</linearGradient>
<linearGradient id="paint5_linear_9_58" x1="142.211" y1="41.3518" x2="165.466" y2="243.455" gradientUnits="userSpaceOnUse">
<stop stop-color="white"/>
<stop offset="0.18" stop-color="#E46342"/>
<stop offset="0.4" stop-color="#C82410"/>
<stop offset="0.99" stop-color="#A80D00"/>
<stop offset="1" stop-color="#A80D00"/>
</linearGradient>
<linearGradient id="paint6_linear_9_58" x1="43.2183" y1="55.4262" x2="76.0055" y2="-83.5994" gradientUnits="userSpaceOnUse">
<stop stop-color="white"/>
<stop offset="0.54" stop-color="#C81F11"/>
<stop offset="0.99" stop-color="#BF0905"/>
<stop offset="1" stop-color="#BF0905"/>
</linearGradient>
<linearGradient id="paint7_linear_9_58" x1="19.6123" y1="65.095" x2="105.355" y2="118.841" gradientUnits="userSpaceOnUse">
<stop stop-color="white"/>
<stop offset="0.31" stop-color="#DE4024"/>
<stop offset="0.99" stop-color="#BF190B"/>
<stop offset="1" stop-color="#BF190B"/>
</linearGradient>
<linearGradient id="paint8_linear_9_58" x1="-127.329" y1="754.61" x2="643.183" y2="-39.9515" gradientUnits="userSpaceOnUse">
<stop stop-color="#BD0012"/>
<stop offset="0.07" stop-color="white"/>
<stop offset="0.17" stop-color="white"/>
<stop offset="0.27" stop-color="#C82F1C"/>
<stop offset="0.33" stop-color="#820C01"/>
<stop offset="0.46" stop-color="#A31601"/>
<stop offset="0.72" stop-color="#B31301"/>
<stop offset="0.99" stop-color="#E82609"/>
<stop offset="1" stop-color="#E82609"/>
</linearGradient>
<linearGradient id="paint9_linear_9_58" x1="293.864" y1="254.217" x2="75.8144" y2="162.633" gradientUnits="userSpaceOnUse">
<stop stop-color="#8C0C01"/>
<stop offset="0.54" stop-color="#990C00"/>
<stop offset="0.99" stop-color="#A80D0E"/>
<stop offset="1" stop-color="#A80D0E"/>
</linearGradient>
<linearGradient id="paint10_linear_9_58" x1="297.314" y1="262.079" x2="72.7079" y2="102.54" gradientUnits="userSpaceOnUse">
<stop stop-color="#7E110B"/>
<stop offset="0.99" stop-color="#9E0C00"/>
<stop offset="1" stop-color="#9E0C00"/>
</linearGradient>
<linearGradient id="paint11_linear_9_58" x1="295.98" y1="236.855" x2="190.355" y2="129.632" gradientUnits="userSpaceOnUse">
<stop stop-color="#79130D"/>
<stop offset="0.99" stop-color="#9E120B"/>
<stop offset="1" stop-color="#9E120B"/>
</linearGradient>
<radialGradient id="paint12_radial_9_58" cx="0" cy="0" r="1" gradientUnits="userSpaceOnUse" gradientTransform="translate(122.448 79.6605) scale(253.032 132.218)">
<stop stop-color="#A80D00"/>
<stop offset="0.99" stop-color="#7E0E08"/>
<stop offset="1" stop-color="#7E0E08"/>
</radialGradient>
<radialGradient id="paint13_radial_9_58" cx="0" cy="0" r="1" gradientUnits="userSpaceOnUse" gradientTransform="translate(54.7701 127.182) scale(336.367 261.846)">
<stop stop-color="#A30C00"/>
<stop offset="0.99" stop-color="#800E08"/>
<stop offset="1" stop-color="#800E08"/>
</radialGradient>
<linearGradient id="paint14_linear_9_58" x1="89.136" y1="329.089" x2="-100.24" y2="171.892" gradientUnits="userSpaceOnUse">
<stop stop-color="#8B2114"/>
<stop offset="0.43" stop-color="#9E100A"/>
<stop offset="0.99" stop-color="#B3100C"/>
<stop offset="1" stop-color="#B3100C"/>
</linearGradient>
<linearGradient id="paint15_linear_9_58" x1="100.997" y1="45.4195" x2="154.748" y2="181.398" gradientUnits="userSpaceOnUse">
<stop stop-color="#B31000"/>
<stop offset="0.44" stop-color="#910F08"/>
<stop offset="0.99" stop-color="#791C12"/>
<stop offset="1" stop-color="#791C12"/>
</linearGradient>
<clipPath id="clip0_9_58">
<rect width="10" height="9.96" fill="white" transform="translate(0 0.0200005)"/>
</clipPath>
</defs>
</svg>
