<svg fill="none" height="10" viewBox="0 0 10 10" width="10" xmlns="http://www.w3.org/2000/svg" xmlns:xlink="http://www.w3.org/1999/xlink"><linearGradient id="a" gradientUnits="userSpaceOnUse" x1="673.785" x2="464.007" y1="884.351" y2="513.423"><stop offset="0" stop-color="#fb7655"/><stop offset=".41" stop-color="#e42b1e"/><stop offset=".99" stop-color="#900"/><stop offset="1" stop-color="#900"/></linearGradient><linearGradient id="b"><stop offset="0" stop-color="#871101"/><stop offset=".99" stop-color="#911209"/><stop offset="1" stop-color="#911209"/></linearGradient><linearGradient id="c" gradientUnits="userSpaceOnUse" x1="281.823" x2="-13.0696" xlink:href="#b" y1="270.918" y2="213.313"/><linearGradient id="d" gradientUnits="userSpaceOnUse" x1="559.414" x2="555.614" xlink:href="#b" y1="197.426" y2="10.3823"/><linearGradient id="e" gradientUnits="userSpaceOnUse" x1="128.079" x2="215.759" y1="33.5822" y2="290.683"><stop offset="0" stop-color="#fff"/><stop offset=".23" stop-color="#e57252"/><stop offset=".46" stop-color="#de3b20"/><stop offset=".99" stop-color="#a60003"/><stop offset="1" stop-color="#a60003"/></linearGradient><linearGradient id="f" gradientUnits="userSpaceOnUse" x1="192.876" x2="208.779" y1="71.4045" y2="349.681"><stop offset="0" stop-color="#fff"/><stop offset=".23" stop-color="#e4714e"/><stop offset=".56" stop-color="#be1a0d"/><stop offset=".99" stop-color="#a80d00"/><stop offset="1" stop-color="#a80d00"/></linearGradient><linearGradient id="g" gradientUnits="userSpaceOnUse" x1="142.211" x2="165.466" y1="41.3518" y2="243.455"><stop offset="0" stop-color="#fff"/><stop offset=".18" stop-color="#e46342"/><stop offset=".4" stop-color="#c82410"/><stop offset=".99" stop-color="#a80d00"/><stop offset="1" stop-color="#a80d00"/></linearGradient><linearGradient id="h" gradientUnits="userSpaceOnUse" x1="43.2183" x2="76.0055" y1="55.4262" y2="-83.5994"><stop offset="0" stop-color="#fff"/><stop offset=".54" stop-color="#c81f11"/><stop offset=".99" stop-color="#bf0905"/><stop offset="1" stop-color="#bf0905"/></linearGradient><linearGradient id="i" gradientUnits="userSpaceOnUse" x1="19.6123" x2="105.355" y1="65.095" y2="118.841"><stop offset="0" stop-color="#fff"/><stop offset=".31" stop-color="#de4024"/><stop offset=".99" stop-color="#bf190b"/><stop offset="1" stop-color="#bf190b"/></linearGradient><linearGradient id="j" gradientUnits="userSpaceOnUse" x1="-127.329" x2="643.183" y1="754.61" y2="-39.9515"><stop offset="0" stop-color="#bd0012"/><stop offset=".07" stop-color="#fff"/><stop offset=".17" stop-color="#fff"/><stop offset=".27" stop-color="#c82f1c"/><stop offset=".33" stop-color="#820c01"/><stop offset=".46" stop-color="#a31601"/><stop offset=".72" stop-color="#b31301"/><stop offset=".99" stop-color="#e82609"/><stop offset="1" stop-color="#e82609"/></linearGradient><linearGradient id="k" gradientUnits="userSpaceOnUse" x1="293.864" x2="75.8144" y1="254.217" y2="162.633"><stop offset="0" stop-color="#8c0c01"/><stop offset=".54" stop-color="#990c00"/><stop offset=".99" stop-color="#a80d0e"/><stop offset="1" stop-color="#a80d0e"/></linearGradient><linearGradient id="l" gradientUnits="userSpaceOnUse" x1="297.314" x2="72.7079" y1="262.079" y2="102.54"><stop offset="0" stop-color="#7e110b"/><stop offset=".99" stop-color="#9e0c00"/><stop offset="1" stop-color="#9e0c00"/></linearGradient><linearGradient id="m" gradientUnits="userSpaceOnUse" x1="295.98" x2="190.355" y1="236.855" y2="129.632"><stop offset="0" stop-color="#79130d"/><stop offset=".99" stop-color="#9e120b"/><stop offset="1" stop-color="#9e120b"/></linearGradient><radialGradient id="n" cx="0" cy="0" gradientTransform="matrix(253.032 0 0 132.218 122.448 79.6605)" gradientUnits="userSpaceOnUse" r="1"><stop offset="0" stop-color="#a80d00"/><stop offset=".99" stop-color="#7e0e08"/><stop offset="1" stop-color="#7e0e08"/></radialGradient><radialGradient id="o" cx="0" cy="0" gradientTransform="matrix(336.367 0 0 261.846 54.7701 127.182)" gradientUnits="userSpaceOnUse" r="1"><stop offset="0" stop-color="#a30c00"/><stop offset=".99" stop-color="#800e08"/><stop offset="1" stop-color="#800e08"/></radialGradient><linearGradient id="p" gradientUnits="userSpaceOnUse" x1="89.136" x2="-100.24" y1="329.089" y2="171.892"><stop offset="0" stop-color="#8b2114"/><stop offset=".43" stop-color="#9e100a"/><stop offset=".99" stop-color="#b3100c"/><stop offset="1" stop-color="#b3100c"/></linearGradient><linearGradient id="q" gradientUnits="userSpaceOnUse" x1="100.997" x2="154.748" y1="45.4195" y2="181.398"><stop offset="0" stop-color="#b31000"/><stop offset=".44" stop-color="#910f08"/><stop offset=".99" stop-color="#791c12"/><stop offset="1" stop-color="#791c12"/></linearGradient><clipPath id="r"><path d="m0 .020001h10v9.96h-10z"/></clipPath><g clip-path="url(#r)"><path d="m7.71286 6.57259-5.68384 3.37508 7.35954-.49945.56679-7.42094-2.24253 4.54527z" fill="url(#a)"/><path d="m9.40058 9.44314-.63255-4.36588-1.72301 2.27518z" fill="url(#c)"/><path d="m9.40913 9.44314-4.63417-.36376-2.72139.85875z" fill="url(#d)"/><path d="m2.06016 9.93911 1.1577-3.79261-2.547568.54467 1.389828 3.2479z" fill="url(#e)"/><path d="m7.04462 7.36494-1.06525-4.17242-3.04843 2.85754 4.11368 1.31496z" fill="url(#f)"/><path d="m9.71367 3.25126-2.88164-2.353528-.80243 2.594208z" fill="url(#g)"/><path d="m8.36606.0585889-1.6948.9366301-1.06927-.949168z" fill="url(#h)"/><path d="m.00004387 7.9634.70997213-1.29484-.574321-1.54259z" fill="url(#i)"/><path d="m.0975113 5.07726.5778367 1.63903 2.510822-.56331 2.86652-2.66409.80899-2.569558-1.27379-.8994078-2.16561.8104708c-.68232.634625-2.0063 1.890295-2.05403 1.913885-.04726.02414-.874292 1.58731-1.2707387 2.33298z" fill="#fff"/><path d="m2.12649 2.13277c1.47877-1.466186 3.38511-2.332433 4.11668-1.594299.73118.738129-.04421 2.531909-1.52298 3.997629-1.47877 1.46569-3.36148 2.37966-4.092583 1.64153-.731572-.73763.020115-2.57913 1.498883-4.04486z" fill="url(#j)"/><path d="m2.06014 9.93759 1.14864-3.80468 3.81468 1.22551c-1.37925 1.29335-2.91328 2.38673-4.96332 2.57917z" fill="url(#k)"/><path d="m6.05773 3.4814.97932 3.87905c1.15215-1.21145 2.1862-2.51383 2.69264-4.12473l-3.67192.24568z" fill="url(#l)"/><path d="m9.7197 3.25529c.392-1.18278.4824-2.879615-1.36574-3.194663l-1.51645.837616z" fill="url(#m)"/><path d="m.00004387 7.94633c.05429173 1.95212 1.46267613 1.98122 2.06261613 1.99832l-1.385805-3.23641z" fill="#9e1209"/><path d="m6.06322 3.48745c.88535.54416 2.66967 1.63703 2.70584 1.65711.05625.03163.76927-1.20239.93109-1.89982z" fill="url(#n)"/><path d="m3.20729 6.13291 1.53552 2.96253c.90796-.49241 1.61898-1.09236 2.27013-1.73499z" fill="url(#o)"/><path d="m.670805 6.71227-.217558 2.59069c.410508.56077.975303.60951 1.567663.56581-.42859-1.06674-1.284799-3.1997-1.350105-3.1565z" fill="url(#p)"/><path d="m6.82853.904763 3.05049.428087c-.16283-.689859-.66279-1.135052-1.51497-1.2742181z" fill="url(#q)"/></g></svg>