<svg fill="none" height="10" viewBox="0 0 10 10" width="10" xmlns="http://www.w3.org/2000/svg" xmlns:xlink="http://www.w3.org/1999/xlink"><clipPath id="a"><path d="m0 1.25h10v7.5h-10z"/></clipPath><g clip-path="url(#a)"><path d="m8.60544 5.55863c-.34961.00198-.65234.08594-.90625.21096-.09375-.18555-.1875-.34768-.2031-.46875-.01758-.14063-.03907-.22658-.01758-.39453.02146-.16799.11912-.40627.11912-.4258-.00197-.01758-.0215-.10352-.22266-.10547-.20115-.00195-.375.03906-.39453.0918-.01953.05273-.05859.17382-.08398.29882-.03516.1836-.40235.83399-.61133 1.17579-.06836-.13282-.12695-.25-.13869-.34377-.01756-.14061-.03906-.22657-.01756-.39452.02148-.16798.11914-.40625.11914-.42578-.00195-.01758-.02148-.10351-.22264-.10547-.20119-.00195-.375.03907-.39453.0918-.01953.05274-.04101.17774-.08398.29883-.04104.12109-.52932 1.20703-.65627 1.49023-.06446.14454-.12108.25977-.16211.33789-.04102.07813-.00195.00586-.00586.01368-.03516.0664-.05469.10351-.05469.10351v.00197c-.02734.04883-.05664.09569-.07033.09569-.00977 0-.0293-.13086.00391-.31053.07226-.37697.24804-.96484.24611-.98633 0-.00976.03318-.1133-.1133-.16601-.14258-.05274-.19334.03515-.20508.03515-.01172 0-.02148.03125-.02148.03125s.1582-.66209-.30274-.66209c-.28906 0-.6875.31446-.88476.60157-.125.06836-.39063.21287-.67188.36718-.10742.0586-.21875.1211-.32422.17774l-.02146-.02348c-.5586-.5957-1.5918-1.01758-1.548831-1.81836.015625-.29101.117187-1.05859 1.984391-1.98828 1.5293-.76172 2.75391-.55273 2.96678-.08789.30274.66406-.6543 1.89844-2.24412 2.07617-.60547.06836-.92385-.16601-1.00391-.2539-.08398-.0918-.0957-.09571-.12695-.07813-.05078.02734-.01953.10938 0 .1582.04688.12305.24219.3418.57422.45118.291.0957 1.00195.14843 1.86133-.1836.96289-.37305 1.71484-1.4082 1.49414-2.27344-.22461-.88086-1.68555-1.16992-3.06641-.67968-.82228.29296-1.71291.75-2.353534 1.34961-.7617188.71093-.8828126 1.33203-.83203133 1.58984.17775433.91992 1.44531533 1.51953 1.95312533 1.96289-.02539.01365-.04883.02733-.07031.03906-.25391.12498-1.220706.63086-1.462893 1.166-.273438.60547.042968 1.04104.253906 1.09963.652347.18164 1.320317-.14453 1.681637-.68164.35936-.53711.31641-1.23438.15039-1.55274l-.00587-.01172.19921-.11718c.12893-.07617.25588-.14649.36719-.20705-.06248.16992-.10742.37109-.13084.66406-.02734.34377.11328.78906.29883.96484.08203.07616.17969.07813.24023.07813.21485 0 .3125-.17776.41993-.39063.13281-.25976.25-.56054.25-.56054s-.14649.81445.2539.81445c.14649 0 .29297-.18945.35938-.28711v.00195s.0039-.00586.01172-.01953c.00819-.01212.01601-.02448.02343-.03709v-.0039c.0586-.10157.18946-.33399.38477-.71875.25193-.4961.49414-1.11719.49414-1.11719s.02344.15234.0957.40234c.04295.14846.1367.31055.20897.46875-.0586.08203-.09375.12893-.09375.12893l.00195.00195c-.04685.0625-.09961.12893-.15428.19531-.19921.23828-.4375.50979-.46875.58791-.03711.09178-.02929.16014.04297.21485.05274.03906.14649.04685.2461.03906.17968-.01174.30468-.05664.36718-.084.09766-.03516.20899-.08789.31641-.16602.19531-.14451.31445-.34959.30274-.62303-.00586-.15039-.05469-.29883-.11524-.43945.01758-.02539.03518-.0508.05274-.07813.30859-.45119.54687-.94726.54687-.94726s.02344.15234.0957.40234c.03709.12696.11133.26565.17774.40237-.28906.23632-.47071.50976-.53321.68945-.11523.33203-.02539.48242.14454.51758.07615.01562.18554-.01953.26755-.05469.10157-.0332.22461-.08986.33792-.17383.19531-.14453.38281-.3457.37304-.61719-.00586-.125-.03906-.24804-.08398-.36523.24609-.10156.56443-.16016.96875-.11133.86914.10156 1.04101.64453 1.00783.8711-.0332.22658-.21484.35156-.27541.39062-.06055.03711-.08008.0508-.07422.07813.00781.04103.03516.03906.08789.03127.07227-.01174.45703-.18555.47266-.6035.02343-.53719-.48633-1.12313-1.39063-1.11729zm-6.70312 2.25977c-.28711.31445-.69141.43359-.86329.33203-.185542-.10742-.113296-.57031.24024-.9043.21484-.20312.49414-.39062.67773-.50586.04102-.02539.10352-.06248.17774-.10742.01172-.00779.01953-.01172.01953-.01172.01367-.00781.0293-.01757.04492-.02734.13086.47656.00586.89453-.29687 1.22461zm2.09961-1.42773c-.09961.24414-.31055.87109-.4375.83593-.1094-.02929-.17579-.5039-.02151-.97265.07813-.23635.24414-.51758.3418-.62698.15822-.17578.33008-.23437.37307-.16211.05078.09377-.19336.77346-.25586.92581zm1.73242.82812c-.04297.0215-.08203.03711-.09961.02541-.01367-.00781.01756-.03711.01756-.03711s.21679-.23242.30273-.33984c.04883-.06248.10742-.13475.16992-.2168v.02344c.00002.28123-.26951.46873-.3906.5449zm1.33592-.30469c-.03125-.02344-.02733-.0957.07812-.32226.04104-.08985.13477-.24024.29688-.38282.01953.0586.03127.11522.02929.16797-.00193.35157-.25193.48242-.40429.53711z" fill="#cf649a"/></g></svg>