<svg width="10" height="10" viewBox="0 0 10 10" fill="none" xmlns="http://www.w3.org/2000/svg">
<g clip-path="url(#clip0_9_79)">
<path d="M8.60544 5.55863C8.25583 5.56061 7.9531 5.64457 7.69919 5.76959C7.60544 5.58404 7.51169 5.42191 7.49609 5.30084C7.47851 5.16021 7.45702 5.07426 7.47851 4.90631C7.49997 4.73832 7.59763 4.50004 7.59763 4.48051C7.59566 4.46293 7.57613 4.37699 7.37497 4.37504C7.17382 4.37309 6.99997 4.4141 6.98044 4.46684C6.96091 4.51957 6.92185 4.64066 6.89646 4.76566C6.8613 4.94926 6.49411 5.59965 6.28513 5.94145C6.21677 5.80863 6.15818 5.69145 6.14644 5.59768C6.12888 5.45707 6.10738 5.37111 6.12888 5.20316C6.15036 5.03518 6.24802 4.79691 6.24802 4.77738C6.24607 4.7598 6.22654 4.67387 6.02538 4.67191C5.82419 4.66996 5.65038 4.71098 5.63085 4.76371C5.61132 4.81645 5.58984 4.94145 5.54687 5.06254C5.50583 5.18363 5.01755 6.26957 4.8906 6.55277C4.82614 6.69731 4.76952 6.81254 4.72849 6.89066C4.68747 6.96879 4.72654 6.89652 4.72263 6.90434C4.68747 6.97074 4.66794 7.00785 4.66794 7.00785V7.00982C4.6406 7.05865 4.6113 7.10551 4.59761 7.10551C4.58784 7.10551 4.56831 6.97465 4.60152 6.79498C4.67378 6.41801 4.84956 5.83014 4.84763 5.80865C4.84763 5.79889 4.88081 5.69535 4.73433 5.64264C4.59175 5.5899 4.54099 5.67779 4.52925 5.67779C4.51753 5.67779 4.50777 5.70904 4.50777 5.70904C4.50777 5.70904 4.66597 5.04695 4.20503 5.04695C3.91597 5.04695 3.51753 5.36141 3.32027 5.64852C3.19527 5.71688 2.92964 5.86139 2.64839 6.0157C2.54097 6.0743 2.42964 6.1368 2.32417 6.19344L2.30271 6.16996C1.74411 5.57426 0.71091 5.15238 0.753879 4.3516C0.769504 4.06059 0.871066 3.29301 2.73827 2.36332C4.26757 1.6016 5.49218 1.81059 5.70505 2.27543C6.00779 2.93949 5.05075 4.17387 3.46093 4.3516C2.85546 4.41996 2.53708 4.18559 2.45702 4.0977C2.37304 4.0059 2.36132 4.00199 2.33007 4.01957C2.27929 4.04691 2.31054 4.12895 2.33007 4.17777C2.37695 4.30082 2.57226 4.51957 2.90429 4.62895C3.19529 4.72465 3.90624 4.77738 4.76562 4.44535C5.72851 4.0723 6.48046 3.03715 6.25976 2.17191C6.03515 1.29105 4.57421 1.00199 3.19335 1.49223C2.37107 1.78519 1.48044 2.24223 0.839816 2.84184C0.0780972 3.55277 -0.0429966 4.17387 0.00778467 4.43168C0.185539 5.3516 1.4531 5.95121 1.96091 6.39457C1.93552 6.40822 1.91208 6.4219 1.8906 6.43363C1.63669 6.55861 0.669894 7.06449 0.427707 7.59963C0.154269 8.2051 0.470675 8.64067 0.681613 8.69926C1.33396 8.8809 2.00193 8.55473 2.36325 8.01762C2.72261 7.48051 2.67966 6.78324 2.51364 6.46488L2.50777 6.45316L2.70698 6.33598C2.83591 6.25981 2.96286 6.18949 3.07417 6.12893C3.01169 6.29885 2.96675 6.50002 2.94333 6.79299C2.91599 7.13676 3.05661 7.58205 3.24216 7.75783C3.32419 7.83399 3.42185 7.83596 3.48239 7.83596C3.69724 7.83596 3.79489 7.6582 3.90232 7.44533C4.03513 7.18557 4.15232 6.88479 4.15232 6.88479C4.15232 6.88479 4.00583 7.69924 4.40622 7.69924C4.55271 7.69924 4.69919 7.50979 4.7656 7.41213V7.41408C4.7656 7.41408 4.7695 7.40822 4.77732 7.39455C4.78551 7.38243 4.79333 7.37007 4.80075 7.35746V7.35356C4.85935 7.25199 4.99021 7.01957 5.18552 6.63481C5.43745 6.13871 5.67966 5.51762 5.67966 5.51762C5.67966 5.51762 5.7031 5.66996 5.77536 5.91996C5.81831 6.06842 5.91206 6.23051 5.98433 6.38871C5.92573 6.47074 5.89058 6.51764 5.89058 6.51764L5.89253 6.51959C5.84568 6.58209 5.79292 6.64852 5.73825 6.7149C5.53904 6.95318 5.30075 7.22469 5.2695 7.30281C5.23239 7.39459 5.24021 7.46295 5.31247 7.51766C5.36521 7.55672 5.45896 7.56451 5.55857 7.55672C5.73825 7.54498 5.86325 7.50008 5.92575 7.47272C6.02341 7.43756 6.13474 7.38483 6.24216 7.3067C6.43747 7.16219 6.55661 6.95711 6.5449 6.68367C6.53904 6.53328 6.49021 6.38484 6.42966 6.24422C6.44724 6.21883 6.46484 6.19342 6.4824 6.16609C6.79099 5.7149 7.02927 5.21883 7.02927 5.21883C7.02927 5.21883 7.05271 5.37117 7.12497 5.62117C7.16206 5.74813 7.2363 5.88682 7.30271 6.02354C7.01365 6.25986 6.832 6.5333 6.7695 6.71299C6.65427 7.04502 6.74411 7.19541 6.91404 7.23057C6.99019 7.24619 7.09958 7.21104 7.18159 7.17588C7.28316 7.14268 7.4062 7.08602 7.51951 7.00205C7.71482 6.85752 7.90232 6.65635 7.89255 6.38486C7.88669 6.25986 7.85349 6.13682 7.80857 6.01963C8.05466 5.91807 8.373 5.85947 8.77732 5.9083C9.64646 6.00986 9.81833 6.55283 9.78515 6.7794C9.75195 7.00598 9.57031 7.13096 9.50974 7.17002C9.44919 7.20713 9.42966 7.22082 9.43552 7.24815C9.44333 7.28918 9.47068 7.28721 9.52341 7.27942C9.59568 7.26768 9.98044 7.09387 9.99607 6.67592C10.0195 6.13873 9.50974 5.55279 8.60544 5.55863ZM1.90232 7.8184C1.61521 8.13285 1.21091 8.25199 1.03903 8.15043C0.853488 8.04301 0.925734 7.58012 1.27927 7.24613C1.49411 7.04301 1.77341 6.85551 1.957 6.74027C1.99802 6.71488 2.06052 6.67779 2.13474 6.63285C2.14646 6.62506 2.15427 6.62113 2.15427 6.62113C2.16794 6.61332 2.18357 6.60356 2.19919 6.59379C2.33005 7.07035 2.20505 7.48832 1.90232 7.8184ZM4.00193 6.39067C3.90232 6.63481 3.69138 7.26176 3.56443 7.2266C3.45503 7.19731 3.38864 6.7227 3.54292 6.25395C3.62105 6.0176 3.78706 5.73637 3.88472 5.62697C4.04294 5.45119 4.2148 5.3926 4.25779 5.46486C4.30857 5.55863 4.06443 6.23832 4.00193 6.39067ZM5.73435 7.21879C5.69138 7.24029 5.65232 7.2559 5.63474 7.2442C5.62107 7.23639 5.6523 7.20709 5.6523 7.20709C5.6523 7.20709 5.86909 6.97467 5.95503 6.86725C6.00386 6.80477 6.06245 6.7325 6.12495 6.65045V6.67389C6.12497 6.95512 5.85544 7.14262 5.73435 7.21879ZM7.07027 6.9141C7.03902 6.89066 7.04294 6.8184 7.14839 6.59184C7.18943 6.50199 7.28316 6.3516 7.44527 6.20902C7.4648 6.26762 7.47654 6.32424 7.47456 6.37699C7.47263 6.72856 7.22263 6.85941 7.07027 6.9141Z" fill="#CF649A"/>
</g>
<defs>
<clipPath id="clip0_9_79">
<rect width="10" height="7.5" fill="white" transform="translate(0 1.25)"/>
</clipPath>
</defs>
</svg>
