<svg width="10" height="10" viewBox="0 0 10 10" fill="none" xmlns="http://www.w3.org/2000/svg">
<g clip-path="url(#clip0_9_82)">
<path d="M5.00018 2.002C3.66734 2.002 2.83435 2.66824 2.50111 4.00059C3.00098 3.33435 3.58409 3.08461 4.25045 3.2511C4.63069 3.3461 4.90244 3.62197 5.2033 3.92721C5.69329 4.42445 6.26041 4.99994 7.49926 4.99994C8.83198 4.99994 9.66509 4.3337 9.9982 3.00123C9.49846 3.66747 8.91535 3.91734 8.24887 3.75084C7.86875 3.65584 7.597 3.37997 7.29614 3.07473C6.80615 2.57749 6.23891 2.002 5.00018 2.002ZM2.50111 4.99994C1.16839 4.99994 0.335281 5.66618 0.00216293 6.99865C0.501903 6.33241 1.08502 6.08254 1.7515 6.24916C2.13162 6.34429 2.40336 6.62003 2.70423 6.92515C3.19422 7.42239 3.76146 7.998 5.00018 7.998C6.33303 7.998 7.16601 7.33177 7.49926 5.99929C6.99939 6.66553 6.41628 6.9154 5.74992 6.74878C5.36968 6.65391 5.09793 6.37791 4.79706 6.07279C4.30707 5.57555 3.73996 4.99994 2.50111 4.99994Z" fill="#06B6D4"/>
</g>
<defs>
<clipPath id="clip0_9_82">
<rect width="10" height="5.996" fill="white" transform="translate(0 2.002)"/>
</clipPath>
</defs>
</svg>
