<svg fill="none" height="10" viewBox="0 0 10 10" width="10" xmlns="http://www.w3.org/2000/svg" xmlns:xlink="http://www.w3.org/1999/xlink"><clipPath id="a"><path d="m0 2.002h10v5.996h-10z"/></clipPath><g clip-path="url(#a)"><path d="m5.00018 2.002c-1.33284 0-2.16583.66624-2.49907 1.99859.49987-.66624 1.08298-.91598 1.74934-.74949.38024.095.65199.37087.95285.67611.48999.49724 1.05711 1.07273 2.29596 1.07273 1.33272 0 2.16583-.66624 2.49894-1.99871-.49974.66624-1.08285.91611-1.74933.74961-.38012-.095-.65187-.37087-.95273-.67611-.48999-.49724-1.05723-1.07273-2.29596-1.07273zm-2.49907 2.99794c-1.33272 0-2.165829.66624-2.49894707 1.99871.49974007-.66624 1.08285707-.91611 1.74933707-.74949.38012.09513.65186.37087.95273.67599.48999.49724 1.05723 1.07285 2.29595 1.07285 1.33285 0 2.16583-.66623 2.49908-1.99871-.49987.66624-1.08298.91611-1.74934.74949-.38024-.09487-.65199-.37087-.95286-.67599-.48999-.49724-1.0571-1.07285-2.29595-1.07285z" fill="#06b6d4"/></g></svg>