<svg fill="none" height="10" viewBox="0 0 10 10" width="10" xmlns="http://www.w3.org/2000/svg"><path d="m2.60261 10-2.491656-9.913887 9.854946 2.768917" fill="#fff"/><g clip-rule="evenodd" fill="#000" fill-rule="evenodd"><path d="m4.26111 7.99641-.60484-2.40817.10835-.02721.60483 2.40817z"/><path d="m3.72568 5.52089 2.38902.67665-.03044.10749-2.38902-.67665z"/><path d="m6.13837 6.29137-1.78418 1.73152-.0778-.08017 1.78418-1.73152z"/><path d="m1.9415 7.25241 2.38901.67665-.03044.10749-2.38902-.67665z"/><path d="m1.87209 7.31976.10835-.0272.58124 2.31578 1.71468-1.6656.07784.08013-1.85369 1.80063z"/><path d="m3.74936 5.61472-1.78419 1.73152-.0778-.08017 1.78419-1.73152z"/><path d="m5.53511 3.8816-1.78578 1.73312-.0778-.08017 1.78578-1.73311z"/><path d="m7.31931 2.15008-1.78419 1.73152-.0778-.08016 1.78419-1.73152z"/><path d="m5.44204 3.85513-.60483-2.40817.10834-.02721.60484 2.40817z"/><path d="m3.12077 3.11272 2.39061.67505-.03036.10751-2.39061-.67506z"/><path d="m3.65628 5.58824-.60483-2.40817.10834-.02721.60484 2.40817z"/><path d="m1.33667 4.84425 2.38902.67665-.03045.10748-2.38902-.67665z"/><path d="m1.87207 7.31976-.60484-2.40817.10835-.02721.60483 2.40817z"/><path d="m1.26729 4.91159-.604833-2.40817.108345-.02721.604838 2.40817z"/><path d="m.731782 2.43607 2.389018.67665-.03044.10749-2.38902-.67665z"/><path d="m3.1445 3.20655-1.78418 1.73152-.0778-.08016 1.78418-1.73152z"/><path d="m4.93025 1.47345-1.78578 1.73152-.07777-.0802 1.78578-1.73152z"/><path d="m2.51598.702957 2.39061.676653-.03042.10748-2.39062-.676645z"/><path d="m3.05142 3.17848-.60483-2.408172.10834-.027213.60484 2.408165z"/><path d="m.0340843 0 2.4819257.702963-.03045.107483-2.296113-.650337.581329 2.316111-.10835.0272z"/><path d="m2.53971.796767-1.784185 1.733113-.077836-.08013 1.784181-1.733113z"/><path d="m7.29563 2.05626 2.48219.70304-1.85367 1.79895-.0778-.08016 1.71469-1.66409-2.29585-.65026z"/><path d="m7.83106 4.53177-.60484-2.40817.10835-.02721.60483 2.40817z"/><path d="m5.51145 3.78778 2.38901.67665-.03044.10748-2.38902-.67665z"/><path d="m6.04527 6.26485-.60323-2.40977.10836-.02712.60324 2.40976z"/><path d="m7.92415 4.55825-1.78578 1.73312-.0778-.08017 1.78578-1.73312z"/><path d="m4.90659 1.37961 2.38902.67665-.03044.10748-2.38902-.67665z"/></g></svg>