<svg width="10" height="10" viewBox="0 0 10 10" fill="none" xmlns="http://www.w3.org/2000/svg">
<path d="M2.60261 10L0.110954 0.086113L9.9659 2.85503" fill="white"/>
<path fill-rule="evenodd" clip-rule="evenodd" d="M4.26111 7.99641L3.65627 5.58824L3.76462 5.56103L4.36945 7.9692L4.26111 7.99641Z" fill="black"/>
<path fill-rule="evenodd" clip-rule="evenodd" d="M3.72568 5.52089L6.1147 6.19754L6.08426 6.30503L3.69524 5.62838L3.72568 5.52089Z" fill="black"/>
<path fill-rule="evenodd" clip-rule="evenodd" d="M6.13837 6.29137L4.35419 8.02289L4.27639 7.94272L6.06057 6.2112L6.13837 6.29137Z" fill="black"/>
<path fill-rule="evenodd" clip-rule="evenodd" d="M1.9415 7.25241L4.33051 7.92906L4.30007 8.03655L1.91105 7.3599L1.9415 7.25241Z" fill="black"/>
<path fill-rule="evenodd" clip-rule="evenodd" d="M1.87209 7.31976L1.98044 7.29256L2.56168 9.60834L4.27636 7.94274L4.3542 8.02287L2.50051 9.8235L1.87209 7.31976Z" fill="black"/>
<path fill-rule="evenodd" clip-rule="evenodd" d="M3.74936 5.61472L1.96517 7.34624L1.88737 7.26607L3.67156 5.53455L3.74936 5.61472Z" fill="black"/>
<path fill-rule="evenodd" clip-rule="evenodd" d="M5.53511 3.8816L3.74933 5.61472L3.67153 5.53455L5.45731 3.80144L5.53511 3.8816Z" fill="black"/>
<path fill-rule="evenodd" clip-rule="evenodd" d="M7.31931 2.15008L5.53512 3.8816L5.45732 3.80144L7.24151 2.06992L7.31931 2.15008Z" fill="black"/>
<path fill-rule="evenodd" clip-rule="evenodd" d="M5.44204 3.85513L4.83721 1.44696L4.94555 1.41975L5.55039 3.82792L5.44204 3.85513Z" fill="black"/>
<path fill-rule="evenodd" clip-rule="evenodd" d="M3.12077 3.11272L5.51138 3.78777L5.48102 3.89528L3.09041 3.22022L3.12077 3.11272Z" fill="black"/>
<path fill-rule="evenodd" clip-rule="evenodd" d="M3.65628 5.58824L3.05145 3.18007L3.15979 3.15286L3.76463 5.56103L3.65628 5.58824Z" fill="black"/>
<path fill-rule="evenodd" clip-rule="evenodd" d="M1.33667 4.84425L3.72569 5.5209L3.69524 5.62838L1.30622 4.95173L1.33667 4.84425Z" fill="black"/>
<path fill-rule="evenodd" clip-rule="evenodd" d="M1.87207 7.31976L1.26723 4.91159L1.37558 4.88438L1.98041 7.29255L1.87207 7.31976Z" fill="black"/>
<path fill-rule="evenodd" clip-rule="evenodd" d="M1.26729 4.91159L0.662457 2.50342L0.770802 2.47621L1.37564 4.88438L1.26729 4.91159Z" fill="black"/>
<path fill-rule="evenodd" clip-rule="evenodd" d="M0.731782 2.43607L3.1208 3.11272L3.09036 3.22021L0.70134 2.54356L0.731782 2.43607Z" fill="black"/>
<path fill-rule="evenodd" clip-rule="evenodd" d="M3.1445 3.20655L1.36032 4.93807L1.28252 4.85791L3.0667 3.12639L3.1445 3.20655Z" fill="black"/>
<path fill-rule="evenodd" clip-rule="evenodd" d="M4.93025 1.47345L3.14447 3.20497L3.0667 3.12477L4.85248 1.39325L4.93025 1.47345Z" fill="black"/>
<path fill-rule="evenodd" clip-rule="evenodd" d="M2.51598 0.702957L4.90659 1.37961L4.87617 1.48709L2.48555 0.810445L2.51598 0.702957Z" fill="black"/>
<path fill-rule="evenodd" clip-rule="evenodd" d="M3.05142 3.17848L2.44659 0.770308L2.55493 0.743095L3.15977 3.15126L3.05142 3.17848Z" fill="black"/>
<path fill-rule="evenodd" clip-rule="evenodd" d="M0.0340843 0L2.51601 0.702963L2.48556 0.810446L0.189447 0.160109L0.770776 2.47622L0.662426 2.50342L0.0340843 0Z" fill="black"/>
<path fill-rule="evenodd" clip-rule="evenodd" d="M2.53971 0.796767L0.755525 2.52988L0.677689 2.44975L2.46187 0.716637L2.53971 0.796767Z" fill="black"/>
<path fill-rule="evenodd" clip-rule="evenodd" d="M7.29563 2.05626L9.77782 2.7593L7.92415 4.55825L7.84635 4.47809L9.56104 2.814L7.26519 2.16374L7.29563 2.05626Z" fill="black"/>
<path fill-rule="evenodd" clip-rule="evenodd" d="M7.83106 4.53177L7.22622 2.1236L7.33457 2.09639L7.9394 4.50456L7.83106 4.53177Z" fill="black"/>
<path fill-rule="evenodd" clip-rule="evenodd" d="M5.51145 3.78778L7.90046 4.46443L7.87002 4.57191L5.481 3.89526L5.51145 3.78778Z" fill="black"/>
<path fill-rule="evenodd" clip-rule="evenodd" d="M6.04527 6.26485L5.44204 3.85508L5.5504 3.82796L6.15364 6.23772L6.04527 6.26485Z" fill="black"/>
<path fill-rule="evenodd" clip-rule="evenodd" d="M7.92415 4.55825L6.13837 6.29137L6.06057 6.2112L7.84635 4.47808L7.92415 4.55825Z" fill="black"/>
<path fill-rule="evenodd" clip-rule="evenodd" d="M4.90659 1.37961L7.29561 2.05626L7.26517 2.16374L4.87615 1.48709L4.90659 1.37961Z" fill="black"/>
</svg>
