<svg fill="none" height="10" viewBox="0 0 10 10" width="10" xmlns="http://www.w3.org/2000/svg" xmlns:xlink="http://www.w3.org/1999/xlink"><clipPath id="a"><path d="m.020001 0h9.96v10h-9.96z"/></clipPath><g clip-path="url(#a)"><path d="m5.01104.075943-4.9154551 4.899577 4.9154551 4.92223 4.89289-4.92223z" fill="#019833"/><path d="m5.01021.525848v-.413612l-4.882349 4.864174h.418359z" fill="#66fe98"/><path d="m5.01018.525848v-.413612l4.89752 4.864174h-.45271z" fill="#45fe02"/><path d="m5.01021 9.44783v.45789l-4.882349-4.9293h.418359z" fill="#017d17"/><path d="m5.01018 9.44783v.45789l4.89752-4.9293h-.45271z" fill="#005d04"/><path d="m2.55764 8.97143h-.94644l-.36961-.3602v-6.87796h-.293349l-.251139-.25149v-.76883l.260166-.282187h3.309952l.29759.297944v.729723l-.24729.30141h-.25009v2.32496l2.35333-2.32496h-.13139l-.27371-.29518v-.77377l.26892-.24686h3.34096l.26441.264757v.731823z" fill="#000"/><path d="m5.01028 9.97329-4.9902757-4.99688 4.9902757-4.97642526 4.96972 4.97642526zm-4.837413-4.99688 4.837413 4.8439 4.81678-4.8439-4.81678-4.823329z" fill="#000"/><path d="m4.2247.884802.14702-.09497-.15021-.155936h-3.18397l-.161777.162006v.612778l.179357.17959.08556-.17959-.11252-.11272v-.431972l.08439-.075129 3.00605.003697z" fill="#fefefe"/><path d="m1.63289 1.39412v7.17174l.10085.09602-.08081.15271-.21208-.20889v-7.02565z" fill="#fefefe"/><path d="m1.11847 1.39412-.06334.19414h.38462l.22251-.19414z" fill="#808080"/><path d="m6.49901 1.39661-.1345-.09501v-.385014l.14068-.14088h2.93544l.11256.150256.16017-.126406-.16488-.150645h-3.15584l-.15711.157297v.617482l.16543.14971m-2.55283 2.96894-.30654.74482 3.46063-3.47468-.01692-.42034z" fill="#fefefe"/><path d="m4.21777.882041.15395-.092208v.604287l-.17574.17598h-.34152l-.00634 2.97224-.30537.74311v-3.89133h.57032l.1061-.08633zm5.32498.001984.17061-.084465v.55181l-7.26539 7.46323h-.79505l.07757-.14668.61064.00004 7.20267-7.44712zm-2.55746.508115-.17695.17776-.40738.0035.09948-.17857z" fill="#808080"/><path d="m6.47729.769951-.11244.112556v.413343l.09847.09859h.52026v.39937l-3.44165 3.49312v-3.88755h.57196l.11734-.1175v-.418282l-.10831-.083804h-3.01002l-.09848.098627v.427269l.10011.10026h.52356v7.15883l.09847.09859h.59496l7.2124-7.45218v-.328683l-.11244-.112556z" fill="#ccc"/><path d="m2.33559 8.6729h-.60293l-.10403-.10419v-7.15326h-.518l-.10567-.10583v-.435164l.10403-.104152h3.01722l.11458.088628v.426878l-.1229.12306h-.56644v3.85487l3.42266-3.47386v-.38591h-.51469l-.10403-.10419v-.4212l.11796-.118158h2.96209l.118.118158v.33646l-.00264.00276zm-.59503-.01902h.58698l7.20691-7.4465v-.320941l-.10687-.106992h-2.94633l-.10688.106992v.405481l.09291.09302h.52586v.41276l-.00273.00276-3.45795 3.50966v-3.92023h.57753l.11178-.11198v-.40964l-.10205-.07898h-3.00287l-.0929.093064v.419406l.09458.0947h.52908v7.16435z" fill="#808080"/><path d="m5.25538 5.59545c-.00548.00114-.01057.00369-.01478.00739l-.13948.11995c-.00416.0038-.00727.00861-.00903.01396l-.13951.39117c-.00206.00574-.00246.01195-.00115.01791s.00427.01143.00854.01578l.10668.1068c.00617.00593.01443.00919.02299.00906h.43081c.00855.00014.01681-.00312.02296-.00906l.11244-.11337c.00389-.0039.00669-.00872.00821-.01397l.11983-.41171c.00162-.00558.00171-.0115.00027-.01713s-.00437-.01077-.00848-.01489l-.09276-.09287c-.00304-.00294-.00663-.00525-.01057-.0068s-.00815-.0023-.01238-.00222h-.39801c-.00219-.00024-.00439-.00024-.00658 0zm-.7894 1.10272c-.00593.00127-.01138.00418-.01573.0084-.00435.00421-.00744.00957-.0089.01545l-.05334.212c-.00119.00475-.00129.00972-.00028.01451.00101.0048.00309.00931.00609.01318.003.00388.00684.00702.01123.0092s.00922.00333.01412.00337h.25359l-.62861 1.79708c-.00163.00485-.00209.01002-.00135.01508.00075.00506.00268.00988.00565.01405.00296.00417.00687.00758.01141.00995.00453.00237.00956.00363.01468.00368h.91496c.00688.00009.01362-.00202.01923-.00601s.0098-.00967.01197-.0162l.05992-.19309c.00148-.00487.0018-.01001.00093-.01502-.00088-.00501-.00291-.00974-.00595-.01382-.00303-.00408-.00699-.00738-.01153-.00965-.00455-.00227-.00957-.00344-.01466-.00342h-.20678l.62203-1.81598c.00164-.00485.0021-.01002.00135-.01508-.00074-.00506-.00268-.00988-.00564-.01405-.00297-.00417-.00688-.00758-.01141-.00995-.00454-.00237-.00957-.00363-.01468-.00368h-.96177c-.00217-.0002-.00436-.0002-.00653 0zm2.91155.00657c-.00705.00147-.01342.00523-.0181.0107l-.19036.21527h-.30281l-.20189-.20951c-.00297-.00309-.00653-.00556-.01048-.00726-.00394-.0017-.00818-.00259-.01247-.00262h-.72296c-.00664.00001-.01312.00206-.01856.00589-.00543.00382-.00956.00922-.01182.01547l-.06645.19889c-.00162.00484-.00207.01-.00132.01505s.00268.00985.00564.01401.00686.00757.01138.00994c.00452.00238.00954.00365.01464.00371h.19368l-.60235 1.77736c-.00162.00485-.00206.01001-.00131.01506.00075.00506.00269.00987.00565.01403.00296.00417.00686.00758.01139.00995.00452.00238.00955.00365.01466.00372h.76972c.00664-.00002.01312-.00208.01855-.0059.00544-.00382.00957-.00922.01183-.01546l.05906-.17341c.00163-.00484.00209-.01.00134-.01505-.00075-.00506-.00268-.00986-.00564-.01403-.00296-.00416-.00686-.00757-.01139-.00994-.00452-.00237-.00954-.00364-.01465-.0037h-.13458l.38404-1.21041h.69506l-.4382 1.406c-.00149.00486-.00183.01-.00096.01501.00086.00502.00289.00975.00592.01384.00304.00408.00699.00739.01155.00965.00455.00227.00957.00343.01466.0034h.74264c.00631-.00006.01247-.00195.01772-.00546.00526-.0035.00937-.00846.01185-.01427l.06645-.15944c.00194-.00486.00267-.01013.00213-.01534-.00055-.00522-.00235-.01022-.00525-.01458-.00291-.00437-.00683-.00796-.01143-.01047s-.00974-.00387-.01498-.00396h-.13458l.39062-1.23095h.66141l-.44478 1.41257c-.00149.00486-.00181.01-.00094.01502.00086.00501.0029.00975.00594.01383.00303.00408.00699.00738.01154.00965.00456.00227.00958.00343.01467.0034h.81566c.00655.00003.01295-.00191.01837-.00558.00543-.00366.00961-.00888.01202-.01497l.06645-.1734c.00179-.00489.00237-.01014.0017-.0153s-.00257-.01009-.00555-.01436-.00694-.00776-.01155-.01018c-.00461-.00241-.00974-.00368-.01495-.0037h-.16169l.49158-1.59823c.00162-.00497.00201-.01025.00115-.0154-.00086-.00516-.00295-.01003-.00609-.0142l-.15263-.20543c-.00312-.00396-.00711-.00713-.01167-.00927s-.00956-.00319-.01459-.00306h-.58344c-.00443-.00008-.00884.00076-.01293.00246-.0041.0017-.0078.00422-.01088.00742l-.18383.20212h-.32168l-.19037-.2087c-.00307-.00319-.00678-.00572-.01087-.00742-.0041-.0017-.0085-.00253-.01294-.00246h-.47022c-.00217-.00019-.00436-.00019-.00653 0z" fill="#ccc"/><path d="m5.01388 6.3232c.02035.0196.04696.03034.07396.03034l.00179-.00004h.42949c.02886.0009.05618-.01023.07831-.03151l.11217-.11318c.01299-.01299.02253-.02922.02747-.04649l.11979-.41163c.00546-.01867.00579-.03846.00096-.0573-.00482-.01883-.01463-.03603-.02839-.04977l-.09372-.09388c-.00998-.00983-.02182-.01758-.03483-.02279-.013-.00521-.02692-.00778-.04092-.00756h-.39529c-.00566-.00032-.01133-.00019-.01696.00039l-.00798.00125c-.01829.00385-.03537.01237-.04871.02412l-.13952.11998-.00159.00144c-.01358.01238-.02381.02802-.02973.04541l-.1392.39027c-.00683.01931-.00808.04016-.00363.06016.00445.01999.01443.03834.0288.05294zm.62849-.65172.06128.06135-.10956.37646-.09128.09213-.3956.00004-.0738-.07392.12672-.35522.11726-.10084zm3.77877 1.21224-.15263-.20543-.00136-.00175c-.01031-.01304-.02348-.02354-.03849-.03069s-.03145-.01076-.04808-.01055h-.58157c-.01484-.0003-.02959.00247-.04331.00815s-.02612.01414-.03641.02484l-.16278.17901h-.25449l-.16776-.18391-.00156-.00167c-.01021-.01045-.02241-.01875-.03588-.02442-.01347-.00566-.02794-.00858-.04255-.00857h-.4675c-.00565-.00032-.01133-.00019-.01696.00038l-.00786.00121c-.02309.00479-.04398.01699-.05949.03474l-.16769.18963h-.23619l-.17956-.18636c-.0101-.01037-.02217-.01863-.03549-.0243-.01333-.00567-.02764-.00864-.04213-.00873h-.72318c-.02221.00012-.04386.00703-.06202.0198-.01817.01278-.03199.03081-.03961.05167l-.06707.20056c-.00543.01628-.00692.03362-.00436.05059.00256.01696.00911.03308.01911.04703.00999.01395.02315.02534.03839.03322.01524.00789.03214.01205.0493.01214h.08761l-.56841 1.67725c-.00907.02727-.00696.05702.00585.08274s.03528.04533.0625.05452c.01078.00358.02199.00549.03416.00561h.76996c.02245-.00018.0443-.00727.06257-.02031.01828-.01304.03209-.03139.03956-.05257l.05921-.17375c.00541-.01628.00689-.03361.00432-.05057-.00257-.01697-.00912-.03308-.01912-.04702-.01-.01395-.02315-.02533-.03839-.03321s-.03213-.01204-.04929-.01214h-.03069l.3358-1.05829h.53605l-.40759 1.30768c-.00837.02748-.0055.05716.00797.08254.01346.02538.03644.04438.06389.05285.01043.00303.02121.00464.03206.00479h.74331c.0212-.00019.04189-.00659.0595-.01841s.03137-.02853.03959-.04808l.067-.16069c.00648-.0164.00886-.03414.00695-.05168-.00192-.01754-.00809-.03434-.01796-.04896s-.02316-.02661-.03871-.03493c-.01556-.00833-.0329-.01274-.05054-.01285h-.03066l.34233-1.07884h.50209l-.41385 1.31434c-.0049.01618-.00595.03328-.00308.04994.00288.01666.0096.03242.01964.04603.01004.0136.02311.02467.03819.03234.01507.00766.03172.01169.04863.01179h.81574c.02199-.00001.04346-.00663.06163-.01901.01817-.01237.0322-.02992.04027-.05036l.06688-.1745c.00596-.01638.00788-.03396.00562-.05124-.00227-.01728-.00867-.03377-.01865-.04806s-.02326-.02597-.0387-.03404c-.01545-.00808-.03262-.01232-.05005-.01236h-.05875l.46092-1.49859c.0054-.01652.00675-.0341.00393-.05125s-.00971-.03337-.02011-.0473zm-.65063 1.74922h.20111l-.03276.0854h-.72662l.45801-1.45443h-.82077l-.43886 1.38304h.17243l-.02976.07139h-.65421l.45127-1.44786h-.85407l-.43228 1.36246h.17718l-.02911.0854h-.6772l.61682-1.82011h-.23877l.03704-.11084h.67258l.21137.21939h.36942l.19978-.22597.43241-.00004.19935.21862h.38891l.19278-.212h.54352l.1259.16947zm-3.68905-.1473c-.01041-.00307-.0212-.00468-.03206-.00478h-.10038l.58772-1.71573c.00543-.01628.00692-.03362.00436-.05059-.00257-.01697-.00912-.03309-.01912-.04704-.01-.01396-.02316-.02534-.03841-.03322s-.03215-.01204-.04931-.01213h-.95904c-.00567-.00032-.01135-.00019-.017.00039l-.00829.00132c-.01982.00418-.03807.01387-.05264.02795-.01456.01408-.02487.03198-.02972.05166l-.05338.21219c-.0069.02793-.00244.05745.01239.0821.01484.02465.03884.04242.06674.0494.00825.00203.01677.00312.02584.00315h.1464l-.59351 1.6969c-.00542.01628-.00691.03362-.00434.05058.00257.01697.00912.03308.01912.04703s.02316.02532.0384.0332.03214.01204.0493.01213h.91546c.04684 0 .08805-.02968.10334-.07571l.05999-.1934c.00837-.02749.00551-.05717-.00796-.08254-.01347-.02538-.03645-.04439-.0639-.05286zm-.94511.25243.64355-1.83984h-.30448l.0312-.12399h.86621l-.63666 1.8587h.25421l-.0326.10513z" fill="#000"/></g></svg>