<svg viewBox="0 0 100 38.06" xmlns="http://www.w3.org/2000/svg"><path d="m0 26.23c.08.05.16.08.23.14 2.51 1.84 5.02 3.69 7.54 5.54.06.04.12.09.2.14 2.63-1.93 5.26-3.86 7.91-5.81v11.62h-2.79c-.02-.23 0-.46-.01-.69 0-.24 0-.49 0-.73v-5c0-.23 0-.47 0-.69-.03-.01-.03-.02-.04-.02 0 0-.01 0-.02 0s-.03.01-.04.02c-1.66 1.22-3.32 2.44-4.98 3.66 0 0-.01 0-.04.02-1.68-1.23-3.36-2.47-5.09-3.74-.02.63 0 1.22 0 1.81v1.77 3.57s-.09.03-.13.03c-.89 0-1.78 0-2.67 0-.02 0-.04 0-.06-.01 0-3.87 0-7.75 0-11.62z"/><path d="m41.42 38.06c-.1-.01-.21-.03-.31-.03-1.27-.05-2.53-.18-3.78-.43-.24-.05-.49-.12-.73-.18-.03 0-.05-.02-.08-.04v-1.78c.09.02.17.04.25.06 1.76.47 3.55.7 5.38.67.84-.01 1.68-.07 2.5-.28.34-.09.67-.19.97-.38.17-.11.34-.24.48-.39.38-.4.36-1.18-.26-1.52-.35-.19-.73-.31-1.12-.38-.7-.13-1.41-.24-2.12-.34-1.24-.18-2.49-.35-3.68-.76-.36-.12-.7-.29-1.05-.45-.11-.05-.2-.12-.3-.19-1.33-.87-1.34-2.73-.4-3.7.4-.41.88-.7 1.4-.92.66-.27 1.35-.43 2.05-.53 1.57-.22 3.14-.2 4.72-.1.85.06 1.7.16 2.53.35.15.03.29.08.45.11v1.73c-.07-.01-.14-.02-.2-.04-1.08-.26-2.18-.43-3.29-.48-.78-.03-1.55-.04-2.33-.03-.62 0-1.25.08-1.85.24-.3.08-.6.19-.85.37-.21.15-.36.35-.38.62-.02.31.09.57.35.73.2.13.43.23.66.31.55.18 1.12.26 1.69.34 1.11.15 2.23.27 3.33.5.68.14 1.35.31 1.99.58.33.14.64.31.92.53.53.42.82.97.9 1.63.05.42.05.85-.06 1.26-.16.6-.5 1.08-.98 1.46-.55.44-1.19.71-1.86.91-.79.23-1.6.36-2.42.42-.3.02-.61.04-.91.05-.06 0-.12.02-.18.03h-1.42z"/><path d="m50.03 6.98c3.88-2.32 7.75-4.64 11.63-6.96.05.17.07 17.97.03 18.46 0 0-.01 0-.02 0 0 0-.01 0-.02 0-.05-.02-.1-.05-.15-.08-3.44-2.06-6.87-4.11-10.34-6.19 1.67-1 3.3-1.98 4.98-2.98 0 .11.01.18.01.25v2.25c0 .15.04.24.17.31.73.43 1.45.87 2.18 1.3.06.03.12.06.2.1v-8.39c-2.9 1.74-5.78 3.46-8.67 5.19-2.88-1.73-5.76-3.45-8.65-5.18-.05.16-.07 7.93-.02 8.37.04-.01.08-.01.11-.03.77-.46 1.55-.93 2.32-1.39.1-.06.12-.14.12-.24 0-.76 0-1.51 0-2.27 0-.08 0-.15 0-.23.16.05 4.6 2.68 4.97 2.95-3.5 2.1-6.99 4.19-10.5 6.29v-18.51c3.89 2.33 7.77 4.65 11.65 6.98z"/><path d="m60.59 28.32v2.95h1.91 1.9 3.82v1.77c-.32.01-.63 0-.95 0s-.64 0-.96 0h-4.75c-.32 0-.64 0-.97 0v4.77c-.17.05-2.52.06-2.81.02v-11.31h11.26v1.73s0 0-.01.01c0 0-.01 0-.02.01 0 0-.01 0-.02 0s-.03 0-.04 0c0 0-.01 0-.02 0s-.03 0-.04 0c-2.73 0-5.46 0-8.19 0-.01 0-.03 0-.04 0 0 0-.01 0-.02 0 0 0-.01 0-.04.02z"/><path d="m94.3 37.85h-2.81v-9.54c-.5-.02-.97 0-1.45-.01-.47 0-.94 0-1.42 0h-2.86v-1.74c.15-.04 13.95-.05 14.23-.01v1.75h-5.7v9.55z"/><path d="m28.03 37.85h-2.8v-11.31h2.8z"/><path d="m78.91 37.85h-2.81c0-3.77 0-7.53 0-11.29.15-.05 2.29-.07 2.78-.03 0 0 .01 0 .01.01 0 0 .01 0 .01.02v.04 11.1.15z"/></svg>