<?xml version="1.0" encoding="UTF-8"?><svg id="Layer_1" xmlns="http://www.w3.org/2000/svg" viewBox="0 0 100 25.97"><path d="M10.16,3.05H2.72v10.19h7.41c3.62,0,6.2-1.94,6.2-5.2s-2.27-4.99-6.17-4.99M16.6,25.54l-6.99-9.76H2.72v9.76H0V.43h10.37c5.3,0,8.71,2.98,8.71,7.5,0,4.2-2.76,6.64-6.54,7.35l7.41,10.26h-3.34Z" fill="#fff" stroke-width="0"/><polygon points="42.34 3.01 27.63 3.01 27.63 11.59 40.79 11.59 40.79 14.17 27.63 14.17 27.63 22.96 42.51 22.96 42.51 25.54 24.91 25.54 24.91 .43 42.34 .43 42.34 3.01" fill="#fff" stroke-width="0"/><polygon points="47.99 .43 50.71 .43 50.71 22.92 64.28 22.92 64.28 25.54 47.99 25.54 47.99 .43" fill="#fff" stroke-width="0"/><rect x="69.55" y=".43" width="2.72" height="25.11" fill="#fff" stroke-width="0"/><path d="M90.36,25.97c-6.96,0-12.09-5.7-12.09-12.95C78.27,5.85,83.36,0,90.46,0,94.83,0,97.45,1.61,99.86,3.98l-1.86,2.08c-2.03-2.01-4.31-3.44-7.58-3.44-5.34,0-9.34,4.48-9.34,10.33s4.03,10.4,9.34,10.4c3.31,0,5.48-1.33,7.78-3.62l1.79,1.83c-2.51,2.65-5.27,4.41-9.64,4.41" fill="#fff" stroke-width="0"/></svg>