<?xml version="1.0" encoding="UTF-8"?><svg id="Layer_1" xmlns="http://www.w3.org/2000/svg" viewBox="0 0 400 300"><rect x="0" width="400" height="300" fill="#121212" stroke-width="0"/><path d="M56.93,224.83c.08.05.16.08.23.14,2.51,1.84,5.02,3.69,7.54,5.54.06.04.12.09.2.14,2.63-1.93,5.26-3.86,7.91-5.81v11.62h-2.79c-.02-.23,0-.46-.01-.69,0-.24,0-.49,0-.73v-5c0-.23,0-.47,0-.69-.03-.01-.03-.02-.04-.02,0,0-.01,0-.02,0-.01,0-.03.01-.04.02-1.66,1.22-3.32,2.44-4.98,3.66,0,0-.01,0-.04.02-1.68-1.23-3.36-2.47-5.09-3.74-.02.63,0,1.22,0,1.81,0,.59,0,1.18,0,1.77v3.57s-.09.03-.13.03c-.89,0-1.78,0-2.67,0-.02,0-.04,0-.06-.01,0-3.87,0-7.75,0-11.62Z" fill="#fff" stroke-width="0"/><path d="M98.34,236.67c-.1-.01-.21-.03-.31-.03-1.27-.05-2.53-.18-3.78-.43-.24-.05-.49-.12-.73-.18-.03,0-.05-.02-.08-.04v-1.78c.09.02.17.04.25.06,1.76.47,3.55.7,5.38.67.84-.01,1.68-.07,2.5-.28.34-.09.67-.19.97-.38.17-.11.34-.24.48-.39.38-.4.36-1.18-.26-1.52-.35-.19-.73-.31-1.12-.38-.7-.13-1.41-.24-2.12-.34-1.24-.18-2.49-.35-3.68-.76-.36-.12-.7-.29-1.05-.45-.11-.05-.2-.12-.3-.19-1.33-.87-1.34-2.73-.4-3.7.4-.41.88-.7,1.4-.92.66-.27,1.35-.43,2.05-.53,1.57-.22,3.14-.2,4.72-.1.85.06,1.7.16,2.53.35.15.03.29.08.45.11v1.73c-.07-.01-.14-.02-.2-.04-1.08-.26-2.18-.43-3.29-.48-.78-.03-1.55-.04-2.33-.03-.62,0-1.25.08-1.85.24-.3.08-.6.19-.85.37-.21.15-.36.35-.38.62-.02.31.09.57.35.73.2.13.43.23.66.31.55.18,1.12.26,1.69.34,1.11.15,2.23.27,3.33.5.68.14,1.35.31,1.99.58.33.14.64.31.92.53.53.42.82.97.9,1.63.05.42.05.85-.06,1.26-.16.6-.5,1.08-.98,1.46-.55.44-1.19.71-1.86.91-.79.23-1.6.36-2.42.42-.3.02-.61.04-.91.05-.06,0-.12.02-.18.03h-1.42Z" fill="#fff" stroke-width="0"/><path d="M106.96,205.58c3.88-2.32,7.75-4.64,11.63-6.96.05.17.07,17.97.03,18.46,0,0-.01,0-.02,0,0,0-.01,0-.02,0-.05-.02-.1-.05-.15-.08-3.44-2.06-6.87-4.11-10.34-6.19,1.67-1,3.3-1.98,4.98-2.98,0,.11.01.18.01.25,0,.75,0,1.5,0,2.25,0,.15.04.24.17.31.73.43,1.45.87,2.18,1.3.06.03.12.06.2.1v-8.4c-2.9,1.74-5.78,3.46-8.67,5.19-2.88-1.73-5.76-3.45-8.65-5.18-.05.16-.07,7.93-.02,8.37.04-.01.08-.01.11-.03.77-.46,1.55-.93,2.32-1.39.1-.06.12-.14.12-.24,0-.76,0-1.51,0-2.27,0-.08,0-.15,0-.23.16.05,4.6,2.68,4.97,2.95-3.5,2.1-6.99,4.19-10.5,6.29v-18.51c3.89,2.33,7.77,4.65,11.65,6.98Z" fill="#fff" stroke-width="0"/><path d="M117.51,226.93v2.95c.64,0,1.28,0,1.91,0,.63,0,1.26,0,1.9,0h3.82v1.77c-.32.01-.63,0-.95,0-.32,0-.64,0-.96,0h-4.75c-.32,0-.64,0-.97,0v4.77c-.17.05-2.52.06-2.81.02v-11.31h11.26v1.73s0,0-.01.01c0,0-.01,0-.02.01,0,0-.01,0-.02,0-.01,0-.03,0-.04,0,0,0-.01,0-.02,0-.01,0-.03,0-.04,0-2.73,0-5.46,0-8.19,0-.01,0-.03,0-.04,0,0,0-.01,0-.02,0,0,0-.01,0-.04.02Z" fill="#fff" stroke-width="0"/><path d="M151.23,236.46h-2.81v-9.54c-.5-.02-.97,0-1.45-.01-.47,0-.94,0-1.42,0h-2.86v-1.74c.15-.04,13.95-.05,14.23-.01v1.75h-5.7v9.55Z" fill="#fff" stroke-width="0"/><path d="M84.95,236.46h-2.8v-11.31h2.8v11.31Z" fill="#fff" stroke-width="0"/><path d="M135.83,236.46h-2.81c0-3.77,0-7.53,0-11.29.15-.05,2.29-.07,2.78-.03,0,0,.01,0,.01.01,0,0,.01,0,.01.02,0,.01,0,.03,0,.04,0,3.7,0,7.4,0,11.1,0,.04,0,.08,0,.15Z" fill="#fff" stroke-width="0"/><path d="M287.55,199.12c-4.3,0-7.79,3.49-7.79,7.79s3.49,7.79,7.79,7.79h0c4.3,0,7.79-3.49,7.79-7.8s-3.49-7.79-7.79-7.79ZM289.77,213.27l-2.22-3.67-2.22,3.67-1.16-5.59h1.19l.49,2.4,1.7-2.8,1.7,2.8.49-2.4h1.19l-1.16,5.59ZM289.74,206.17l-.49-2.4-1.7,2.8-1.7-2.8-.49,2.4h-1.19l1.16-5.59,2.22,3.67,2.22-3.67,1.16,5.59h-1.19Z" fill="#fff" stroke-width="0"/><path d="M237.38,220.67h3.91l3.85,10.11,3.88-10.11h3.87v14.41h-2.44v-11.97h-.04l-4.37,11.97h-1.79l-4.37-11.97h-.04v11.97h-2.45v-14.42h0Z" fill="#fff" stroke-width="0"/><path d="M258.14,220.67h2.56v14.42h-2.56v-14.42Z" fill="#fff" stroke-width="0"/><path d="M275.59,224.23c-1.01-1.07-1.94-1.36-2.89-1.36-2.83,0-4.72,2.18-4.72,4.92,0,2.94,1.88,5.11,4.72,5.11,1.11,0,2.17-.51,3.09-1.67l2.02,1.44c-1.24,1.71-3.11,2.45-5.13,2.45-4.23,0-7.26-2.87-7.26-7.17s3.03-7.29,7.26-7.29c1.87,0,3.46.6,4.81,2.17l-1.9,1.4h0Z" fill="#fff" stroke-width="0"/><path d="M281.86,220.67h2.56v5.75h6.72v-5.75h2.56v14.42h-2.56v-6.34h-6.72v6.34h-2.56v-14.42Z" fill="#fff" stroke-width="0"/><path d="M299.49,220.67h9.54v2.32h-6.98v3.56h6.61v2.32h-6.61v3.9h7.34v2.32h-9.91v-14.42h0Z" fill="#fff" stroke-width="0"/><path d="M314.47,220.67h2.56v12.1h6.13v2.32h-8.69v-14.42h0Z" fill="#fff" stroke-width="0"/><path d="M327.47,220.67h9.55v2.32h-6.98v3.56h6.61v2.32h-6.61v3.9h7.35v2.32h-9.91v-14.42h0Z" fill="#fff" stroke-width="0"/><path d="M59.47,72.66h2.46c.28,1.17,1.32,1.67,3.58,1.67,2.62,0,3.58-.64,3.58-1.99,0-1.48-1.5-1.64-3.68-1.71-3.04-.12-5.79-.41-5.79-3.51,0-2.46,1.92-3.79,5.77-3.79,3.27,0,5.11.71,5.39,3.24h-2.42c-.27-.92-1-1.35-3.21-1.35s-3.15.59-3.15,1.64c0,1.55,1.66,1.64,3.37,1.71,3.97.2,5.98.77,5.98,3.54s-1.96,4.09-6.07,4.09c-3.83,0-5.5-.96-5.8-3.56" fill="#fff" stroke-width="0"/><path d="M79.14,68.62h.98l5.61-5.07h2.9l-6.45,5.77,7.27,6.7h-3.08l-6.27-5.79h-.96v5.79h-2.37v-12.47h2.37v5.07" fill="#fff" stroke-width="0"/><path d="M103.03,72.79h-6.92l-1.32,3.23h-2.53l5.56-12.46h3.65l5.47,12.46h-2.58l-1.32-3.22M96.89,70.94h5.39l-2.28-5.59h-.82l-2.3,5.59Z" fill="#fff" stroke-width="0"/><path d="M113.47,69.85c0,3.49,1.05,4.5,4.5,4.5,2.77,0,3.92-.45,3.92-2.48v-.77h-3.1v-1.85h5.34v2.53c0,3.56-2.07,4.45-6.29,4.45-4.83,0-6.7-1.4-6.7-6.3,0-5.14,2.05-6.59,6.79-6.59,3.86,0,5.52.68,5.96,3.29h-2.35c-.3-1.05-1.25-1.4-3.72-1.4-3.04,0-4.36.98-4.36,4.63" fill="#fff" stroke-width="0"/><path d="M130.94,63.54h9.9v1.85h-7.59v3.29h7.07v1.85h-7.07v3.61h7.76v1.85h-10.08v-12.47" fill="#fff" stroke-width="0"/><path d="M157.28,63.54h2.19v12.47h-2.19l-7.23-9.12h-.04v9.12h-2.19v-11.54l-.7-.92h2.78l7.32,9.04h.05v-9.04" fill="#fff" stroke-width="0"/><path d="M76.76,89.99v-6.55h2.6c2.05,0,3.48,1.31,3.48,3.27s-1.42,3.27-3.47,3.27h-2.61ZM81.4,86.71c.07-1.06-.72-1.97-1.78-2.05-.09,0-.18,0-.27,0h-1.2v4.09h1.2c1.08.05,2-.8,2.05-1.88,0-.06,0-.12,0-.18h0Z" fill="#fff" stroke-width="0"/><path d="M86.7,89.99v-6.55h4.64v1.23h-3.24v1.38h3.18v1.23h-3.18v1.49h3.24v1.23h-4.64Z" fill="#fff" stroke-width="0"/><path d="M99.82,89.99l-3.13-4.27v4.28h-1.4v-6.55h1.44l3.04,4.12v-4.13h1.4v6.55h-1.35Z" fill="#fff" stroke-width="0"/><path d="M111.03,89.99v-4.73l-1.85,4.73h-.61l-1.85-4.73v4.73h-1.38v-6.55h1.96l1.59,4.09,1.59-4.09h1.97v6.55h-1.42Z" fill="#fff" stroke-width="0"/><path d="M121.14,89.99l-.41-1.11h-2.81l-.41,1.11h-1.59l2.53-6.55h1.75l2.53,6.55h-1.58ZM119.32,84.83l-1.02,2.82h2.05l-1.02-2.82Z" fill="#fff" stroke-width="0"/><path d="M129.91,89.99l-1.29-2.33h-1.03v2.33h-1.39v-6.55h3.07c1.13-.09,2.12.75,2.21,1.88,0,.08,0,.16,0,.23.05.91-.56,1.73-1.44,1.95l1.48,2.5h-1.61ZM130.05,85.53c0-.49-.4-.88-.89-.88-.03,0-.06,0-.09,0h-1.48v1.77h1.47c.49.05.92-.31.97-.8,0-.03,0-.06,0-.09h0Z" fill="#fff" stroke-width="0"/><path d="M139.3,89.99l-1.98-2.63-.51.62v2.02h-1.38v-6.55h1.4v2.92l2.32-2.92h1.72l-2.61,3.08,2.78,3.48h-1.74Z" fill="#fff" stroke-width="0"/><path d="M250.69,66.73h-7.44v10.19h7.41c3.62,0,6.2-1.94,6.2-5.2s-2.27-4.99-6.17-4.99M257.13,89.22l-6.99-9.76h-6.89v9.76h-2.72v-25.11h10.37c5.3,0,8.71,2.98,8.71,7.5,0,4.2-2.76,6.64-6.54,7.35l7.41,10.26h-3.34Z" fill="#fff" stroke-width="0"/><polygon points="282.87 66.69 268.16 66.69 268.16 75.27 281.32 75.27 281.32 77.85 268.16 77.85 268.16 86.64 283.04 86.64 283.04 89.22 265.44 89.22 265.44 64.11 282.87 64.11 282.87 66.69" fill="#fff" stroke-width="0"/><polygon points="288.52 64.11 291.24 64.11 291.24 86.6 304.81 86.6 304.81 89.22 288.52 89.22 288.52 64.11" fill="#fff" stroke-width="0"/><rect x="310.08" y="64.11" width="2.72" height="25.11" fill="#fff" stroke-width="0"/><path d="M330.89,89.65c-6.96,0-12.09-5.7-12.09-12.95,0-7.17,5.1-13.02,12.19-13.02,4.37,0,6.99,1.61,9.4,3.98l-1.86,2.08c-2.03-2.01-4.31-3.44-7.58-3.44-5.34,0-9.34,4.48-9.34,10.33s4.03,10.4,9.34,10.4c3.31,0,5.48-1.33,7.78-3.62l1.79,1.83c-2.51,2.65-5.27,4.41-9.64,4.41" fill="#fff" stroke-width="0"/><polygon points="301.94 145.66 300.12 140.34 299.15 140.34 297.29 145.66 295.49 140.34 294.14 140.34 296.76 147.81 297.78 147.81 299.61 142.6 301.43 147.81 302.45 147.81 305.08 140.35 303.76 140.34 301.94 145.66" fill="#fff" stroke-width="0"/><path d="M308.5,140.34l-3.27,7.47h1.36l.77-1.79h3.31l.77,1.79h1.36l-3.28-7.47h-1.03ZM310.18,144.86h-2.32l1.16-2.7,1.16,2.7Z" fill="#fff" stroke-width="0"/><polygon points="312.62 141.53 315.07 141.53 315.05 147.81 316.36 147.81 316.36 141.53 318.81 141.53 318.81 140.34 312.62 140.34 312.62 141.53" fill="#fff" stroke-width="0"/><path d="M323.08,141.46c.33.02.67.05.97.16.34.14.64.33.91.58l.25.22.52-1.08-.13-.13c-.32-.32-.71-.57-1.13-.72-.46-.16-.93-.25-1.41-.24-.65.02-1.29.16-1.85.48-.53.31-.95.77-1.22,1.33-.3.62-.44,1.32-.43,2-.01.69.14,1.39.43,2.01.27.56.69,1.02,1.22,1.33h0c.54.31,1.15.47,1.77.47.02,0,.05,0,.07,0,.49,0,.96-.07,1.42-.23.42-.15.81-.4,1.13-.72l.13-.13-.53-1.08-.25.22c-.27.24-.58.44-.9.57-.31.11-.63.17-.97.17,0,0-.02,0-.03,0-.61.05-1.18-.21-1.57-.65-.42-.57-.62-1.26-.58-2-.04-.7.16-1.39.57-1.94.4-.45.98-.69,1.6-.66Z" fill="#fff" stroke-width="0"/><polygon points="332.49 143.44 328.81 143.44 328.81 140.34 327.52 140.34 327.52 147.81 328.81 147.81 328.81 144.61 332.48 144.61 332.48 147.81 333.79 147.81 333.79 140.34 332.49 140.34 332.49 143.44" fill="#fff" stroke-width="0"/><path d="M341.88,143.93c-.47-.16-.96-.3-1.45-.42-.4-.08-.79-.23-1.14-.43-.19-.12-.3-.34-.29-.59-.01-.29.12-.57.35-.74.33-.22.72-.33,1.14-.31.34-.02.69.06,1,.18.34.14.65.33.92.58l.24.22.54-1.07-.13-.13c-.33-.32-.73-.56-1.16-.7-.47-.16-.95-.23-1.43-.24-.5-.02-.98.08-1.43.27-.4.17-.75.44-1,.8-.24.35-.37.77-.36,1.18-.02.42.11.84.38,1.18.25.3.58.53.94.66.44.17.9.3,1.36.39.31.07.62.15.93.26.18.06.35.16.48.28.1.1.15.24.15.41.01.28-.12.55-.34.7-.35.22-.75.32-1.17.29-.4,0-.79-.05-1.16-.17-.36-.13-.69-.33-.98-.58l-.25-.22-.53,1.09.15.13c.72.62,1.63.96,2.57.96.07,0,.14,0,.21,0,.5.02.99-.08,1.46-.26.4-.16.75-.43,1.01-.78.24-.34.37-.76.36-1.17.02-.42-.12-.83-.41-1.16-.26-.28-.6-.49-.96-.61Z" fill="#fff" stroke-width="0"/><polygon points="350.29 140.34 344.12 140.34 344.12 141.53 346.57 141.53 346.54 147.81 347.86 147.81 347.86 141.53 350.29 141.53 350.29 140.34" fill="#fff" stroke-width="0"/><path d="M353.42,140.34l-3.27,7.47h1.36l.77-1.79h3.32l.77,1.79h1.36l-3.28-7.47h-1.03ZM355.1,144.86h-2.32l1.16-2.7,1.16,2.7Z" fill="#fff" stroke-width="0"/><polygon points="357.54 141.53 359.99 141.53 359.94 147.81 361.26 147.81 361.26 141.53 363.71 141.53 363.71 140.34 357.54 140.34 357.54 141.53" fill="#fff" stroke-width="0"/><rect x="365.19" y="140.34" width="1.32" height="7.47" fill="#fff" stroke-width="0"/><path d="M373.66,140.75c-1.13-.62-2.49-.62-3.63,0-.53.32-.94.78-1.2,1.34-.28.63-.42,1.32-.41,2,0,.69.14,1.38.43,2,.26.56.67,1.02,1.18,1.33h0c.56.32,1.18.47,1.8.47s1.25-.16,1.82-.47c.52-.32.93-.78,1.2-1.33.28-.63.42-1.32.41-1.99.02-.68-.12-1.38-.4-2-.26-.55-.67-1.02-1.2-1.34ZM373.95,144.09c.05.69-.15,1.38-.55,1.94h0s-.08.08-.12.12c-.41.38-.95.57-1.51.56-.56-.02-1.08-.26-1.44-.65-.41-.57-.62-1.27-.57-2-.04-.7.16-1.39.55-1.93l.09-.09c.41-.39.94-.58,1.46-.58.56,0,1.12.22,1.52.65.41.57.61,1.27.57,2Z" fill="#fff" stroke-width="0"/><polygon points="382.06 140.34 382.06 145.46 378.23 140.34 377.23 140.34 377.23 147.81 378.49 147.81 378.49 142.7 382.34 147.81 383.32 147.81 383.32 140.34 382.06 140.34" fill="#fff" stroke-width="0"/><path d="M289.4,140.11l-1.6,4.18,1.6,4.21c2.32-.88,3.48-3.47,2.6-5.79-.46-1.2-1.4-2.14-2.6-2.6Z" fill="#fff" stroke-width="0"/><path d="M283.62,145.9c.46,1.2,1.4,2.14,2.6,2.6l1.59-4.21-1.59-4.18c-2.32.88-3.48,3.48-2.6,5.79Z" fill="#fff" stroke-width="0"/><g id="Layer_2"><g id="Layer_1-2"><path d="M48.71,139.7h-5.7v-2.85h9.18v2.66l-5.98,10.34h6.39v2.85h-9.9v-2.5l6.01-10.5Z" fill="#fff" stroke-width="0"/><path d="M60.01,143.23c1.94,0,3.51,1.58,3.5,3.52,0,.02,0,.03,0,.05.08,1.91-1.41,3.52-3.32,3.6-1.91.08-3.52-1.41-3.6-3.32,0-.09,0-.19,0-.28-.03-.92.32-1.81.98-2.46.63-.67,1.51-1.07,2.43-1.11ZM60.14,140.44c-3.5-.05-6.37,2.75-6.42,6.25s2.75,6.37,6.25,6.42c3.5.05,6.37-2.75,6.42-6.25,0-.02,0-.05,0-.07,0-3.47-2.77-6.3-6.24-6.36v.02Z" fill="#fff" stroke-width="0"/><path d="M78.19,146.73c0,1.93-1.57,3.5-3.5,3.5-1.93,0-3.5-1.57-3.5-3.5,0-1.91,1.53-3.46,3.43-3.5,1.95-.02,3.55,1.55,3.57,3.5,0,0,0,0,0,0ZM80.85,136.85h-2.85v5.19c-.93-1.04-2.27-1.63-3.67-1.61-1.67.05-3.25.78-4.37,2.02-1.05,1.21-1.62,2.76-1.6,4.36,0,1.58.57,3.1,1.6,4.29,1.07,1.25,2.63,1.98,4.28,1.99,1.58.05,3.08-.7,3.99-1.99h.03v1.61h2.62l-.03-15.86Z" fill="#fff" stroke-width="0"/><path d="M83.87,140.82h2.85v11.89h-2.85v-11.89ZM83.87,136.83h2.85v2.61h-2.85v-2.61Z" fill="#fff" stroke-width="0"/><path d="M99.22,146.73c.11,1.86-1.31,3.45-3.17,3.56-.11,0-.21,0-.32,0-1.89.05-3.46-1.44-3.51-3.33,0-.03,0-.06,0-.09-.1-1.91,1.35-3.54,3.26-3.64.1,0,.2,0,.3,0,1.85-.05,3.39,1.42,3.44,3.27,0,.08,0,.15,0,.23ZM101.93,140.82h-2.62v1.67c-.9-1.31-2.4-2.09-3.99-2.06-1.71-.02-3.34.74-4.41,2.06-1.04,1.17-1.59,2.71-1.52,4.28-.02,1.57.5,3.11,1.48,4.34,1.08,1.29,2.68,2.02,4.36,1.99,1.58-.02,3.07-.75,4.05-1.99h.03v1.61h2.62v-11.89Z" fill="#fff" stroke-width="0"/><path d="M116.65,148.84c-.84,2.54-3.22,4.25-5.89,4.25-1.65-.01-3.23-.65-4.42-1.78-2.52-2.42-2.6-6.42-.18-8.94,1.2-1.25,2.87-1.96,4.6-1.94,2.71,0,5.1,1.76,5.92,4.34h-3.24c-.56-.99-1.62-1.58-2.75-1.53-1.85-.04-3.38,1.43-3.42,3.28,0,.07,0,.14,0,.21-.09,1.89,1.36,3.49,3.25,3.59.11,0,.22,0,.33,0,1.06,0,2.04-.56,2.61-1.46l3.2-.02Z" fill="#fff" stroke-width="0"/><path d="M37.4,142.66c-.92-4.56-6.23-5.47-7.23-5.61v-2.96h-3.29v2.99c-.99.14-6.31,1.06-7.24,5.59h-2.97v3.29h2.96c.91,4.56,6.27,5.51,7.25,5.64v2.93h3.28v-2.9c1-.13,6.33-1.05,7.24-5.64h2.95v-3.31h-2.96ZM30.17,142.66v-4.82c2.42.44,4.29,2.39,4.64,4.82h-4.64M30.17,145.95h4.65c-.32,2.47-2.2,4.45-4.65,4.89v-4.87M22.24,142.66c.33-2.45,2.21-4.41,4.65-4.85v4.85h-4.65M26.89,145.95v4.89c-2.45-.44-4.33-2.42-4.64-4.89h4.64Z" fill="#fff" stroke-width="0"/></g></g><path d="M216.8,142.96c-3.6-1.15-5.17-2.17-4.9-3.85.26-1.66,2.06-1.56,3.81-1.43,1.73.15,3.14.53,4.17.87.02.01.08,0,.09-.06.09-.61.42-2.22.51-2.78.01-.07-.05-.1-.09-.11-2.11-.57-4.03-.93-6.33-.89-4.31.07-6.31,1.81-6.55,5.43-.14,2.11,1.32,4.45,4.36,5.46s5.21,1.58,4.9,3.45c-.28,1.59-2.15,1.77-4.18,1.65-1.78-.11-3.28-.53-4.41-.87-.08-.02-.13.02-.15.09-.08.65-.32,2.32-.4,2.91,0,.08.06.14.1.15,1.4.34,3.89.81,6.95.81,4.13,0,6.28-1.77,6.52-5.17.19-2.63-1.05-4.58-4.4-5.66Z" fill="#fff" stroke-width="0"/><path d="M198.16,142.96c-3.6-1.15-5.17-2.17-4.9-3.85.26-1.66,2.06-1.56,3.81-1.43,1.73.15,3.14.53,4.17.87.03.01.07,0,.09-.06.1-.61.43-2.22.52-2.78,0-.07-.05-.1-.08-.11-2.11-.57-4.03-.93-6.33-.89-4.31.07-6.31,1.81-6.56,5.43-.14,2.11,1.32,4.45,4.36,5.46,3.04,1.01,5.21,1.58,4.91,3.45-.28,1.59-2.15,1.77-4.18,1.65-1.79-.11-3.28-.53-4.41-.87-.07-.02-.13.02-.14.09-.08.65-.32,2.32-.4,2.91,0,.08.06.14.09.15,1.4.34,3.9.81,6.94.81,4.14,0,6.28-1.77,6.52-5.17.19-2.63-1.05-4.58-4.39-5.66Z" fill="#fff" stroke-width="0"/><path d="M162.61,135.13h-12.49c-.07,0-.12.06-.12.12v18.11c0,.07.05.12.12.12h4.15c.07,0,.12-.05.12-.12v-6.78c0-.06.05-.12.12-.12h7.19c.07,0,.12-.05.12-.11v-2.8c0-.07-.05-.12-.12-.12h-7.19c-.07,0-.12-.05-.12-.12v-5c0-.06.05-.12.12-.12h8.2c.07,0,.12-.05.12-.12l-.1-2.8c0-.06-.07-.12-.13-.12Z" fill="#fff" stroke-width="0"/><path d="M231.36,135.12h-4.28c-.08,0-.12.05-.12.12v18.12c0,.06.05.11.12.11h4.28c.07,0,.12-.05.12-.11v-18.12c0-.07-.05-.12-.12-.12Z" fill="#fff" stroke-width="0"/><path d="M249.88,150.38h-7.1c-.06,0-.12-.06-.12-.12v-15c0-.07-.05-.12-.12-.12h-4.27c-.06,0-.12.05-.12.12v18.09c0,.06.06.11.12.11h11.47c.07,0,.12-.05.13-.11l.14-2.85c0-.07-.05-.13-.12-.13Z" fill="#fff" stroke-width="0"/><path d="M175.72,134.73c-5.62,0-8.68,3.68-8.68,9.63s3.07,9.62,8.68,9.62,8.68-3.69,8.68-9.62-2.98-9.63-8.68-9.63ZM175.72,150.94c-3.81,0-4.34-3.17-4.34-6.59s.53-6.58,4.34-6.58,4.33,3.17,4.33,6.58c0,3.42-.52,6.59-4.33,6.59Z" fill="#fff" stroke-width="0"/></svg>