<?xml version="1.0" encoding="UTF-8"?><svg id="Layer_1" xmlns="http://www.w3.org/2000/svg" viewBox="0 0 100 8.39"><polygon points="18.62 5.55 16.8 .24 15.82 .24 13.97 5.55 12.16 .24 10.82 .24 13.44 7.7 14.45 7.7 16.29 2.5 18.1 7.7 19.13 7.7 21.75 .24 20.44 .23 18.62 5.55" fill="#fff" stroke-width="0"/><path d="M25.17.24l-3.27,7.47h1.36l.77-1.79h3.31l.77,1.79h1.36L26.21.24h-1.03ZM26.86,4.75h-2.32l1.16-2.7,1.16,2.7Z" fill="#fff" stroke-width="0"/><polygon points="29.3 1.42 31.75 1.42 31.72 7.7 33.04 7.7 33.04 1.42 35.48 1.42 35.48 .24 29.3 .24 29.3 1.42" fill="#fff" stroke-width="0"/><path d="M39.76,1.36c.33.02.67.05.97.16.34.14.64.33.91.58l.25.22.52-1.08-.13-.13c-.32-.32-.71-.57-1.13-.72-.46-.16-.93-.25-1.41-.24-.65.02-1.29.16-1.85.48-.53.31-.95.77-1.22,1.33-.3.62-.44,1.32-.43,2-.01.69.14,1.39.43,2.01.27.56.69,1.02,1.22,1.33h0c.54.31,1.15.47,1.77.47.02,0,.05,0,.07,0,.49,0,.96-.07,1.42-.23.42-.15.81-.4,1.13-.72l.13-.13-.53-1.08-.25.22c-.27.24-.58.44-.9.57-.31.11-.63.17-.97.17,0,0-.02,0-.03,0-.61.05-1.18-.21-1.57-.65-.42-.57-.62-1.26-.58-2-.04-.7.16-1.39.57-1.94.4-.45.98-.69,1.6-.66Z" fill="#fff" stroke-width="0"/><polygon points="49.17 3.33 45.49 3.33 45.49 .24 44.19 .24 44.19 7.7 45.49 7.7 45.49 4.5 49.15 4.5 49.15 7.7 50.47 7.7 50.47 .24 49.17 .24 49.17 3.33" fill="#fff" stroke-width="0"/><path d="M58.55,3.82c-.47-.16-.96-.3-1.45-.42-.4-.08-.79-.23-1.14-.43-.19-.12-.3-.34-.29-.59-.01-.29.12-.57.35-.74.33-.22.72-.33,1.14-.31.34-.02.69.06,1,.18.34.14.65.33.92.58l.24.22.54-1.07-.13-.13c-.33-.32-.73-.56-1.16-.7-.47-.16-.95-.23-1.43-.24-.5-.02-.98.08-1.43.27-.4.17-.75.44-1,.8-.24.35-.37.77-.36,1.18-.02.42.11.84.38,1.18.25.3.58.53.94.66.44.17.9.3,1.36.39.31.07.62.15.93.26.18.06.35.16.48.28.1.1.15.24.15.41.01.28-.12.55-.34.7-.35.22-.75.32-1.17.29-.4,0-.79-.05-1.16-.17-.36-.13-.69-.33-.98-.58l-.25-.22-.53,1.09.15.13c.72.62,1.63.96,2.57.96.07,0,.14,0,.21,0,.5.02.99-.08,1.46-.26.4-.16.75-.43,1.01-.78.24-.34.37-.76.36-1.17.02-.42-.12-.83-.41-1.16-.26-.28-.6-.49-.96-.61Z" fill="#fff" stroke-width="0"/><polygon points="66.96 .24 60.79 .24 60.79 1.42 63.24 1.42 63.22 7.7 64.54 7.7 64.54 1.42 66.96 1.42 66.96 .24" fill="#fff" stroke-width="0"/><path d="M70.09.24l-3.27,7.47h1.36l.77-1.79h3.32l.77,1.79h1.36l-3.28-7.47h-1.03ZM71.78,4.75h-2.32l1.16-2.7,1.16,2.7Z" fill="#fff" stroke-width="0"/><polygon points="74.22 1.42 76.66 1.42 76.62 7.7 77.93 7.7 77.93 1.42 80.38 1.42 80.38 .24 74.22 .24 74.22 1.42" fill="#fff" stroke-width="0"/><rect x="81.86" y=".24" width="1.32" height="7.47" fill="#fff" stroke-width="0"/><path d="M90.33.64c-1.13-.62-2.49-.62-3.63,0-.53.32-.94.78-1.2,1.34-.28.63-.42,1.32-.41,2,0,.69.14,1.38.43,2,.26.56.67,1.02,1.18,1.33h0c.56.32,1.18.47,1.8.47s1.25-.16,1.82-.47c.52-.32.93-.78,1.2-1.33.28-.63.42-1.32.41-1.99.02-.68-.12-1.38-.4-2-.26-.55-.67-1.02-1.2-1.34ZM90.63,3.98c.05.69-.15,1.38-.55,1.94h0s-.08.08-.12.12c-.41.38-.95.57-1.51.56-.56-.02-1.08-.26-1.44-.65-.41-.57-.62-1.27-.57-2-.04-.7.16-1.39.55-1.93l.09-.09c.41-.39.94-.58,1.46-.58.56,0,1.12.22,1.52.65.41.57.61,1.27.57,2Z" fill="#fff" stroke-width="0"/><polygon points="98.74 .24 98.74 5.35 94.9 .24 93.91 .24 93.91 7.7 95.16 7.7 95.16 2.59 99.02 7.7 100 7.7 100 .24 98.74 .24" fill="#fff" stroke-width="0"/><path d="M6.08,0l-1.6,4.18,1.6,4.21c2.32-.88,3.48-3.47,2.6-5.79-.46-1.2-1.4-2.14-2.6-2.6Z" fill="#fff" stroke-width="0"/><path d="M.29,5.79c.46,1.2,1.4,2.14,2.6,2.6l1.59-4.21L2.89,0C.58.88-.59,3.48.29,5.79Z" fill="#fff" stroke-width="0"/></svg>