<?xml version="1.0" encoding="UTF-8"?><svg id="Layer_1" xmlns="http://www.w3.org/2000/svg" viewBox="0 0 99.82 35.97"><path d="M50.17,0c-4.3,0-7.79,3.49-7.79,7.79s3.49,7.79,7.79,7.79h0c4.3,0,7.79-3.49,7.79-7.8s-3.49-7.79-7.79-7.79ZM52.38,14.14l-2.22-3.67-2.22,3.67-1.16-5.59h1.19l.49,2.4,1.7-2.8,1.7,2.8.49-2.4h1.19l-1.16,5.59ZM52.36,7.04l-.49-2.4-1.7,2.8-1.7-2.8-.49,2.4h-1.19l1.16-5.59,2.22,3.67,2.22-3.67,1.16,5.59h-1.19Z" stroke-width="0"/><path d="M0,21.55h3.91l3.85,10.11,3.88-10.11h3.87v14.41h-2.44v-11.97h-.04l-4.37,11.97h-1.79l-4.37-11.97h-.04v11.97H0v-14.42h0Z" stroke-width="0"/><path d="M20.76,21.55h2.56v14.42h-2.56v-14.42Z" stroke-width="0"/><path d="M38.21,25.1c-1.01-1.07-1.94-1.36-2.89-1.36-2.83,0-4.72,2.18-4.72,4.92,0,2.94,1.88,5.11,4.72,5.11,1.11,0,2.17-.51,3.09-1.67l2.02,1.44c-1.24,1.71-3.11,2.45-5.13,2.45-4.23,0-7.26-2.87-7.26-7.17s3.03-7.29,7.26-7.29c1.87,0,3.46.6,4.81,2.17l-1.9,1.4h0Z" stroke-width="0"/><path d="M44.48,21.55h2.56v5.75h6.72v-5.75h2.56v14.42h-2.56v-6.34h-6.72v6.34h-2.56v-14.42Z" stroke-width="0"/><path d="M62.11,21.55h9.54v2.32h-6.98v3.56h6.61v2.32h-6.61v3.9h7.34v2.32h-9.91v-14.42h0Z" stroke-width="0"/><path d="M77.08,21.55h2.56v12.1h6.13v2.32h-8.69v-14.42h0Z" stroke-width="0"/><path d="M90.09,21.55h9.55v2.32h-6.98v3.56h6.61v2.32h-6.61v3.9h7.35v2.32h-9.91v-14.42h0Z" stroke-width="0"/></svg>