<?xml version="1.0" encoding="UTF-8"?><svg id="Layer_1" xmlns="http://www.w3.org/2000/svg" viewBox="0 0 100 20.43"><g id="Layer_2"><g id="Layer_1-2"><path d="M32.03,5.61h-5.7v-2.85h9.18v2.66l-5.98,10.34h6.39v2.85h-9.9v-2.5l6.01-10.5Z" stroke-width="0"/><path d="M43.33,9.15c1.94,0,3.51,1.58,3.5,3.52,0,.02,0,.03,0,.05.08,1.91-1.41,3.52-3.32,3.6-1.91.08-3.52-1.41-3.6-3.32,0-.09,0-.19,0-.28-.03-.92.32-1.81.98-2.46.63-.67,1.51-1.07,2.43-1.11ZM43.47,6.35c-3.5-.05-6.37,2.75-6.42,6.25s2.75,6.37,6.25,6.42c3.5.05,6.37-2.75,6.42-6.25,0-.02,0-.05,0-.07,0-3.47-2.77-6.3-6.24-6.36v.02Z" stroke-width="0"/><path d="M61.52,12.65c0,1.93-1.57,3.5-3.5,3.5-1.93,0-3.5-1.57-3.5-3.5,0-1.91,1.53-3.46,3.43-3.5,1.95-.02,3.55,1.55,3.57,3.5,0,0,0,0,0,0ZM64.17,2.76h-2.85v5.19c-.93-1.04-2.27-1.63-3.67-1.61-1.67.05-3.25.78-4.37,2.02-1.05,1.21-1.62,2.76-1.6,4.36,0,1.58.57,3.1,1.6,4.29,1.07,1.25,2.63,1.98,4.28,1.99,1.58.05,3.08-.7,3.99-1.99h.03v1.61h2.62l-.03-15.86Z" stroke-width="0"/><path d="M67.2,6.73h2.85v11.89h-2.85V6.73ZM67.2,2.74h2.85v2.61h-2.85v-2.61Z" stroke-width="0"/><path d="M82.55,12.65c.11,1.86-1.31,3.45-3.17,3.56-.11,0-.21,0-.32,0-1.89.05-3.46-1.44-3.51-3.33,0-.03,0-.06,0-.09-.1-1.91,1.35-3.54,3.26-3.64.1,0,.2,0,.3,0,1.85-.05,3.39,1.42,3.44,3.27,0,.08,0,.15,0,.23ZM85.25,6.73h-2.62v1.67c-.9-1.31-2.4-2.09-3.99-2.06-1.71-.02-3.34.74-4.41,2.06-1.04,1.17-1.59,2.71-1.52,4.28-.02,1.57.5,3.11,1.48,4.34,1.08,1.29,2.68,2.02,4.36,1.99,1.58-.02,3.07-.75,4.05-1.99h.03v1.61h2.62V6.73Z" stroke-width="0"/><path d="M99.97,14.75c-.84,2.54-3.22,4.25-5.89,4.25-1.65-.01-3.23-.65-4.42-1.78-2.52-2.42-2.6-6.42-.18-8.94,1.2-1.25,2.87-1.96,4.6-1.94,2.71,0,5.1,1.76,5.92,4.34h-3.24c-.56-.99-1.62-1.58-2.75-1.53-1.85-.04-3.38,1.43-3.42,3.28,0,.07,0,.14,0,.21-.09,1.89,1.36,3.49,3.25,3.59.11,0,.22,0,.33,0,1.06,0,2.04-.56,2.61-1.46l3.2-.02Z" stroke-width="0"/><path d="M20.73,8.58c-.92-4.56-6.23-5.47-7.23-5.61V0h-3.29v2.99c-.99.14-6.31,1.06-7.24,5.59H0v3.29h2.96c.91,4.56,6.27,5.51,7.25,5.64v2.93h3.28v-2.9c1-.13,6.33-1.05,7.24-5.64h2.95v-3.31h-2.96ZM13.5,8.58V3.75c2.42.44,4.29,2.39,4.64,4.82h-4.64M13.5,11.87h4.65c-.32,2.47-2.2,4.45-4.65,4.89v-4.87M5.57,8.58c.33-2.45,2.21-4.41,4.65-4.85v4.85h-4.65M10.21,11.87v4.89c-2.45-.44-4.33-2.42-4.64-4.89h4.64Z" stroke-width="0"/></g></g></svg>