<svg viewBox="0 0 100 25.97" xmlns="http://www.w3.org/2000/svg"><g fill="#fff"><path d="m10.16 3.05h-7.44v10.19h7.41c3.62 0 6.2-1.94 6.2-5.2s-2.27-4.99-6.17-4.99m6.44 22.49-6.99-9.76h-6.89v9.76h-2.72v-25.11h10.37c5.3 0 8.71 2.98 8.71 7.5 0 4.2-2.76 6.64-6.54 7.35l7.41 10.26h-3.34z"/><path d="m42.34 3.01h-14.71v8.58h13.16v2.58h-13.16v8.79h14.88v2.58h-17.6v-25.11h17.43z"/><path d="m47.99.43h2.72v22.49h13.57v2.62h-16.29z"/><path d="m69.55.43h2.72v25.11h-2.72z"/><path d="m90.36 25.97c-6.96 0-12.09-5.7-12.09-12.95 0-7.17 5.09-13.02 12.19-13.02 4.37 0 6.99 1.61 9.4 3.98l-1.86 2.08c-2.03-2.01-4.31-3.44-7.58-3.44-5.34 0-9.34 4.48-9.34 10.33s4.03 10.4 9.34 10.4c3.31 0 5.48-1.33 7.78-3.62l1.79 1.83c-2.51 2.65-5.27 4.41-9.64 4.41"/></g></svg>