<svg viewBox="0 0 100 8.39" xmlns="http://www.w3.org/2000/svg"><g fill="#fff"><path d="m18.62 5.55-1.82-5.31h-.98l-1.85 5.31-1.81-5.31h-1.34l2.62 7.46h1.01l1.84-5.2 1.81 5.2h1.03l2.62-7.46-1.31-.01z"/><path d="m25.17.24-3.27 7.47h1.36l.77-1.79h3.31l.77 1.79h1.36l-3.26-7.47h-1.03zm1.69 4.51h-2.32l1.16-2.7z"/><path d="m29.3 1.42h2.45l-.03 6.28h1.32v-6.28h2.44v-1.18h-6.18z"/><path d="m39.76 1.36c.33.02.67.05.97.16.34.14.64.33.91.58l.25.22.52-1.08-.13-.13c-.32-.32-.71-.57-1.13-.72-.46-.16-.93-.25-1.41-.24-.65.02-1.29.16-1.85.48-.53.31-.95.77-1.22 1.33-.3.62-.44 1.32-.43 2-.01.69.14 1.39.43 2.01.27.56.69 1.02 1.22 1.33.54.31 1.15.47 1.77.47h.07c.49 0 .96-.07 1.42-.23.42-.15.81-.4 1.13-.72l.13-.13-.53-1.08-.25.22c-.27.24-.58.44-.9.57-.31.11-.63.17-.97.17 0 0-.02 0-.03 0-.61.05-1.18-.21-1.57-.65-.42-.57-.62-1.26-.58-2-.04-.7.16-1.39.57-1.94.4-.45.98-.69 1.6-.66z"/><path d="m49.17 3.33h-3.68v-3.09h-1.3v7.46h1.3v-3.2h3.66v3.2h1.32v-7.46h-1.3z"/><path d="m58.55 3.82c-.47-.16-.96-.3-1.45-.42-.4-.08-.79-.23-1.14-.43-.19-.12-.3-.34-.29-.59-.01-.29.12-.57.35-.74.33-.22.72-.33 1.14-.31.34-.02.69.06 1 .18.34.14.65.33.92.58l.24.22.54-1.07-.13-.13c-.33-.32-.73-.56-1.16-.7-.47-.16-.95-.23-1.43-.24-.5-.02-.98.08-1.43.27-.4.17-.75.44-1 .8-.24.35-.37.77-.36 1.18-.02.42.11.84.38 1.18.25.3.58.53.94.66.44.17.9.3 1.36.39.31.07.62.15.93.26.18.06.35.16.48.28.1.1.15.24.15.41.01.28-.12.55-.34.7-.35.22-.75.32-1.17.29-.4 0-.79-.05-1.16-.17-.36-.13-.69-.33-.98-.58l-.25-.22-.53 1.09.15.13c.72.62 1.63.96 2.57.96h.21c.5.02.99-.08 1.46-.26.4-.16.75-.43 1.01-.78.24-.34.37-.76.36-1.17.02-.42-.12-.83-.41-1.16-.26-.28-.6-.49-.96-.61z"/><path d="m66.96.24h-6.17v1.18h2.45l-.02 6.28h1.32v-6.28h2.42z"/><path d="m70.09.24-3.27 7.47h1.36l.77-1.79h3.32l.77 1.79h1.36l-3.28-7.47h-1.03zm1.69 4.51h-2.32l1.16-2.7z"/><path d="m74.22 1.42h2.44l-.04 6.28h1.31v-6.28h2.45v-1.18h-6.16z"/><path d="m81.86.24h1.32v7.47h-1.32z"/><path d="m90.33.64c-1.13-.62-2.49-.62-3.63 0-.53.32-.94.78-1.2 1.34-.28.63-.42 1.32-.41 2 0 .69.14 1.38.43 2 .26.56.67 1.02 1.18 1.33.56.32 1.18.47 1.8.47s1.25-.16 1.82-.47c.52-.32.93-.78 1.2-1.33.28-.63.42-1.32.41-1.99.02-.68-.12-1.38-.4-2-.26-.55-.67-1.02-1.2-1.34zm.3 3.34c.05.69-.15 1.38-.55 1.94s-.08.08-.12.12c-.41.38-.95.57-1.51.56-.56-.02-1.08-.26-1.44-.65-.41-.57-.62-1.27-.57-2-.04-.7.16-1.39.55-1.93l.09-.09c.41-.39.94-.58 1.46-.58.56 0 1.12.22 1.52.65.41.57.61 1.27.57 2z"/><path d="m98.74.24v5.11l-3.84-5.11h-.99v7.46h1.25v-5.11l3.86 5.11h.98v-7.46z"/><path d="m6.08 0-1.6 4.18 1.6 4.21c2.32-.88 3.48-3.47 2.6-5.79-.46-1.2-1.4-2.14-2.6-2.6z"/><path d="m.29 5.79c.46 1.2 1.4 2.14 2.6 2.6l1.59-4.21-1.59-4.18c-2.31.88-3.48 3.48-2.6 5.79z"/></g></svg>