<svg viewBox="0 0 100 26.66" xmlns="http://www.w3.org/2000/svg"><path d="m0 9.33h2.46c.28 1.17 1.32 1.67 3.58 1.67 2.62 0 3.58-.64 3.58-1.99 0-1.48-1.5-1.64-3.68-1.71-3.04-.12-5.79-.41-5.79-3.51-.01-2.45 1.92-3.79 5.76-3.79 3.27 0 5.11.71 5.39 3.24h-2.42c-.27-.92-1-1.35-3.21-1.35s-3.15.59-3.15 1.64c0 1.55 1.66 1.64 3.37 1.71 3.97.2 5.98.77 5.98 3.54s-1.96 4.09-6.07 4.09c-3.82-0-5.5-.96-5.8-3.56"/><path d="m19.67 5.29h.98l5.61-5.08h2.9l-6.45 5.77 7.27 6.7h-3.08l-6.27-5.79h-.96v5.79h-2.37v-12.47h2.37v5.07"/><path d="m43.56 9.46h-6.92l-1.32 3.23h-2.53l5.55-12.47h3.65l5.47 12.46h-2.58zm-6.14-1.85h5.39l-2.28-5.59h-.82l-2.3 5.59z"/><path d="m54 6.52c0 3.49 1.05 4.5 4.5 4.5 2.77 0 3.92-.45 3.92-2.48v-.77h-3.1v-1.85h5.34v2.53c0 3.56-2.07 4.45-6.29 4.45-4.83 0-6.7-1.4-6.7-6.3.01-5.15 2.05-6.59 6.79-6.59 3.86 0 5.52.68 5.96 3.29h-2.35c-.3-1.05-1.25-1.4-3.72-1.4-3.04 0-4.36.98-4.36 4.63"/><path d="m71.47.21h9.9v1.85h-7.59v3.29h7.07v1.85h-7.07v3.61h7.76v1.85h-10.08v-12.45"/><path d="m97.81.21h2.19v12.47h-2.19l-7.23-9.12h-.04v9.12h-2.19v-11.54l-.7-.92h2.78l7.32 9.04h.05v-9.05"/><path d="m17.29 26.65v-6.55h2.6c2.05 0 3.48 1.31 3.48 3.27s-1.42 3.27-3.47 3.27h-2.61zm4.65-3.27c.07-1.06-.72-1.97-1.78-2.05-.09 0-.18 0-.27 0h-1.2v4.09h1.2c1.08.05 2-.8 2.05-1.88 0-.06 0-.12 0-.18z"/><path d="m27.23 26.65v-6.55h4.64v1.23h-3.24v1.38h3.18v1.23h-3.18v1.49h3.24v1.23h-4.64z"/><path d="m40.35 26.65-3.13-4.27v4.28h-1.4v-6.55h1.44l3.04 4.12v-4.13h1.4v6.55z"/><path d="m51.56 26.65v-4.73l-1.85 4.73h-.61l-1.85-4.73v4.73h-1.38v-6.55h1.96l1.59 4.09 1.59-4.09h1.97v6.55z"/><path d="m61.67 26.65-.41-1.11h-2.81l-.41 1.11h-1.59l2.53-6.55h1.75l2.53 6.55h-1.58zm-1.82-5.16-1.02 2.82h2.05l-1.02-2.82z"/><path d="m70.44 26.65-1.29-2.33h-1.03v2.33h-1.39v-6.55h3.07c1.13-.09 2.12.75 2.21 1.88v.23c.05.91-.56 1.73-1.44 1.95l1.48 2.5h-1.61zm.14-4.45c0-.49-.4-.88-.89-.88-.03 0-.06 0-.09 0h-1.48v1.77h1.47c.49.05.92-.31.97-.8 0-.03 0-.06 0-.09z"/><path d="m79.83 26.65-1.98-2.63-.51.62v2.02h-1.38v-6.55h1.4v2.92l2.32-2.92h1.72l-2.61 3.08 2.78 3.48h-1.74z"/></svg>