<svg viewBox="0 0 100 19.27" xmlns="http://www.w3.org/2000/svg"><path d="m66.8 8.25c-3.6-1.15-5.17-2.17-4.9-3.85.26-1.66 2.06-1.56 3.81-1.43 1.73.15 3.14.53 4.17.87.02.01.08 0 .09-.06.09-.61.42-2.22.51-2.78.01-.07-.05-.1-.09-.11-2.11-.57-4.03-.93-6.33-.89-4.31.07-6.31 1.81-6.55 5.43-.14 2.11 1.32 4.45 4.36 5.46s5.21 1.58 4.9 3.45c-.28 1.59-2.15 1.77-4.18 1.65-1.78-.11-3.28-.53-4.41-.87-.08-.02-.13.02-.15.09-.08.65-.32 2.32-.4 2.91 0 .08.06.14.1.15 1.4.34 3.89.81 6.95.81 4.13 0 6.28-1.77 6.52-5.17.19-2.63-1.05-4.58-4.4-5.66z"/><path d="m48.16 8.25c-3.6-1.15-5.17-2.17-4.9-3.85.26-1.66 2.06-1.56 3.81-1.43 1.73.15 3.14.53 4.17.87.03.01.07 0 .09-.06.1-.61.43-2.22.52-2.78 0-.07-.05-.1-.08-.11-2.12-.57-4.04-.93-6.34-.89-4.31.07-6.31 1.81-6.56 5.43-.14 2.11 1.32 4.45 4.36 5.46s5.21 1.58 4.91 3.45c-.28 1.59-2.15 1.77-4.18 1.65-1.79-.11-3.28-.53-4.41-.87-.07-.02-.13.02-.14.09-.08.65-.32 2.32-.4 2.91 0 .08.06.14.09.15 1.4.34 3.9.81 6.94.81 4.14 0 6.28-1.77 6.52-5.17.19-2.63-1.05-4.58-4.39-5.66z"/><path d="m12.61.42h-12.49c-.07 0-.12.06-.12.12v18.11c0 .07.05.12.12.12h4.15c.07 0 .12-.05.12-.12v-6.78c0-.06.05-.12.12-.12h7.19c.07 0 .12-.05.12-.11v-2.8c0-.07-.05-.12-.12-.12h-7.19c-.07 0-.12-.05-.12-.12v-5.02c0-.06.05-.12.12-.12h8.2c.07 0 .12-.05.12-.12l-.1-2.8c0-.06-.07-.12-.13-.12z"/><path d="m81.36.41h-4.28c-.08 0-.12.05-.12.12v18.12c0 .06.05.11.12.11h4.28c.07 0 .12-.05.12-.11v-18.13c0-.07-.05-.12-.12-.12z"/><path d="m99.88 15.67h-7.1c-.06 0-.12-.06-.12-.12v-15c0-.07-.05-.12-.12-.12h-4.27c-.06 0-.12.05-.12.12v18.09c0 .06.06.11.12.11h11.47c.07 0 .12-.05.13-.11l.14-2.85c0-.07-.05-.13-.12-.13z"/><path d="m25.72.02c-5.61 0-8.68 3.68-8.68 9.63s3.07 9.62 8.68 9.62 8.68-3.69 8.68-9.62-2.98-9.63-8.68-9.63zm0 16.21c-3.81 0-4.34-3.17-4.34-6.59s.53-6.58 4.34-6.58 4.33 3.17 4.33 6.58c0 3.42-.52 6.59-4.33 6.59z"/></svg>