<svg fill="none" height="32" viewBox="0 0 32 32" width="32" xmlns="http://www.w3.org/2000/svg"><g fill="#fff"><path d="m28.1655 12.4282h-1.9465v-5.50849c0-.76886-.3114-1.51825-.8565-2.06326-.545-.54501-1.2944-.85645-2.0632-.85645h-19.46474c-.77858 0-1.51824.31144-2.06326.85645-.55474.54501-.856444 1.2944-.856444 2.06326v13.62529c0 .7786.301704 1.5183.856444 2.0633.54502.5547 1.28468.8564 2.06326.8564h8.75914v1.9465h-2.91972c-.26277 0-.50608.107-.691.292-.18491.1751-.28224.4282-.28224.6812 0 .2531.09733.5061.28224.691.18492.1849.42823.2823.691.2823h7.78592c.253 0 .5061-.0974.691-.2823.1751-.1849.2822-.4282.2822-.691 0-.2627-.1071-.5061-.2822-.6812-.1849-.185-.438-.292-.691-.292h-2.9197v-1.9465h5.8394v1.6156c0 1.6058 1.3041 2.9197 2.9197 2.9197h4.8662c1.6155 0 2.9197-1.3139 2.9197-2.9197v-9.7324c0-1.6155-1.3042-2.9197-2.9197-2.9197zm-25.30417-5.50849c0-.25304.09732-.50608.28224-.68127.18491-.18491.42822-.29197.69099-.29197h19.46474c.253 0 .5061.10706.691.29197.1752.17519.2822.42823.2822.68127v5.50849h-.9732c-1.6156 0-2.9197 1.3042-2.9197 2.9197v1.3042h-17.51827zm.97323 14.59849c-.26277 0-.50608-.0973-.69099-.2822-.18492-.1849-.28224-.4282-.28224-.691v-1.9465h17.51827v2.9197zm25.30414 3.5621c0 .5353-.438.9732-.9732.9732h-4.8662c-.5353 0-.9733-.4379-.9733-.9732v-9.7324c0-.545.438-.9732.9733-.9732h4.8662c.5352 0 .9732.4282.9732.9732z"/><path d="m30.1119 16.9732c.5375 0 .9732-.4357.9732-.9732s-.4357-.9732-.9732-.9732-.9732.4357-.9732.9732.4357.9732.9732.9732z"/></g></svg>