<svg fill="none" height="32" viewBox="0 0 32 32" width="32" xmlns="http://www.w3.org/2000/svg"><path d="m16.3629 30.4995h-.7262c-.0654-.0388-.1307-.0784-.1975-.1158-1.6809-.9597-3.3625-1.9188-5.0418-2.8807-.0698-.0403-.1219-.0491-.1968-.0044-.32241.1912-.65064.3729-.97521.5612-.32897.1912-.65795.1949-.98839.0066-1.74766-.9971-3.49533-1.995-5.24227-2.9928-.3253-.1861-.49419-.4675-.49419-.8426 0-2.0096-.00073-4.0185 0-6.0281 0-.3693.16302-.6499.48318-.8359.29666-.1722.59259-.3444.89366-.5085.08665-.0476.11308-.1018.11308-.1978-.00293-1.9855-.0022-3.9702-.00147-5.9556 0-.0762 0-.1539.01102-.2286.0492-.3275.23792-.55095.52136-.71286 1.71756-.97661 3.43292-1.95761 5.15048-2.93422.07711-.04396.10501-.09011.10354-.17876-.00514-.3905-.0022-.78099-.0022-1.17149 0-.37511.16081-.66084.48611-.8462 1.7506-1.00005 3.5027-1.99863 5.2548-2.99649.3201-.18242.6454-.18169.9678-.00146.2673.14946.5331.30331.7989.45497 1.4642.8352 2.927 1.67261 4.3934 2.50415.373.211.5618.51285.5515.94437-.0088.36632.0029.73264-.0044 1.09896-.0022.10403.0345.15532.1219.20514 1.686.95829 3.3675 1.9261 5.0579 2.87707.4223.23737.6154.56042.6125 1.04552-.0111 1.9649-.0037 3.9298-.0074 5.8948 0 .1033.0323.1575.1219.2058.2761.1502.5449.3143.8217.4638.3782.2051.5515.515.55.9451-.0051 1.9613-.0051 3.9218 0 5.8831.0015.43-.1748.7333-.5485.9458-1.7359.9861-3.4675 1.9789-5.2012 2.9679-.3216.1832-.6462.1773-.9671-.0058-.326-.1861-.6528-.3693-.9751-.5605-.0808-.0476-.1388-.0447-.2189.0015-1.0699.6146-2.1427 1.2249-3.2133 1.8374-.6719.3839-1.3423.7707-2.0128 1.1561zm-10.51315-14.7737c.05948-.0307.09839-.0498.13584-.071.74313-.4228 1.48626-.8448 2.22791-1.2704.3422-.1964.67778-.1978 1.02144-.0022 1.73296.9905 3.46666 1.9788 5.20116 2.9664.3532.2008.5191.4997.5184.9026-.0022 1.9767-.0022 3.9541 0 5.9307 0 .4089-.1711.707-.5287.9093-.713.4022-1.4224.8102-2.1332 1.2161-.0367.0205-.0712.044-.1167.0718.0345.022.0543.0359.0749.0476 1.2219.6975 2.4445 1.395 3.6657 2.0947.0683.0395.1145.0249.1747-.0096 1.2072-.6908 2.4152-1.381 3.6231-2.0711.0309-.0176.0602-.0381.1036-.0652-.0478-.0286-.0837-.0521-.1212-.0733-.7005-.4-1.3981-.8037-2.1023-1.1964-.376-.2095-.5515-.5165-.5508-.9451.0044-1.9605.0044-3.9218 0-5.8823-.0007-.4286.1726-.7349.5471-.9473 1.708-.9686 3.4146-1.9408 5.1167-2.9196.3855-.2213.7453-.2257 1.1286-.0007.7204.422 1.4488.8293 2.1736 1.2432.0404.0228.0815.044.1388.074 0-.0578 0-.0937 0-.1289 0-1.4455-.0007-2.891.0022-4.3365 0-.0894-.0316-.1348-.1072-.1773-1.2373-.7026-2.4739-1.40885-3.7105-2.11365-.0301-.01685-.0624-.03003-.1094-.05275v.14507c0 .79344-.0044 1.58613.0015 2.37963.0029.4154-.1726.7121-.5332.9172-1.7212.9788-3.441 1.9591-5.1578 2.9452-.3657.2103-.7093.2096-1.0735 0-1.7169-.9854-3.4366-1.9671-5.1579-2.9452-.36199-.2058-.53455-.5033-.53161-.918.00587-.7971.00146-1.59418.00146-2.39129 0-.04103 0-.08205 0-.13773-.04479.02124-.06682.0293-.08738.04102-1.25054.71286-2.50034 1.4272-3.75235 2.1378-.07343.0418-.08591.0909-.08591.1649.00147 1.4455.00147 2.891.00147 4.3365v.1311zm9.21345-2.7876c.0044-.0477.0081-.0704.0081-.0938 0-1.2477 0-2.4954.0022-3.74307 0-.08645-.0441-.11869-.1065-.15385-1.0684-.60882-2.1354-1.21838-3.2031-1.8272-.0367-.02125-.0749-.03883-.1211-.06301-.0037.04103-.0074.06447-.0074.08865 0 1.24768 0 2.49536-.0022 3.74308 0 .0776.0331.1128.0947.1472.7608.4323 1.5193.866 2.2793 1.2997.3459.1978.6925.3949 1.0567.603zm3.8427 6.8487v.1443c0 1.2198.0014 2.4397-.0022 3.6595 0 .0938.0293.1421.1101.1883 1.0699.6066 2.1369 1.2169 3.2053 1.8265.036.0205.0734.0373.1204.0615.0022-.0447.0044-.0681.0044-.0923 0-1.244-.0007-2.488.0022-3.7321 0-.0828-.0338-.1201-.0991-.1575-1.0721-.6103-2.1435-1.222-3.2156-1.8338-.0338-.019-.0697-.0351-.1255-.0637zm-11.11609 5.8801c.00293-.0476.00587-.0755.00587-.1033 0-1.2396-.00073-2.4792.00294-3.7189 0-.0893-.03966-.1267-.10721-.1648-1.06843-.6081-2.13612-1.2184-3.20382-1.8272-.03598-.0205-.07416-.0374-.12189-.0616-.00294.0433-.00588.0667-.00588.0902 0 1.2476 0 2.4953-.0022 3.743 0 .0791.03672.1121.09693.1458 1.0721.6103 2.14273 1.222 3.21409 1.8331.03452.0197.06976.0366.12117.0644zm9.13779-12.7347c.0492-.0235.0778-.0344.105-.0498 1.0817-.6176 2.1618-1.236 3.2442-1.8507.0712-.0403.0889-.0872.0889-.1633-.0022-1.23161-.0015-2.46244-.0015-3.69401 0-.03443-.0051-.06813-.0088-.11502-.0433.02198-.0756.03663-.1058.05421-1.075.61249-2.1493 1.22571-3.2251 1.836-.0727.04102-.0991.08718-.0991.1707.0029 1.23152.0015 2.46242.0015 3.69392v.118zm-7.27264 12.7347c.05287-.0271.08518-.0418.11529-.0593 1.07135-.6111 2.14195-1.2235 3.21485-1.8316.0815-.0462.1101-.0953.1094-.1883-.0037-1.2191-.0022-2.439-.0022-3.6581 0-.0417-.0037-.0835-.0066-.137-.0397.0191-.0654.0293-.0889.0425-1.0853.6184-2.1706 1.2382-3.25739 1.8543-.0727.041-.08592.0909-.08592.1649.00147 1.2271.00147 2.455.00147 3.6822v.1297zm14.54824 0c.0565-.0293.0918-.0462.1256-.0659 1.0677-.6089 2.1346-1.2191 3.2038-1.825.0808-.0462.1101-.0945.1101-.1876-.0036-1.2191-.0022-2.4382-.0022-3.6573v-.1429c-.0536.0271-.0859.041-.1167.0586-1.0751.6125-2.1494 1.2257-3.2251 1.836-.0735.0418-.0977.0887-.097.1707.0022 1.2316.0015 2.4624.0015 3.694zm-12.0663-7.4854c-.0411-.0263-.069-.0468-.0991-.0637-1.0677-.6096-2.13611-1.2176-3.20233-1.8301-.08078-.0462-.13805-.0462-.21883 0-1.01041.5802-2.0223 1.1561-3.03418 1.7334-.08665.0491-.17183.0996-.27023.156.03304.0228.05067.0367.07049.0484 1.08899.6213 2.17798 1.2418 3.2655 1.8653.06976.0403.11602.0205.17477-.0132 1.06769-.6103 2.13541-1.2191 3.20311-1.8279.0337-.0191.0661-.041.1101-.0689zm.448-12.73833c.0301.02198.0426.03297.0558.0403 1.0956.62494 2.1919 1.24914 3.286 1.87628.0669.0381.1102.01832.1645-.01245 1.0707-.61176 2.1428-1.22204 3.2134-1.83306.033-.01832.0631-.04103.1035-.06814-.0396-.02491-.0661-.04322-.0932-.05861-1.0677-.60955-2.1354-1.21764-3.2016-1.83013-.0845-.04835-.1454-.04909-.2299 0-.7681.44251-1.5391.88063-2.3094 1.32021-.3246.18536-.6499.37145-.9906.5656zm14.0988 12.73983c-.0404-.0256-.069-.0461-.0999-.0637-1.0676-.6096-2.1361-1.2184-3.2016-1.8309-.0807-.0461-.138-.0469-.2188 0-1.017.5847-2.0362 1.1649-3.0555 1.7459-.0793.0454-.1579.0916-.2489.1443.0404.0264.0653.0454.0918.0601 1.078.6154 2.1574 1.2301 3.2339 1.8477.0727.0418.1219.0286.1858-.0081 1.0669-.6102 2.1354-1.2183 3.2038-1.8279.0338-.019.0661-.041.1094-.0681z" fill="#fff"/></svg>