<svg fill="none" height="33" viewBox="0 0 33 33" width="33" xmlns="http://www.w3.org/2000/svg"><path d="m9.16533 14.146-4-4c-.09298-.0929-.16674-.20318-.21706-.32458-.05033-.12139-.07623-.25152-.07623-.38294 0-.13141.0259-.26154.07623-.38294.05032-.1214.12408-.23168.21706-.32456l4-4c.18764-.18764.44213-.29305.7075-.29305s.51987.10541.70747.29305c.1877.18764.2931.44214.2931.7075 0 .26537-.1054.51986-.2931.7075l-3.29372 3.2925 3.29372 3.29252c.1877.1876.2931.4421.2931.7075 0 .2653-.1054.5198-.2931.7075-.1876.1876-.4421.293-.70747.293s-.51986-.1054-.7075-.293zm4.99997 0c.0929.093.2032.1667.3246.217.1214.0504.2515.0763.3829.0763s.2616-.0259.383-.0763c.1214-.0503.2317-.124.3245-.217l4-4c.093-.0929.1668-.20318.2171-.32458.0503-.12139.0762-.25152.0762-.38294 0-.13141-.0259-.26154-.0762-.38294s-.1241-.23168-.2171-.32456l-4-4c-.1876-.18764-.4421-.29305-.7075-.29305-.2653 0-.5198.10541-.7075.29305-.1876.18764-.293.44214-.293.7075 0 .26537.1054.51986.293.7075l3.2938 3.2925-3.2938 3.29252c-.093.0929-.1667.2031-.217.3245-.0504.1214-.0763.2516-.0763.383s.0259.2615.0763.3829c.0503.1214.124.2317.217.3246zm12.7075-7.70752h-3c-.2652 0-.5195.10536-.7071.2929-.1875.18753-.2929.44189-.2929.7071 0 .26522.1054.51957.2929.70711.1876.18754.4419.29289.7071.29289h3v18.00002h-17.99997v-8c0-.2652-.10536-.5196-.2929-.7071-.18753-.1876-.44189-.2929-.7071-.2929-.26522 0-.51957.1053-.70711.2929-.18754.1875-.29289.4419-.29289.7071v8c0 .5304.21071 1.0391.58578 1.4142.37508.3751.88378.5858 1.41422.5858h17.99997c.5305 0 1.0392-.2107 1.4142-.5858.3751-.3751.5858-.8838.5858-1.4142v-18.00002c0-.53043-.2107-1.03914-.5858-1.41421-.375-.37507-.8837-.58579-1.4142-.58579z" fill="#fff"/></svg>