<svg fill="none" height="33" viewBox="0 0 32 33" width="32" xmlns="http://www.w3.org/2000/svg"><path d="m21.5 14.6927h6c.5304 0 1.0391-.2107 1.4142-.5857.3751-.3751.5858-.8838.5858-1.4143v-5.99995c0-.53043-.2107-1.03914-.5858-1.41421-.3751-.37508-.8838-.58579-1.4142-.58579h-6c-.5304 0-1.0391.21071-1.4142.58579-.3751.37507-.5858.88378-.5858 1.41421v2h-1c-1.0609 0-2.0783.42143-2.8284 1.17157-.7502.75018-1.1716 1.76758-1.1716 2.82838v3h-4v-1c0-.5304-.2107-1.0391-.58579-1.4142-.37507-.375-.88378-.5858-1.41421-.5858h-4c-.53043 0-1.03914.2108-1.41421.5858-.37508.3751-.58579.8838-.58579 1.4142v4c0 .5305.21071 1.0392.58579 1.4143.37507.375.88378.5857 1.41421.5857h4c.53043 0 1.03914-.2107 1.41421-.5857.37509-.3751.58579-.8838.58579-1.4143v-1h4v3c0 1.0609.4214 2.0783 1.1716 2.8285.7501.7501 1.7675 1.1715 2.8284 1.1715h1v2c0 .5305.2107 1.0392.5858 1.4143.3751.375.8838.5857 1.4142.5857h6c.5304 0 1.0391-.2107 1.4142-.5857.3751-.3751.5858-.8838.5858-1.4143v-6c0-.5304-.2107-1.0391-.5858-1.4142-.3751-.375-.8838-.5858-1.4142-.5858h-6c-.5304 0-1.0391.2108-1.4142.5858-.3751.3751-.5858.8838-.5858 1.4142v2h-1c-.5304 0-1.0391-.2107-1.4142-.5857-.3751-.3751-.5858-.8838-.5858-1.4143v-8c0-.5304.2107-1.0391.5858-1.4142.3751-.375.8838-.5858 1.4142-.5858h1v2c0 .5305.2107 1.0392.5858 1.4143.3751.375.8838.5857 1.4142.5857zm-13 4h-4v-4h4zm13 2h6v6h-6zm0-13.99995h6v5.99995h-6z" fill="#fff"/></svg>