<svg fill="none" height="32" viewBox="0 0 33 32" width="33" xmlns="http://www.w3.org/2000/svg"><path d="m9.02775 19c-.89002 0-1.76005.2639-2.50007.7584s-1.3168 1.1973-1.65739 2.0195c-.3406.8223-.42971 1.7271-.25608 2.6.17364.8729.60222 1.6747 1.23156 2.3041.62933.6293 1.43116 1.0579 2.30407 1.2315.87292.1737 1.77772.0846 2.59996-.256.8223-.3406 1.5251-.9174 2.0196-1.6574.4944-.7401.7583-1.6101.7583-2.5001 0-1.1935-.4741-2.3381-1.318-3.182s-1.9885-1.318-3.18195-1.318zm0 7c-.49446 0-.97781-.1466-1.38893-.4213s-.73155-.6652-.92077-1.122-.23873-.9595-.14227-1.4444c.09647-.485.33457-.9304.6842-1.2801.34963-.3496.79509-.5877 1.28004-.6842.48495-.0964.98762-.0469 1.44444.1423.45684.1892.84724.5097 1.12194.9208s.4213.8944.4213 1.3889c0 .663-.2633 1.2989-.7322 1.7678-.4688.4688-1.10471.7322-1.76775.7322zm-4.2075-12.7075 1.79375-1.7925-1.79375-1.7925c-.18764-.18764-.29306-.44214-.29306-.7075s.10542-.51986.29306-.7075.44213-.29306.7075-.29306c.26536 0 .51986.10542.7075.29306l1.7925 1.7938 1.7925-1.7938c.18765-.18764.44215-.29306.70745-.29306.2654 0 .5199.10542.7075.29306.1877.18764.2931.44214.2931.7075s-.1054.51986-.2931.7075l-1.7937 1.7925 1.7937 1.7925c.1877.1876.2931.4421.2931.7075s-.1054.5199-.2931.7075c-.1876.1876-.4421.2931-.7075.2931-.2653 0-.5198-.1055-.70745-.2931l-1.7925-1.7938-1.7925 1.7938c-.18764.1876-.44214.2931-.7075.2931-.26537 0-.51986-.1055-.7075-.2931s-.29306-.4421-.29306-.7075.10542-.5199.29306-.7075zm23.41495 12c.093.0929.1667.2032.2169.3246.0503.1214.0762.2515.0762.3829s-.0259.2615-.0762.3829c-.0502.1214-.1239.2317-.2169.3246-.0929.0929-.2032.1666-.3246.2169-.1213.0503-.2515.0762-.3829.0762-.1313 0-.2615-.0259-.3828-.0762-.1214-.0503-.2317-.124-.3247-.2169l-1.7925-1.7938-1.7925 1.7938c-.1876.1876-.4421.2931-.7075.2931-.2653 0-.5198-.1055-.7075-.2931-.1876-.1876-.293-.4421-.293-.7075s.1054-.5199.293-.7075l1.7938-1.7925-1.7938-1.7925c-.1876-.1876-.293-.4421-.293-.7075s.1054-.5199.293-.7075c.1877-.1876.4422-.2931.7075-.2931.2654 0 .5199.1055.7075.2931l1.7925 1.7938 1.7925-1.7938c.1877-.1876.4422-.2931.7075-.2931.2654 0 .5199.1055.7075.2931.1877.1876.2931.4421.2931.7075s-.1054.5199-.2931.7075l-1.7937 1.7925zm-5.6487-11.1887c-.7725 2.7912-3.165 5.2037-5.8163 5.8662-.0817.0203-.1657.0304-.25.03-.2438-.0005-.4791-.09-.6615-.2518-.1825-.1617-.2995-.3846-.3292-.6266-.0296-.2421.0302-.4866.1682-.6876.138-.2011.3448-.3447.5813-.404 1.9537-.4887 3.7937-2.3638 4.375-4.46.3987-1.4375.4025-3.625-1.8388-5.8625l-.2875-.29375v2.58625c0 .2652-.1053.5196-.2928.7071-.1876.1875-.4419.2929-.7072.2929-.2652 0-.5195-.1054-.7071-.2929-.1875-.1875-.2929-.4419-.2929-.7071v-5c0-.26522.1054-.51957.2929-.70711.1876-.18753.4419-.29289.7071-.29289h5c.2653 0 .5196.10536.7072.29289.1875.18754.2928.44189.2928.70711s-.1053.51957-.2928.70711c-.1876.18753-.4419.29289-.7072.29289h-2.5862l.2937.2925c2.28 2.28125 3.115 5.055 2.3513 7.8113z" fill="#fff"/></svg>