<svg fill="none" height="600" viewBox="0 0 820 600" width="820" xmlns="http://www.w3.org/2000/svg"><path clip-rule="evenodd" d="m478.24 0h-20.647v20.6476h20.647zm-29.732 0h-20.648v20.6476h20.648zm-29.733 0h-20.647v20.6476h20.647zm-29.732 0h-20.648v20.6476h20.648zm-29.733 0h-20.647v20.6476h20.647zm-29.732 0h-20.648v20.6476h20.648zm-29.733 29.6437h-20.647v20.6476h20.647zm-29.732 29.6448h-20.648v20.6476h20.648zm-29.733 29.6437h-20.647v20.6478h20.647zm0 29.6438h-20.647v20.648h20.647zm0 29.644h-20.647v20.647h20.647zm0 29.644h-20.647v20.648h20.647zm-29.732 29.644h-20.648v20.648h20.648zm0 29.644h-20.648v20.647h20.648zm0 29.645h-20.648v20.647h20.648zm29.732 29.643h-20.647v20.648h20.647zm29.733 29.644h-20.648v20.648h20.648zm29.732 29.644h-20.647v20.647h20.647zm29.733 29.645h-20.648v20.647h20.648zm29.732 0h-20.647v20.647h20.647zm29.733-29.645h-20.648v20.647h20.648zm29.732 0h-20.647v20.647h20.647zm0 29.645h-20.647v20.647h20.647zm29.733 0h-20.648v20.647h20.648zm29.732-29.645h-20.647v20.647h20.647zm0-29.644h-20.647v20.648h20.647zm29.733-29.644h-20.648v20.648h20.648zm29.732-59.288h-20.647v20.647h20.647zm0 29.645h-20.647v20.647h20.647zm0-59.289h-20.647v20.648h20.647zm29.733-29.644h-20.648v20.648h20.648zm29.732 0h-20.647v20.648h20.647zm29.733-29.644h-20.648v20.647h20.648zm-29.733-29.644h-20.647v20.648h20.647zm-29.732 0h-20.648v20.648h20.648zm-29.733 0h-20.647v20.648h20.647zm89.198-29.6438h-20.648v20.6478h20.648zm0 29.6438h-20.648v20.648h20.648zm-29.733-59.2875h-20.647v20.6476h20.647z" fill="#ededed" fill-rule="evenodd"/><path clip-rule="evenodd" d="m597.17 59.2959h-20.647v20.6476h20.647zm-29.732 0h-20.648v20.6476h20.648zm-59.465-29.6448h-20.648v20.6476h20.648zm-29.733 29.6448h-20.647v20.6476h20.647zm-89.197 29.6437h-20.648v20.6474h20.648zm0 118.5764h-20.648v20.647h20.648zm0 29.643h-20.648v20.648h20.648zm-29.733 29.645h-20.647v20.648h20.647zm-29.732-29.645h-20.648v20.648h20.648zm0-29.643h-20.648v20.647h20.648zm208.127-148.2201h-20.647v20.6476h20.647z" fill="#ededed" fill-rule="evenodd"/><path d="m20 571v-40h-10v-10h40v10h-10v40z" fill="#f16a50"/><path d="m130 571v-40h10v-10h30v10h10v40h-20v-20h-10v20zm20-30h10v-9.6h-10z" fill="#ff8b3e"/><path d="m260 571v-50h20v10h20v-10h20v50h-20v-20h-20v20z" fill="#f0c000"/><path d="m400 571v-40h10v-10h30v10h10v40h-20v-20h-10v20zm20-30h10v-9.6h-10z" fill="#4cc38a"/><path d="m540 571v-10h-10v-30h10v-10h40v10h-30v30h10v-20h20v20h-10v10z" fill="#52a9ff"/><path d="m670 571v-10h-10v-40h20v40h10v-40h20v40h-10v10z" fill="#d864d8"/><path d="m790 571v-50h20v50z" fill="#f65cb6"/></svg>