<svg fill="none" height="30" viewBox="0 0 30 30" width="30" xmlns="http://www.w3.org/2000/svg"><g fill="#fff"><path d="m13.6586 9.8963c.1114-.75735.4036-1.45996.168-2.18994-.1406-.43433-.3305-.54748-.6867-.18249-1.8756 2.00744-3.68916 4.01493-4.34847 6.85453-.5205 2.2447-3.13033 4.159-5.38403 4.3214-.36527.0256-.40545-.146-.40545-.4179 0-2.8542 0-5.7078 0-8.5608 0-.5712.37623-.68618.86203-.68253 1.4282 0 2.85639-.0219 4.28276.01095.77436.01825 1.10858-.26096 1.08484-1.06029-.03835-1.33404.01096-2.67172-.01826-4.01488-.01462-.69713.24472-.98182.95878-.97635 3.2193.01947 6.4397.01947 9.6614 0 .7305 0 .9533.31024.9387.99095-.0274 1.27746-.011 2.55492 0 3.83239 0 1.09496.1132 1.21358 1.1853 1.21723 1.3369 0 2.6756.0292 4.0179 0 .7306-.0219 1.0337.219 1.0264.98913-.0292 3.1632-.0292 6.3204 0 9.4715 0 .75-.2666 1.0402-1.0099 1.0238-1.3972-.0311-2.7962.0164-4.2006-.0183-.747-.0182-1.041.2774-1.0264 1.0183.0274 1.4271-.0201 2.8542.0164 4.2795.0201.7738-.2538 1.1132-1.0538 1.095-1.335-.0347-2.6719-.0128-4.0088 0-.3981 0-.7305 0-.6556-.5676.2063-1.6041-.2448-3.1297-.6045-4.6645-.2364-.9482-.1602-1.9473.2173-2.8488.5661-1.3796 1.5469-2.1297 3.0281-2.2483.393-.0257.784-.0763 1.1706-.1515 1.9706-.4234 2.1916-.6752 2.4729-2.6662 0-.0292 0-.0602 0-.0894.3141-1.8359.2977-1.8597-1.5798-1.9874-.4542-.0401-.9104-.0529-1.3661-.0383-.3313.0271-.664-.0301-.9671-.1664-.3031-.1362-.5667-.3471-.7661-.6129-.5735-.7081-1.0702-.8157-3.0098-.9599z"/><path d="m6.04109 20.5128h-2.37424c-.18263 0-.40544-.0219-.46754-.2062-.06209-.1843.13515-.3212.27395-.4307.75338-.5736 1.65642-.9176 2.6007-.9909.63374-.0657 1.27844-.0913 1.90488-.1716.94056-.1204 1.52316-.7044 1.68022-1.6424.18264-1.0549.09863-2.1188.11689-3.1791 0-.3413.02009-.9909.36525-.8687.4073.146 1.105-.3376 1.2675.4763.0877.4435.431.5475.8419.4435.9954-.2482 1.7168.4654 2.5386.7738.5388.2025.4128 1.522-.2209 1.7866-1.5141.6333-1.3789 1.7939-1.178 3.0404.2995 1.8815.3013 3.7502-.3507 5.5697-.61 1.7027-1.4501 2.1461-3.19425 1.7574-.5479-.1204-.61913-.4945-.6173-.9581 0-1.4599-.01826-2.9199.01096-4.3707.01461-.73-.24656-1.0749-1.00814-1.0384-.73053.0383-1.46107.0109-2.18978.0091z"/></g></svg>