<svg width="30" height="30" viewBox="0 0 30 30" fill="none" xmlns="http://www.w3.org/2000/svg">
<path d="M13.6586 9.8963C13.77 9.13895 14.0622 8.43634 13.8266 7.70636C13.686 7.27203 13.4961 7.15888 13.1399 7.52387C11.2643 9.53131 9.45074 11.5388 8.79143 14.3784C8.27093 16.6231 5.6611 18.5374 3.4074 18.6998C3.04213 18.7254 3.00195 18.5538 3.00195 18.2819C3.00195 15.4277 3.00195 12.5741 3.00195 9.7211C3.00195 9.1499 3.37818 9.03492 3.86398 9.03857C5.29218 9.03857 6.72037 9.01667 8.14674 9.04952C8.9211 9.06777 9.25532 8.78856 9.23158 7.98923C9.19323 6.65519 9.24254 5.31751 9.21332 3.97435C9.1987 3.27722 9.45804 2.99253 10.1721 2.998C13.3914 3.01747 16.6118 3.01747 19.8335 2.998C20.564 2.998 20.7868 3.30824 20.7722 3.98895C20.7448 5.26641 20.7612 6.54387 20.7722 7.82134C20.7722 8.9163 20.8854 9.03492 21.9575 9.03857C23.2944 9.03857 24.6331 9.06777 25.9754 9.03857C26.706 9.01667 27.0091 9.25757 27.0018 10.0277C26.9726 13.1909 26.9726 16.3481 27.0018 19.4992C27.0018 20.2492 26.7352 20.5394 25.9919 20.523C24.5947 20.4919 23.1957 20.5394 21.7913 20.5047C21.0443 20.4865 20.7503 20.7821 20.7649 21.523C20.7923 22.9501 20.7448 24.3772 20.7813 25.8025C20.8014 26.5763 20.5275 26.9157 19.7275 26.8975C18.3925 26.8628 17.0556 26.8847 15.7187 26.8975C15.3206 26.8975 14.9882 26.8975 15.0631 26.3299C15.2694 24.7258 14.8183 23.2002 14.4586 21.6654C14.2222 20.7172 14.2984 19.7181 14.6759 18.8166C15.242 17.437 16.2228 16.6869 17.704 16.5683C18.097 16.5426 18.488 16.492 18.8746 16.4168C20.8452 15.9934 21.0662 15.7416 21.3475 13.7506C21.3475 13.7214 21.3475 13.6904 21.3475 13.6612C21.6616 11.8253 21.6452 11.8015 19.7677 11.6738C19.3135 11.6337 18.8573 11.6209 18.4016 11.6355C18.0703 11.6626 17.7376 11.6054 17.4345 11.4691C17.1314 11.3329 16.8678 11.122 16.6684 10.8562C16.0949 10.1481 15.5982 10.0405 13.6586 9.8963Z" fill="#A5A5A5"/>
<path d="M6.04111 20.5128H3.66687C3.48424 20.5128 3.26142 20.4909 3.19933 20.3066C3.13723 20.1223 3.33448 19.9854 3.47328 19.8759C4.22666 19.3023 5.1297 18.9583 6.07398 18.885C6.70772 18.8193 7.35242 18.7937 7.97885 18.7134C8.91941 18.593 9.50201 18.009 9.65908 17.071C9.84171 16.0161 9.7577 14.9522 9.77597 13.8919C9.77597 13.5506 9.79605 12.901 10.1412 13.0232C10.5485 13.1692 11.2462 12.6856 11.4087 13.4995C11.4964 13.943 11.8397 14.047 12.2506 13.943C13.246 13.6948 13.9674 14.4084 14.7893 14.7168C15.328 14.9193 15.202 16.2388 14.5683 16.5034C13.0542 17.1367 13.1894 18.2973 13.3903 19.5438C13.6898 21.4253 13.6916 23.294 13.0396 25.1135C12.4296 26.8162 11.5895 27.2596 9.84537 26.8709C9.29747 26.7505 9.22624 26.3764 9.22806 25.9128C9.22806 24.4529 9.2098 22.9929 9.23902 21.5421C9.25363 20.8121 8.99247 20.4672 8.23089 20.5037C7.50035 20.542 6.76981 20.5146 6.04111 20.5128Z" fill="#A5A5A5"/>
</svg>
