<svg fill="none" height="31" viewBox="0 0 30 31" width="30" xmlns="http://www.w3.org/2000/svg"><g fill="#fff"><path clip-rule="evenodd" d="m24.4157 12.8358c.9248 0 1.6732.7788 1.6717 1.7417v1.7356c-.0031.9613-.7545 1.7416-1.6778 1.7416h-.9933c-.9248 0-1.6732-.7788-1.6717-1.7416v-1.7356c.0015-.9614.7514-1.7417 1.6778-1.7417h.9918zm-.7545 1.2701c-.3088 0-.5582.2586-.5582.5811v1.5165c0 .3195.2464.5796.5552.5796h.5126c.3088 0 .5582-.2601.5597-.5796v-1.5165c0-.321-.2479-.5811-.5567-.5811h-.5111z" fill-rule="evenodd"/><path clip-rule="evenodd" d="m7.97402 15.4217s.00304-.0016.00304-.0031c.06693-.0502.12777-.108.18253-.1703.00305-.0031.00609-.0061.00761-.0092.02129-.0243.03955-.0502.0578-.076.00761-.0107.01673-.0198.02282-.0304.01369-.0213.02586-.0442.03955-.067.00912-.0167.01977-.0319.0289-.0502.01064-.0213.01977-.0441.0289-.0654.00912-.0197.01825-.038.02586-.0578.00912-.0258.01673-.0532.02433-.0791.00457-.0182.01217-.035.01674-.0517.00912-.0395.01673-.0806.02281-.1217 0-.0061.00152-.0106.00305-.0167.00608-.0472.00912-.0943.00912-.143v-.3483c0-.0441-.00152-.0867-.00608-.1293 0-.0122-.00304-.0244-.00609-.038-.00456-.0305-.00912-.0609-.01521-.0898-.00304-.0137-.00608-.0259-.01065-.0395-.0076-.0289-.01521-.0578-.02585-.0852-.00457-.0122-.00761-.0228-.01217-.035-.01065-.0304-.02434-.0593-.03803-.0882-.00304-.0076-.00761-.0152-.01065-.0229-.18862-.3757-.57041-.6327-1.01305-.6327l-3.15326.003-.00304 2.4672-.00304 2.5829 3.15325.003c.62974 0 1.13931-.5202 1.13931-1.1606v-.4959c0-.0471-.00152-.0943-.00761-.1399-.00456-.035-.01064-.07-.01825-.105-.00152-.0091-.00304-.0197-.00456-.0289-.01065-.0426-.02282-.0836-.03651-.1247 0 0 0-.0015 0-.003-.07453-.2084-.20687-.3879-.37723-.5203-.00761-.0091-.01369-.0197-.0213-.0289 0 0-.00304.0016-.00456.0031zm-.92027-.8366c0 .219-.17493.3772-.38788.3772h-.44873l-.53847.9948v.07h.98568s.00304-.0502.00456-.0502c.21143.0015.38484.289.38484.5065 0 .219-.17493.4563-.38788.4563h-1.11954l.03347-.7955.03346-.4305v-.0745l-.03194-.432-.01521-1.0009h1.11193c.05324 0 .10039.0107.14602.0304l-.00304-.0091c.13842.0608.23425.1917.23425.3559z" fill-rule="evenodd"/><path clip-rule="evenodd" d="m14.8387 12.9849c-.3955 0-.6085.324-.7271.7986l-.4092 1.9333-.4107-1.9394c-.0137-.0517-.0274-.1019-.0426-.1506-.0045-.0152-.0091-.0289-.0137-.0426-.0137-.038-.0273-.0745-.041-.1095-.0046-.0107-.0076-.0213-.0122-.0304-.0183-.0411-.038-.0807-.0593-.1172-.0061-.0121-.0137-.0228-.0213-.035-.0168-.0273-.035-.0532-.0533-.076-.0076-.0091-.0152-.0198-.0228-.0289-.0258-.0289-.0517-.0563-.0806-.0806-.0076-.0076-.0167-.0122-.0259-.0198-.0136-.0107-.0258-.0213-.0395-.0304 0 .0015.003.0121.003.0152-.0897-.0593-.1947-.0867-.3179-.0867h-1.6625l-.0046 5.047 1.3842-.0046.003-3.5548.7332 3.532h1.3538l.8184-3.5092v-.0121l-.0381-.0137-.0426 3.535h1.3842l.0046-5.0196h-1.661z" fill-rule="evenodd"/><path d="m10.2997 12.9849h-1.38419v5.0196h1.38419z"/><g clip-rule="evenodd" fill-rule="evenodd"><path d="m26.0478 17.5999c.1552 0 .2844.1263.2844.2906 0 .1627-.1308.289-.2859.289-.1552 0-.286-.1263-.2845-.289 0-.1643.1293-.2906.286-.2906zm0 .6374c.1901 0 .3407-.1537.3423-.3468 0-.1932-.1506-.3469-.3408-.3469-.1901 0-.3407.1537-.3407.3469 0 .1931.1491.3468.3407.3468zm.0578-.3286c.0517-.0015.1034-.0304.1034-.1065 0-.0821-.0623-.1034-.1323-.1034h-.1612v.3894h.0547v-.1795h.0715l.0974.1795h.0623l-.0973-.1795zm-.038-.1536c.0456 0 .0852.003.0852.0517 0 .0532-.0715.0441-.1217.0441h-.0594v-.0958z"/><path d="m20.908 15.4217s.0015-.0016.003-.0031c.0259-.0182.0502-.041.0746-.0623.0091-.0076.0182-.0137.0258-.0213.0122-.0107.0229-.0229.0335-.035.0821-.0837.1536-.1795.2084-.2845.0046-.0076.0076-.0167.0106-.0258.0153-.032.0548-.0639.067-.0974.0471-.1277.0973-.2662.0973-.4122v-.3483c0-.0426-.0258-.0852-.0304-.1278-.0015-.0167-.0167-.0335-.0198-.0517-.003-.0244-.0137-.0487-.0182-.073-.0046-.0183-.0122-.0365-.0168-.0548-.006-.0228-.0136-.0456-.0213-.0669-.006-.0168-.0121-.0335-.0182-.0502-.0091-.0244-.0198-.0472-.0304-.07-.0061-.0137-.0122-.0274-.0183-.0411-.0152-.0289-.0304-.0562-.0471-.0836-.0046-.0061-.0076-.0137-.0122-.0198-.07-.108-.1384-.2023-.2388-.2799h.0152c-.1521-.1521-.4487-.2418-.7119-.2418l-3.1624.003-.006 2.4672-.0046 2.5829 3.1532.003c.6283 0 1.1393-.5202 1.1393-1.1606v-.4959c0-.3757-.1749-.7088-.4456-.9218-.0061-.0091-.0137-.0197-.0213-.0289 0 0-.0031.0016-.0046.0031zm-1.3097-.4594h-.4487l-.5385 1.0648h.9872c.2145 0 .3864.2631.3864.4822 0 .219-.1749.4304-.3879.4304h-1.1195l.003-1.693v-1.0191l1.1211-.0106c.2145 0 .3879.1551.3863.3726 0 .2191-.1734.3727-.3878.3727z"/><path d="m19.9938 19.4678-10.73293-.6206c-5.06832-.2571-6.26087 1.4481-6.26087 1.4481 1.49068-.8792 5.86234-.724 5.86234-.724l10.98086.6206c6.6579.4137 7.1553-2.0155 7.1553-2.0155-1.0937 1.6017-7.0062 1.2914-7.0062 1.2914z"/><path d="m8.86234 11.8547 3.23236.1825 5.7026.3225 2.0474.1156c6.6579.4137 7.1553-2.0155 7.1553-2.0155-1.0937 1.6018-7.0062 1.2915-7.0062 1.2915l-1.331-.0776-7.3636-.4259-2.03681-.1172c-5.06984-.257-6.26239 1.4481-6.26239 1.4481 1.49068-.8776 5.86234-.724 5.86234-.724z"/></g></g></svg>