<svg width="30" height="31" viewBox="0 0 30 31" fill="none" xmlns="http://www.w3.org/2000/svg">
<path fill-rule="evenodd" clip-rule="evenodd" d="M24.4157 12.8358C25.3405 12.8358 26.0889 13.6146 26.0874 14.5775V16.3131C26.0843 17.2744 25.3329 18.0547 24.4096 18.0547H23.4163C22.4915 18.0547 21.7431 17.2759 21.7446 16.3131V14.5775C21.7462 13.6161 22.4961 12.8358 23.4224 12.8358H24.4142H24.4157ZM23.6612 14.1059C23.3524 14.1059 23.103 14.3645 23.103 14.687V16.2035C23.103 16.523 23.3494 16.7831 23.6582 16.7831H24.1708C24.4796 16.7831 24.729 16.523 24.7306 16.2035V14.687C24.7306 14.366 24.4826 14.1059 24.1738 14.1059H23.6627H23.6612Z" fill="#A5A5A5"/>
<path fill-rule="evenodd" clip-rule="evenodd" d="M7.97402 15.4217C7.97402 15.4217 7.97706 15.4201 7.97706 15.4186C8.04399 15.3684 8.10484 15.3106 8.1596 15.2483C8.16264 15.2452 8.16568 15.2422 8.1672 15.2391C8.1885 15.2148 8.20675 15.1889 8.225 15.1631C8.23261 15.1524 8.24174 15.1433 8.24782 15.1327C8.26151 15.1114 8.27368 15.0885 8.28737 15.0657C8.2965 15.049 8.30714 15.0338 8.31627 15.0155C8.32692 14.9942 8.33605 14.9714 8.34517 14.9501C8.3543 14.9304 8.36343 14.9121 8.37103 14.8923C8.38016 14.8665 8.38776 14.8391 8.39537 14.8132C8.39993 14.795 8.40754 14.7782 8.4121 14.7615C8.42123 14.722 8.42883 14.6809 8.43492 14.6398C8.43492 14.6337 8.43644 14.6292 8.43796 14.6231C8.44404 14.5759 8.44709 14.5288 8.44709 14.4801V14.1318C8.44709 14.0877 8.44556 14.0451 8.441 14.0025C8.441 13.9903 8.43796 13.9781 8.43492 13.9645C8.43035 13.934 8.42579 13.9036 8.41971 13.8747C8.41666 13.861 8.41362 13.8488 8.40906 13.8352C8.40145 13.8063 8.39385 13.7774 8.3832 13.75C8.37864 13.7378 8.37559 13.7272 8.37103 13.715C8.36038 13.6846 8.34669 13.6557 8.333 13.6268C8.32996 13.6192 8.3254 13.6116 8.32236 13.6039C8.13374 13.2282 7.75194 12.9712 7.3093 12.9712L4.15605 12.9742L4.15301 15.4414L4.14996 18.0243L7.30321 18.0273C7.93295 18.0273 8.44252 17.5071 8.44252 16.8667V16.3708C8.44252 16.3237 8.441 16.2765 8.43492 16.2309C8.43035 16.1959 8.42427 16.1609 8.41666 16.1259C8.41514 16.1168 8.41362 16.1062 8.4121 16.097C8.40145 16.0544 8.38928 16.0134 8.37559 15.9723C8.37559 15.9723 8.37559 15.9708 8.37559 15.9693C8.30106 15.7609 8.16872 15.5814 7.99836 15.449C7.99075 15.4399 7.98467 15.4293 7.97706 15.4201C7.97706 15.4201 7.97402 15.4217 7.9725 15.4232L7.97402 15.4217ZM7.05375 14.5851C7.05375 14.8041 6.87883 14.9623 6.66587 14.9623H6.21715L5.67867 15.9571V16.0271H6.66435C6.66435 16.0271 6.66739 15.9769 6.66891 15.9769C6.88035 15.9784 7.05375 16.2659 7.05375 16.4834C7.05375 16.7024 6.87883 16.9397 6.66587 16.9397H5.54634L5.5798 16.1442L5.61327 15.7137V15.6392L5.58132 15.2072L5.56611 14.2063H6.67804C6.73128 14.2063 6.77843 14.217 6.82407 14.2367L6.82102 14.2276C6.95945 14.2884 7.05527 14.4193 7.05527 14.5835L7.05375 14.5851Z" fill="#A5A5A5"/>
<path fill-rule="evenodd" clip-rule="evenodd" d="M14.8387 12.9849C14.4432 12.9849 14.2303 13.3089 14.1116 13.7835L13.7024 15.7168L13.2917 13.7774C13.2781 13.7257 13.2644 13.6755 13.2492 13.6268C13.2446 13.6116 13.24 13.5979 13.2355 13.5842C13.2218 13.5462 13.2081 13.5097 13.1944 13.4747C13.1898 13.464 13.1868 13.4534 13.1822 13.4443C13.164 13.4032 13.1442 13.3636 13.1229 13.3271C13.1168 13.315 13.1092 13.3043 13.1016 13.2921C13.0849 13.2648 13.0666 13.2389 13.0484 13.2161C13.0408 13.207 13.0332 13.1963 13.0255 13.1872C12.9997 13.1583 12.9738 13.1309 12.9449 13.1066C12.9373 13.099 12.9282 13.0944 12.9191 13.0868C12.9054 13.0761 12.8932 13.0655 12.8795 13.0564C12.8795 13.0579 12.8826 13.0685 12.8826 13.0716C12.7928 13.0123 12.6879 12.9849 12.5647 12.9849H10.9021L10.8975 18.0319L12.2817 18.0273L12.2848 14.4725L13.0179 18.0045H14.3717L15.1901 14.4953V14.4832L15.1521 14.4695L15.1095 18.0045H16.4937L16.4982 12.9849H14.8372H14.8387Z" fill="#A5A5A5"/>
<path d="M10.2997 12.9849H8.91553V18.0045H10.2997V12.9849Z" fill="#A5A5A5"/>
<path fill-rule="evenodd" clip-rule="evenodd" d="M26.0478 17.5999C26.203 17.5999 26.3323 17.7262 26.3323 17.8905C26.3323 18.0532 26.2015 18.1795 26.0463 18.1795C25.8912 18.1795 25.7603 18.0532 25.7619 17.8905C25.7619 17.7262 25.8912 17.5999 26.0478 17.5999ZM26.0478 18.2373C26.238 18.2373 26.3886 18.0836 26.3901 17.8905C26.3901 17.6973 26.2395 17.5436 26.0493 17.5436C25.8592 17.5436 25.7086 17.6973 25.7086 17.8905C25.7086 18.0836 25.8577 18.2373 26.0493 18.2373H26.0478ZM26.1056 17.9087C26.1573 17.9072 26.2091 17.8783 26.2091 17.8022C26.2091 17.7201 26.1467 17.6988 26.0767 17.6988H25.9155V18.0882H25.9702V17.9087H26.0417L26.1391 18.0882H26.2015L26.1041 17.9087H26.1056ZM26.0676 17.7551C26.1132 17.7551 26.1528 17.7581 26.1528 17.8068C26.1528 17.86 26.0813 17.8509 26.0311 17.8509H25.9718V17.7551H26.0676Z" fill="#A5A5A5"/>
<path fill-rule="evenodd" clip-rule="evenodd" d="M20.908 15.4217C20.908 15.4217 20.9095 15.4201 20.911 15.4186C20.9369 15.4004 20.9612 15.3776 20.9856 15.3563C20.9947 15.3487 21.0038 15.3426 21.0114 15.335C21.0236 15.3243 21.0342 15.3121 21.0449 15.3C21.127 15.2163 21.1985 15.1205 21.2533 15.0155C21.2578 15.0079 21.2609 14.9988 21.2639 14.9897C21.2791 14.9577 21.3187 14.9258 21.3309 14.8923C21.378 14.7646 21.4282 14.6261 21.4282 14.4801V14.1318C21.4282 14.0892 21.4024 14.0466 21.3978 14.004C21.3963 13.9873 21.3811 13.9705 21.378 13.9523C21.375 13.9279 21.3643 13.9036 21.3598 13.8793C21.3552 13.861 21.3476 13.8428 21.343 13.8245C21.3369 13.8017 21.3293 13.7789 21.3217 13.7576C21.3156 13.7408 21.3096 13.7241 21.3035 13.7074C21.2944 13.683 21.2837 13.6602 21.2731 13.6374C21.267 13.6237 21.2609 13.61 21.2548 13.5963C21.2396 13.5674 21.2244 13.5401 21.2076 13.5127C21.2031 13.5066 21.2 13.499 21.1955 13.4929C21.1255 13.3849 21.0571 13.2906 20.9567 13.213H20.9719C20.8198 13.0609 20.5232 12.9712 20.26 12.9712L17.0976 12.9742L17.0915 15.4414L17.087 18.0243L20.2402 18.0273C20.8684 18.0273 21.3795 17.5071 21.3795 16.8667V16.3708C21.3795 15.9951 21.2046 15.662 20.9339 15.449C20.9278 15.4399 20.9202 15.4293 20.9126 15.4201C20.9126 15.4201 20.9095 15.4217 20.908 15.4232V15.4217ZM19.5983 14.9623H19.1496L18.6111 16.0271H19.5983C19.8128 16.0271 19.9847 16.2902 19.9847 16.5093C19.9847 16.7283 19.8098 16.9397 19.5968 16.9397H18.4773L18.4803 15.2467V14.2276L19.6014 14.217C19.8158 14.217 19.9892 14.3721 19.9877 14.5896C19.9877 14.8087 19.8143 14.9623 19.5998 14.9623H19.5983Z" fill="#A5A5A5"/>
<path fill-rule="evenodd" clip-rule="evenodd" d="M19.9938 19.4678L9.26087 18.8472C4.19255 18.5901 3 20.2953 3 20.2953C4.49068 19.4161 8.86234 19.5713 8.86234 19.5713L19.8432 20.1919C26.5011 20.6056 26.9985 18.1764 26.9985 18.1764C25.9048 19.7781 19.9923 19.4678 19.9923 19.4678H19.9938Z" fill="#A5A5A5"/>
<path fill-rule="evenodd" clip-rule="evenodd" d="M8.86234 11.8547L12.0947 12.0372L17.7973 12.3597L19.8447 12.4753C26.5026 12.889 27 10.4598 27 10.4598C25.9063 12.0616 19.9938 11.7513 19.9938 11.7513L18.6628 11.6737L11.2992 11.2478L9.26239 11.1306C4.19255 10.8736 3 12.5787 3 12.5787C4.49068 11.7011 8.86234 11.8547 8.86234 11.8547Z" fill="#A5A5A5"/>
</svg>
