<svg width="31" height="30" viewBox="0 0 31 30" fill="none" xmlns="http://www.w3.org/2000/svg">
<path d="M11.1761 3.00024C12.4988 3.34027 13.3674 4.15293 13.8408 5.29994C14.3141 6.44696 14.6335 7.65972 14.997 8.85094C15.2597 9.71687 15.4669 10.5998 15.7274 11.4657C15.8406 11.8477 16.0852 12.0415 16.5541 12.0324C19.401 12.0052 22.2502 12.071 25.096 11.9984C26.6814 11.9576 27.3824 13.3438 26.8422 14.6971C26.3564 15.9155 26.037 17.1985 25.6158 18.4442C25.2047 19.6535 24.7472 20.8481 24.3293 22.0552C24.0655 22.8135 23.8107 23.5774 23.5967 24.3515C23.2773 25.5042 22.7915 26.505 21.5266 26.8632C21.3178 26.9346 21.1002 26.9774 20.88 26.9901C16.1464 26.9981 11.4128 27.0083 6.67926 26.9901C4.99421 26.9901 3.56055 25.1971 4.28757 23.2793C4.74847 22.0643 5.08706 20.8039 5.5072 19.5742C5.99075 18.1608 6.51846 16.7633 7.00201 15.3511C7.3508 14.331 7.65429 13.2996 7.98835 12.2772C8.29034 11.3554 8.60062 10.4362 8.91921 9.51965C9.268 8.52451 9.6417 7.5373 9.98596 6.5399C10.3857 5.38722 10.7651 4.22773 11.1761 3.00024Z" fill="#A5A5A5"/>
</svg>
