<svg fill="none" height="30" viewBox="0 0 31 30" width="31" xmlns="http://www.w3.org/2000/svg"><path d="m11.1762 3.00024c1.3226.34003 2.1912 1.15269 2.6646 2.2997.4733 1.14702.7927 2.35978 1.1562 3.551.2627.86593.4699 1.74886.7304 2.61476.1132.382.3578.5758.8267.5667 2.8469-.0272 5.6961.0386 8.5419-.034 1.5854-.0408 2.2864 1.3454 1.7462 2.6987-.4858 1.2184-.8051 2.5014-1.2264 3.7471-.4111 1.2093-.8686 2.4039-1.2865 3.611-.2638.7583-.5186 1.5222-.7326 2.2963-.3194 1.1527-.8052 2.1535-2.0701 2.5117-.2088.0714-.4263.1142-.6466.1269-4.7336.008-9.4672.0182-14.20073 0-1.68506 0-3.11871-1.793-2.39169-3.7108.4609-1.215.79949-2.4754 1.21962-3.7051.48355-1.4134 1.01127-2.8109 1.49482-4.2231.34878-1.0201.65227-2.0515.98634-3.0739.30198-.9218.61227-1.841.93086-2.75755.34879-.99514.72249-1.98235 1.06675-2.97975.39973-1.15268.77913-2.31217 1.19023-3.53966z" fill="#fff"/></svg>