<svg width="30" height="31" viewBox="0 0 30 31" fill="none" xmlns="http://www.w3.org/2000/svg">
<path d="M14.1807 15.4171C13.8142 15.4171 13.4468 15.4171 13.0803 15.4171C12.9321 15.4171 12.9288 15.4279 12.9675 15.5687C12.9965 15.6761 13.0127 15.7857 13.0406 15.8932C13.1534 16.3337 13.5424 16.6539 14.0571 16.669C14.4364 16.6797 14.8039 16.6185 15.151 16.4627C15.252 16.4175 15.2799 16.4487 15.2778 16.5465C15.2756 16.6217 15.2713 16.6991 15.281 16.7732C15.3003 16.914 15.238 16.9859 15.1058 17.0246C14.6954 17.1461 14.2763 17.2223 13.8508 17.1708C13.1556 17.087 12.657 16.7291 12.4668 16.0404C12.282 15.3699 12.3078 14.7123 12.6881 14.0966C12.902 13.7516 13.219 13.569 13.6047 13.4819C14.2279 13.3422 14.8318 13.5657 15.1531 14.0708C15.281 14.2717 15.3594 14.492 15.3895 14.7391C15.4121 14.9239 15.4185 15.1077 15.4314 15.2914C15.4379 15.3849 15.3981 15.415 15.3068 15.4139C14.9307 15.4107 14.5557 15.4128 14.1796 15.4128V15.415L14.1807 15.4171ZM13.8959 14.9626C14.1602 14.9626 14.4246 14.9583 14.6878 14.9648C14.7921 14.9669 14.8286 14.9293 14.8103 14.8337C14.7845 14.6951 14.7609 14.5554 14.7093 14.4221C14.5138 13.9117 13.8723 13.8408 13.4897 14.0482C13.1599 14.2266 13.0578 14.536 12.9901 14.8691C12.9729 14.9519 13.0223 14.9648 13.0911 14.9648C13.3597 14.9626 13.6284 14.9648 13.897 14.9648L13.8959 14.9626Z" fill="white"/>
<path d="M25.3804 16.4433C25.4449 16.2424 25.4986 16.0619 25.5599 15.8824C25.6566 15.5977 25.7415 15.3086 25.8586 15.0325C26.0531 14.5737 26.1842 14.0923 26.3733 13.6324C26.4066 13.5507 26.4474 13.5131 26.5398 13.5174C26.6688 13.5239 26.7966 13.5282 26.9256 13.5464C27.0083 13.5582 27.0115 13.5873 26.9858 13.6474C26.8944 13.8623 26.802 14.0751 26.7247 14.2964C26.6172 14.6038 26.4904 14.9035 26.3744 15.2076C26.2669 15.4913 26.1541 15.7739 26.052 16.0587C25.9037 16.4745 25.7393 16.885 25.5889 17.3008C25.4739 17.6199 25.3622 17.9434 25.1526 18.2185C24.9248 18.5161 24.6454 18.7256 24.2425 18.6998C24.0867 18.6902 23.9309 18.716 23.7751 18.6816C23.6956 18.6644 23.658 18.6289 23.6633 18.5462C23.6709 18.4452 23.6386 18.3205 23.687 18.2475C23.7461 18.1572 23.8675 18.2475 23.962 18.2496C24.4477 18.2625 24.7024 18.0261 24.855 17.649C24.9098 17.5136 24.9571 17.3739 25.0215 17.2439C25.0688 17.1461 25.0548 17.0623 25.0183 16.9688C24.5949 15.9007 24.1802 14.8294 23.73 13.7721C23.7138 13.7355 23.7009 13.6969 23.6837 13.6614C23.63 13.5529 23.6709 13.5196 23.7826 13.5239C23.9072 13.5292 24.033 13.5271 24.1587 13.5206C24.2328 13.5174 24.2726 13.5411 24.2994 13.6109C24.5401 14.2416 24.7884 14.8702 25.0248 15.5031C25.1215 15.7621 25.1999 16.0297 25.2816 16.294C25.2977 16.3477 25.3299 16.3853 25.3826 16.4466L25.3804 16.4433Z" fill="white"/>
<path d="M6.69979 15.3065C6.69979 14.7552 6.70194 14.204 6.69764 13.6528C6.69764 13.5561 6.72236 13.5077 6.82551 13.5217C6.82981 13.5217 6.83411 13.5217 6.8384 13.5217C7.26607 13.5281 7.14894 13.4798 7.21449 13.8537C7.21986 13.8817 7.20159 13.9268 7.24135 13.9332C7.28218 13.9397 7.31442 13.9053 7.34128 13.8763C7.53147 13.6764 7.76142 13.5486 8.0322 13.4905C8.41043 13.4099 8.78007 13.439 9.13036 13.5969C9.53654 13.7807 9.69342 14.1417 9.70416 14.5522C9.72565 15.3602 9.71383 16.1704 9.71813 16.9784C9.71813 17.0601 9.69771 17.102 9.60531 17.0977C9.48066 17.0923 9.35494 17.0945 9.22922 17.0977C9.13896 17.0999 9.11962 17.058 9.12284 16.9731C9.15615 16.1736 9.16368 15.3742 9.11855 14.5747C9.09598 14.1804 8.80693 13.9526 8.40506 13.9461C8.10527 13.9408 7.82589 13.9751 7.59487 14.1911C7.39178 14.3802 7.31227 14.6252 7.29615 14.8853C7.25317 15.5644 7.27574 16.2445 7.27896 16.9247C7.27896 17.0956 7.28326 17.0956 7.11563 17.0966C7.02645 17.0966 6.93619 17.0913 6.847 17.0977C6.73095 17.1063 6.69012 17.0655 6.69119 16.9462C6.69657 16.3993 6.69334 15.8523 6.69334 15.3054C6.69549 15.3054 6.69764 15.3054 6.69979 15.3054V15.3065Z" fill="white"/>
<path d="M17.82 16.1403C17.8716 15.9974 17.92 15.876 17.9597 15.7524C18.1241 15.2495 18.2864 14.7466 18.4486 14.2438C18.4583 14.2137 18.4669 14.1847 18.4755 14.1546C18.5368 13.9268 18.4991 13.873 18.2681 13.8698C18.1865 13.8687 18.1112 13.8494 18.0747 13.7763C18.0414 13.7097 18.0618 13.6388 18.1059 13.5754C18.1489 13.5131 18.2133 13.5142 18.2746 13.5206C18.5282 13.5485 18.7828 13.5528 19.0386 13.5453C19.1406 13.5421 19.2416 13.526 19.3437 13.5206C19.4394 13.5152 19.5071 13.5421 19.5189 13.656C19.5307 13.7688 19.4963 13.8365 19.3803 13.8559C19.3717 13.8569 19.3631 13.8644 19.3545 13.8634C19.0267 13.844 18.8903 14.0579 18.7882 14.3168C18.6582 14.6478 18.5443 14.9841 18.4282 15.3204C18.2563 15.8179 18.079 16.3122 17.9006 16.8065C17.877 16.872 17.863 16.9408 17.834 17.0064C17.7524 17.189 17.704 17.2202 17.5052 17.1751C17.4569 17.1643 17.444 17.1332 17.4289 17.0934C17.2086 16.5379 17.0217 15.9694 16.8508 15.3978C16.7294 14.9916 16.5768 14.5994 16.4038 14.2147C16.3157 14.0181 16.1664 13.8956 15.9536 13.8548C15.8333 13.8322 15.786 13.7634 15.8085 13.6463C15.8214 13.5808 15.8612 13.526 15.931 13.5227C16.3995 13.5034 16.7692 13.5002 17.0485 14.0514C17.2183 14.3856 17.315 14.7477 17.444 15.098C17.5686 15.4354 17.646 15.7911 17.819 16.1392L17.82 16.1403Z" fill="white"/>
<path d="M21.8442 15.1399C21.8442 14.8068 21.8442 14.4737 21.8442 14.1395C21.8442 13.9515 21.8442 13.9504 21.6615 13.9515C21.6121 13.9515 21.5626 13.9547 21.5143 13.9515C21.4434 13.9472 21.3477 13.9805 21.337 13.8655C21.3284 13.7656 21.3091 13.6517 21.4509 13.6184C21.7561 13.5453 21.9398 13.368 21.9634 13.0457C21.9677 12.9941 21.9946 12.9436 22.0096 12.8931C22.0709 12.6868 22.1246 12.6567 22.3374 12.6943C22.4115 12.7072 22.4169 12.7545 22.4169 12.8104C22.4169 12.9973 22.4212 13.1843 22.4126 13.3702C22.4072 13.4841 22.4384 13.5281 22.5609 13.5249C22.8198 13.5163 23.0799 13.5249 23.3388 13.5217C23.4323 13.5206 23.4646 13.5539 23.4624 13.6463C23.4549 14.0203 23.5097 13.9461 23.1648 13.9515C22.9499 13.9547 22.7349 13.9537 22.52 13.9515C22.447 13.9515 22.4137 13.9751 22.4147 14.0504C22.4212 14.7305 22.419 15.4096 22.4352 16.0898C22.4448 16.4863 22.6834 16.7818 23.2163 16.6765C23.4817 16.6238 23.4817 16.6271 23.4946 16.8903C23.5043 17.0956 23.5011 17.102 23.2948 17.1428C23.0154 17.1976 22.735 17.2095 22.4609 17.1181C22.0687 16.986 21.8614 16.6808 21.8463 16.1962C21.8345 15.8459 21.8442 15.4945 21.8442 15.1432V15.1399Z" fill="white"/>
<path d="M11.4041 15.6976C11.4041 16.3283 11.4041 16.9602 11.4041 17.5909C11.4041 17.8144 11.3708 18.0315 11.288 18.2399C11.1645 18.5515 10.9163 18.6826 10.5971 18.6955C10.3908 18.7041 10.1834 18.7084 9.9782 18.6665C9.92017 18.6547 9.89975 18.6246 9.89653 18.5666C9.89116 18.4666 9.90083 18.3667 9.87612 18.2668C9.8557 18.1808 9.92662 18.183 9.9782 18.1959C10.1007 18.227 10.2232 18.2238 10.3457 18.2174C10.6412 18.2023 10.7744 18.0873 10.826 17.7983C10.8378 17.7327 10.8378 17.6661 10.8378 17.5995C10.8378 16.2929 10.84 14.9863 10.8357 13.6796C10.8357 13.5507 10.8679 13.5034 10.9979 13.5195C11.086 13.5303 11.1774 13.5271 11.2655 13.5206C11.3719 13.5131 11.4041 13.5539 11.4041 13.6581C11.4009 14.1825 11.4041 14.7069 11.4041 15.2312C11.4041 15.3871 11.4041 15.5429 11.4041 15.6976Z" fill="white"/>
<path d="M20.6751 15.3119C20.6751 15.8491 20.6718 16.3875 20.6772 16.9247C20.6783 17.059 20.6332 17.1128 20.4988 17.0966C20.3635 17.0805 20.1862 17.1557 20.1002 17.0644C20.0218 16.9806 20.0776 16.8098 20.0776 16.6776C20.0755 15.6783 20.0798 14.6779 20.0733 13.6786C20.0733 13.5464 20.112 13.5067 20.2388 13.5196C20.3366 13.5292 20.4354 13.5271 20.5332 13.5196C20.6407 13.512 20.6729 13.5561 20.6729 13.6582C20.6697 14.2094 20.6718 14.7606 20.6718 15.3108C20.6729 15.3108 20.674 15.3108 20.6761 15.3108L20.6751 15.3119Z" fill="white"/>
<path d="M11.4567 12.5718C11.4546 12.878 11.2665 13.0059 10.971 12.9156C10.8292 12.8727 10.8109 12.7598 10.7916 12.6502C10.7346 12.3354 10.9656 12.1183 11.2525 12.2118C11.3955 12.258 11.4578 12.3698 11.4567 12.5718Z" fill="white"/>
<path d="M20.6944 12.5794C20.6933 12.8351 20.5999 12.9404 20.3764 12.9393C20.1518 12.9382 20.025 12.8082 20.0228 12.5783C20.0218 12.3516 20.1679 12.1915 20.371 12.1882C20.5827 12.185 20.7299 12.3419 20.6933 12.5794H20.6944Z" fill="white"/>
<path d="M13.4403 20.5953C13.3737 20.6071 13.3661 20.5845 13.3876 20.548C13.4145 20.5029 13.4435 20.4577 13.4736 20.4148C13.4962 20.3825 13.5359 20.3503 13.5166 20.3094C13.4564 20.188 13.5316 20.1816 13.6165 20.1913C13.7562 20.2084 13.854 20.1397 13.9453 20.0483C14.1022 19.8915 14.2569 19.7324 14.4202 19.582C14.475 19.5315 14.5718 19.4423 14.6158 19.4874C14.6609 19.5336 14.5954 19.6443 14.5384 19.7023C14.2644 19.986 13.9915 20.274 13.667 20.5039C13.595 20.5555 13.5176 20.6017 13.4392 20.5942L13.4403 20.5953Z" fill="white"/>
<path d="M12.2196 21.7633C12.1337 21.7708 12.0982 21.7418 12.1015 21.6741C12.109 21.5333 12.325 21.3517 12.4646 21.3625C12.5065 21.3657 12.5313 21.3786 12.5399 21.4184C12.5635 21.5194 12.4657 21.6945 12.3647 21.7267C12.311 21.7439 12.2551 21.7547 12.2196 21.7633Z" fill="white"/>
<path d="M13.8131 20.7844C13.8024 20.7984 13.7916 20.8263 13.7712 20.8392C13.6896 20.8918 13.6079 20.9456 13.5198 20.9853C13.4725 21.0068 13.408 21.0079 13.4199 20.9198C13.436 20.7984 13.6573 20.6769 13.7712 20.7231C13.7981 20.7339 13.8217 20.7393 13.8131 20.7844Z" fill="white"/>
<path d="M15.8397 17.7027C15.8741 17.8305 15.7957 17.8972 15.7527 17.9745C15.7419 17.9939 15.7086 18.0035 15.6936 17.9874C15.6635 17.9563 15.6624 17.909 15.6861 17.8767C15.7269 17.8198 15.7785 17.7714 15.8397 17.7027Z" fill="white"/>
<path d="M14.6492 19.8969C14.6588 19.8829 14.6653 19.8657 14.6782 19.855C14.7115 19.827 14.7534 19.8109 14.7824 19.8507C14.8189 19.9022 14.7598 19.9141 14.7308 19.9345C14.7179 19.9441 14.6975 19.9441 14.6814 19.9495C14.6707 19.9323 14.6599 19.9151 14.6481 19.8969H14.6492Z" fill="white"/>
<path d="M4.50024 13.1317C4.68076 12.7008 4.90641 12.2957 5.1557 11.9024C5.34267 11.608 5.61774 11.392 5.85736 11.1449C6.1217 10.8719 6.38388 10.5958 6.7245 10.4163C7.30582 10.1122 7.86995 9.77162 8.53293 9.64375C8.82305 9.58788 9.10995 9.52126 9.40544 9.48902C9.57952 9.46968 9.75466 9.48687 9.92444 9.46001C10.2027 9.41595 10.4735 9.44819 10.7454 9.49117C10.9323 9.52018 11.115 9.57176 11.302 9.59755C11.6641 9.64698 12.0144 9.73939 12.3486 9.8823C12.7547 10.0564 13.1416 10.2691 13.508 10.5173C13.8701 10.7634 14.1806 11.0653 14.4858 11.3737C14.5137 11.4017 14.5417 11.4285 14.5761 11.407C14.6115 11.3856 14.5975 11.3447 14.5857 11.3103C14.5524 11.2169 14.4611 11.175 14.4009 11.1051C14.2258 10.9031 14.0399 10.7108 13.8239 10.5507C13.3339 10.1864 12.787 9.92205 12.2357 9.66739C12.0004 9.55887 11.7533 9.47183 11.4857 9.46001C11.4073 9.45679 11.3278 9.42347 11.2633 9.35471C11.1838 9.26982 11.0484 9.24618 10.9549 9.26982C10.754 9.32247 10.5563 9.29561 10.3575 9.3042C9.97816 9.32032 9.59993 9.28808 9.21955 9.32569C9.08201 9.33966 8.92191 9.4224 8.79511 9.28056C8.78652 9.27197 8.76073 9.27519 8.74354 9.27841C8.25893 9.35685 7.81515 9.56531 7.35525 9.71897C7.28863 9.74153 7.21771 9.76625 7.15861 9.79848C6.89428 9.9414 6.6106 10.0639 6.43975 10.3314C6.35917 10.4582 6.24312 10.5206 6.09698 10.5302C6.05722 10.5324 6.00135 10.5592 5.97986 10.5023C5.96159 10.455 6.00994 10.4314 6.03896 10.4067C6.35917 10.1262 6.70839 9.8866 7.09736 9.71145C7.33054 9.60614 7.57553 9.52448 7.8087 9.41703C8.06121 9.30098 8.32984 9.2494 8.59955 9.20212C8.7704 9.17204 8.93158 9.11509 9.09491 9.06458C9.12499 9.05491 9.154 9.0345 9.14863 8.99689C9.14218 8.95283 9.1035 8.96358 9.07341 8.96143C8.92406 8.94746 8.78222 8.99152 8.63931 9.02375C8.54475 9.04524 8.45341 9.0764 8.38357 8.96788C8.35241 8.91952 8.29224 8.9206 8.23636 8.94316C8.17081 8.96895 8.09882 8.98185 8.03972 9.0173C7.88929 9.10542 7.65934 9.06566 7.59165 9.28808C7.5895 9.29453 7.57875 9.30098 7.57123 9.3042C7.23705 9.44926 6.93404 9.68351 6.54183 9.65772C6.53216 9.65772 6.52249 9.6588 6.5139 9.65987C6.47951 9.65665 6.44513 9.65342 6.41074 9.6502C6.30974 9.67062 6.37528 9.71467 6.39677 9.75228C6.35594 9.85436 6.227 9.8651 6.17757 9.95859C6.10128 10.1015 5.96911 10.1875 5.84232 10.2788C5.72627 10.3626 5.60163 10.4335 5.4974 10.5324C5.45979 10.5678 5.41143 10.5807 5.37598 10.5507C5.25993 10.4507 5.2062 10.5345 5.14495 10.6162C5.10734 10.6667 5.07081 10.7172 5.02675 10.7613C4.73986 11.0417 4.5271 11.3737 4.35088 11.7305C4.29823 11.8379 4.25095 11.9486 4.11233 11.9733C4.08762 11.9776 4.07795 11.9948 4.06828 12.0163C3.94686 12.2667 3.82006 12.516 3.70187 12.7674C3.64814 12.8824 3.62557 13.0145 3.47407 13.0554C3.43646 13.065 3.42142 13.1123 3.40207 13.1478C3.35265 13.2413 3.3333 13.3466 3.28173 13.44C3.25057 13.497 3.23982 13.584 3.2828 13.6313C3.45365 13.8161 3.37951 14.0085 3.31719 14.2019C3.30214 14.247 3.26239 14.2846 3.21511 14.2653C3.16353 14.2438 3.1818 14.1868 3.19576 14.1482C3.20651 14.1159 3.23552 14.0901 3.25809 14.0622C3.29032 14.0235 3.31289 13.9795 3.32041 13.9311C3.32901 13.8774 3.33116 13.8129 3.26131 13.8032C3.20006 13.7946 3.16783 13.8398 3.16245 13.9021C3.15923 13.9419 3.13989 13.9805 3.14204 14.0192C3.15386 14.2202 3.00235 14.3974 3.09369 14.622C3.13989 14.7349 3.17857 14.9293 3.01632 15.0454C3.00343 15.0551 2.9959 15.0894 3.00235 15.1066C3.08831 15.3205 2.9959 15.5504 3.09369 15.7771C3.19469 16.0082 3.22263 16.2768 3.21511 16.539C3.20436 16.8721 3.16568 17.2095 3.34512 17.52C3.38166 17.5834 3.4096 17.6565 3.42356 17.7285C3.48696 18.0627 3.67285 18.3442 3.83511 18.63C4.01025 18.9405 4.18433 19.2618 4.45833 19.5079C4.49594 19.5412 4.50346 19.6057 4.53785 19.6454C4.5905 19.7078 4.60447 19.8378 4.74201 19.7722C4.76779 19.7604 4.78499 19.798 4.80325 19.8163C4.84838 19.8646 4.89029 19.9162 4.93649 19.9635C5.20513 20.231 5.49095 20.4814 5.70693 20.7962C5.76603 20.8833 5.86166 20.9467 5.95944 20.9596C6.09376 20.9768 6.20981 21.024 6.31726 21.0982C6.59234 21.2873 6.89643 21.413 7.21449 21.514C7.19837 21.5721 7.10596 21.5463 7.11885 21.6129C7.13067 21.6752 7.193 21.686 7.24242 21.7031C7.3488 21.7397 7.44873 21.8267 7.57445 21.744C7.60132 21.7257 7.66041 21.7311 7.69158 21.7493C7.87425 21.8536 8.07303 21.8181 8.26752 21.8213C8.35778 21.8224 8.45126 21.8278 8.52326 21.8794C8.73709 22.0319 8.97886 22.0599 9.22922 22.0599C9.5129 22.0599 9.79657 22.0599 10.0759 22.0599C10.0931 22.1115 10.0147 22.1244 10.0566 22.1641C10.105 22.2092 10.1705 22.2135 10.2328 22.2146C10.2844 22.2146 10.3209 22.1845 10.3231 22.1351C10.3263 22.0771 10.3521 22.0599 10.4069 22.062C10.7346 22.0749 11.0505 21.9965 11.3664 21.9266C11.4868 21.8998 11.6093 21.8751 11.7221 21.8203C11.7597 21.802 11.792 21.7773 11.778 21.7279C11.7608 21.6645 11.7146 21.6924 11.6802 21.7021C11.5448 21.7429 11.3998 21.7354 11.2654 21.7891C11.2311 21.8031 11.1569 21.8246 11.1451 21.7526C11.1311 21.6688 11.2042 21.6924 11.2461 21.6913C11.3686 21.6913 11.4814 21.6548 11.5964 21.6183C11.7672 21.5645 11.9048 21.442 12.0778 21.3958C12.3314 21.3271 12.5463 21.1788 12.7762 21.0627C12.8289 21.0359 12.8826 21.0026 12.9127 20.9166C12.6827 20.9821 12.4625 20.9821 12.2519 21.066C11.8844 21.2121 11.5008 21.3109 11.1215 21.4205C11.0828 21.4313 11.0355 21.4367 11.0043 21.4119C10.913 21.3421 10.841 21.3754 10.7647 21.4367C10.7389 21.4582 10.7002 21.4657 10.6669 21.4753C10.5187 21.5162 10.3639 21.5269 10.2135 21.5699C10.1082 21.5989 9.97709 21.5989 9.8331 21.5387C9.97064 21.4839 10.0792 21.4775 10.1909 21.4786C10.2318 21.4786 10.3059 21.5151 10.3059 21.4388C10.3059 21.384 10.2382 21.4023 10.1963 21.3948C10.0394 21.3657 9.87931 21.3765 9.72243 21.3453C9.49785 21.3002 9.27005 21.2658 9.04118 21.2389C8.87463 21.2185 8.70485 21.2056 8.55334 21.1326C8.16544 20.9424 7.7496 20.8177 7.36277 20.6243C6.82981 20.3589 6.3452 20.0237 5.90679 19.625C5.64783 19.3897 5.42325 19.1211 5.21587 18.8374C4.75705 18.212 4.43039 17.5286 4.23698 16.7797C4.18003 16.5605 4.15639 16.3348 4.10911 16.1145C4.00811 15.6396 3.99091 15.1647 4.07795 14.6886C4.17466 14.16 4.295 13.6378 4.50454 13.137L4.50024 13.1317Z" fill="white"/>
<path d="M10.1813 8.88299C9.94593 8.92597 9.70847 8.93457 9.47207 8.95928C9.43446 8.96358 9.39685 8.9668 9.39041 9.01086C9.38288 9.05491 9.41942 9.07103 9.4538 9.08285C9.50968 9.08285 9.56448 9.08285 9.62035 9.08392C9.62895 9.08392 9.63862 9.08392 9.64722 9.08285C9.67515 9.0807 9.70309 9.07855 9.7321 9.07533L9.73855 9.0807L9.745 9.07533C10.1372 9.04954 10.5283 9.12798 10.9216 9.09789C10.9871 9.09252 11.0473 9.10541 11.0527 9.01193C11.0581 8.92382 11.0097 8.88944 10.9334 8.88514C10.8485 8.87976 10.7636 8.87976 10.6788 8.88191C10.6068 8.88406 10.5541 8.87332 10.5692 8.78091C10.5799 8.71644 10.5423 8.69387 10.4821 8.69602C10.4327 8.6971 10.3843 8.69817 10.3349 8.69602C10.2629 8.6928 10.2339 8.71859 10.2618 8.79165C10.293 8.87117 10.2414 8.87332 10.1813 8.88406V8.88299Z" fill="white"/>
<path d="M12.0993 9.42237C12.1391 9.45783 12.1831 9.48899 12.2282 9.51693C12.3991 9.62223 12.5861 9.68885 12.7795 9.7415C12.8182 9.75225 12.8633 9.78126 12.8858 9.73398C12.9041 9.6953 12.8837 9.65017 12.8418 9.62331C12.7182 9.54379 12.5968 9.46213 12.4711 9.38476C12.3776 9.32781 12.2916 9.2483 12.1401 9.25152C12.1197 9.25152 12.066 9.24937 12.0466 9.30632C12.0295 9.35468 12.066 9.39228 12.0982 9.4213L12.0993 9.42237Z" fill="white"/>
<path d="M14.7297 10.888C14.5256 10.671 14.2741 10.5195 14.0195 10.3712C14.0077 10.3647 13.9948 10.3605 13.9819 10.3551C13.9572 10.354 13.9389 10.3658 13.9292 10.3873C13.9152 10.4195 13.9271 10.4475 13.9529 10.4711C14.0291 10.5399 14.1054 10.6076 14.1807 10.6753C14.3332 10.8118 14.5352 10.8784 14.6803 11.0267C14.705 11.0524 14.7373 11.0449 14.7652 11.0234C14.7921 11.003 14.7888 10.9783 14.7749 10.9525C14.7609 10.9299 14.7469 10.9063 14.7297 10.887V10.888Z" fill="white"/>
<path d="M8.95416 8.66807C8.98102 8.66807 9.00788 8.66592 9.03475 8.66807C9.27222 8.69063 9.49679 8.56169 9.73641 8.61327C9.76327 8.61864 9.78906 8.6036 9.79551 8.57244C9.80088 8.53913 9.77939 8.52086 9.75145 8.51656C9.71277 8.50904 9.67194 8.51011 9.63218 8.50689C9.471 8.49507 9.32057 8.58855 9.197 8.56062C9.09062 8.56062 9.024 8.56062 8.95738 8.56062C8.91655 8.56062 8.90365 8.58103 8.90473 8.61972C8.9058 8.65303 8.92299 8.667 8.95416 8.66807Z" fill="white"/>
<path d="M8.84131 8.68742C8.66186 8.59394 8.51143 8.68312 8.35992 8.70031C8.51143 8.68205 8.66401 8.78413 8.84131 8.68742Z" fill="white"/>
<path d="M13.6853 10.0768C13.711 10.0865 13.7444 10.0671 13.7368 10.0349C13.7153 9.94891 13.6347 9.94891 13.5649 9.92742C13.5391 9.93924 13.4875 9.93924 13.4983 9.9747C13.5251 10.0607 13.6176 10.0521 13.6853 10.0768Z" fill="white"/>
<path d="M7.38316 9.0796C7.40357 9.06778 7.42506 9.04414 7.40357 9.01513C7.38423 8.98827 7.35629 8.99256 7.33373 9.00546C7.26926 9.04092 7.20049 9.07208 7.15213 9.13225C7.05328 9.12903 6.98988 9.1892 6.93615 9.26657C7.01244 9.22574 7.08766 9.18598 7.16395 9.14515C7.26173 9.20854 7.31546 9.11936 7.38208 9.08067L7.38316 9.0796Z" fill="white"/>
<path d="M15.0983 18.947C15.022 18.9749 15.0016 19.0555 14.9661 19.12C14.9564 19.1372 14.9736 19.1619 14.9919 19.1554C15.0617 19.1307 15.1187 19.092 15.1294 19.0082C15.1251 18.9846 15.1241 18.9384 15.0983 18.948V18.947Z" fill="white"/>
<path d="M14.9135 11.7058C14.9049 11.695 14.8791 11.6886 14.8673 11.6939C14.8447 11.7047 14.8404 11.7326 14.8554 11.7487C14.9092 11.8089 14.9145 11.9078 15.0198 11.9464C15.0327 11.8336 14.9693 11.7702 14.9135 11.7047V11.7058Z" fill="white"/>
<path d="M7.56047 9.0291C7.62709 8.99579 7.69586 8.96678 7.78827 8.9238C7.6776 8.89908 7.59593 8.89586 7.51964 8.94421C7.496 8.95926 7.47558 8.97752 7.49493 9.00868C7.50997 9.0334 7.52824 9.04522 7.56047 9.0291Z" fill="white"/>
<path d="M15.0617 11.5919C15.1026 11.6091 15.1101 11.5607 15.109 11.5317C15.1069 11.4565 15.0456 11.4318 14.9908 11.4049C14.9596 11.3995 14.9425 11.4178 14.9489 11.4404C14.9661 11.5048 14.9994 11.5661 15.0617 11.5919Z" fill="white"/>
<path d="M14.4783 20.057C14.59 20.0537 14.6137 19.9635 14.6814 19.9484C14.6706 19.9312 14.6599 19.914 14.6481 19.8958C14.5976 19.9431 14.5481 19.9903 14.4783 20.0559V20.057Z" fill="white"/>
<path d="M12.4002 18.6537C12.4002 18.6623 12.4002 18.6698 12.4002 18.6763C12.4002 18.6827 12.3991 18.6881 12.3981 18.6924C12.3981 18.6967 12.3959 18.701 12.3938 18.7042C12.3916 18.7074 12.3895 18.7107 12.3852 18.715C12.3809 18.7192 12.3744 18.7246 12.3626 18.73C12.3508 18.7354 12.3379 18.7429 12.3218 18.7483C12.3056 18.7536 12.2874 18.759 12.267 18.7622C12.2465 18.7655 12.224 18.7676 12.2003 18.7676C12.1541 18.7676 12.1122 18.7601 12.0746 18.7461C12.037 18.7321 12.0059 18.7107 11.979 18.6816C11.9532 18.6526 11.9328 18.6172 11.9188 18.5753C11.9048 18.5323 11.8973 18.4829 11.8973 18.4259C11.8973 18.369 11.9048 18.3174 11.9199 18.2722C11.9349 18.2271 11.9564 18.1895 11.9844 18.1594C12.0123 18.1293 12.0456 18.1057 12.0843 18.0907C12.123 18.0745 12.166 18.067 12.2122 18.067C12.2315 18.067 12.2487 18.0681 12.267 18.0713C12.2842 18.0745 12.3003 18.0788 12.3153 18.0842C12.3304 18.0896 12.3433 18.095 12.3551 18.1014C12.3669 18.1078 12.3755 18.1132 12.3798 18.1186C12.3841 18.1229 12.3873 18.1272 12.3895 18.1304C12.3916 18.1336 12.3927 18.1379 12.3938 18.1422C12.3948 18.1465 12.3959 18.153 12.3959 18.1594C12.3959 18.1659 12.3959 18.1745 12.3959 18.1841C12.3959 18.1949 12.3959 18.2035 12.3959 18.211C12.3959 18.2185 12.3938 18.2239 12.3927 18.2293C12.3905 18.2336 12.3884 18.2368 12.3862 18.2389C12.3841 18.2411 12.3809 18.2422 12.3776 18.2422C12.3723 18.2422 12.3658 18.2389 12.3572 18.2336C12.3497 18.2271 12.339 18.2207 12.3261 18.2131C12.3132 18.2056 12.2981 18.1992 12.2809 18.1927C12.2637 18.1863 12.2422 18.1831 12.2175 18.1831C12.1907 18.1831 12.167 18.1884 12.1455 18.1992C12.124 18.2099 12.1069 18.226 12.0918 18.2465C12.0768 18.2669 12.066 18.2916 12.0585 18.3206C12.051 18.3496 12.0467 18.3818 12.0467 18.4184C12.0467 18.4581 12.051 18.4925 12.0585 18.5215C12.0671 18.5505 12.0789 18.5753 12.094 18.5935C12.109 18.6118 12.1273 18.6268 12.1488 18.6354C12.1703 18.6451 12.195 18.6494 12.2218 18.6494C12.2465 18.6494 12.267 18.6462 12.2852 18.6408C12.3035 18.6354 12.3185 18.629 12.3314 18.6215C12.3443 18.6139 12.3551 18.6086 12.3626 18.6021C12.3712 18.5968 12.3776 18.5935 12.3819 18.5935C12.3852 18.5935 12.3884 18.5935 12.3905 18.5957C12.3927 18.5978 12.3948 18.6 12.3959 18.6043C12.397 18.6086 12.3981 18.6139 12.3991 18.6215C12.3991 18.629 12.3991 18.6387 12.3991 18.6516L12.4002 18.6537Z" fill="white"/>
<path d="M13.0954 18.5043C13.0954 18.5462 13.089 18.5827 13.0772 18.616C13.0654 18.6493 13.0471 18.6762 13.0234 18.6998C12.9998 18.7224 12.9708 18.7396 12.9353 18.7514C12.8999 18.7632 12.8601 18.7697 12.815 18.7697C12.772 18.7697 12.7344 18.7643 12.7 18.7535C12.6656 18.7428 12.6377 18.7267 12.6141 18.7052C12.5904 18.6837 12.5721 18.6568 12.5603 18.6246C12.5474 18.5924 12.5421 18.5548 12.5421 18.5107V18.0981C12.5421 18.0981 12.5421 18.0916 12.5453 18.0884C12.5485 18.0852 12.5507 18.083 12.556 18.082C12.5614 18.0798 12.5689 18.0787 12.5775 18.0777C12.5861 18.0777 12.5979 18.0766 12.6108 18.0766C12.6237 18.0766 12.6355 18.0766 12.6441 18.0777C12.6527 18.0777 12.6603 18.0798 12.6656 18.082C12.671 18.0841 12.6742 18.0863 12.6764 18.0884C12.6785 18.0916 12.6796 18.0949 12.6796 18.0981V18.4989C12.6796 18.5257 12.6828 18.5494 12.6893 18.5687C12.6957 18.5881 12.7054 18.6053 12.7183 18.6182C12.7312 18.6311 12.7451 18.6407 12.7634 18.6472C12.7806 18.6536 12.7999 18.6568 12.8214 18.6568C12.8429 18.6568 12.8623 18.6536 12.8795 18.6472C12.8967 18.6407 12.9106 18.6311 12.9235 18.6182C12.9353 18.6053 12.945 18.5902 12.9515 18.5709C12.9579 18.5526 12.9611 18.5311 12.9611 18.5075V18.0992C12.9611 18.0992 12.9611 18.0927 12.9643 18.0895C12.9676 18.0863 12.9697 18.0841 12.9751 18.083C12.9805 18.082 12.9869 18.0798 12.9966 18.0787C13.0063 18.0777 13.017 18.0777 13.0299 18.0777C13.0428 18.0777 13.0546 18.0777 13.0632 18.0787C13.0718 18.0787 13.0782 18.0809 13.0836 18.083C13.089 18.0852 13.0922 18.0873 13.0944 18.0895C13.0965 18.0916 13.0976 18.0959 13.0976 18.0992V18.5064L13.0954 18.5043Z" fill="white"/>
<path d="M13.7874 18.7385C13.7874 18.7385 13.7874 18.746 13.7853 18.7482C13.7842 18.7514 13.781 18.7525 13.7756 18.7546C13.7702 18.7568 13.7627 18.7578 13.753 18.7578C13.7433 18.7578 13.7294 18.7578 13.7111 18.7578C13.6961 18.7578 13.6842 18.7578 13.6756 18.7578C13.6671 18.7578 13.6595 18.7557 13.6552 18.7535C13.6499 18.7514 13.6466 18.7492 13.6445 18.746C13.6423 18.7428 13.6402 18.7396 13.6391 18.7353L13.5779 18.5838C13.5703 18.5666 13.5628 18.5515 13.5564 18.5386C13.5489 18.5257 13.5413 18.5139 13.5327 18.5053C13.5241 18.4967 13.5145 18.4892 13.5027 18.4849C13.4919 18.4806 13.479 18.4785 13.464 18.4785H13.421V18.7374C13.421 18.7374 13.4199 18.7439 13.4178 18.7471C13.4156 18.7503 13.4113 18.7525 13.407 18.7535C13.4027 18.7546 13.3952 18.7568 13.3855 18.7578C13.3769 18.7578 13.3651 18.7589 13.3522 18.7589C13.3393 18.7589 13.3275 18.7589 13.3189 18.7578C13.3103 18.7568 13.3028 18.7557 13.2974 18.7535C13.292 18.7514 13.2888 18.7492 13.2867 18.7471C13.2845 18.7449 13.2834 18.7407 13.2834 18.7374V18.1207C13.2834 18.1056 13.2877 18.0938 13.2953 18.0873C13.3028 18.0809 13.3125 18.0766 13.3243 18.0766H13.5005C13.5188 18.0766 13.5327 18.0766 13.5446 18.0766C13.5564 18.0766 13.5671 18.0777 13.5757 18.0787C13.6026 18.083 13.6273 18.0895 13.6499 18.0992C13.6714 18.1088 13.6907 18.1207 13.7057 18.1357C13.7208 18.1507 13.7326 18.169 13.7401 18.1894C13.7476 18.2098 13.7519 18.2346 13.7519 18.2614C13.7519 18.284 13.7487 18.3044 13.7433 18.3237C13.738 18.342 13.7294 18.3592 13.7176 18.3742C13.7068 18.3893 13.6928 18.4022 13.6756 18.4129C13.6595 18.4237 13.6402 18.4323 13.6198 18.4387C13.6294 18.4441 13.6391 18.4495 13.6488 18.457C13.6585 18.4645 13.666 18.472 13.6735 18.4828C13.681 18.4924 13.6885 18.5043 13.6961 18.5172C13.7036 18.53 13.71 18.544 13.7165 18.5601L13.7734 18.6944C13.7788 18.7073 13.782 18.717 13.7842 18.7235C13.7863 18.7299 13.7863 18.7342 13.7863 18.7374L13.7874 18.7385ZM13.609 18.2775C13.609 18.255 13.6037 18.2367 13.594 18.2206C13.5843 18.2055 13.5671 18.1948 13.5446 18.1883C13.537 18.1862 13.5295 18.1851 13.5209 18.184C13.5123 18.183 13.4994 18.183 13.4844 18.183H13.4221V18.3753H13.4919C13.5112 18.3753 13.5284 18.3732 13.5435 18.3678C13.5585 18.3635 13.5703 18.356 13.58 18.3474C13.5897 18.3388 13.5972 18.3291 13.6026 18.3162C13.608 18.3044 13.6101 18.2915 13.6101 18.2765L13.609 18.2775Z" fill="white"/>
<path d="M14.487 18.7052C14.4913 18.7181 14.4934 18.7278 14.4945 18.7353C14.4956 18.7428 14.4945 18.7482 14.4902 18.7514C14.4859 18.7557 14.4794 18.7578 14.4698 18.7578C14.4601 18.7578 14.4461 18.7589 14.4289 18.7589C14.4117 18.7589 14.3967 18.7589 14.387 18.7589C14.3774 18.7589 14.3698 18.7578 14.3645 18.7557C14.3591 18.7546 14.3559 18.7525 14.3537 18.7492C14.3516 18.746 14.3494 18.7428 14.3483 18.7385L14.3032 18.602H14.0485L14.0056 18.7353C14.0056 18.7353 14.0023 18.7439 14.0002 18.7482C13.998 18.7514 13.9937 18.7535 13.9895 18.7557C13.9841 18.7578 13.9776 18.7589 13.968 18.76C13.9583 18.76 13.9465 18.76 13.9314 18.76C13.9153 18.76 13.9024 18.76 13.8938 18.7589C13.8852 18.7589 13.8788 18.7557 13.8745 18.7514C13.8713 18.7471 13.8702 18.7417 13.8713 18.7342C13.8723 18.7267 13.8745 18.717 13.8788 18.7052L14.0883 18.1024C14.0905 18.0959 14.0926 18.0916 14.0958 18.0884C14.0991 18.0852 14.1033 18.082 14.1087 18.0798C14.1152 18.0777 14.1238 18.0766 14.1345 18.0766C14.1453 18.0766 14.1592 18.0766 14.1775 18.0766C14.1979 18.0766 14.214 18.0766 14.2269 18.0766C14.2387 18.0766 14.2484 18.0787 14.2559 18.0798C14.2624 18.082 14.2678 18.0841 14.271 18.0884C14.2742 18.0927 14.2763 18.097 14.2785 18.1045L14.488 18.7063L14.487 18.7052ZM14.1753 18.2077L14.0797 18.4967H14.272L14.1764 18.2077H14.1753Z" fill="white"/>
<path d="M14.9919 18.1347C14.9919 18.1443 14.9919 18.1529 14.9909 18.1604C14.9909 18.168 14.9887 18.1733 14.9866 18.1776C14.9844 18.1819 14.9823 18.1852 14.9801 18.1873C14.978 18.1895 14.9747 18.1905 14.9715 18.1905H14.8017V18.7375C14.8017 18.7375 14.8007 18.7439 14.7985 18.7471C14.7964 18.7504 14.7921 18.7525 14.7878 18.7536C14.7835 18.7547 14.776 18.7568 14.7663 18.7579C14.7566 18.759 14.7459 18.759 14.733 18.759C14.7201 18.759 14.7083 18.759 14.6997 18.7579C14.6911 18.7568 14.6835 18.7557 14.6782 18.7536C14.6728 18.7514 14.6696 18.7493 14.6674 18.7471C14.6653 18.7439 14.6642 18.7407 14.6642 18.7375V18.1905H14.4944C14.4944 18.1905 14.488 18.1905 14.4858 18.1873C14.4837 18.1852 14.4815 18.1819 14.4794 18.1776C14.4772 18.1733 14.4762 18.168 14.4751 18.1604C14.4751 18.1529 14.474 18.1443 14.474 18.1347C14.474 18.125 14.474 18.1153 14.4751 18.1078C14.4751 18.1003 14.4772 18.0949 14.4794 18.0906C14.4815 18.0863 14.4837 18.0831 14.4858 18.0809C14.488 18.0788 14.4912 18.0777 14.4944 18.0777H14.9726C14.9726 18.0777 14.979 18.0777 14.9812 18.0809C14.9833 18.0831 14.9855 18.0863 14.9876 18.0906C14.9898 18.0949 14.9909 18.1003 14.9919 18.1078C14.9919 18.1153 14.993 18.1239 14.993 18.1347H14.9919Z" fill="white"/>
<path d="M15.5163 18.703C15.5163 18.7127 15.5163 18.7213 15.5152 18.7288C15.5152 18.7353 15.5131 18.7407 15.5109 18.7449C15.5088 18.7492 15.5066 18.7525 15.5045 18.7535C15.5023 18.7557 15.4991 18.7568 15.4959 18.7568H15.1553C15.1435 18.7568 15.1338 18.7535 15.1263 18.746C15.1187 18.7396 15.1144 18.7278 15.1144 18.7127V18.1207C15.1144 18.1056 15.1187 18.0938 15.1263 18.0873C15.1338 18.0809 15.1435 18.0766 15.1553 18.0766H15.4937C15.4937 18.0766 15.5002 18.0766 15.5023 18.0787C15.5045 18.0809 15.5066 18.083 15.5088 18.0873C15.5109 18.0916 15.512 18.097 15.5131 18.1045C15.5131 18.111 15.5142 18.1196 15.5142 18.1303C15.5142 18.14 15.5142 18.1486 15.5131 18.155C15.5131 18.1615 15.5109 18.1669 15.5088 18.1712C15.5066 18.1755 15.5045 18.1787 15.5023 18.1797C15.5002 18.1819 15.497 18.183 15.4937 18.183H15.2509V18.3484H15.4561C15.4561 18.3484 15.4626 18.3484 15.4647 18.3517C15.4669 18.3538 15.469 18.356 15.4712 18.3603C15.4733 18.3646 15.4744 18.3699 15.4755 18.3764C15.4755 18.3828 15.4766 18.3914 15.4766 18.4011C15.4766 18.4108 15.4766 18.4194 15.4755 18.4258C15.4755 18.4323 15.4733 18.4376 15.4712 18.4419C15.469 18.4462 15.4669 18.4484 15.4647 18.4505C15.4626 18.4527 15.4594 18.4527 15.4561 18.4527H15.2509V18.6439H15.4959C15.4959 18.6439 15.5023 18.6439 15.5045 18.6472C15.5066 18.6493 15.5088 18.6525 15.5109 18.6558C15.5131 18.6601 15.5142 18.6654 15.5152 18.6719C15.5152 18.6783 15.5163 18.6869 15.5163 18.6977V18.703Z" fill="white"/>
<path d="M16.2438 18.4075C16.2438 18.4699 16.2352 18.5236 16.219 18.5677C16.2029 18.6117 16.1793 18.6482 16.1492 18.6762C16.1191 18.7041 16.0815 18.7245 16.0385 18.7374C15.9945 18.7503 15.9429 18.7568 15.8827 18.7568H15.7205C15.7086 18.7568 15.699 18.7535 15.6915 18.746C15.6839 18.7396 15.6796 18.7278 15.6796 18.7127V18.1207C15.6796 18.1056 15.6839 18.0938 15.6915 18.0873C15.699 18.0809 15.7086 18.0766 15.7205 18.0766H15.8945C15.9547 18.0766 16.0063 18.0841 16.0482 18.0981C16.0901 18.1121 16.1256 18.1335 16.1546 18.1615C16.1836 18.1894 16.2051 18.2238 16.2201 18.2646C16.2352 18.3055 16.2427 18.3527 16.2427 18.4065L16.2438 18.4075ZM16.1008 18.4118C16.1008 18.3796 16.0965 18.3495 16.0901 18.3227C16.0826 18.2947 16.0708 18.2711 16.0536 18.2507C16.0375 18.2303 16.016 18.2141 15.9891 18.2034C15.9633 18.1916 15.9289 18.1862 15.887 18.1862H15.8172V18.6482H15.8892C15.9268 18.6482 15.959 18.6429 15.9848 18.6332C16.0106 18.6235 16.0321 18.6085 16.0493 18.5891C16.0665 18.5698 16.0794 18.5451 16.088 18.515C16.0965 18.486 16.1008 18.4516 16.1008 18.4118Z" fill="white"/>
<path d="M17.0862 18.703C17.0862 18.7127 17.0862 18.7213 17.0851 18.7288C17.0851 18.7353 17.083 18.7407 17.0808 18.7449C17.0787 18.7492 17.0765 18.7525 17.0744 18.7535C17.0722 18.7557 17.069 18.7568 17.0658 18.7568H16.7252C16.7134 18.7568 16.7037 18.7535 16.6962 18.746C16.6886 18.7396 16.6843 18.7278 16.6843 18.7127V18.1207C16.6843 18.1056 16.6886 18.0938 16.6962 18.0873C16.7037 18.0809 16.7134 18.0766 16.7252 18.0766H17.0636C17.0636 18.0766 17.0701 18.0766 17.0722 18.0787C17.0744 18.0809 17.0765 18.083 17.0787 18.0873C17.0808 18.0916 17.0819 18.097 17.083 18.1045C17.083 18.111 17.0841 18.1196 17.0841 18.1303C17.0841 18.14 17.0841 18.1486 17.083 18.155C17.083 18.1615 17.0808 18.1669 17.0787 18.1712C17.0765 18.1755 17.0744 18.1787 17.0722 18.1797C17.0701 18.1819 17.0669 18.183 17.0636 18.183H16.8208V18.3484H17.026C17.026 18.3484 17.0325 18.3484 17.0346 18.3517C17.0368 18.3538 17.0389 18.356 17.0411 18.3603C17.0432 18.3646 17.0443 18.3699 17.0454 18.3764C17.0454 18.3828 17.0465 18.3914 17.0465 18.4011C17.0465 18.4108 17.0465 18.4194 17.0454 18.4258C17.0454 18.4323 17.0432 18.4376 17.0411 18.4419C17.0389 18.4462 17.0368 18.4484 17.0346 18.4505C17.0325 18.4527 17.0293 18.4527 17.026 18.4527H16.8208V18.6439H17.0658C17.0658 18.6439 17.0722 18.6439 17.0744 18.6472C17.0765 18.6493 17.0787 18.6525 17.0808 18.6558C17.083 18.6601 17.0841 18.6654 17.0851 18.6719C17.0851 18.6783 17.0862 18.6869 17.0862 18.6977V18.703Z" fill="white"/>
<path d="M17.7341 18.7052C17.7406 18.717 17.7449 18.7278 17.7459 18.7342C17.7481 18.7418 17.7459 18.7471 17.7427 18.7514C17.7395 18.7557 17.7309 18.7579 17.7202 18.7589C17.7094 18.76 17.6944 18.76 17.674 18.76C17.6578 18.76 17.6449 18.76 17.6353 18.76C17.6256 18.76 17.6181 18.7579 17.6127 18.7568C17.6073 18.7546 17.603 18.7525 17.6009 18.7503C17.5987 18.7471 17.5966 18.7439 17.5944 18.7396L17.4666 18.4946L17.3398 18.7396C17.3398 18.7396 17.3355 18.7471 17.3333 18.7503C17.3312 18.7536 17.3269 18.7557 17.3215 18.7568C17.3161 18.7579 17.3086 18.7589 17.2989 18.76C17.2893 18.76 17.2764 18.76 17.2613 18.76C17.2431 18.76 17.2291 18.76 17.2194 18.7589C17.2098 18.7579 17.2022 18.7557 17.199 18.7514C17.1958 18.7471 17.1947 18.7418 17.1969 18.7342C17.199 18.7267 17.2033 18.717 17.2098 18.7052L17.372 18.4087L17.2205 18.1303C17.2141 18.1175 17.2098 18.1078 17.2076 18.1003C17.2055 18.0927 17.2065 18.0874 17.2098 18.0831C17.2141 18.0788 17.2216 18.0766 17.2323 18.0766C17.2431 18.0766 17.2581 18.0755 17.2785 18.0755C17.2946 18.0755 17.3075 18.0755 17.3172 18.0755C17.3269 18.0755 17.3344 18.0777 17.3398 18.0788C17.3451 18.0809 17.3494 18.0831 17.3516 18.0852C17.3537 18.0884 17.3559 18.0917 17.358 18.096L17.4773 18.3205L17.5934 18.096C17.5934 18.096 17.5977 18.0884 17.5998 18.0852C17.602 18.082 17.6063 18.0798 17.6106 18.0788C17.6159 18.0777 17.6224 18.0766 17.632 18.0755C17.6417 18.0745 17.6535 18.0755 17.6686 18.0755C17.6858 18.0755 17.6997 18.0755 17.7105 18.0766C17.7202 18.0766 17.7277 18.0798 17.732 18.0841C17.7363 18.0884 17.7363 18.0938 17.7352 18.1013C17.7331 18.1089 17.7298 18.1185 17.7234 18.1314L17.5719 18.4087L17.7331 18.7063L17.7341 18.7052Z" fill="white"/>
<path d="M18.3488 18.284C18.3488 18.3216 18.3423 18.356 18.3305 18.385C18.3187 18.414 18.3015 18.4387 18.2789 18.4591C18.2564 18.4796 18.2284 18.4946 18.1951 18.5053C18.1618 18.5161 18.1231 18.5215 18.078 18.5215H18.0211V18.7385C18.0211 18.7385 18.02 18.745 18.0178 18.7482C18.0157 18.7514 18.0114 18.7536 18.0071 18.7546C18.0028 18.7557 17.9953 18.7579 17.9856 18.7589C17.977 18.7589 17.9652 18.76 17.9523 18.76C17.9394 18.76 17.9276 18.76 17.919 18.7589C17.9104 18.7579 17.9029 18.7568 17.8975 18.7546C17.8921 18.7525 17.8889 18.7503 17.8867 18.7482C17.8846 18.746 17.8835 18.7417 17.8835 18.7385V18.1282C17.8835 18.1121 17.8878 18.0992 17.8964 18.0917C17.905 18.0831 17.9158 18.0788 17.9297 18.0788H18.0898C18.1059 18.0788 18.121 18.0788 18.136 18.0809C18.1511 18.082 18.1683 18.0852 18.1887 18.0884C18.2091 18.0927 18.2295 18.1003 18.2499 18.111C18.2704 18.1217 18.2886 18.1357 18.3037 18.1518C18.3187 18.1679 18.3294 18.1873 18.337 18.2099C18.3445 18.2324 18.3488 18.2571 18.3488 18.2851V18.284ZM18.2048 18.2937C18.2048 18.27 18.2005 18.2507 18.1919 18.2346C18.1833 18.2185 18.1736 18.2077 18.1607 18.2002C18.1489 18.1927 18.136 18.1884 18.1221 18.1862C18.1081 18.1841 18.0952 18.183 18.0802 18.183H18.0211V18.4129H18.0834C18.1059 18.4129 18.1242 18.4097 18.1393 18.4043C18.1543 18.3979 18.1661 18.3904 18.1758 18.3796C18.1855 18.3689 18.1919 18.356 18.1973 18.3409C18.2027 18.3259 18.2048 18.3098 18.2048 18.2926V18.2937Z" fill="white"/>
<path d="M18.9 18.703C18.9 18.7127 18.9 18.7213 18.899 18.7288C18.899 18.7353 18.8968 18.7407 18.8947 18.7449C18.8925 18.7492 18.8904 18.7525 18.8882 18.7535C18.8861 18.7557 18.8828 18.7568 18.8796 18.7568H18.539C18.5272 18.7568 18.5175 18.7535 18.51 18.746C18.5025 18.7396 18.4982 18.7278 18.4982 18.7127V18.1207C18.4982 18.1056 18.5025 18.0938 18.51 18.0873C18.5175 18.0809 18.5272 18.0766 18.539 18.0766H18.8775C18.8775 18.0766 18.8839 18.0766 18.8861 18.0787C18.8882 18.0809 18.8904 18.083 18.8925 18.0873C18.8947 18.0916 18.8957 18.097 18.8968 18.1045C18.8968 18.111 18.8979 18.1196 18.8979 18.1303C18.8979 18.14 18.8979 18.1486 18.8968 18.155C18.8968 18.1615 18.8947 18.1669 18.8925 18.1712C18.8904 18.1755 18.8882 18.1787 18.8861 18.1797C18.8839 18.1819 18.8807 18.183 18.8775 18.183H18.6346V18.3484H18.8399C18.8399 18.3484 18.8463 18.3484 18.8485 18.3517C18.8506 18.3538 18.8528 18.356 18.8549 18.3603C18.8571 18.3646 18.8581 18.3699 18.8592 18.3764C18.8592 18.3828 18.8603 18.3914 18.8603 18.4011C18.8603 18.4108 18.8603 18.4194 18.8592 18.4258C18.8592 18.4323 18.8571 18.4376 18.8549 18.4419C18.8528 18.4462 18.8506 18.4484 18.8485 18.4505C18.8463 18.4527 18.8431 18.4527 18.8399 18.4527H18.6346V18.6439H18.8796C18.8796 18.6439 18.8861 18.6439 18.8882 18.6472C18.8904 18.6493 18.8925 18.6525 18.8947 18.6558C18.8968 18.6601 18.8979 18.6654 18.899 18.6719C18.899 18.6783 18.9 18.6869 18.9 18.6977V18.703Z" fill="white"/>
<path d="M19.5673 18.7385C19.5673 18.7385 19.5673 18.746 19.5651 18.7482C19.564 18.7514 19.5608 18.7525 19.5554 18.7546C19.5501 18.7568 19.5425 18.7578 19.5329 18.7578C19.5232 18.7578 19.5092 18.7578 19.491 18.7578C19.4759 18.7578 19.4641 18.7578 19.4555 18.7578C19.4469 18.7578 19.4394 18.7557 19.4351 18.7535C19.4297 18.7514 19.4265 18.7492 19.4243 18.746C19.4222 18.7428 19.4201 18.7396 19.419 18.7353L19.3577 18.5838C19.3502 18.5666 19.3427 18.5515 19.3362 18.5386C19.3287 18.5257 19.3212 18.5139 19.3126 18.5053C19.304 18.4967 19.2943 18.4892 19.2825 18.4849C19.2718 18.4806 19.2589 18.4785 19.2438 18.4785H19.2008V18.7374C19.2008 18.7374 19.1998 18.7439 19.1976 18.7471C19.1955 18.7503 19.1912 18.7525 19.1869 18.7535C19.1826 18.7546 19.1751 18.7568 19.1654 18.7578C19.1568 18.7578 19.145 18.7589 19.1321 18.7589C19.1192 18.7589 19.1074 18.7589 19.0988 18.7578C19.0902 18.7568 19.0827 18.7557 19.0773 18.7535C19.0719 18.7514 19.0687 18.7492 19.0665 18.7471C19.0644 18.7449 19.0633 18.7407 19.0633 18.7374V18.1207C19.0633 18.1056 19.0676 18.0938 19.0751 18.0873C19.0827 18.0809 19.0923 18.0766 19.1041 18.0766H19.2804C19.2986 18.0766 19.3126 18.0766 19.3244 18.0766C19.3362 18.0766 19.347 18.0777 19.3556 18.0787C19.3824 18.083 19.4072 18.0895 19.4297 18.0992C19.4512 18.1088 19.4706 18.1207 19.4856 18.1357C19.5006 18.1507 19.5125 18.169 19.52 18.1894C19.5275 18.2098 19.5318 18.2346 19.5318 18.2614C19.5318 18.284 19.5286 18.3044 19.5232 18.3237C19.5178 18.342 19.5092 18.3592 19.4974 18.3742C19.4867 18.3893 19.4727 18.4022 19.4555 18.4129C19.4394 18.4237 19.4201 18.4323 19.3996 18.4387C19.4093 18.4441 19.419 18.4495 19.4286 18.457C19.4383 18.4645 19.4458 18.472 19.4534 18.4828C19.4609 18.4924 19.4684 18.5043 19.4759 18.5172C19.4834 18.53 19.4899 18.544 19.4963 18.5601L19.5533 18.6944C19.5587 18.7073 19.5619 18.717 19.564 18.7235C19.5662 18.7299 19.5662 18.7342 19.5662 18.7374L19.5673 18.7385ZM19.3889 18.2775C19.3889 18.255 19.3835 18.2367 19.3738 18.2206C19.3642 18.2055 19.347 18.1948 19.3244 18.1883C19.3169 18.1862 19.3094 18.1851 19.3008 18.184C19.2922 18.183 19.2793 18.183 19.2642 18.183H19.2019V18.3753H19.2718C19.2911 18.3753 19.3083 18.3732 19.3233 18.3678C19.3384 18.3635 19.3502 18.356 19.3599 18.3474C19.3695 18.3388 19.3771 18.3291 19.3824 18.3162C19.3878 18.3044 19.39 18.2915 19.39 18.2765L19.3889 18.2775Z" fill="white"/>
<path d="M19.8488 18.7375C19.8488 18.7375 19.8478 18.7439 19.8456 18.7471C19.8435 18.7504 19.8392 18.7525 19.8349 18.7536C19.8306 18.7547 19.823 18.7568 19.8134 18.7579C19.8048 18.7579 19.793 18.759 19.7801 18.759C19.7672 18.759 19.7554 18.759 19.7468 18.7579C19.7382 18.7568 19.7306 18.7557 19.7253 18.7536C19.7199 18.7514 19.7167 18.7493 19.7145 18.7471C19.7124 18.7439 19.7113 18.7407 19.7113 18.7375V18.096C19.7113 18.096 19.7124 18.0895 19.7145 18.0863C19.7167 18.0831 19.721 18.0809 19.7263 18.0799C19.7317 18.0777 19.7392 18.0766 19.7478 18.0756C19.7564 18.0756 19.7672 18.0745 19.7811 18.0745C19.7951 18.0745 19.8059 18.0745 19.8145 18.0756C19.823 18.0756 19.8306 18.0777 19.8359 18.0799C19.8413 18.082 19.8445 18.0842 19.8467 18.0863C19.8488 18.0895 19.8499 18.0928 19.8499 18.096V18.7375H19.8488Z" fill="white"/>
<path d="M20.4419 18.703C20.4419 18.7127 20.4419 18.7213 20.4409 18.7288C20.4409 18.7353 20.4387 18.7407 20.4366 18.7449C20.4344 18.7492 20.4323 18.7525 20.4301 18.7535C20.428 18.7557 20.4247 18.7568 20.4215 18.7568H20.0809C20.0691 18.7568 20.0594 18.7535 20.0519 18.746C20.0444 18.7396 20.0401 18.7278 20.0401 18.7127V18.1207C20.0401 18.1056 20.0444 18.0938 20.0519 18.0873C20.0594 18.0809 20.0691 18.0766 20.0809 18.0766H20.4194C20.4194 18.0766 20.4258 18.0766 20.428 18.0787C20.4301 18.0809 20.4323 18.083 20.4344 18.0873C20.4366 18.0916 20.4376 18.097 20.4387 18.1045C20.4387 18.111 20.4398 18.1196 20.4398 18.1303C20.4398 18.14 20.4398 18.1486 20.4387 18.155C20.4387 18.1615 20.4366 18.1669 20.4344 18.1712C20.4323 18.1755 20.4301 18.1787 20.428 18.1797C20.4258 18.1819 20.4226 18.183 20.4194 18.183H20.1765V18.3484H20.3818C20.3818 18.3484 20.3882 18.3484 20.3904 18.3517C20.3925 18.3538 20.3947 18.356 20.3968 18.3603C20.399 18.3646 20.4 18.3699 20.4011 18.3764C20.4011 18.3828 20.4022 18.3914 20.4022 18.4011C20.4022 18.4108 20.4022 18.4194 20.4011 18.4258C20.4011 18.4323 20.399 18.4376 20.3968 18.4419C20.3947 18.4462 20.3925 18.4484 20.3904 18.4505C20.3882 18.4527 20.385 18.4527 20.3818 18.4527H20.1765V18.6439H20.4215C20.4215 18.6439 20.428 18.6439 20.4301 18.6472C20.4323 18.6493 20.4344 18.6525 20.4366 18.6558C20.4387 18.6601 20.4398 18.6654 20.4409 18.6719C20.4409 18.6783 20.4419 18.6869 20.4419 18.6977V18.703Z" fill="white"/>
<path d="M21.1651 18.7084C21.1651 18.717 21.164 18.7235 21.1608 18.7299C21.1576 18.7364 21.1543 18.7417 21.15 18.746C21.1457 18.7503 21.1393 18.7536 21.1329 18.7546C21.1264 18.7568 21.12 18.7579 21.1135 18.7579H21.0544C21.0426 18.7579 21.0318 18.7568 21.0222 18.7546C21.0125 18.7525 21.005 18.7482 20.9975 18.7417C20.9899 18.7353 20.9824 18.7267 20.976 18.716C20.9685 18.7052 20.9609 18.6902 20.9523 18.673L20.7836 18.356C20.774 18.3366 20.7643 18.3162 20.7535 18.2947C20.7439 18.2733 20.7342 18.2518 20.7267 18.2313C20.7278 18.2561 20.7288 18.2818 20.7299 18.3066C20.7299 18.3313 20.7299 18.3571 20.7299 18.3839V18.7396C20.7299 18.7396 20.7299 18.746 20.7267 18.7493C20.7245 18.7525 20.7213 18.7546 20.717 18.7568C20.7127 18.7589 20.7063 18.76 20.6977 18.7611C20.6902 18.7611 20.6794 18.7622 20.6665 18.7622C20.6536 18.7622 20.6439 18.7622 20.6364 18.7611C20.6289 18.7611 20.6225 18.7589 20.6171 18.7568C20.6128 18.7546 20.6096 18.7525 20.6074 18.7493C20.6053 18.746 20.6053 18.7428 20.6053 18.7396V18.1293C20.6053 18.1131 20.6096 18.1003 20.6192 18.0927C20.6289 18.0841 20.6407 18.0798 20.6547 18.0798H20.7288C20.7417 18.0798 20.7535 18.0809 20.7621 18.0831C20.7707 18.0852 20.7793 18.0895 20.7869 18.0949C20.7944 18.1003 20.8008 18.1078 20.8073 18.1164C20.8137 18.126 20.8202 18.1368 20.8266 18.1508L20.9588 18.399C20.9663 18.414 20.9738 18.4291 20.9813 18.443C20.9889 18.4581 20.9964 18.472 21.0028 18.4871C21.0104 18.5011 21.0168 18.5161 21.0233 18.5301C21.0297 18.544 21.0361 18.558 21.0426 18.572C21.0426 18.5473 21.0404 18.5215 21.0404 18.4957C21.0404 18.4699 21.0404 18.4441 21.0404 18.4194V18.1013C21.0404 18.1013 21.0404 18.0949 21.0437 18.0917C21.0469 18.0884 21.049 18.0863 21.0544 18.0841C21.0598 18.082 21.0662 18.0809 21.0738 18.0798C21.0813 18.0798 21.092 18.0788 21.1049 18.0788C21.1167 18.0788 21.1264 18.0788 21.135 18.0798C21.1425 18.0798 21.149 18.082 21.1533 18.0841C21.1576 18.0863 21.1608 18.0884 21.1629 18.0917C21.1651 18.0949 21.1651 18.0981 21.1651 18.1013V18.7117V18.7084Z" fill="white"/>
<path d="M21.8249 18.6536C21.8249 18.6622 21.8249 18.6697 21.8249 18.6762C21.8249 18.6826 21.8238 18.688 21.8227 18.6923C21.8227 18.6966 21.8206 18.7009 21.8184 18.7041C21.8163 18.7073 21.8141 18.7106 21.8098 18.7149C21.8055 18.7192 21.7991 18.7245 21.7873 18.7299C21.7754 18.7353 21.7625 18.7428 21.7464 18.7482C21.7303 18.7535 21.712 18.7589 21.6916 18.7621C21.6712 18.7654 21.6486 18.7675 21.625 18.7675C21.5788 18.7675 21.5369 18.76 21.4993 18.746C21.4617 18.7321 21.4305 18.7106 21.4036 18.6816C21.3779 18.6525 21.3574 18.6171 21.3435 18.5752C21.3295 18.5322 21.322 18.4828 21.322 18.4258C21.322 18.3689 21.3295 18.3173 21.3445 18.2722C21.3596 18.227 21.3811 18.1894 21.409 18.1593C21.437 18.1292 21.4703 18.1056 21.509 18.0906C21.5476 18.0744 21.5906 18.0669 21.6368 18.0669C21.6562 18.0669 21.6734 18.068 21.6916 18.0712C21.7088 18.0744 21.7249 18.0787 21.74 18.0841C21.755 18.0895 21.7679 18.0949 21.7797 18.1013C21.7916 18.1078 21.8001 18.1131 21.8044 18.1185C21.8087 18.1228 21.812 18.1271 21.8141 18.1303C21.8163 18.1335 21.8173 18.1378 21.8184 18.1421C21.8195 18.1464 21.8206 18.1529 21.8206 18.1593C21.8206 18.1658 21.8206 18.1744 21.8206 18.184C21.8206 18.1948 21.8206 18.2034 21.8206 18.2109C21.8206 18.2184 21.8184 18.2238 21.8173 18.2292C21.8152 18.2335 21.813 18.2367 21.8109 18.2388C21.8087 18.241 21.8055 18.2421 21.8023 18.2421C21.7969 18.2421 21.7905 18.2388 21.7819 18.2335C21.7744 18.227 21.7636 18.2206 21.7507 18.2131C21.7378 18.2055 21.7228 18.1991 21.7056 18.1926C21.6884 18.1862 21.6669 18.183 21.6422 18.183C21.6153 18.183 21.5917 18.1883 21.5702 18.1991C21.5487 18.2098 21.5315 18.226 21.5165 18.2464C21.5014 18.2668 21.4907 18.2915 21.4832 18.3205C21.4756 18.3495 21.4713 18.3818 21.4713 18.4183C21.4713 18.4581 21.4756 18.4924 21.4832 18.5214C21.4918 18.5505 21.5036 18.5752 21.5186 18.5934C21.5337 18.6117 21.5519 18.6268 21.5734 18.6353C21.5949 18.645 21.6196 18.6493 21.6465 18.6493C21.6712 18.6493 21.6916 18.6461 21.7099 18.6407C21.7282 18.6353 21.7432 18.6289 21.7561 18.6214C21.769 18.6139 21.7797 18.6085 21.7873 18.602C21.7958 18.5967 21.8023 18.5934 21.8066 18.5934C21.8098 18.5934 21.813 18.5934 21.8152 18.5956C21.8173 18.5977 21.8195 18.5999 21.8206 18.6042C21.8216 18.6085 21.8227 18.6139 21.8238 18.6214C21.8238 18.6289 21.8238 18.6386 21.8238 18.6515L21.8249 18.6536Z" fill="white"/>
<path d="M22.3675 18.703C22.3675 18.7127 22.3675 18.7213 22.3664 18.7288C22.3664 18.7353 22.3643 18.7407 22.3621 18.7449C22.36 18.7492 22.3578 18.7525 22.3557 18.7535C22.3535 18.7557 22.3503 18.7568 22.3471 18.7568H22.0065C21.9946 18.7568 21.985 18.7535 21.9774 18.746C21.9699 18.7396 21.9656 18.7278 21.9656 18.7127V18.1207C21.9656 18.1056 21.9699 18.0938 21.9774 18.0873C21.985 18.0809 21.9946 18.0766 22.0065 18.0766H22.3449C22.3449 18.0766 22.3514 18.0766 22.3535 18.0787C22.3557 18.0809 22.3578 18.083 22.36 18.0873C22.3621 18.0916 22.3632 18.097 22.3643 18.1045C22.3643 18.111 22.3654 18.1196 22.3654 18.1303C22.3654 18.14 22.3654 18.1486 22.3643 18.155C22.3643 18.1615 22.3621 18.1669 22.36 18.1712C22.3578 18.1755 22.3557 18.1787 22.3535 18.1797C22.3514 18.1819 22.3482 18.183 22.3449 18.183H22.1021V18.3484H22.3073C22.3073 18.3484 22.3138 18.3484 22.3159 18.3517C22.3181 18.3538 22.3202 18.356 22.3224 18.3603C22.3245 18.3646 22.3256 18.3699 22.3267 18.3764C22.3267 18.3828 22.3277 18.3914 22.3277 18.4011C22.3277 18.4108 22.3277 18.4194 22.3267 18.4258C22.3267 18.4323 22.3245 18.4376 22.3224 18.4419C22.3202 18.4462 22.3181 18.4484 22.3159 18.4505C22.3138 18.4527 22.3106 18.4527 22.3073 18.4527H22.1021V18.6439H22.3471C22.3471 18.6439 22.3535 18.6439 22.3557 18.6472C22.3578 18.6493 22.36 18.6525 22.3621 18.6558C22.3643 18.6601 22.3654 18.6654 22.3664 18.6719C22.3664 18.6783 22.3675 18.6869 22.3675 18.6977V18.703Z" fill="white"/>
<path d="M22.923 18.5526C22.923 18.5881 22.9166 18.6193 22.9026 18.6461C22.8897 18.673 22.8714 18.6955 22.8489 18.7138C22.8263 18.7321 22.7994 18.745 22.7693 18.7546C22.7393 18.7643 22.7059 18.7686 22.6716 18.7686C22.6479 18.7686 22.6264 18.7665 22.606 18.7632C22.5856 18.7589 22.5684 18.7546 22.5523 18.7493C22.5372 18.7439 22.5244 18.7385 22.5136 18.7321C22.5029 18.7256 22.4953 18.7213 22.491 18.716C22.4867 18.7117 22.4835 18.7052 22.4814 18.6966C22.4792 18.688 22.4781 18.6751 22.4781 18.6601C22.4781 18.6493 22.4781 18.6397 22.4781 18.6332C22.4781 18.6257 22.4803 18.6203 22.4814 18.615C22.4824 18.6096 22.4846 18.6074 22.4878 18.6053C22.49 18.6031 22.4932 18.6021 22.4975 18.6021C22.5029 18.6021 22.5093 18.6053 22.5179 18.6107C22.5265 18.616 22.5383 18.6225 22.5523 18.63C22.5663 18.6375 22.5835 18.6429 22.6028 18.6493C22.6221 18.6547 22.6447 18.6579 22.6705 18.6579C22.6877 18.6579 22.7027 18.6558 22.7156 18.6515C22.7285 18.6472 22.7403 18.6418 22.7489 18.6343C22.7586 18.6268 22.765 18.6182 22.7704 18.6074C22.7758 18.5967 22.7779 18.5849 22.7779 18.5709C22.7779 18.5559 22.7736 18.5419 22.765 18.5311C22.7565 18.5204 22.7457 18.5107 22.7317 18.5021C22.7178 18.4935 22.7027 18.486 22.6855 18.4785C22.6683 18.471 22.6511 18.4634 22.6329 18.4548C22.6146 18.4463 22.5974 18.4366 22.5802 18.4258C22.563 18.4151 22.548 18.4022 22.534 18.3872C22.5201 18.3721 22.5093 18.3549 22.5007 18.3345C22.4921 18.3141 22.4878 18.2894 22.4878 18.2614C22.4878 18.2292 22.4943 18.2002 22.5061 18.1755C22.5179 18.1508 22.534 18.1303 22.5544 18.1142C22.5749 18.0981 22.5996 18.0863 22.6264 18.0777C22.6533 18.0691 22.6834 18.0659 22.7145 18.0659C22.7307 18.0659 22.7468 18.0669 22.7629 18.0691C22.779 18.0712 22.7941 18.0745 22.808 18.0788C22.822 18.0831 22.8349 18.0874 22.8456 18.0927C22.8564 18.0981 22.8639 18.1024 22.8671 18.1056C22.8704 18.1089 22.8725 18.1121 22.8746 18.1142C22.8757 18.1164 22.8768 18.1196 22.8779 18.1239C22.8779 18.1282 22.8789 18.1325 22.88 18.1389C22.88 18.1454 22.88 18.1529 22.88 18.1615C22.88 18.1712 22.88 18.1798 22.88 18.1873C22.88 18.1948 22.8789 18.2002 22.8779 18.2045C22.8768 18.2088 22.8747 18.212 22.8725 18.2142C22.8704 18.2163 22.8671 18.2174 22.8628 18.2174C22.8585 18.2174 22.8532 18.2152 22.8446 18.2099C22.836 18.2045 22.8263 18.1991 22.8134 18.1937C22.8016 18.1884 22.7865 18.183 22.7704 18.1776C22.7543 18.1733 22.7371 18.1701 22.7178 18.1701C22.7027 18.1701 22.6898 18.1722 22.678 18.1755C22.6673 18.1798 22.6576 18.1841 22.6501 18.1905C22.6426 18.197 22.6372 18.2045 22.6329 18.2142C22.6286 18.2238 22.6275 18.2324 22.6275 18.2432C22.6275 18.2582 22.6318 18.2711 22.6393 18.2819C22.6479 18.2926 22.6587 18.3023 22.6726 18.3109C22.6866 18.3195 22.7017 18.327 22.7199 18.3345C22.7371 18.342 22.7554 18.3495 22.7736 18.3581C22.7919 18.3667 22.8102 18.3764 22.8274 18.3872C22.8446 18.3979 22.8607 18.4108 22.8736 18.4258C22.8875 18.4409 22.8983 18.4581 22.9069 18.4785C22.9155 18.4989 22.9198 18.5225 22.9198 18.5494L22.923 18.5526Z" fill="white"/>
</svg>
