<svg fill="none" height="31" viewBox="0 0 30 31" width="30" xmlns="http://www.w3.org/2000/svg"><g fill="#fff"><path d="m14.1807 15.4171c-.3665 0-.7339 0-1.1004 0-.1482 0-.1515.0108-.1128.1516.029.1074.0452.217.0731.3245.1128.4405.5018.7607 1.0165.7758.3793.0107.7468-.0505 1.0939-.2063.101-.0452.1289-.014.1268.0838-.0022.0752-.0065.1526.0032.2267.0193.1408-.043.2127-.1752.2514-.4104.1215-.8295.1977-1.255.1462-.6952-.0838-1.1938-.4417-1.384-1.1304-.1848-.6705-.159-1.3281.2213-1.9438.2139-.345.5309-.5276.9166-.6147.6232-.1397 1.2271.0838 1.5484.5889.1279.2009.2063.4212.2364.6683.0226.1848.029.3686.0419.5523.0065.0935-.0333.1236-.1246.1225-.3761-.0032-.7511-.0011-1.1272-.0011v.0022zm-.2848-.4545c.2643 0 .5287-.0043.7919.0022.1043.0021.1408-.0355.1225-.1311-.0258-.1386-.0494-.2783-.101-.4116-.1955-.5104-.837-.5813-1.2196-.3739-.3298.1784-.4319.4878-.4996.8209-.0172.0828.0322.0957.101.0957.2686-.0022.5373 0 .8059 0z"/><path d="m25.3804 16.4433c.0645-.2009.1182-.3814.1795-.5609.0967-.2847.1816-.5738.2987-.8499.1945-.4588.3256-.9402.5147-1.4001.0333-.0817.0741-.1193.1665-.115.129.0065.2568.0108.3858.029.0827.0118.0859.0409.0602.101-.0914.2149-.1838.4277-.2611.649-.1075.3074-.2343.6071-.3503.9112-.1075.2837-.2203.5663-.3224.8511-.1483.4158-.3127.8263-.4631 1.2421-.115.3191-.2267.6426-.4363.9177-.2278.2976-.5072.5071-.9101.4813-.1558-.0096-.3116.0162-.4674-.0182-.0795-.0172-.1171-.0527-.1118-.1354.0076-.101-.0247-.2257.0237-.2987.0591-.0903.1805 0 .275.0021.4857.0129.7404-.2235.893-.6006.0548-.1354.1021-.2751.1665-.4051.0473-.0978.0333-.1816-.0032-.2751-.4234-1.0681-.8381-2.1394-1.2883-3.1967-.0162-.0366-.0291-.0752-.0463-.1107-.0537-.1085-.0128-.1418.0989-.1375.1246.0053.2504.0032.3761-.0033.0741-.0032.1139.0205.1407.0903.2407.6307.489 1.2593.7254 1.8922.0967.259.1751.5266.2568.7909.0161.0537.0483.0913.101.1526z"/><path d="m6.69979 15.3065c0-.5513.00215-1.1025-.00215-1.6537 0-.0967.02472-.1451.12787-.1311h.01289c.42767.0064.31054-.0419.37609.332.00537.028-.0129.0731.02686.0795.04083.0065.07307-.0279.09993-.0569.19019-.1999.42014-.3277.69092-.3858.37823-.0806.74787-.0515 1.09816.1064.40618.1838.56306.5448.5738.9553.02149.808.00967 1.6182.01397 2.4262 0 .0817-.02042.1236-.11283.1193-.12464-.0054-.25036-.0032-.37608 0-.09026.0022-.1096-.0397-.10638-.1246.03331-.7995.04084-1.5989-.00429-2.3984-.02257-.3943-.31162-.6221-.71349-.6286-.29979-.0053-.57917.029-.81019.245-.20309.1891-.2826.4341-.29872.6942-.04298.6791-.02041 1.3592-.01719 2.0394 0 .1709.0043.1709-.16333.1719-.08918 0-.17944-.0053-.26863.0011-.11605.0086-.15688-.0322-.15581-.1515.00538-.5469.00215-1.0939.00215-1.6408h.00645z"/><path d="m17.82 16.1403c.0516-.1429.1-.2643.1397-.3879.1644-.5029.3267-1.0058.4889-1.5086.0097-.0301.0183-.0591.0269-.0892.0613-.2278.0236-.2816-.2074-.2848-.0816-.0011-.1569-.0204-.1934-.0935-.0333-.0666-.0129-.1375.0312-.2009.043-.0623.1074-.0612.1687-.0548.2536.0279.5082.0322.764.0247.102-.0032.203-.0193.3051-.0247.0957-.0054.1634.0215.1752.1354.0118.1128-.0226.1805-.1386.1999-.0086.001-.0172.0085-.0258.0075-.3278-.0194-.4642.1945-.5663.4534-.13.331-.2439.6673-.36 1.0036-.1719.4975-.3492.9918-.5276 1.4861-.0236.0655-.0376.1343-.0666.1999-.0816.1826-.13.2138-.3288.1687-.0483-.0108-.0612-.0419-.0763-.0817-.2203-.5555-.4072-1.124-.5781-1.6956-.1214-.4062-.274-.7984-.447-1.1831-.0881-.1966-.2374-.3191-.4502-.3599-.1203-.0226-.1676-.0914-.1451-.2085.0129-.0655.0527-.1203.1225-.1236.4685-.0193.8382-.0225 1.1175.5287.1698.3342.2665.6963.3955 1.0466.1246.3374.202.6931.375 1.0412z"/><path d="m21.8442 15.1399c0-.3331 0-.6662 0-1.0004 0-.188 0-.1891-.1827-.188-.0494 0-.0989.0032-.1472 0-.0709-.0043-.1666.029-.1773-.086-.0086-.0999-.0279-.2138.1139-.2471.3052-.0731.4889-.2504.5125-.5727.0043-.0516.0312-.1021.0462-.1526.0613-.2063.115-.2364.3278-.1988.0741.0129.0795.0602.0795.1161 0 .1869.0043.3739-.0043.5598-.0054.1139.0258.1579.1483.1547.2589-.0086.519 0 .7779-.0032.0935-.0011.1258.0322.1236.1246-.0075.374.0473.2998-.2976.3052-.2149.0032-.4299.0022-.6448 0-.073 0-.1063.0236-.1053.0989.0065.6801.0043 1.3592.0205 2.0394.0096.3965.2482.692.7811.5867.2654-.0527.2654-.0494.2783.2138.0097.2053.0065.2117-.1998.2525-.2794.0548-.5598.0667-.8339-.0247-.3922-.1321-.5995-.4373-.6146-.9219-.0118-.3503-.0021-.7017-.0021-1.053z"/><path d="m11.4041 15.6976v1.8933c0 .2235-.0333.4406-.1161.649-.1235.3116-.3717.4427-.6909.4556-.2063.0086-.4137.0129-.6189-.029-.05803-.0118-.07845-.0419-.08167-.0999-.00537-.1.0043-.1999-.02041-.2998-.02042-.086.0505-.0838.10208-.0709.1225.0311.245.0279.3675.0215.2955-.0151.4287-.1301.4803-.4191.0118-.0656.0118-.1322.0118-.1988 0-1.3066.0022-2.6132-.0021-3.9199 0-.1289.0322-.1762.1622-.1601.0881.0108.1795.0076.2676.0011.1064-.0075.1386.0333.1386.1375-.0032.5244 0 1.0488 0 1.5731z"/><path d="m20.6751 15.3119c0 .5372-.0033 1.0756.0021 1.6128.0011.1343-.044.1881-.1784.1719-.1353-.0161-.3126.0591-.3986-.0322-.0784-.0838-.0226-.2546-.0226-.3868-.0021-.9993.0022-1.9997-.0043-2.999 0-.1322.0387-.1719.1655-.159.0978.0096.1966.0075.2944 0 .1075-.0076.1397.0365.1397.1386-.0032.5512-.0011 1.1024-.0011 1.6526h.0043z"/><path d="m11.4567 12.5718c-.0021.3062-.1902.4341-.4857.3438-.1418-.0429-.1601-.1558-.1794-.2654-.057-.3148.174-.5319.4609-.4384.143.0462.2053.158.2042.36z"/><path d="m20.6944 12.5794c-.0011.2557-.0945.361-.318.3599-.2246-.0011-.3514-.1311-.3536-.361-.001-.2267.1451-.3868.3482-.3901.2117-.0032.3589.1537.3223.3912z"/><path d="m13.4403 20.5953c-.0666.0118-.0742-.0108-.0527-.0473.0269-.0451.0559-.0903.086-.1332.0226-.0323.0623-.0645.043-.1054-.0602-.1214.015-.1278.0999-.1181.1397.0171.2375-.0516.3288-.143.1569-.1568.3116-.3159.4749-.4663.0548-.0505.1516-.1397.1956-.0946.0451.0462-.0204.1569-.0774.2149-.274.2837-.5469.5717-.8714.8016-.072.0516-.1494.0978-.2278.0903z"/><path d="m12.2196 21.7633c-.0859.0075-.1214-.0215-.1181-.0892.0075-.1408.2235-.3224.3631-.3116.0419.0032.0667.0161.0753.0559.0236.101-.0742.2761-.1752.3083-.0537.0172-.1096.028-.1451.0366z"/><path d="m13.8131 20.7844c-.0107.014-.0215.0419-.0419.0548-.0816.0526-.1633.1064-.2514.1461-.0473.0215-.1118.0226-.0999-.0655.0161-.1214.2374-.2429.3513-.1967.0269.0108.0505.0162.0419.0613z"/><path d="m15.8397 17.7027c.0344.1278-.044.1945-.087.2718-.0108.0194-.0441.029-.0591.0129-.0301-.0311-.0312-.0784-.0075-.1107.0408-.0569.0924-.1053.1536-.174z"/><path d="m14.6492 19.8969c.0096-.014.0161-.0312.029-.0419.0333-.028.0752-.0441.1042-.0043.0365.0515-.0226.0634-.0516.0838-.0129.0096-.0333.0096-.0494.015-.0107-.0172-.0215-.0344-.0333-.0526z"/><path d="m4.50024 13.1317c.18052-.4309.40617-.836.65546-1.2293.18696-.2944.46204-.5104.70166-.7575.26434-.273.52652-.5491.86714-.7286.58132-.3041 1.14545-.64468 1.80843-.77255.29012-.05587.57702-.12249.87251-.15473.17408-.01934.34922-.00215.519-.02901.27826-.04406.54906-.01182.82096.03116.1869.02901.3696.08059.5566.10638.3621.04943.7124.14184 1.0466.28475.4061.1741.793.3868 1.1594.635.3621.2461.6726.548.9778.8564.0279.028.0559.0548.0903.0333.0354-.0214.0214-.0623.0096-.0967-.0333-.0934-.1246-.1353-.1848-.2052-.1751-.202-.361-.3943-.577-.5544-.49-.3643-1.0369-.62865-1.5882-.88331-.2353-.10852-.4824-.19556-.75-.20738-.0784-.00322-.1579-.03654-.2224-.1053-.0795-.08489-.2149-.10853-.3084-.08489-.2009.05265-.3986.02579-.5974.03438-.37934.01612-.75757-.01612-1.13795.02149-.13754.01397-.29764.09671-.42444-.04513-.00859-.00859-.03438-.00537-.05157-.00215-.48462.07844-.92839.2869-1.38829.44056-.06662.02256-.13754.04728-.19664.07951-.26433.14292-.54801.26542-.71886.53292-.08058.1268-.19663.1892-.34277.1988-.03976.0022-.09563.029-.11712-.0279-.01827-.0473.03008-.0709.0591-.0956.32021-.2805.66943-.5201 1.0584-.69525.23318-.10531.47817-.18697.71134-.29442.25251-.11605.52114-.16763.79085-.21491.17085-.03008.33203-.08703.49536-.13754.03008-.00967.05909-.03008.05372-.06769-.00645-.04406-.04513-.03331-.07522-.03546-.14935-.01397-.29119.03009-.4341.06232-.09456.02149-.1859.05265-.25574-.05587-.03116-.04836-.09133-.04728-.14721-.02472-.06555.02579-.13754.03869-.19664.07414-.15043.08812-.38038.04836-.44807.27078-.00215.00645-.0129.0129-.02042.01612-.33418.14506-.63719.37931-1.0294.35352-.00967 0-.01934.00108-.02793.00215-.03439-.00322-.06877-.00645-.10316-.00967-.101.02042-.03546.06447-.01397.10208-.04083.10208-.16977.11282-.2192.20631-.07629.14291-.20846.22891-.33525.32021-.11605.0838-.24069.1547-.34492.2536-.03761.0354-.08597.0483-.12142.0183-.11605-.1-.16978-.0162-.23103.0655-.03761.0505-.07414.101-.1182.1451-.28689.2804-.49965.6124-.67587.9692-.05265.1074-.09993.2181-.23855.2428-.02471.0043-.03438.0215-.04405.043-.12142.2504-.24822.4997-.36641.7511-.05373.115-.0763.2471-.2278.288-.03761.0096-.05265.0569-.072.0924-.04942.0935-.06877.1988-.12034.2922-.03116.057-.04191.144.00107.1913.17085.1848.09671.3772.03439.5706-.01505.0451-.0548.0827-.10208.0634-.05158-.0215-.03331-.0785-.01935-.1171.01075-.0323.03976-.0581.06233-.086.03223-.0387.0548-.0827.06232-.1311.0086-.0537.01075-.1182-.0591-.1279-.06125-.0086-.09348.0366-.09886.0989-.00322.0398-.02256.0784-.02041.1171.01182.201-.13969.3782-.04835.6028.0462.1129.08488.3073-.07737.4234-.01289.0097-.02042.044-.01397.0612.08596.2139-.00645.4438.09134.6705.101.2311.12894.4997.12142.7619-.01075.3331-.04943.6705.13001.981.03654.0634.06448.1365.07844.2085.0634.3342.24929.6157.41155.9015.17514.3105.34922.6318.62322.8779.03761.0333.04513.0978.07952.1375.05265.0624.06662.1924.20416.1268.02578-.0118.04298.0258.06124.0441.04513.0483.08704.0999.13324.1472.26864.2675.55446.5179.77044.8327.0591.0871.15473.1505.25251.1634.13432.0172.25037.0644.35782.1386.27508.1891.57917.3148.89723.4158-.01612.0581-.10853.0323-.09564.0989.01182.0623.07415.0731.12357.0902.10638.0366.20631.1236.33203.0409.02687-.0183.08596-.0129.11713.0053.18267.1043.38145.0688.57594.072.09026.0011.18374.0065.25574.0581.21383.1525.4556.1805.70596.1805h.84668c.0172.0516-.0612.0645-.0193.1042.0484.0451.1139.0494.1762.0505.0516 0 .0881-.0301.0903-.0795.0032-.058.029-.0752.0838-.0731.3277.0129.6436-.0655.9595-.1354.1204-.0268.2429-.0515.3557-.1063.0376-.0183.0699-.043.0559-.0924-.0172-.0634-.0634-.0355-.0978-.0258-.1354.0408-.2804.0333-.4148.087-.0343.014-.1085.0355-.1203-.0365-.014-.0838.0591-.0602.101-.0613.1225 0 .2353-.0365.3503-.073.1708-.0538.3084-.1763.4814-.2225.2536-.0687.4685-.217.6984-.3331.0527-.0268.1064-.0601.1365-.1461-.23.0655-.4502.0655-.6608.1494-.3675.1461-.7511.2449-1.1304.3545-.0387.0108-.086.0162-.1172-.0086-.0913-.0698-.1633-.0365-.2396.0248-.0258.0215-.0645.029-.0978.0386-.1482.0409-.303.0516-.4534.0946-.1053.029-.23641.029-.3804-.0312.13754-.0548.2461-.0612.3578-.0601.0409 0 .115.0365.115-.0398 0-.0548-.0677-.0365-.1096-.044-.1569-.0291-.31699-.0183-.47387-.0495-.22458-.0451-.45238-.0795-.68125-.1064-.16655-.0204-.33633-.0333-.48784-.1063-.3879-.1902-.80374-.3149-1.19057-.5083-.53296-.2654-1.01757-.6006-1.45598-.9993-.25896-.2353-.48354-.5039-.69092-.7876-.45882-.6254-.78548-1.3088-.97889-2.0577-.05695-.2192-.08059-.4449-.12787-.6652-.101-.4749-.1182-.9498-.03116-1.4259.09671-.5286.21705-1.0508.42659-1.5516z"/><path d="m10.1813 8.88299c-.23537.04298-.47283.05158-.70923.07629-.03761.0043-.07522.00752-.08166.05158-.00753.04405.02901.06017.06339.07199.05588 0 .11068 0 .16655.00107.0086 0 .01827 0 .02687-.00107.02793-.00215.05587-.0043.08488-.00752l.00645.00537.00645-.00537c.3922-.02579.7833.05265 1.1766.02256.0655-.00537.1257.00752.1311-.08596.0054-.08811-.043-.12249-.1193-.12679-.0849-.00538-.1698-.00538-.2546-.00323-.072.00215-.1247-.00859-.1096-.101.0107-.06447-.0269-.08704-.0871-.08489-.0494.00108-.0978.00215-.1472 0-.072-.00322-.101.02257-.0731.09563.0312.07952-.0204.08167-.0805.09241z"/><path d="m12.0993 9.42237c.0398.03546.0838.06662.1289.09456.1709.1053.3579.17192.5513.22457.0387.01075.0838.03976.1063-.00752.0183-.03868-.0021-.08381-.044-.11067-.1236-.07952-.245-.16118-.3707-.23855-.0935-.05695-.1795-.13646-.331-.13324-.0204 0-.0741-.00215-.0935.0548-.0171.04836.0194.08596.0516.11498z"/><path d="m14.7297 10.888c-.2041-.217-.4556-.3685-.7102-.5168-.0118-.0065-.0247-.0107-.0376-.0161-.0247-.0011-.043.0107-.0527.0322-.014.0322-.0021.0602.0237.0838.0762.0688.1525.1365.2278.2042.1525.1365.3545.2031.4996.3514.0247.0257.057.0182.0849-.0033.0269-.0204.0236-.0451.0097-.0709-.014-.0226-.028-.0462-.0452-.0655z"/><path d="m8.95416 8.66807c.02686 0 .05372-.00215.08059 0 .23747.02256.46204-.10638.70166-.0548.02686.00537.05265-.00967.0591-.04083.00537-.03331-.01612-.05158-.04406-.05588-.03868-.00752-.07951-.00645-.11927-.00967-.16118-.01182-.31161.08166-.43518.05373-.10638 0-.173 0-.23962 0-.04083 0-.05373.02041-.05265.0591.00107.03331.01826.04728.04943.04835z"/><path d="m8.84131 8.68742c-.17945-.09348-.32988-.0043-.48139.01289.15151-.01826.30409.08382.48139-.01289z"/><path d="m13.6853 10.0768c.0257.0097.0591-.0097.0515-.0419-.0215-.08599-.1021-.08599-.1719-.10748-.0258.01182-.0774.01182-.0666.04728.0268.086.1193.0774.187.1021z"/><path d="m7.38316 9.0796c.02041-.01182.0419-.03546.02041-.06447-.01934-.02686-.04728-.02257-.06984-.00967-.06447.03546-.13324.06662-.1816.12679-.09885-.00322-.16225.05695-.21598.13432.07629-.04083.15151-.08059.2278-.12142.09778.06339.15151-.02579.21813-.06448z"/><path d="m15.0983 18.947c-.0763.0279-.0967.1085-.1322.173-.0097.0172.0075.0419.0258.0354.0698-.0247.1268-.0634.1375-.1472-.0043-.0236-.0053-.0698-.0311-.0602z"/><path d="m14.9135 11.7058c-.0086-.0108-.0344-.0172-.0462-.0119-.0226.0108-.0269.0387-.0119.0548.0538.0602.0591.1591.1644.1977.0129-.1128-.0505-.1762-.1063-.2417z"/><path d="m7.56047 9.0291c.06662-.03331.13539-.06232.2278-.1053-.11067-.02472-.19234-.02794-.26863.02041-.02364.01505-.04406.03331-.02471.06447.01504.02472.03331.03654.06554.02042z"/><path d="m15.0617 11.5919c.0409.0172.0484-.0312.0473-.0602-.0021-.0752-.0634-.0999-.1182-.1268-.0312-.0054-.0483.0129-.0419.0355.0172.0644.0505.1257.1128.1515z"/><path d="m14.4783 20.057c.1117-.0033.1354-.0935.2031-.1086-.0108-.0172-.0215-.0344-.0333-.0526-.0505.0473-.1.0945-.1698.1601z"/><path d="m12.4002 18.6537v.0226c0 .0064-.0011.0118-.0021.0161 0 .0043-.0022.0086-.0043.0118-.0022.0032-.0043.0065-.0086.0108-.0043.0042-.0108.0096-.0226.015s-.0247.0129-.0408.0183c-.0162.0053-.0344.0107-.0548.0139-.0205.0033-.043.0054-.0667.0054-.0462 0-.0881-.0075-.1257-.0215s-.0687-.0354-.0956-.0645c-.0258-.029-.0462-.0644-.0602-.1063-.014-.043-.0215-.0924-.0215-.1494 0-.0569.0075-.1085.0226-.1537.015-.0451.0365-.0827.0645-.1128.0279-.0301.0612-.0537.0999-.0687.0387-.0162.0817-.0237.1279-.0237.0193 0 .0365.0011.0548.0043.0172.0032.0333.0075.0483.0129.0151.0054.028.0108.0398.0172s.0204.0118.0247.0172c.0043.0043.0075.0086.0097.0118.0021.0032.0032.0075.0043.0118.001.0043.0021.0108.0021.0172v.0247.0269c0 .0075-.0021.0129-.0032.0183-.0022.0043-.0043.0075-.0065.0096-.0021.0022-.0053.0033-.0086.0033-.0053 0-.0118-.0033-.0204-.0086-.0075-.0065-.0182-.0129-.0311-.0205-.0129-.0075-.028-.0139-.0452-.0204-.0172-.0064-.0387-.0096-.0634-.0096-.0268 0-.0505.0053-.072.0161-.0215.0107-.0386.0268-.0537.0473-.015.0204-.0258.0451-.0333.0741s-.0118.0612-.0118.0978c0 .0397.0043.0741.0118.1031.0086.029.0204.0538.0355.072.015.0183.0333.0333.0548.0419.0215.0097.0462.014.073.014.0247 0 .0452-.0032.0634-.0086.0183-.0054.0333-.0118.0462-.0193.0129-.0076.0237-.0129.0312-.0194.0086-.0053.015-.0086.0193-.0086.0033 0 .0065 0 .0086.0022.0022.0021.0043.0043.0054.0086s.0022.0096.0032.0172v.0301z"/><path d="m13.0954 18.5043c0 .0419-.0064.0784-.0182.1117s-.0301.0602-.0538.0838c-.0236.0226-.0526.0398-.0881.0516-.0354.0118-.0752.0183-.1203.0183-.043 0-.0806-.0054-.115-.0162-.0344-.0107-.0623-.0268-.0859-.0483-.0237-.0215-.042-.0484-.0538-.0806-.0129-.0322-.0182-.0698-.0182-.1139v-.4126s0-.0065.0032-.0097.0054-.0054.0107-.0064c.0054-.0022.0129-.0033.0215-.0043.0086 0 .0204-.0011.0333-.0011s.0247 0 .0333.0011c.0086 0 .0162.0021.0215.0043.0054.0021.0086.0043.0108.0064.0021.0032.0032.0065.0032.0097v.4008c0 .0268.0032.0505.0097.0698.0064.0194.0161.0366.029.0495s.0268.0225.0451.029c.0172.0064.0365.0096.058.0096s.0409-.0032.0581-.0096c.0172-.0065.0311-.0161.044-.029.0118-.0129.0215-.028.028-.0473.0064-.0183.0096-.0398.0096-.0634v-.4083s0-.0065.0032-.0097c.0033-.0032.0054-.0054.0108-.0065.0054-.001.0118-.0032.0215-.0043.0097-.001.0204-.001.0333-.001s.0247 0 .0333.001c.0086 0 .015.0022.0204.0043.0054.0022.0086.0043.0108.0065.0021.0021.0032.0064.0032.0097v.4072z"/><path d="m13.7874 18.7385s0 .0075-.0021.0097c-.0011.0032-.0043.0043-.0097.0064-.0054.0022-.0129.0032-.0226.0032s-.0236 0-.0419 0c-.015 0-.0269 0-.0355 0-.0085 0-.0161-.0021-.0204-.0043-.0053-.0021-.0086-.0043-.0107-.0075-.0022-.0032-.0043-.0064-.0054-.0107l-.0612-.1515c-.0076-.0172-.0151-.0323-.0215-.0452-.0075-.0129-.0151-.0247-.0237-.0333s-.0182-.0161-.03-.0204c-.0108-.0043-.0237-.0064-.0387-.0064h-.043v.2589s-.0011.0065-.0032.0097c-.0022.0032-.0065.0054-.0108.0064-.0043.0011-.0118.0033-.0215.0043-.0086 0-.0204.0011-.0333.0011s-.0247 0-.0333-.0011c-.0086-.001-.0161-.0021-.0215-.0043-.0054-.0021-.0086-.0043-.0107-.0064-.0022-.0022-.0033-.0064-.0033-.0097v-.6167c0-.0151.0043-.0269.0119-.0334.0075-.0064.0172-.0107.029-.0107h.1762.0441c.0118 0 .0225.0011.0311.0021.0269.0043.0516.0108.0742.0205.0215.0096.0408.0215.0558.0365.0151.015.0269.0333.0344.0537s.0118.0452.0118.072c0 .0226-.0032.043-.0086.0623-.0053.0183-.0139.0355-.0257.0505-.0108.0151-.0248.028-.042.0387-.0161.0108-.0354.0194-.0558.0258.0096.0054.0193.0108.029.0183s.0172.015.0247.0258c.0075.0096.015.0215.0226.0344.0075.0128.0139.0268.0204.0429l.0569.1343c.0054.0129.0086.0226.0108.0291.0021.0064.0021.0107.0021.0139zm-.1784-.461c0-.0225-.0053-.0408-.015-.0569-.0097-.0151-.0269-.0258-.0494-.0323-.0076-.0021-.0151-.0032-.0237-.0043-.0086-.001-.0215-.001-.0365-.001h-.0623v.1923h.0698c.0193 0 .0365-.0021.0516-.0075.015-.0043.0268-.0118.0365-.0204s.0172-.0183.0226-.0312c.0054-.0118.0075-.0247.0075-.0397z"/><path d="m14.487 18.7052c.0043.0129.0064.0226.0075.0301s0 .0129-.0043.0161c-.0043.0043-.0108.0064-.0204.0064-.0097 0-.0237.0011-.0409.0011s-.0322 0-.0419 0c-.0096 0-.0172-.0011-.0225-.0032-.0054-.0011-.0086-.0032-.0108-.0065-.0021-.0032-.0043-.0064-.0054-.0107l-.0451-.1365h-.2547l-.0429.1333s-.0033.0086-.0054.0129c-.0022.0032-.0065.0053-.0107.0075-.0054.0021-.0119.0032-.0215.0043-.0097 0-.0215 0-.0366 0-.0161 0-.029 0-.0376-.0011-.0086 0-.015-.0032-.0193-.0075-.0032-.0043-.0043-.0097-.0032-.0172.001-.0075.0032-.0172.0075-.029l.2095-.6028c.0022-.0065.0043-.0108.0075-.014.0033-.0032.0075-.0064.0129-.0086.0065-.0021.0151-.0032.0258-.0032h.043.0494c.0118 0 .0215.0021.029.0032.0065.0022.0119.0043.0151.0086s.0053.0086.0075.0161l.2095.6018zm-.3117-.4975-.0956.289h.1923l-.0956-.289z"/><path d="m14.9919 18.1347c0 .0096 0 .0182-.001.0257 0 .0076-.0022.0129-.0043.0172-.0022.0043-.0043.0076-.0065.0097-.0021.0022-.0054.0032-.0086.0032h-.1698v.547s-.001.0064-.0032.0096c-.0021.0033-.0064.0054-.0107.0065s-.0118.0032-.0215.0043-.0204.0011-.0333.0011-.0247 0-.0333-.0011-.0162-.0022-.0215-.0043c-.0054-.0022-.0086-.0043-.0108-.0065-.0021-.0032-.0032-.0064-.0032-.0096v-.547h-.1698s-.0064 0-.0086-.0032c-.0021-.0021-.0043-.0054-.0064-.0097-.0022-.0043-.0032-.0096-.0043-.0172 0-.0075-.0011-.0161-.0011-.0257 0-.0097 0-.0194.0011-.0269 0-.0075.0021-.0129.0043-.0172.0021-.0043.0043-.0075.0064-.0097.0022-.0021.0054-.0032.0086-.0032h.4782s.0064 0 .0086.0032c.0021.0022.0043.0054.0064.0097.0022.0043.0033.0097.0043.0172 0 .0075.0011.0161.0011.0269z"/><path d="m15.5163 18.703c0 .0097 0 .0183-.0011.0258 0 .0065-.0021.0119-.0043.0161-.0021.0043-.0043.0076-.0064.0086-.0022.0022-.0054.0033-.0086.0033h-.3406c-.0118 0-.0215-.0033-.029-.0108-.0076-.0064-.0119-.0182-.0119-.0333v-.592c0-.0151.0043-.0269.0119-.0334.0075-.0064.0172-.0107.029-.0107h.3384s.0065 0 .0086.0021c.0022.0022.0043.0043.0065.0086.0021.0043.0032.0097.0043.0172 0 .0065.0011.0151.0011.0258 0 .0097 0 .0183-.0011.0247 0 .0065-.0022.0119-.0043.0162-.0022.0043-.0043.0075-.0065.0085-.0021.0022-.0053.0033-.0086.0033h-.2428v.1654h.2052s.0065 0 .0086.0033c.0022.0021.0043.0043.0065.0086.0021.0043.0032.0096.0043.0161 0 .0064.0011.015.0011.0247s0 .0183-.0011.0247c0 .0065-.0022.0118-.0043.0161-.0022.0043-.0043.0065-.0065.0086-.0021.0022-.0053.0022-.0086.0022h-.2052v.1912h.245s.0064 0 .0086.0033c.0021.0021.0043.0053.0064.0086.0022.0043.0033.0096.0043.0161 0 .0064.0011.015.0011.0258z"/><path d="m16.2438 18.4075c0 .0624-.0086.1161-.0248.1602-.0161.044-.0397.0805-.0698.1085-.0301.0279-.0677.0483-.1107.0612-.044.0129-.0956.0194-.1558.0194h-.1622c-.0119 0-.0215-.0033-.029-.0108-.0076-.0064-.0119-.0182-.0119-.0333v-.592c0-.0151.0043-.0269.0119-.0334.0075-.0064.0171-.0107.029-.0107h.174c.0602 0 .1118.0075.1537.0215s.0774.0354.1064.0634c.029.0279.0505.0623.0655.1031.0151.0409.0226.0881.0226.1419zm-.143.0043c0-.0322-.0043-.0623-.0107-.0891-.0075-.028-.0193-.0516-.0365-.072-.0161-.0204-.0376-.0366-.0645-.0473-.0258-.0118-.0602-.0172-.1021-.0172h-.0698v.462h.072c.0376 0 .0698-.0053.0956-.015s.0473-.0247.0645-.0441c.0172-.0193.0301-.044.0387-.0741.0085-.029.0128-.0634.0128-.1032z"/><path d="m17.0862 18.703c0 .0097 0 .0183-.0011.0258 0 .0065-.0021.0119-.0043.0161-.0021.0043-.0043.0076-.0064.0086-.0022.0022-.0054.0033-.0086.0033h-.3406c-.0118 0-.0215-.0033-.029-.0108-.0076-.0064-.0119-.0182-.0119-.0333v-.592c0-.0151.0043-.0269.0119-.0334.0075-.0064.0172-.0107.029-.0107h.3384s.0065 0 .0086.0021c.0022.0022.0043.0043.0065.0086.0021.0043.0032.0097.0043.0172 0 .0065.0011.0151.0011.0258 0 .0097 0 .0183-.0011.0247 0 .0065-.0022.0119-.0043.0162-.0022.0043-.0043.0075-.0065.0085-.0021.0022-.0053.0033-.0086.0033h-.2428v.1654h.2052s.0065 0 .0086.0033c.0022.0021.0043.0043.0065.0086.0021.0043.0032.0096.0043.0161 0 .0064.0011.015.0011.0247s0 .0183-.0011.0247c0 .0065-.0022.0118-.0043.0161-.0022.0043-.0043.0065-.0065.0086-.0021.0022-.0053.0022-.0086.0022h-.2052v.1912h.245s.0064 0 .0086.0033c.0021.0021.0043.0053.0064.0086.0022.0043.0033.0096.0043.0161 0 .0064.0011.015.0011.0258z"/><path d="m17.7341 18.7052c.0065.0118.0108.0226.0118.029.0022.0076 0 .0129-.0032.0172s-.0118.0065-.0225.0075c-.0108.0011-.0258.0011-.0462.0011-.0162 0-.0291 0-.0387 0-.0097 0-.0172-.0021-.0226-.0032-.0054-.0022-.0097-.0043-.0118-.0065-.0022-.0032-.0043-.0064-.0065-.0107l-.1278-.245-.1268.245s-.0043.0075-.0065.0107c-.0021.0033-.0064.0054-.0118.0065s-.0129.0021-.0226.0032c-.0096 0-.0225 0-.0376 0-.0182 0-.0322 0-.0419-.0011-.0096-.001-.0172-.0032-.0204-.0075s-.0043-.0096-.0021-.0172c.0021-.0075.0064-.0172.0129-.029l.1622-.2965-.1515-.2784c-.0064-.0128-.0107-.0225-.0129-.03-.0021-.0076-.0011-.0129.0022-.0172.0043-.0043.0118-.0065.0225-.0065.0108 0 .0258-.0011.0462-.0011h.0387c.0097 0 .0172.0022.0226.0033.0053.0021.0096.0043.0118.0064.0021.0032.0043.0065.0064.0108l.1193.2245.1161-.2245s.0043-.0076.0064-.0108c.0022-.0032.0065-.0054.0108-.0064.0053-.0011.0118-.0022.0214-.0033.0097-.001.0215 0 .0366 0 .0172 0 .0311 0 .0419.0011.0097 0 .0172.0032.0215.0075s.0043.0097.0032.0172c-.0021.0076-.0054.0172-.0118.0301l-.1515.2773.1612.2976z"/><path d="m18.3488 18.284c0 .0376-.0065.072-.0183.101s-.029.0537-.0516.0741c-.0225.0205-.0505.0355-.0838.0462-.0333.0108-.072.0162-.1171.0162h-.0569v.217s-.0011.0065-.0033.0097c-.0021.0032-.0064.0054-.0107.0064-.0043.0011-.0118.0033-.0215.0043-.0086 0-.0204.0011-.0333.0011s-.0247 0-.0333-.0011c-.0086-.001-.0161-.0021-.0215-.0043-.0054-.0021-.0086-.0043-.0108-.0064-.0021-.0022-.0032-.0065-.0032-.0097v-.6103c0-.0161.0043-.029.0129-.0365.0086-.0086.0194-.0129.0333-.0129h.1601c.0161 0 .0312 0 .0462.0021.0151.0011.0323.0043.0527.0075.0204.0043.0408.0119.0612.0226.0205.0107.0387.0247.0538.0408.015.0161.0257.0355.0333.0581.0075.0225.0118.0472.0118.0752zm-.144.0097c0-.0237-.0043-.043-.0129-.0591s-.0183-.0269-.0312-.0344c-.0118-.0075-.0247-.0118-.0386-.014-.014-.0021-.0269-.0032-.0419-.0032h-.0591v.2299h.0623c.0225 0 .0408-.0032.0559-.0086.015-.0064.0268-.0139.0365-.0247.0097-.0107.0161-.0236.0215-.0387.0054-.015.0075-.0311.0075-.0483z"/><path d="m18.9 18.703c0 .0097 0 .0183-.001.0258 0 .0065-.0022.0119-.0043.0161-.0022.0043-.0043.0076-.0065.0086-.0021.0022-.0054.0033-.0086.0033h-.3406c-.0118 0-.0215-.0033-.029-.0108-.0075-.0064-.0118-.0182-.0118-.0333v-.592c0-.0151.0043-.0269.0118-.0334.0075-.0064.0172-.0107.029-.0107h.3385s.0064 0 .0086.0021c.0021.0022.0043.0043.0064.0086.0022.0043.0032.0097.0043.0172 0 .0065.0011.0151.0011.0258 0 .0097 0 .0183-.0011.0247 0 .0065-.0021.0119-.0043.0162-.0021.0043-.0043.0075-.0064.0085-.0022.0022-.0054.0033-.0086.0033h-.2429v.1654h.2053s.0064 0 .0086.0033c.0021.0021.0043.0043.0064.0086.0022.0043.0032.0096.0043.0161 0 .0064.0011.015.0011.0247s0 .0183-.0011.0247c0 .0065-.0021.0118-.0043.0161-.0021.0043-.0043.0065-.0064.0086-.0022.0022-.0054.0022-.0086.0022h-.2053v.1912h.245s.0065 0 .0086.0033c.0022.0021.0043.0053.0065.0086.0021.0043.0032.0096.0043.0161 0 .0064.001.015.001.0258z"/><path d="m19.5673 18.7385s0 .0075-.0022.0097c-.0011.0032-.0043.0043-.0097.0064-.0053.0022-.0129.0032-.0225.0032-.0097 0-.0237 0-.0419 0-.0151 0-.0269 0-.0355 0s-.0161-.0021-.0204-.0043c-.0054-.0021-.0086-.0043-.0108-.0075-.0021-.0032-.0042-.0064-.0053-.0107l-.0613-.1515c-.0075-.0172-.015-.0323-.0215-.0452-.0075-.0129-.015-.0247-.0236-.0333s-.0183-.0161-.0301-.0204c-.0107-.0043-.0236-.0064-.0387-.0064h-.043v.2589s-.001.0065-.0032.0097c-.0021.0032-.0064.0054-.0107.0064-.0043.0011-.0118.0033-.0215.0043-.0086 0-.0204.0011-.0333.0011s-.0247 0-.0333-.0011c-.0086-.001-.0161-.0021-.0215-.0043-.0054-.0021-.0086-.0043-.0108-.0064-.0021-.0022-.0032-.0064-.0032-.0097v-.6167c0-.0151.0043-.0269.0118-.0334.0076-.0064.0172-.0107.029-.0107h.1763.044c.0118 0 .0226.0011.0312.0021.0268.0043.0516.0108.0741.0205.0215.0096.0409.0215.0559.0365s.0269.0333.0344.0537.0118.0452.0118.072c0 .0226-.0032.043-.0086.0623-.0054.0183-.014.0355-.0258.0505-.0107.0151-.0247.028-.0419.0387-.0161.0108-.0354.0194-.0559.0258.0097.0054.0194.0108.029.0183.0097.0075.0172.015.0248.0258.0075.0096.015.0215.0225.0344.0075.0128.014.0268.0204.0429l.057.1343c.0054.0129.0086.0226.0107.0291.0022.0064.0022.0107.0022.0139zm-.1784-.461c0-.0225-.0054-.0408-.0151-.0569-.0096-.0151-.0268-.0258-.0494-.0323-.0075-.0021-.015-.0032-.0236-.0043-.0086-.001-.0215-.001-.0366-.001h-.0623v.1923h.0699c.0193 0 .0365-.0021.0515-.0075.0151-.0043.0269-.0118.0366-.0204.0096-.0086.0172-.0183.0225-.0312.0054-.0118.0076-.0247.0076-.0397z"/><path d="m19.8488 18.7375s-.001.0064-.0032.0096c-.0021.0033-.0064.0054-.0107.0065s-.0119.0032-.0215.0043c-.0086 0-.0204.0011-.0333.0011s-.0247 0-.0333-.0011-.0162-.0022-.0215-.0043c-.0054-.0022-.0086-.0043-.0108-.0065-.0021-.0032-.0032-.0064-.0032-.0096v-.6415s.0011-.0065.0032-.0097c.0022-.0032.0065-.0054.0118-.0064.0054-.0022.0129-.0033.0215-.0043.0086 0 .0194-.0011.0333-.0011.014 0 .0248 0 .0334.0011.0085 0 .0161.0021.0214.0043.0054.0021.0086.0043.0108.0064.0021.0032.0032.0065.0032.0097v.6415z"/><path d="m20.4419 18.703c0 .0097 0 .0183-.001.0258 0 .0065-.0022.0119-.0043.0161-.0022.0043-.0043.0076-.0065.0086-.0021.0022-.0054.0033-.0086.0033h-.3406c-.0118 0-.0215-.0033-.029-.0108-.0075-.0064-.0118-.0182-.0118-.0333v-.592c0-.0151.0043-.0269.0118-.0334.0075-.0064.0172-.0107.029-.0107h.3385s.0064 0 .0086.0021c.0021.0022.0043.0043.0064.0086.0022.0043.0032.0097.0043.0172 0 .0065.0011.0151.0011.0258 0 .0097 0 .0183-.0011.0247 0 .0065-.0021.0119-.0043.0162-.0021.0043-.0043.0075-.0064.0085-.0022.0022-.0054.0033-.0086.0033h-.2429v.1654h.2053s.0064 0 .0086.0033c.0021.0021.0043.0043.0064.0086.0022.0043.0032.0096.0043.0161 0 .0064.0011.015.0011.0247s0 .0183-.0011.0247c0 .0065-.0021.0118-.0043.0161-.0021.0043-.0043.0065-.0064.0086-.0022.0022-.0054.0022-.0086.0022h-.2053v.1912h.245s.0065 0 .0086.0033c.0022.0021.0043.0053.0065.0086.0021.0043.0032.0096.0043.0161 0 .0064.001.015.001.0258z"/><path d="m21.1651 18.7084c0 .0086-.0011.0151-.0043.0215-.0032.0065-.0065.0118-.0108.0161s-.0107.0076-.0171.0086c-.0065.0022-.0129.0033-.0194.0033h-.0591c-.0118 0-.0226-.0011-.0322-.0033-.0097-.0021-.0172-.0064-.0247-.0129-.0076-.0064-.0151-.015-.0215-.0257-.0075-.0108-.0151-.0258-.0237-.043l-.1687-.317c-.0096-.0194-.0193-.0398-.0301-.0613-.0096-.0214-.0193-.0429-.0268-.0634.0011.0248.0021.0505.0032.0753v.0773.3557s0 .0064-.0032.0097c-.0022.0032-.0054.0053-.0097.0075-.0043.0021-.0107.0032-.0193.0043-.0075 0-.0183.0011-.0312.0011s-.0226 0-.0301-.0011c-.0075 0-.0139-.0022-.0193-.0043-.0043-.0022-.0075-.0043-.0097-.0075-.0021-.0033-.0021-.0065-.0021-.0097v-.6103c0-.0162.0043-.029.0139-.0366.0097-.0086.0215-.0129.0355-.0129h.0741c.0129 0 .0247.0011.0333.0033.0086.0021.0172.0064.0248.0118.0075.0054.0139.0129.0204.0215.0064.0096.0129.0204.0193.0344l.1322.2482c.0075.015.015.0301.0225.044.0076.0151.0151.029.0215.0441.0076.014.014.029.0205.043.0064.0139.0128.0279.0193.0419 0-.0247-.0022-.0505-.0022-.0763s0-.0516 0-.0763v-.3181s0-.0064.0033-.0096c.0032-.0033.0053-.0054.0107-.0076.0054-.0021.0118-.0032.0194-.0043.0075 0 .0182-.001.0311-.001.0118 0 .0215 0 .0301.001.0075 0 .014.0022.0183.0043.0043.0022.0075.0043.0096.0076.0022.0032.0022.0064.0022.0096v.6104z"/><path d="m21.8249 18.6536v.0226c0 .0064-.0011.0118-.0022.0161 0 .0043-.0021.0086-.0043.0118-.0021.0032-.0043.0065-.0086.0108s-.0107.0096-.0225.015c-.0119.0054-.0248.0129-.0409.0183-.0161.0053-.0344.0107-.0548.0139-.0204.0033-.043.0054-.0666.0054-.0462 0-.0881-.0075-.1257-.0215-.0376-.0139-.0688-.0354-.0957-.0644-.0257-.0291-.0462-.0645-.0601-.1064-.014-.043-.0215-.0924-.0215-.1494 0-.0569.0075-.1085.0225-.1536.0151-.0452.0366-.0828.0645-.1129.028-.0301.0613-.0537.1-.0687.0386-.0162.0816-.0237.1278-.0237.0194 0 .0366.0011.0548.0043.0172.0032.0333.0075.0484.0129.015.0054.0279.0108.0397.0172.0119.0065.0204.0118.0247.0172.0043.0043.0076.0086.0097.0118.0022.0032.0032.0075.0043.0118s.0022.0108.0022.0172v.0247.0269c0 .0075-.0022.0129-.0033.0183-.0021.0043-.0043.0075-.0064.0096-.0022.0022-.0054.0033-.0086.0033-.0054 0-.0118-.0033-.0204-.0086-.0075-.0065-.0183-.0129-.0312-.0204-.0129-.0076-.0279-.014-.0451-.0205-.0172-.0064-.0387-.0096-.0634-.0096-.0269 0-.0505.0053-.072.0161-.0215.0107-.0387.0269-.0537.0473-.0151.0204-.0258.0451-.0333.0741-.0076.029-.0119.0613-.0119.0978 0 .0398.0043.0741.0119.1031.0086.0291.0204.0538.0354.072.0151.0183.0333.0334.0548.0419.0215.0097.0462.014.0731.014.0247 0 .0451-.0032.0634-.0086s.0333-.0118.0462-.0193.0236-.0129.0312-.0194c.0085-.0053.015-.0086.0193-.0086.0032 0 .0064 0 .0086.0022.0021.0021.0043.0043.0054.0086.001.0043.0021.0097.0032.0172v.0301z"/><path d="m22.3675 18.703c0 .0097 0 .0183-.0011.0258 0 .0065-.0021.0119-.0043.0161-.0021.0043-.0043.0076-.0064.0086-.0022.0022-.0054.0033-.0086.0033h-.3406c-.0119 0-.0215-.0033-.0291-.0108-.0075-.0064-.0118-.0182-.0118-.0333v-.592c0-.0151.0043-.0269.0118-.0334.0076-.0064.0172-.0107.0291-.0107h.3384s.0065 0 .0086.0021c.0022.0022.0043.0043.0065.0086.0021.0043.0032.0097.0043.0172 0 .0065.0011.0151.0011.0258 0 .0097 0 .0183-.0011.0247 0 .0065-.0022.0119-.0043.0162-.0022.0043-.0043.0075-.0065.0085-.0021.0022-.0053.0033-.0086.0033h-.2428v.1654h.2052s.0065 0 .0086.0033c.0022.0021.0043.0043.0065.0086.0021.0043.0032.0096.0043.0161 0 .0064.001.015.001.0247s0 .0183-.001.0247c0 .0065-.0022.0118-.0043.0161-.0022.0043-.0043.0065-.0065.0086-.0021.0022-.0053.0022-.0086.0022h-.2052v.1912h.245s.0064 0 .0086.0033c.0021.0021.0043.0053.0064.0086.0022.0043.0033.0096.0043.0161 0 .0064.0011.015.0011.0258z"/><path d="m22.923 18.5526c0 .0355-.0064.0667-.0204.0935-.0129.0269-.0312.0494-.0537.0677-.0226.0183-.0495.0312-.0796.0408-.03.0097-.0634.014-.0977.014-.0237 0-.0452-.0021-.0656-.0054-.0204-.0043-.0376-.0086-.0537-.0139-.0151-.0054-.0279-.0108-.0387-.0172-.0107-.0065-.0183-.0108-.0226-.0161-.0043-.0043-.0075-.0108-.0096-.0194-.0022-.0086-.0033-.0215-.0033-.0365 0-.0108 0-.0204 0-.0269 0-.0075.0022-.0129.0033-.0182.001-.0054.0032-.0076.0064-.0097.0022-.0022.0054-.0032.0097-.0032.0054 0 .0118.0032.0204.0086.0086.0053.0204.0118.0344.0193s.0312.0129.0505.0193c.0193.0054.0419.0086.0677.0086.0172 0 .0322-.0021.0451-.0064s.0247-.0097.0333-.0172c.0097-.0075.0161-.0161.0215-.0269.0054-.0107.0075-.0225.0075-.0365 0-.015-.0043-.029-.0129-.0398-.0085-.0107-.0193-.0204-.0333-.029-.0139-.0086-.029-.0161-.0462-.0236s-.0344-.0151-.0526-.0237c-.0183-.0085-.0355-.0182-.0527-.029-.0172-.0107-.0322-.0236-.0462-.0386-.0139-.0151-.0247-.0323-.0333-.0527s-.0129-.0451-.0129-.0731c0-.0322.0065-.0612.0183-.0859s.0279-.0452.0483-.0613c.0205-.0161.0452-.0279.072-.0365.0269-.0086.057-.0118.0881-.0118.0162 0 .0323.001.0484.0032.0161.0021.0312.0054.0451.0097.014.0043.0269.0086.0376.0139.0108.0054.0183.0097.0215.0129.0033.0033.0054.0065.0075.0086.0011.0022.0022.0054.0033.0097 0 .0043.001.0086.0021.015v.0226.0258c0 .0075-.0011.0129-.0021.0172-.0011.0043-.0032.0075-.0054.0097-.0021.0021-.0054.0032-.0097.0032s-.0096-.0022-.0182-.0075c-.0086-.0054-.0183-.0108-.0312-.0162-.0118-.0053-.0269-.0107-.043-.0161-.0161-.0043-.0333-.0075-.0526-.0075-.0151 0-.028.0021-.0398.0054-.0107.0043-.0204.0086-.0279.015-.0075.0065-.0129.014-.0172.0237-.0043.0096-.0054.0182-.0054.029 0 .015.0043.0279.0118.0387.0086.0107.0194.0204.0333.029.014.0086.0291.0161.0473.0236.0172.0075.0355.015.0537.0236.0183.0086.0366.0183.0538.0291.0172.0107.0333.0236.0462.0386.0139.0151.0247.0323.0333.0527s.0129.044.0129.0709z"/></g></svg>