<svg fill="none" height="30" viewBox="0 0 31 30" width="31" xmlns="http://www.w3.org/2000/svg"><g fill="#fff"><path d="m25.096 15.1842v-11.36796c-.016-.448-.376-.816-.824-.816h-.056s-.016 0-.024.008c-.88.096-1.76.2-2.64.296-2.384.248-4.776.352-7.168.296-1.888-.04-3.768-.184-5.64002-.4-.536-.056-1.064-.12-1.592-.176-.232-.024-.448-.032-.656.096-.256.152-.392.424-.4.712v1.456 10.81596c.008 1.704.44 3.376 1.272 4.864.808 1.456 1.96 2.688 3.28802 3.688 1.36 1.024 4.088 2.344 4.944 2.344 1.08 0 3.504-1.376 4.208-1.832 1.424-.92 2.704-2.088 3.664-3.496.96-1.424 1.536-3.08 1.616-4.8.016-.224.016-.448.016-.672 0-.344-.008-.68-.008-1.016zm-16.13602 4.992c-.568-.984-.952-2.056-1.064-3.128-.232-2.248-.224-5.576.624-7.63996.256.176.68.312.872.352.04.008.088.016.136.024.04.016.088.016.136.008.048 0 .088-.016.128-.04.08-.048.144-.128.168-.216.016-.088.016-.192-.04-.272-.048-.072-.12-.144-.208-.16-.192-.032-.376-.08-.552-.152-.16-.072-.304-.152-.448-.256-.144-.112-.264-.248-.384-.384-.112-.152-.208-.312-.288-.48-.016-.032-.024-.064-.04-.096-.048-.112-.192-.464-.192-1.104v-1.304c0-.2.184-.36.44-.28.392.12 1.056.376 1.304.512.448.256.73602.512 1.12802 1.088.08.12.216.192.376.16.04-.008.08-.016.128-.024.048 0 .096-.008.144-.016.024-.008.048-.008.08-.016h.088c.376-.056.72-.096 1.04-.112.416-.024.712-.024 1.024.008h.008s.016.008.032.008h.024c.04 0 .072.016.104.024s.056.016.088.024v.008h.024c.176.096.328.176.48.312.104.088.208.192.312.288.24.224.488.456.776.64.28.184.56.224.816.24.624.04 1.264.024 1.88 0 .072-.008.152-.008.224-.008.232-.008.48-.024.712-.032.184-.008.416-.016.6-.024.08 0 .168.032.224.096s.048.176.04.232c-.224 1.344-.896 2.41596-1.192 2.71996-.288.304-.8.392-1.288.4h-.016c-.352 0-1.552-.016-2.192 0-.328.008-.648.048-.96.112-.328.072-.656.168-.976.296-.392.152-.752.336-1.064.544-.376.232-.712.504-1.016.808-.328.328-.616.696-.864 1.104-.256.424-.47202.904-.62402 1.408-.16.536-.264 1.128-.296 1.76-.04.648 0 1.344.112 2.12.08.592.216 1.2.392 1.832-.368-.44-.696-.904-.968-1.384zm8.19202 4.504c-.264.12-.512.232-.768.328-.048.024-.096.04-.144.064-.232.096-.464.2-.696.184-.112 0-.232-.048-.344-.088l-.072-.024c-.136-.048-.272-.104-.4-.16-.248-.096-.504-.208-.76-.336-1.064-.512-2.032-1.144-2.872-1.888-.032-.032-.072-.064-.104-.096-.072-.144-.48-1.352-.696-2.52-.04-.208-.072-.392-.096-.568-.008-.024-.008-.048-.016-.064v-.072s-.016-.056-.016-.088c-.016-.088-.024-.176-.032-.264-.032-.344-.048-.68-.048-1.008s.024-.616.056-.904c0-.04.008-.072.008-.112v-.048c.024-.072.032-.144.04-.208.024-.136.056-.272.088-.4.056-.256.136-.504.224-.736.016-.064.04-.12.064-.168l.016-.04s.024-.056.032-.08c.048-.112.104-.216.16-.32.104-.2.224-.392.352-.576.024-.048.056-.088.088-.128.016-.024.032-.04.048-.064l.024-.024c.064-.088.128-.168.2-.24.136-.152.288-.304.44-.44.072-.064.152-.128.232-.192l.024-.024h.016s.016-.024.032-.032c.04-.032.072-.056.112-.088.896-.616 1.6-.912 2.424-1.016.392-.048.408-.056.792-.072.056 0 .088.096.032.128-.184.128-.672.56-1.392.928-.208.112-.336.288-.28.496.048.192.224.312.448.312.528 0 .968.016 1.376.04.128.008.24.024.352.032.048.008.104.008.144.016.016 0 .032.008.056.008.024.008.056.008.088.016.04.008.088.016.128.032.016.008.032.016.056.016h.008l.008.008v.008c.104.056.184.104.264.152.096.072.264.224.4.376.144.152.272.32.4.472.016.032.04.056.064.088.224.28.456.584.808.752h.016c.096.056.2.104.312.128.12.032.208.064.256.128.016.016.04.112.048.216.024.464-.016.864-.12 1.248-.024.088-.056.168-.088.248v.016s-.016.016-.016.024c-.008.016-.008.024-.016.04-.016.04-.04.08-.064.128-.032.064-.08.136-.12.2-.016.024-.04.056-.056.08l-.016.016s-.016.024-.024.032c0 .008-.016.024-.024.032-.096.104-.2.208-.32.304 0 0-.016.008-.032.024-.016 0-.032.024-.032.024-.032.024-.064.04-.088.064-.072.04-.136.08-.208.112-.056.032-.12.064-.184.088h-.016s-.024.016-.032.024c-.008 0-.016.008-.024.008-.04.016-.08.032-.12.04-.136.048-.28.096-.44.128-.064.008-.128.024-.192.032-.032.008-.064.016-.088.016h-.024s-.016.008-.024.008c0 0-.032 0-.04 0-.144.016-.296.024-.44.032-.112 0-.208.008-.312.064-.072.032-.136.08-.184.128-.096.088-.16.216-.184.336-.056.296.072.568.2.8.152.272.344.52.52.76l.016.016c.064.096.136.184.2.272.4.52.808 1.056 1.104 1.648.04.08.072.152.104.224l.016.04s.016.04.024.056c.016.04.024.08.04.12.024.08.048.16.064.24.008.024.016.056.024.08-.256.144-.52.28-.784.4zm6.128-7.192c-.184 1.016-.576 2.024-1.168 2.984-.544.88-1.256 1.696-2.128 2.424-.432.368-.92.712-1.44 1.032-.168-.632-.528-1.2-.864-1.68-.152-.224-.32-.44-.48-.648-.264-.336-.528-.68-.744-1.048-.032-.056-.064-.112-.088-.16-.008-.008-.016-.024-.016-.04-.008-.008-.016-.016-.016-.024s-.008-.008-.008-.016v-.016s-.024-.072-.04-.104v-.016c.048 0 .088 0 .128-.008h.056c.72-.048 1.352-.216 1.856-.496.632-.344 1.104-.92 1.328-1.608.128-.384.184-.832.176-1.32v-.072c0-.24-.008-.496-.136-.712-.12-.208-.336-.312-.528-.384-.032-.016-.072-.032-.112-.048s-.088-.032-.136-.048c-.016-.008-.032-.016-.048-.024-.024-.008-.04-.016-.064-.024-.048-.032-.088-.056-.128-.08-.104-.08-.216-.216-.312-.328h-.008c-.056-.088-.12-.168-.184-.24-.184-.24-.376-.48-.6-.696-.376-.36-.752-.544-1.152-.6-.272-.04-.784-.008-1.2-.008-.04 0-.12.008-.192.008-.032.008-.048-.04-.016-.056.24-.136.752-.464.88-.6.032-.032.08-.088.112-.12.32-.384.648-.424.84-.456.192-.024.376-.024.528-.024h.128c.24.008.48.008.728-.048.264-.056.512-.168.712-.32.488-.352.752-.896.928-1.328.16-.384.288-.76796.408-1.15996.056-.168.112-.336.16-.504.128-.368.232-.664.344-.936l.032-.08s.04-.072.056-.112c.032-.088.072-.168.112-.248.08-.16.16-.312.248-.448.088-.16.184-.304.288-.44.024-.04.048-.072.072-.112h.008s.032-.048.048-.064c.064-.08.128-.16.192-.232.128-.144.264-.272.4-.4.072-.064.144-.128.224-.192.048-.04.072-.056.08-.064.048-.04.096-.072.144-.104.056-.04.128-.096.216-.16.2-.144.48-.008.48.24v3.744c0 .81596 0 1.59196-.28 2.35996-.016.032-.024.064-.04.096 0 0 0 .008-.008.016 0 .008-.008.016-.008.016-.008.016-.016.04-.024.056-.032.072-.072.144-.104.216-.04.056-.072.12-.112.176-.016.024-.032.056-.056.08-.008.016-.016.032-.032.048l-.016.016v.016c-.088.096-.16.184-.24.256-.048.04-.088.08-.128.12-.016.008-.032.016-.04.032h-.008s-.016.016-.024.016c-.016.016-.024.024-.032.024-.08.064-.168.112-.256.16-.04.024-.088.048-.128.064-.008.008-.024.016-.032.016-.008.008-.016.008-.024.016 0 0-.008.008-.016.008-.128.048-.264.088-.408.12-.04.008-.08.016-.128.024h-.08c-.08.024-.152.072-.2.144-.056.08-.072.192-.048.288.04.152.192.248.344.24.04 0 .12-.008.152-.016.048-.008.104-.016.152-.024.168-.04.32-.088.464-.144.28-.12.456-.232.76-.464.424.728.632 1.808.632 2.432 0 .752-.04 1.312-.128 1.816z"/><path d="m14.0158 8.87224c.221 0 .4-.17909.4-.4 0-.22092-.179-.4-.4-.4-.2209 0-.4.17908-.4.4 0 .22091.1791.4.4.4z"/><path d="m17.456 16.2003c0 .176-.144.312-.32.312s-.312-.136-.312-.312.136-.32.312-.32.32.144.32.32z"/><path d="m16.8719 12.8563c0 .112-.096.208-.216.208-.112 0-.208-.096-.208-.208 0-.12.096-.216.208-.216.12 0 .216.096.216.216z"/></g></svg>