<svg fill="none" height="25" viewBox="0 0 25 25" width="25" xmlns="http://www.w3.org/2000/svg"><path d="m17.2745 17.4804c-2.2644 2.2193-4.7623 4.2034-7.45313 5.92 1.86763.4 3.80933.3379 5.64563-.1804 1.8362-.5183 3.5079-1.4762 4.8605-2.7851 1.3525-1.3089 2.3423-2.9267 2.8779-4.7037.5356-1.7771.5997-3.6561.1864-5.4635-1.7735 2.6042-3.8238 5.0215-6.1173 7.2127z" fill="#fcd900"/><path d="m3.07392 18.5956c.04819.0793.10326.1552.15489.2346-.00178.0079-.00178.0162 0 .0241l.15489.2242.04819.069.15144.207.15833.2035.03442.0414.19619.238.15489.1794.07573.0828c.05851.069.12046.1345.18586.2035l.20996.2139.2134.2104.18931.1794.08949.0759.92933-.345c2.40938-.8658 5.57946-3.1356 8.50856-6.0747 2.9291-2.939 5.2627-6.07123 6.1095-8.47214l.3442-.93138-.0551-.06209-.1515-.16558-.296-.30012-.1962-.19317-.1962-.18283c-.086-.07589-.1755-.15523-.265-.22767-.0895-.07245-.1445-.12419-.2203-.18628-.0129-.00724-.0245-.01656-.0344-.0276l-.1859-.14488-.0688-.05174-.2272-.16903-.1927-.13454h-.0172l-.1171-.08624v-.0138c-.0619-.04484-.1273-.08623-.1927-.12763-2.0175-1.28117-4.3902-1.88377-6.773-1.72011-2.38273.16365-4.65124 1.08501-6.47545 2.63003-1.8242 1.54502-3.10892 3.63309-3.66724 5.96042-.55833 2.32728-.36112 4.77248.56292 6.97968.23983.5764.52768 1.1314.86049 1.6593z" fill="#fcd900"/><path d="m22.9315 8.14247c.1181-.20135.2291-.39922.3471-.59362.1921-.34714.3691-.68734.5311-1.0206 1.305-2.70076 1.6001-4.85999.5692-5.901419-1.0308-1.041427-3.1828-.735942-5.8589.551959.2777.14927.5519.30895.8192.47558.4173.26363.8184.55229 1.2009.86439.4289-.02126.8544.08634 1.2218.30896.0677.04822.1326.10038.1943.15621l.0313.02777c.2343.24598.3891.55688.4442.89216.0364.18282.0527.36907.0486.55543-.0255.68856-.1663 1.36797-.4165 2.00995-.892 2.5272-3.2349 5.91186-6.4454 9.16106-3.2106 3.2493-6.63641 5.5543-9.15976 6.4465-.64105.2495-1.3189.3914-2.00618.42-.1885.0006-.37668-.0157-.56229-.0486-.33406-.0577-.64338-.2136-.88855-.4478l-.02777-.0312c-.0557-.0597-.10675-.1235-.15272-.191-.22527-.3676-.33416-.7948-.31238-1.2254-.31125-.3824-.59872-.7835-.86078-1.2011-.17355-.2661-.33321-.5404-.47899-.8227-1.287703 2.6799-1.572317 4.8287-.5484 5.8528 1.02392 1.0241 3.1967.7359 5.90054-.5693.34709-.1597.66988-.3472 1.01697-.5277.19437-.1076.39568-.2187.597-.3471 3.00811-1.8328 5.77701-4.032 8.24341-6.5471 2.5188-2.4662 4.7201-5.2369 6.553-8.24813z" fill="#fff"/></svg>