<svg fill="none" height="25" viewBox="0 0 26 25" width="26" xmlns="http://www.w3.org/2000/svg"><g fill="#fff"><path d="m18.2328 17.4804c-2.2643 2.2194-4.7623 4.2035-7.4531 5.92 1.8676.4 3.8093.338 5.6456-.1803s3.508-1.4762 4.8605-2.7851c1.3526-1.309 2.3424-2.9267 2.878-4.7038.5356-1.777.5997-3.6561.1863-5.4634-1.7735 2.6041-3.8238 5.0215-6.1173 7.2126z"/><path d="m4.03227 18.5956c.04818.0793.10325.1552.15488.2346-.00177.0079-.00177.0162 0 .0241l.15489.2242.04819.069.15145.207.15833.2035.03442.0414.19619.238.15489.1794.07572.0828c.05851.069.12047.1345.18587.2035l.20995.2139.21341.2104.1893.1794.0895.0759.92933-.345c2.40937-.8658 5.57941-3.1356 8.50851-6.0747 2.9291-2.939 5.2628-6.07123 6.1095-8.47214l.3442-.93138-.0551-.06209-.1514-.16558-.296-.30012-.1962-.19317-.1962-.18283c-.0861-.07589-.1756-.15523-.265-.22767-.0895-.07245-.1446-.12419-.2203-.18628-.0129-.00724-.0246-.01656-.0344-.0276l-.1859-.14488-.0689-.05174-.2271-.16903-.1928-.13454h-.0172l-.117-.08624v-.0138c-.062-.04484-.1274-.08623-.1928-.12763-2.0174-1.28117-4.3901-1.88377-6.7729-1.72011-2.3828.16365-4.6513 1.08501-6.4755 2.63003-1.82421 1.54502-3.10893 3.63309-3.66725 5.96042-.55832 2.32728-.36112 4.77248.56292 6.97968.23983.5764.52768 1.1314.8605 1.6593z"/><path d="m23.8899 8.14247c.118-.20135.2291-.39922.3471-.59362.192-.34714.3691-.68734.531-1.0206 1.3051-2.70076 1.6001-4.85999.5693-5.901419-1.0309-1.041427-3.1829-.735942-5.8589.551959.2776.14927.5518.30895.8191.47558.4174.26363.8184.55229 1.2009.86439.429-.02126.8545.08634 1.2218.30896.0678.04822.1327.10038.1944.15621l.0312.02777c.2344.24598.3892.55688.4443.89216.0363.18282.0526.36907.0486.55543-.0255.68856-.1663 1.36797-.4165 2.00995-.8921 2.5272-3.2349 5.91186-6.4455 9.16106-3.2106 3.2493-6.63637 5.5543-9.15972 6.4465-.64104.2495-1.31889.3914-2.00618.42-.1885.0006-.37667-.0157-.56229-.0486-.33406-.0577-.64337-.2136-.88855-.4478l-.02776-.0312c-.0557-.0597-.10676-.1235-.15272-.191-.22528-.3676-.33416-.7948-.31239-1.2254-.31124-.3823-.59871-.7835-.86078-1.2011-.17354-.2661-.33321-.5404-.47898-.8227-1.287709 2.6799-1.572323 4.8287-.54841 5.8528 1.02392 1.0241 3.19671.7359 5.90054-.5693.34709-.1597.66988-.3472 1.01697-.5277.19437-.1076.39569-.2187.597-.3471 3.00807-1.8328 5.77707-4.032 8.24337-6.5471 2.5188-2.4662 4.7202-5.2369 6.5531-8.24813z"/></g></svg>