<svg fill="none" height="30" viewBox="0 0 30 30" width="30" xmlns="http://www.w3.org/2000/svg"><path d="m15 3.00644c-2.3734 0-4.6935.70364-6.66685 2.02188-1.97339 1.31824-3.51145 3.19193-4.4197 5.38408-.90825 2.1922-1.14589 4.6043-.68287 6.9315.46303 2.3272 1.60592 4.4648 3.28415 6.1426s3.81637 2.8205 6.14417 3.2834 4.7406.2253 6.9333-.6828c2.1927-.908 4.0668-2.4456 5.3854-4.4185s2.0224-4.2924 2.0224-6.6652c0-3.1818-1.2643-6.23325-3.5147-8.48311-2.2505-2.24987-5.3027-3.51385-8.4853-3.51385zm1.3664 15.33016v2.3253c-.0231.3458-.1768.6698-.4299.9066-.2532.2367-.5868.3685-.9335.3685-.3466 0-.6803-.1318-.9334-.3685-.2531-.2368-.4068-.5608-.4299-.9066v-2.3253c-.4171-.2902-.7306-.706-.895-1.1867s-.171-1.0013-.0189-1.486.455-.9082.8646-1.2089.9045-.4629 1.4126-.4629c.5082 0 1.0031.1622 1.4127.4629.4095.3007.7124.7242.8645 1.2089s.1456 1.0053-.0188 1.486-.4779.8965-.895 1.1867zm3.0364-7.2492h-8.8239c-.1161 0-.2311-.0229-.3383-.0676-.1073-.0446-.2046-.11-.28645-.1924s-.14659-.1802-.19048-.2877c-.0439-.1075-.06608-.2226-.06528-.3387-.00081-.1542.04121-.30551.12143-.43716.12753-.1275.26118-.24891.40088-.37034 1.3378-1.14283 3.0415-1.76769 4.8012-1.761 1.7598.00668 3.4586.6445 4.7878 1.79746.1154.09714.2247.20036.334.30357.0931.14024.1418.30517.1397.47347.0001.2304-.0902.4516-.2514.6162-.1613.1646-.3806.2595-.6109.2642z" fill="#fff"/></svg>