<svg fill="none" height="30" viewBox="0 0 30 30" width="30" xmlns="http://www.w3.org/2000/svg"><g fill="#fff"><path d="m21.1176 9.11765c-1.0282 0-1.9929.26353-2.8352.72941h-1.9318c0-.40235-.3271-.72941-.7294-.72941h-.9388c-.4 0-.7295.32706-.7295.72706 0 .00235.0024.00235.0024.00235h-2.2353c-.8424-.46588-1.80941-.72941-2.83765-.72941-3.24706 0-5.88235 2.63295-5.88235 5.88235s2.63529 5.8824 5.88235 5.8824c3.24705 0 5.88235-2.633 5.88235-5.8824 0-.7176-.1294-1.4047-.3647-2.04h1.2c-.2353.6353-.3647 1.3224-.3647 2.04 0 3.2494 2.6353 5.8824 5.8823 5.8824 3.2471 0 5.8824-2.633 5.8824-5.8824s-2.6329-5.88235-5.8824-5.88235zm-7.7741 6.12475c-.0706 1.2823-.6753 2.407-1.5859 3.1741-.2611.2211-.5482.4117-.8541.567-.0047-.0117-.007-.0259-.0117-.04-.0024.0165-.0024.033-.0047.0494-.673.3412-1.44004.5153-2.2471.4706-.04235-.0023-.08-.007-.12-.0094-.40706-.0329-.79765-.1176-1.16471-.2541-.08941-.0306-.17882-.0659-.26353-.1035-.00235-.0518-.00705-.1012-.01176-.1506-.00706.0447-.01412.0894-.02118.1341-.32706-.1459-.63529-.3294-.91294-.5459-1.12-.8706-1.80941-2.2565-1.72706-3.7788.09883-1.8 1.24706-3.2918 2.81883-3.9129.58117-.2306 1.22117-.3436 1.88706-.3059 1.64469.0894 3.03289 1.0564 3.73409 2.4235.3506.6824.5294 1.4612.4847 2.2824zm10.6494 3.1741c-.2611.2211-.5482.4117-.8541.567-.0047-.0117-.007-.0259-.0117-.04-.0024.0165-.0024.033-.0047.0494-.673.3412-1.44.5153-2.2471.4706-.0424-.0023-.08-.007-.12-.0094-.4071-.0329-.7977-.1176-1.1647-.2541-.0894-.0306-.1788-.0659-.2635-.1035-.0024-.0518-.0071-.1012-.0118-.1506-.0071.0447-.0141.0894-.0212.1341-.327-.1459-.6353-.3294-.9129-.5459-1.12-.8706-1.8094-2.2565-1.7271-3.7788.0353-.6471.2071-1.2541.4871-1.7953.7788-1.5224 2.4023-2.5247 4.2188-2.4235.4941.0259.9671.1341 1.4047.3082 1.7388.6871 2.9224 2.4282 2.8141 4.3977-.0706 1.2823-.6753 2.407-1.5859 3.1741z"/><path d="m11.7694 12.96c-.6353-.9341-1.7106-1.5435-2.9247-1.5294-.59764.007-1.15764.1623-1.6447.4329-1.08941.6-1.82118 1.7647-1.80706 3.0965.02353 1.9271 1.60235 3.4706 3.52941 3.4494 1.92705-.0212 3.47295-1.6023 3.45175-3.5294-.0094-.7129-.2306-1.3718-.6047-1.92zm-2.9294 4.3929c-1.29883-.0258-2.33412-1.0964-2.30824-2.3976.01883-.9812.63294-1.8094 1.49412-2.1459h.00235c.27765-.1106.58118-.167.89883-.1623.06117 0 .12235.0047.18117.0094-.02117.0541-.03294.1129-.03294.1741 0 .0447.00706.0894.01883.1294.05647.1906.23294.3318.44235.3318s.38588-.1389.44-.3318c.00706-.0118.00941-.0259.01176-.0376.02357.0117.04467.0235.06587.0376.7224.4118 1.2 1.1953 1.1812 2.0824-.0235 1.3011-1.0965 2.3341-2.3953 2.3105z"/><path d="m22.8 11.8635c-.5082-.2823-1.0965-.44-1.72-.4329-1.1859.0141-2.2282.6165-2.8471 1.5294-.3906.5694-.6117 1.2588-.6047 2 .0236 1.9271 1.6024 3.4706 3.5294 3.4494 1.9271-.0212 3.473-1.6023 3.4518-3.5294-.0165-1.3035-.7435-2.4306-1.8094-3.0165zm-1.7247 5.4894c-1.2988-.0258-2.3341-1.0964-2.3082-2.3976.0164-.8565.4894-1.5977 1.1811-1.9953.3577-.2071.7718-.32 1.2141-.3129.0612 0 .1224.0047.1812.0094-.0212.0541-.0329.1129-.0329.1741 0 .0447.007.0894.0188.1294.0565.1906.2329.3318.4424.3318.2235 0 .4094-.1577.4517-.3694.7577.4023 1.2659 1.2047 1.2471 2.12-.0235 1.3011-1.0965 2.3341-2.3953 2.3105z"/></g></svg>