<?xml version="1.0" encoding="UTF-8"?><svg id="Layer_2" xmlns="http://www.w3.org/2000/svg" viewBox="0 0 32 32"><g id="Layer_1-2"><path d="M22.53,16.74s0-.07,0-.1c-.01-.03-.03-.06-.05-.09-.02-.03-.05-.05-.08-.06-.03-.02-.06-.02-.1-.03-.29-.01-.58,0-.87.03-.13.02-.26-.02-.37-.09-.11-.08-.18-.19-.21-.32-.01-.07-.01-.14,0-.21.02-.07.05-.13.09-.19.04-.06.09-.1.16-.14.06-.03.13-.06.2-.06.32-.04.64-.05.96-.04.04,0,.07,0,.11-.02.03-.01.06-.03.09-.06.02-.03.04-.06.06-.09.01-.03.02-.07.01-.11-.18-1.44-.84-2.79-1.87-3.81s-2.37-1.69-3.81-1.87c-.04,0-.07,0-.11.01-.03.01-.07.03-.09.06-.03.02-.05.06-.06.09-.01.03-.02.07-.02.11.01.31,0,.63-.03.94-.01.12-.07.24-.16.33-.09.09-.21.14-.34.14-.07,0-.14-.01-.21-.04-.07-.03-.12-.07-.17-.12-.05-.05-.08-.12-.11-.18-.02-.07-.03-.14-.02-.21.03-.29.04-.59.03-.88,0-.03-.01-.07-.03-.1-.02-.03-.04-.06-.06-.08-.03-.02-.06-.04-.09-.05-.03-.01-.07-.01-.1,0-1.48.17-2.85.83-3.9,1.88s-1.71,2.43-1.88,3.9c0,.03,0,.07,0,.1.01.03.03.06.05.09.02.03.05.05.08.06.03.02.06.02.1.03.29.01.58,0,.87-.03.13-.02.26.02.37.09.11.08.18.19.21.32.01.07.01.14,0,.21-.02.07-.05.13-.09.19-.04.06-.09.1-.15.14-.06.03-.13.06-.2.06-.32.04-.64.05-.96.04-.04,0-.07,0-.11.02-.03.01-.06.03-.09.06-.02.03-.04.06-.06.09-.01.03-.02.07-.01.11.18,1.44.84,2.79,1.87,3.81s2.37,1.69,3.81,1.87c.04,0,.07,0,.11-.01.03-.01.07-.03.09-.06.03-.02.05-.06.06-.09.01-.03.02-.07.02-.11-.01-.32,0-.64.04-.96,0-.07.03-.14.06-.2.03-.06.08-.11.14-.15.06-.04.12-.07.19-.09.07-.02.14-.02.21,0,.13.03.24.1.32.21.08.11.11.24.09.37-.03.29-.04.58-.03.87,0,.03.01.07.03.1.02.03.04.06.06.08.03.02.06.04.09.05.03.01.07.01.1,0,1.48-.17,2.85-.83,3.9-1.88s1.71-2.43,1.88-3.9h0ZM15.71,12.16c.11.07.2.17.23.3.04.12.03.26-.03.38-.16.33-.34.64-.56.94-.04.06-.1.12-.16.16-.06.04-.14.06-.21.07-.07,0-.15,0-.22-.03-.07-.03-.14-.07-.19-.12-.09-.09-.14-.21-.15-.34,0-.13.04-.25.12-.35.18-.22.35-.45.43-.72.02-.07.06-.14.11-.2.05-.06.11-.1.18-.13.07-.03.15-.04.22-.04.08,0,.15.03.22.06ZM13.78,15.35c-.3.22-.63.4-.96.57-.06.03-.14.05-.21.05-.07,0-.14-.01-.21-.04-.07-.03-.13-.07-.17-.12-.05-.05-.09-.12-.11-.18-.04-.12-.03-.25.02-.36.05-.11.14-.21.26-.26.28-.14.55-.3.81-.48.06-.04.12-.07.2-.08.07-.01.14-.01.21,0,.07.02.14.05.19.09.06.04.1.1.14.16.06.11.07.24.04.36-.03.12-.1.23-.21.3ZM16.39,19.88c-.07-.02-.13-.06-.18-.11-.05-.05-.1-.11-.12-.17-.03-.07-.04-.14-.04-.21,0-.07.02-.14.05-.21.16-.34.35-.66.57-.96.07-.1.18-.18.3-.21.12-.03.25-.02.36.04.06.03.12.08.16.14.04.06.07.12.09.19.02.07.02.14,0,.21-.01.07-.04.14-.08.2-.18.26-.34.52-.48.81-.05.11-.14.21-.26.26-.11.05-.24.06-.36.02ZM19.55,17.03c-.27.08-.5.25-.72.43-.06.05-.12.08-.2.1-.07.02-.15.02-.22,0-.07-.01-.14-.04-.2-.09-.06-.04-.11-.1-.15-.17-.06-.11-.08-.24-.05-.36.03-.12.1-.23.21-.3.3-.21.61-.4.94-.56.12-.06.25-.07.38-.03.13.04.23.12.3.23.04.07.06.14.06.22,0,.08,0,.15-.04.22-.03.07-.07.13-.13.18-.06.05-.12.09-.2.11Z" fill="#fff" stroke-width="0"/><path d="M30.86,14.86h-1.19c-.27-3.23-1.68-6.26-3.97-8.55s-5.32-3.7-8.55-3.97v-1.19c0-.3-.12-.59-.33-.81-.21-.21-.51-.33-.81-.33s-.59.12-.81.33c-.21.21-.33.51-.33.81v1.19c-3.23.27-6.26,1.68-8.55,3.97s-3.7,5.32-3.97,8.55h-1.19c-.3,0-.59.12-.81.33-.21.21-.33.51-.33.81s.12.59.33.81c.21.21.51.33.81.33h1.19c.27,3.23,1.68,6.26,3.97,8.55,2.29,2.29,5.32,3.7,8.55,3.97v1.19c0,.3.12.59.33.81.21.21.51.33.81.33s.59-.12.81-.33.33-.51.33-.81v-1.19c3.23-.27,6.26-1.68,8.55-3.97,2.29-2.29,3.7-5.32,3.97-8.55h1.19c.3,0,.59-.12.81-.33.21-.21.33-.51.33-.81s-.12-.59-.33-.81c-.21-.21-.51-.33-.81-.33ZM26.29,17.14h1.09c-.27,2.62-1.43,5.07-3.29,6.93-1.86,1.86-4.31,3.03-6.93,3.29v-1.09c0-.3-.12-.59-.33-.81-.21-.21-.51-.33-.81-.33s-.59.12-.81.33c-.21.21-.33.51-.33.81v1.09c-2.62-.27-5.07-1.43-6.93-3.29-1.86-1.86-3.03-4.31-3.29-6.93h1.09c.3,0,.59-.12.81-.33.21-.21.33-.51.33-.81s-.12-.59-.33-.81-.51-.33-.81-.33h-1.09c.27-2.62,1.43-5.07,3.29-6.93,1.86-1.86,4.31-3.03,6.93-3.29v1.09c0,.3.12.59.33.81.21.21.51.33.81.33s.59-.12.81-.33c.21-.21.33-.51.33-.81v-1.09c2.62.27,5.07,1.43,6.93,3.29,1.86,1.86,3.03,4.31,3.29,6.93h-1.09c-.3,0-.59.12-.81.33-.21.21-.33.51-.33.81s.12.59.33.81c.21.21.51.33.81.33Z" fill="#fff" stroke-width="0"/></g></svg>