<svg fill="none" height="30" viewBox="0 0 30 30" width="30" xmlns="http://www.w3.org/2000/svg"><path clip-rule="evenodd" d="m12.413 12.8272c-1.0098-2.729-3.52617-8.4178-7.22804-9.8272 2.40974 2.65962 5.98484 7.937 7.22804 9.8272zm.9492 3.9959c.4311-2.8483.1777-6.2869-.3727-8.4436-.299-1.17447-1.3578-2.50005-2.3375-2.91443 1.2841 3.64441 2.3863 8.83423 2.7102 11.35803zm-.488 2.8627c2.3061-2.9683 4.12-6.4555 4.12-8.9599 0-1.30884-.9376-2.2224-2.16-2.91658.024 2.72138-.9187 9.10278-1.96 11.87648zm-7.56214 7.3142c5.40484-1.808 13.24004-6.0205 18.68934-9.784.4573-.3146.8136-.607.8136-1.1183 0-.8892-1.6284-2.081-2.4186-2.5556-4.2878 4.4572-12.82151 11.1359-17.08434 13.4579zm14.82674-12.7834c-1.6386 2.3585-6.4803 6.6934-9.8131 8.9973 2.3625-2.4619 6.6624-8.0785 8.5761-12.589.7988.4854 1.9092 1.1825 1.9092 2.1346 0 .5097-.2203.8197-.5354 1.2631v.0001c-.0439.0617-.0896.126-.1368.1939z" fill="#fff" fill-rule="evenodd"/></svg>