<svg fill="none" height="31" viewBox="0 0 30 31" width="30" xmlns="http://www.w3.org/2000/svg"><g fill="#fff"><path d="m13.9028 12.5751c-.5885-.1133-1.1839-.1835-1.7825-.2107l-.7663-.4183c.8245.0582 1.6446.1696 2.4545.3329z"/><path d="m15 4.09965c-6.80743 0-12 1.98756-12 1.98756s2.14955 12.02529 12 20.93549c9.8498-8.9102 12-20.93549 12-20.93549s-5.1926-1.98756-12-1.98756zm5.9614 11.15205-1.7414-.3018c.3176.3518.4613.6967.3835 1.0023-.007.0228-.0152.0449-.0247.0665l1.8325.9175c-.1025.1797-.2063.3594-.3132.5391l-1.9667-.9859c-.5992.3367-1.6958.4493-3.0215.3152l1.2573 2.912c.8657.0443 1.663.0152 2.3615-.0835-1.3807 2.0369-2.9651 3.9283-4.7287 5.6444-2.6545-2.571-4.6889-5.3761-6.23539-8.0344 1.25729.7251 2.84939 1.3744 4.62939 1.8382.903.236 1.8205.4126 2.7469.5277l-.9321-2.9285c-.3955-.0689-.8074-.1569-1.225-.2657-1.2276-.3196-2.3166-.7638-3.1386-1.2453l-2.82917.7302c-.08036-.1512-.15756-.3006-.23476-.4499l2.53493-.6214c-.75176-.5385-1.15105-1.0972-1.03208-1.5655.00316-.012.00822-.0234.01139-.0354l-2.73613-.4752c-.01456.0107-.02785.0221-.0424.0329-1.0966-2.5368-1.71673-4.64526-2.02236-5.84627 1.80468-.54862 5.76838-1.5579 10.50538-1.5579s8.7058 1.00801 10.506 1.55726c-.4315 1.69395-1.4895 5.19571-3.6321 9.16451-.2766-.3119-.5822-.5973-.9125-.8511z"/><path d="m18.2342 15.2447c-.1354.5328-1.1719.7505-2.5362.6063l-.4897-1.1346c.5802.0493 1.0168-.0475 1.089-.274l1.8376.3189c.1006.1696.1379.3328.0993.4834z"/><path d="m20.0117 14.5968-1.5168-.2639c-.4448-.3005-.9162-.56-1.4079-.7745l.5512-.143c.8226.3272 1.6167.722 2.3735 1.1814z"/><path d="m14.1241 13.2705c-.4929-.0588-.901-.0183-1.1004.1126l-1.9787-.3436c.4449-.3771 1.5763-.4714 2.9279-.2417z"/><path d="m14.9076 15.732c-.2266-.043-.4575-.0949-.6917-.1557-1.8774-.4891-3.3005-1.3839-3.3708-2.0806l2.1787.3791c.2379.2626.7713.5391 1.4225.7081.0348.0088.0689.017.1018.0246z"/><path d="m11.2299 12.3726c-.6942.0462-1.24974.1885-1.58955.4233l-2.38873-.4138c.79034-.3177 1.87175-.4784 3.13158-.4715z"/><path d="m15 9.30615v3.24615l.0551.0133c.6909.1797 1.3528.3885 1.9786.6176l-.5327.131c-.4911-.1899-.9922-.3525-1.501-.4879v.2006c1.0637.2904 1.9736.7087 2.5564 1.1434l-1.6351-.2835c-.2303-.1575-.5505-.3069-.9213-.4239v.2695c.3012.1285.4936.2898.4619.4094-.0424.1608-.4701.1854-.9561.0551-.4853-.131-.8448-.3664-.8024-.5265.0317-.1208.2804-.1645.6081-.124v-.9087l-.1208-.279c.0398.0082.0803.0183.1208.0272v-5.04326h.6885c1.5927 0 1.2168.58912 3.2493.58912 0 0-.7188 1.04724-1.7863 1.04724s-1.1624.09808-1.463.32715z"/></g></svg>