<svg fill="none" height="30" viewBox="0 0 30 30" width="30" xmlns="http://www.w3.org/2000/svg"><path d="m15 3.00024c-2.3734 0-4.6934.70379-6.66684 2.02237-1.97339 1.31858-3.51146 3.19272-4.41971 5.38539-.90825 2.1928-1.14589 4.6056-.68287 6.9333.46302 2.3278 1.60591 4.466 3.28414 6.1442 1.67823 1.6783 3.81638 2.8211 6.14418 3.2842 2.3278.463 4.7406.2253 6.9333-.6829 2.1927-.9083 4.0669-2.4463 5.3854-4.4197 1.3186-1.9734 2.0224-4.2935 2.0224-6.6669-.0035-3.1815-1.2689-6.23167-3.5186-8.48134s-5.2999-3.51509-8.4814-3.51862zm0 21.33336c-1.846 0-3.6505-.5474-5.18532-1.573-1.53486-1.0255-2.73113-2.4832-3.43755-4.1886-.70642-1.7055-.89125-3.5821-.53112-5.3926s1.24904-3.47353 2.55433-4.77882 2.96836-2.1942 4.77886-2.55433c1.8104-.36013 3.6871-.1753 5.3925.53112 1.7055.70642 3.1631 1.90269 4.1887 3.43755 1.0255 1.53488 1.5729 3.33938 1.5729 5.18528-.0026 2.4746-.9868 4.847-2.7366 6.5968-1.7497 1.7497-4.1222 2.7339-6.5967 2.7366zm5.3878-8.4989c.2505.2505.3912.5902.3912.9444 0 .3543-.1407.694-.3912.9445s-.5902.3912-.9445.3912c-.3542 0-.6939-.1407-.9444-.3912l-3.4989-3.5011-3.5011 3.4989c-.2505.2504-.5902.3912-.9445.3912-.3542 0-.69391-.1408-.9444-.3912-.25048-.2505-.3912-.5903-.3912-.9445s.14072-.694.3912-.9444l4.4444-4.4445c.1239-.1243.2711-.2229.4332-.2902.162-.0673.3358-.1019.5113-.1019s.3492.0346.5113.1019.3093.1659.4331.2902z" fill="#fff"/></svg>